<?xml version="1.0" encoding="UTF-8" standalone="no"?>
<!-- Created with Inkscape (http://www.inkscape.org/) -->

<svg
   width="180mm"
   height="80.577003mm"
   viewBox="0 0 180 80.577003"
   version="1.1"
   id="svg5"
   inkscape:version="1.2 (dc2aedaf03, 2022-05-15)"
   sodipodi:docname="logo.svg"
   xmlns:inkscape="http://www.inkscape.org/namespaces/inkscape"
   xmlns:sodipodi="http://sodipodi.sourceforge.net/DTD/sodipodi-0.dtd"
   xmlns="http://www.w3.org/2000/svg"
   xmlns:svg="http://www.w3.org/2000/svg">
  <sodipodi:namedview
     id="namedview7"
     pagecolor="#ffffff"
     bordercolor="#666666"
     borderopacity="1.0"
     inkscape:showpageshadow="2"
     inkscape:pageopacity="0.0"
     inkscape:pagecheckerboard="0"
     inkscape:deskcolor="#d1d1d1"
     inkscape:document-units="mm"
     showgrid="false"
     inkscape:zoom="7.319248"
     inkscape:cx="61.3451"
     inkscape:cy="100.01027"
     inkscape:window-width="2560"
     inkscape:window-height="1369"
     inkscape:window-x="-8"
     inkscape:window-y="-8"
     inkscape:window-maximized="1"
     inkscape:current-layer="text584" />
  <defs
     id="defs2" />
  <g
     inkscape:label="Layer 1"
     inkscape:groupmode="layer"
     id="layer1">
    <g
       aria-label="FLATBOX"
       transform="matrix(0.78615427,-0.10582531,0.92321947,1.1477391,0,0)"
       id="text1291"
       style="font-size:15.9356px;line-height:1.25;font-family:'Dela Gothic One';-inkscape-font-specification:'Dela Gothic One, Normal';stroke-width:0.398389">
      <g
         id="g1440"
         transform="matrix(0.16596978,0,0,0.16596978,0.01356316,-0.55980098)">
        <ellipse
           style="fill:#000000;stroke:none;stroke-width:0.282489"
           id="path61"
           cx="8.013031"
           cy="45.085285"
           rx="12.934044"
           ry="10.134872"
           transform="matrix(1.1477391,0.10582531,-0.65466656,0.79051186,0,0)" />
        <ellipse
           style="fill:#000000;stroke:none;stroke-width:0.282489"
           id="path61-6"
           cx="37.432072"
           cy="41.753849"
           rx="12.934044"
           ry="10.134872"
           transform="matrix(1.1477391,0.10582531,-0.65466656,0.79051186,0,0)" />
        <ellipse
           style="fill:#000000;stroke:none;stroke-width:0.282489"
           id="path61-6-4"
           cx="64.415283"
           cy="46.047688"
           rx="12.934044"
           ry="10.134872"
           transform="matrix(1.1477391,0.10582531,-0.65466656,0.79051186,0,0)" />
        <ellipse
           style="fill:#000000;stroke:none;stroke-width:0.282489"
           id="path61-6-4-0"
           cx="95.072113"
           cy="47.380253"
           rx="12.934044"
           ry="10.134872"
           transform="matrix(1.1477391,0.10582531,-0.65466656,0.79051186,0,0)" />
        <ellipse
           style="fill:#000000;stroke:none;stroke-width:0.266918"
           id="path61-6-4-0-6"
           cx="80.109474"
           cy="27.539774"
           rx="12.221125"
           ry="9.5762424"
           transform="matrix(1.1477391,0.10582531,-0.65466656,0.79051186,0,0)" />
        <ellipse
           style="fill:#000000;stroke:none;stroke-width:0.241076"
           id="path61-6-4-0-6-4"
           cx="101.63803"
           cy="16.644854"
           rx="11.436913"
           ry="8.3473234"
           transform="matrix(1.1477391,0.10582531,-0.6331447,0.78933873,0,0)" />
        <ellipse
           style="fill:#000000;stroke:none;stroke-width:0.241076"
           id="path61-6-4-0-6-4-8"
           cx="116.71201"
           cy="34.330017"
           rx="11.436913"
           ry="8.3473234"
           transform="matrix(1.1477391,0.10582531,-0.6331447,0.78933873,0,0)" />
        <ellipse
           style="fill:#000000;stroke:none;stroke-width:0.241076"
           id="path61-6-4-0-6-4-8-7"
           cx="142.06827"
           cy="29.72296"
           rx="11.436913"
           ry="8.3473234"
           transform="matrix(1.1477391,0.10582531,-0.6331447,0.78933873,0,0)" />
        <ellipse
           style="fill:#000000;stroke:none;stroke-width:0.224015"
           id="path61-6-4-0-6-4-8-7-3"
           cx="151.72435"
           cy="11.492533"
           rx="11.009161"
           ry="7.4876852"
           transform="matrix(1.1477391,0.10582531,-0.60991716,0.78785182,0,0)" />
        <ellipse
           style="fill:#000000;stroke:none;stroke-width:0.224015"
           id="path61-6-4-0-6-4-8-7-3-9"
           cx="165.76633"
           cy="27.761179"
           rx="11.009161"
           ry="7.4876852"
           transform="matrix(1.1477391,0.10582531,-0.60991716,0.78785182,0,0)" />
        <ellipse
           style="fill:#000000;stroke:none;stroke-width:0.233097"
           id="path61-6-4-0-6-4-9"
           cx="126.592"
           cy="12.748259"
           rx="11.365621"
           ry="7.8528519"
           transform="matrix(1.1477391,0.10582531,-0.61527071,0.78821457,0,0)" />
        <ellipse
           style="fill:#000000;stroke:none;stroke-width:0.352101"
           id="path61-6-4-9"
           cx="94.940407"
           cy="73.947296"
           rx="15.928307"
           ry="12.785426"
           transform="matrix(1.1477391,0.10582531,-0.66157236,0.7908458,0,0)" />
        <path
           d="m -48.248279,57.952795 h -8.668967 v 1.673238 q 0.812716,0.01593 2.438147,0.01593 2.804666,0 5.704945,-0.09561 v 3.123378 q -2.900279,-0.11155 -6.119271,-0.11155 -1.33859,0 -2.023821,0.01594 v 3.967961 h -3.760801 q 0.127484,-3.0915 0.127484,-5.78462 0,-2.693116 -0.127484,-5.784622 h 12.429768 z"
           id="path1347" />
        <path
           d="m -43.085135,63.32309 q 4.621324,-0.0319 7.649088,-0.159354 -0.207163,0.812714 -0.254969,1.561684 -0.04781,0.74898 -0.04781,1.81666 h -11.234598 q 0.127484,-3.0915 0.127484,-5.78462 0,-2.693116 -0.127484,-5.784622 h 3.888286 z"
           id="path1349" />
        <path
           d="m -24.105823,66.54208 q -0.302776,-0.90833 -0.812715,-2.27879 h -5.083457 l -0.79678,2.27879 h -3.999836 l 4.461969,-11.569242 h 5.8643 l 4.49384,11.569242 z m -1.721045,-4.764741 q -0.605552,-1.673238 -1.242976,-3.346476 l -0.382455,-1.035814 q -0.557746,1.450139 -1.641367,4.38229 z"
           id="path1351" />
        <path
           d="m -6.4013458,58.319314 q -2.50189,-0.07968 -4.8603592,-0.09561 v 8.31838 h -3.9839 v -8.31838 q -2.374404,0.01594 -4.844422,0.09561 v -3.346476 h 13.6886812 z"
           id="path1353" />
        <path
           d="m 4.2117472,60.789332 q 3.633317,0 3.633317,2.310662 0,1.083616 -0.494004,1.848526 -0.494003,0.74898 -1.768851,1.17924 -1.274848,0.41432 -3.537704,0.41432 h -7.17102 q 0.127485,-3.0915 0.127485,-5.78462 0,-2.693116 -0.127485,-5.784622 h 3.744866 v 0.01593 h 3.394283 q 1.976015,0 3.107442,0.334648 1.147363,0.318712 1.609496,0.9402 0.478068,0.621489 0.478068,1.577625 0,0.972071 -0.685231,1.73698 -0.669295,0.748973 -2.310662,1.211106 z m -5.593396,-2.90028 v 1.482011 h 3.059636 q 0.988007,0 1.370461,-0.175291 0.39839,-0.175292 0.39839,-0.637424 0,-0.366519 -0.414325,-0.50994 -0.39839,-0.159356 -1.354526,-0.159356 z m 3.059636,5.736818 q 0.828651,0 1.258912,-0.0637 0.446197,-0.0797 0.637424,-0.25497 0.191227,-0.191231 0.191227,-0.509943 0,-0.414325 -0.462132,-0.589617 -0.446197,-0.191227 -1.625431,-0.191227 h -3.059636 v 1.609497 z"
           id="path1355" />
        <path
           d="m 16.211238,66.70144 q -3.649253,0 -5.370298,-1.57763 -1.7210438,-1.59356 -1.7210438,-4.461963 0,-2.836537 1.7051088,-4.430097 1.721045,-1.59356 5.386233,-1.59356 3.681124,0 5.386233,1.59356 1.721045,1.59356 1.721045,4.430097 0,2.884343 -1.705109,4.461963 -1.70511,1.57763 -5.402169,1.57763 z m 0,-3.25086 q 1.768852,0 2.549696,-0.669298 0.780844,-0.685231 0.780844,-2.119435 0,-1.402333 -0.780844,-2.087564 -0.780844,-0.685231 -2.549696,-0.685231 -1.752916,0 -2.533761,0.685231 -0.780844,0.685231 -0.780844,2.087564 0,1.418268 0.780844,2.103499 0.780845,0.685234 2.533761,0.685234 z"
           id="path1357" />
        <path
           d="m 32.162799,60.61404 4.653195,5.92804 h -4.605388 l -2.294727,-3.12337 -2.310662,3.12337 h -4.605388 l 4.653195,-5.92804 -4.493839,-5.641202 h 4.605388 l 2.151306,2.868408 2.135371,-2.868408 h 4.605388 z"
           id="path1359" />
        <ellipse
           style="font-size:15.9356px;line-height:1.25;font-family:'Dela Gothic One';-inkscape-font-specification:'Dela Gothic One, Normal';fill:#000000;stroke:none;stroke-width:0.307256"
           id="path61-1"
           cx="-19.36326"
           cy="164.6489"
           rx="14.907876"
           ry="10.402434"
           transform="matrix(0.99577619,0.09181383,-0.6378278,0.770179,0,0)" />
        <ellipse
           style="font-size:15.9356px;line-height:1.25;font-family:'Dela Gothic One';-inkscape-font-specification:'Dela Gothic One, Normal';fill:#000000;stroke:none;stroke-width:0.307256"
           id="path61-6-1"
           cx="14.545345"
           cy="161.22951"
           rx="14.907876"
           ry="10.402434"
           transform="matrix(0.99577619,0.09181383,-0.6378278,0.770179,0,0)" />
        <ellipse
           style="font-size:15.9356px;line-height:1.25;font-family:'Dela Gothic One';-inkscape-font-specification:'Dela Gothic One, Normal';fill:#000000;stroke:none;stroke-width:0.307256"
           id="path61-6-4-04"
           cx="45.646389"
           cy="165.63672"
           rx="14.907876"
           ry="10.402434"
           transform="matrix(0.99577619,0.09181383,-0.6378278,0.770179,0,0)" />
        <ellipse
           style="font-size:15.9356px;line-height:1.25;font-family:'Dela Gothic One';-inkscape-font-specification:'Dela Gothic One, Normal';fill:#000000;stroke:none;stroke-width:0.307256"
           id="path61-6-4-0-69"
           cx="80.981689"
           cy="167.00446"
           rx="14.907876"
           ry="10.402434"
           transform="matrix(0.99577619,0.09181383,-0.6378278,0.770179,0,0)" />
        <ellipse
           style="font-size:15.9356px;line-height:1.25;font-family:'Dela Gothic One';-inkscape-font-specification:'Dela Gothic One, Normal';fill:#000000;stroke:none;stroke-width:0.29032"
           id="path61-6-4-0-6-40"
           cx="63.735638"
           cy="146.64018"
           rx="14.08616"
           ry="9.8290567"
           transform="matrix(0.99577619,0.09181383,-0.6378278,0.770179,0,0)" />
        <ellipse
           style="font-size:15.9356px;line-height:1.25;font-family:'Dela Gothic One';-inkscape-font-specification:'Dela Gothic One, Normal';fill:#000000;stroke:none;stroke-width:0.260353"
           id="path61-6-4-0-6-4-93"
           cx="86.330139"
           cy="133.97778"
           rx="13.182271"
           ry="8.4466"
           transform="matrix(0.99577619,0.09181383,-0.62570309,0.78006131,0,0)" />
        <ellipse
           style="font-size:15.9356px;line-height:1.25;font-family:'Dela Gothic One';-inkscape-font-specification:'Dela Gothic One, Normal';fill:#000000;stroke:none;stroke-width:0.260353"
           id="path61-6-4-0-6-4-8-5"
           cx="103.70451"
           cy="151.87328"
           rx="13.182271"
           ry="8.4466"
           transform="matrix(0.99577619,0.09181383,-0.62570309,0.78006131,0,0)" />
        <ellipse
           style="font-size:15.9356px;line-height:1.25;font-family:'Dela Gothic One';-inkscape-font-specification:'Dela Gothic One, Normal';fill:#000000;stroke:none;stroke-width:0.260353"
           id="path61-6-4-0-6-4-8-7-7"
           cx="132.93031"
           cy="147.21143"
           rx="13.182271"
           ry="8.4466"
           transform="matrix(0.99577619,0.09181383,-0.62570309,0.78006131,0,0)" />
        <ellipse
           style="font-size:15.9356px;line-height:1.25;font-family:'Dela Gothic One';-inkscape-font-specification:'Dela Gothic One, Normal';fill:#000000;stroke:none;stroke-width:0.240062"
           id="path61-6-4-0-6-4-8-7-3-3"
           cx="141.6646"
           cy="127.28185"
           rx="12.689241"
           ry="7.4603405"
           transform="matrix(0.99577619,0.09181383,-0.61215271,0.79073956,0,0)" />
        <ellipse
           style="font-size:15.9356px;line-height:1.25;font-family:'Dela Gothic One';-inkscape-font-specification:'Dela Gothic One, Normal';fill:#000000;stroke:none;stroke-width:0.240062"
           id="path61-6-4-0-6-4-8-7-3-9-6"
           cx="157.84947"
           cy="143.49109"
           rx="12.689241"
           ry="7.4603405"
           transform="matrix(0.99577619,0.09181383,-0.61215271,0.79073956,0,0)" />
        <ellipse
           style="font-size:15.9356px;line-height:1.25;font-family:'Dela Gothic One';-inkscape-font-specification:'Dela Gothic One, Normal';fill:#000000;stroke:none;stroke-width:0.250242"
           id="path61-6-4-0-6-4-9-5"
           cx="113.2491"
           cy="128.87599"
           rx="13.1001"
           ry="7.8522248"
           transform="matrix(0.99577619,0.09181383,-0.61531986,0.78827753,0,0)" />
        <ellipse
           style="font-size:15.9356px;line-height:1.25;font-family:'Dela Gothic One';-inkscape-font-specification:'Dela Gothic One, Normal';fill:#000000;stroke:none;stroke-width:0.383842"
           id="path61-6-4-9-0"
           cx="81.542389"
           cy="195.02216"
           rx="18.359085"
           ry="13.18273"
           transform="matrix(0.99577619,0.09181383,-0.64163377,0.76701115,0,0)" />
        <g
           aria-label="FLATBOX"
           transform="matrix(1.2799463,-0.02053707,-0.28103276,0.78579202,0,0)"
           id="text584"
           style="font-size:15.7526px;font-family:'Shippori Antique';-inkscape-font-specification:'Shippori Antique, Normal';stroke-width:0.156891">
          <path
             d="m -78.674798,182.61851 v 1.51225 h -7.135928 v 3.27654 h 4.584006 v 1.51225 h -4.584006 v 5.22986 h -1.717034 v -11.5309 z"
             id="path675" />
          <path
             d="m -75.240739,182.60276 v 10.01865 h 7.766032 v 1.528 h -9.483065 v -11.54665 z"
             id="path677" />
          <path
             d="m -55.943794,194.14941 h -2.016333 l -1.228703,-3.43406 h -4.568254 l -1.228702,3.43406 h -2.016333 l 4.42648,-11.54665 h 2.205364 z m -5.529163,-9.82962 -1.732786,4.86756 h 3.465572 z"
             id="path679" />
          <path
             d="m -45.547082,182.60276 v 1.51225 h -4.127181 v 10.0344 h -1.717034 v -10.0344 h -4.127181 v -1.51225 z"
             id="path681" />
          <path
             d="m -35.591435,188.13192 q 0.866393,0.2678 1.433487,0.9294 0.567093,0.66161 0.567093,1.71704 0,3.37105 -3.843634,3.37105 h -6.285287 v -11.54665 h 5.702441 q 1.984828,0 3.040252,0.67736 1.071176,0.66161 1.071176,2.31563 0,0.75613 -0.409567,1.51225 -0.409568,0.74037 -1.275961,1.02392 z m -2.4259,-4.00116 q -0.330805,-0.0157 -3.985408,-0.0157 v 3.29229 h 3.985408 q 1.370476,0 1.795796,-0.44107 0.441073,-0.44107 0.441073,-1.1972 0,-0.69311 -0.330804,-1.03967 -0.330805,-0.36231 -0.78763,-0.45683 -0.456826,-0.11026 -1.118435,-0.14177 z m -0.283547,8.5064 q 0.834888,0 1.401982,-0.0945 0.582846,-0.0945 0.992413,-0.50408 0.425321,-0.40957 0.425321,-1.26021 0,-0.85064 -0.409568,-1.26021 -0.409568,-0.40957 -0.929403,-0.50408 -0.519836,-0.0945 -1.197198,-0.0945 h -3.985408 v 3.71761 z"
             id="path683" />
          <path
             d="m -26.533691,194.33845 q -1.780044,0 -3.056005,-0.77188 -1.27596,-0.77188 -1.93757,-2.1266 -0.661609,-1.35473 -0.661609,-3.07176 0,-1.71703 0.661609,-3.056 0.66161,-1.35473 1.93757,-2.12661 1.275961,-0.77187 3.056005,-0.77187 1.780043,0 3.056004,0.77187 1.291713,0.77188 1.953322,2.12661 0.661609,1.33897 0.661609,3.056 0,1.71703 -0.661609,3.07176 -0.661609,1.35472 -1.937569,2.1266 -1.275961,0.77188 -3.071757,0.77188 z m 0,-1.55951 q 1.307465,0 2.158106,-0.61435 0.866393,-0.61435 1.27596,-1.60677 0.409568,-1.00817 0.409568,-2.18961 0,-1.16569 -0.409568,-2.15811 -0.409567,-1.00816 -1.27596,-1.62251 -0.850641,-0.61436 -2.158106,-0.61436 -1.291714,0 -2.158107,0.61436 -0.866393,0.61435 -1.27596,1.62251 -0.393815,0.99242 -0.393815,2.15811 0,1.18144 0.393815,2.18961 0.409567,0.99242 1.27596,1.60677 0.866393,0.61435 2.158107,0.61435 z"
             id="path685" />
          <path
             d="m -13.41177,188.10042 4.1901916,6.04899 h -2.0478376 l -3.182025,-4.5525 -3.166273,4.5525 h -2.095096 l 4.221697,-6.03324 -3.859387,-5.51341 h 2.110848 l 2.788211,4.01691 2.803962,-4.01691 h 2.0478382 z"
             id="path687" />
        </g>
      </g>
    </g>
  </g>
</svg>
