<?xml version="1.0" encoding="UTF-8" standalone="no"?>
<!-- Created with Inkscape (http://www.inkscape.org/) -->

<svg
   width="29.743999mm"
   height="13.43mm"
   viewBox="0 0 29.743999 13.43"
   version="1.1"
   id="svg5"
   inkscape:version="1.2 (dc2aedaf03, 2022-05-15)"
   sodipodi:docname="logo.svg"
   xmlns:inkscape="http://www.inkscape.org/namespaces/inkscape"
   xmlns:sodipodi="http://sodipodi.sourceforge.net/DTD/sodipodi-0.dtd"
   xmlns="http://www.w3.org/2000/svg"
   xmlns:svg="http://www.w3.org/2000/svg">
  <sodipodi:namedview
     id="namedview7"
     pagecolor="#ffffff"
     bordercolor="#666666"
     borderopacity="1.0"
     inkscape:showpageshadow="2"
     inkscape:pageopacity="0.0"
     inkscape:pagecheckerboard="0"
     inkscape:deskcolor="#d1d1d1"
     inkscape:document-units="mm"
     showgrid="false"
     inkscape:zoom="7.319248"
     inkscape:cx="25.890638"
     inkscape:cy="34.429767"
     inkscape:window-width="2560"
     inkscape:window-height="1369"
     inkscape:window-x="-8"
     inkscape:window-y="-8"
     inkscape:window-maximized="1"
     inkscape:current-layer="text364" />
  <defs
     id="defs2" />
  <g
     inkscape:label="Layer 1"
     inkscape:groupmode="layer"
     id="layer1">
    <g
       aria-label="FLATBOX"
       transform="matrix(0.78615427,-0.10582531,0.92321947,1.1477391,0,0)"
       id="text1291"
       style="font-size:15.9356px;line-height:1.25;font-family:'Dela Gothic One';-inkscape-font-specification:'Dela Gothic One, Normal';stroke-width:0.398389">
      <g
         id="g1440"
         transform="matrix(0.16596978,0,0,0.16596978,0.01356316,-0.55980098)">
        <g
           id="g348"
           transform="translate(102.2049,-88.706563)">
          <ellipse
             style="font-size:15.9356px;line-height:1.25;font-family:'Dela Gothic One';-inkscape-font-specification:'Dela Gothic One, Normal';fill:#000000;stroke:none;stroke-width:0.307256"
             id="path61-1"
             cx="-19.36326"
             cy="164.6489"
             rx="14.907876"
             ry="10.402434"
             transform="matrix(0.99577619,0.09181383,-0.6378278,0.770179,0,0)" />
          <ellipse
             style="font-size:15.9356px;line-height:1.25;font-family:'Dela Gothic One';-inkscape-font-specification:'Dela Gothic One, Normal';fill:#000000;stroke:none;stroke-width:0.307256"
             id="path61-6-1"
             cx="14.545345"
             cy="161.22951"
             rx="14.907876"
             ry="10.402434"
             transform="matrix(0.99577619,0.09181383,-0.6378278,0.770179,0,0)" />
          <ellipse
             style="font-size:15.9356px;line-height:1.25;font-family:'Dela Gothic One';-inkscape-font-specification:'Dela Gothic One, Normal';fill:#000000;stroke:none;stroke-width:0.307256"
             id="path61-6-4-04"
             cx="45.646389"
             cy="165.63672"
             rx="14.907876"
             ry="10.402434"
             transform="matrix(0.99577619,0.09181383,-0.6378278,0.770179,0,0)" />
          <ellipse
             style="font-size:15.9356px;line-height:1.25;font-family:'Dela Gothic One';-inkscape-font-specification:'Dela Gothic One, Normal';fill:#000000;stroke:none;stroke-width:0.307256"
             id="path61-6-4-0-69"
             cx="80.981689"
             cy="167.00446"
             rx="14.907876"
             ry="10.402434"
             transform="matrix(0.99577619,0.09181383,-0.6378278,0.770179,0,0)" />
          <ellipse
             style="font-size:15.9356px;line-height:1.25;font-family:'Dela Gothic One';-inkscape-font-specification:'Dela Gothic One, Normal';fill:#000000;stroke:none;stroke-width:0.29032"
             id="path61-6-4-0-6-40"
             cx="63.735638"
             cy="146.64018"
             rx="14.08616"
             ry="9.8290567"
             transform="matrix(0.99577619,0.09181383,-0.6378278,0.770179,0,0)" />
          <ellipse
             style="font-size:15.9356px;line-height:1.25;font-family:'Dela Gothic One';-inkscape-font-specification:'Dela Gothic One, Normal';fill:#000000;stroke:none;stroke-width:0.260353"
             id="path61-6-4-0-6-4-93"
             cx="86.330139"
             cy="133.97778"
             rx="13.182271"
             ry="8.4466"
             transform="matrix(0.99577619,0.09181383,-0.62570309,0.78006131,0,0)" />
          <ellipse
             style="font-size:15.9356px;line-height:1.25;font-family:'Dela Gothic One';-inkscape-font-specification:'Dela Gothic One, Normal';fill:#000000;stroke:none;stroke-width:0.260353"
             id="path61-6-4-0-6-4-8-5"
             cx="103.70451"
             cy="151.87328"
             rx="13.182271"
             ry="8.4466"
             transform="matrix(0.99577619,0.09181383,-0.62570309,0.78006131,0,0)" />
          <ellipse
             style="font-size:15.9356px;line-height:1.25;font-family:'Dela Gothic One';-inkscape-font-specification:'Dela Gothic One, Normal';fill:#000000;stroke:none;stroke-width:0.260353"
             id="path61-6-4-0-6-4-8-7-7"
             cx="132.93031"
             cy="147.21143"
             rx="13.182271"
             ry="8.4466"
             transform="matrix(0.99577619,0.09181383,-0.62570309,0.78006131,0,0)" />
          <ellipse
             style="font-size:15.9356px;line-height:1.25;font-family:'Dela Gothic One';-inkscape-font-specification:'Dela Gothic One, Normal';fill:#000000;stroke:none;stroke-width:0.240062"
             id="path61-6-4-0-6-4-8-7-3-3"
             cx="141.6646"
             cy="127.28185"
             rx="12.689241"
             ry="7.4603405"
             transform="matrix(0.99577619,0.09181383,-0.61215271,0.79073956,0,0)" />
          <ellipse
             style="font-size:15.9356px;line-height:1.25;font-family:'Dela Gothic One';-inkscape-font-specification:'Dela Gothic One, Normal';fill:#000000;stroke:none;stroke-width:0.240062"
             id="path61-6-4-0-6-4-8-7-3-9-6"
             cx="157.84947"
             cy="143.49109"
             rx="12.689241"
             ry="7.4603405"
             transform="matrix(0.99577619,0.09181383,-0.61215271,0.79073956,0,0)" />
          <ellipse
             style="font-size:15.9356px;line-height:1.25;font-family:'Dela Gothic One';-inkscape-font-specification:'Dela Gothic One, Normal';fill:#000000;stroke:none;stroke-width:0.250242"
             id="path61-6-4-0-6-4-9-5"
             cx="113.2491"
             cy="128.87599"
             rx="13.1001"
             ry="7.8522248"
             transform="matrix(0.99577619,0.09181383,-0.61531986,0.78827753,0,0)" />
          <ellipse
             style="font-size:15.9356px;line-height:1.25;font-family:'Dela Gothic One';-inkscape-font-specification:'Dela Gothic One, Normal';fill:#000000;stroke:none;stroke-width:0.383842"
             id="path61-6-4-9-0"
             cx="81.542389"
             cy="195.02216"
             rx="18.359085"
             ry="13.18273"
             transform="matrix(0.99577619,0.09181383,-0.64163377,0.76701115,0,0)" />
          <g
             aria-label="FLATBOX"
             transform="matrix(1.2799463,-0.02053707,-0.28103276,0.78579202,0,0)"
             id="text584"
             style="font-size:15.7526px;font-family:'Shippori Antique';-inkscape-font-specification:'Shippori Antique, Normal';stroke-width:0.156891">
            <path
               d="m -78.674798,182.61851 v 1.51225 h -7.135928 v 3.27654 h 4.584006 v 1.51225 h -4.584006 v 5.22986 h -1.717034 v -11.5309 z"
               id="path675" />
            <path
               d="m -75.240739,182.60276 v 10.01865 h 7.766032 v 1.528 h -9.483065 v -11.54665 z"
               id="path677" />
            <path
               d="m -55.943794,194.14941 h -2.016333 l -1.228703,-3.43406 h -4.568254 l -1.228702,3.43406 h -2.016333 l 4.42648,-11.54665 h 2.205364 z m -5.529163,-9.82962 -1.732786,4.86756 h 3.465572 z"
               id="path679" />
            <path
               d="m -45.547082,182.60276 v 1.51225 h -4.127181 v 10.0344 h -1.717034 v -10.0344 h -4.127181 v -1.51225 z"
               id="path681" />
            <path
               d="m -35.591435,188.13192 q 0.866393,0.2678 1.433487,0.9294 0.567093,0.66161 0.567093,1.71704 0,3.37105 -3.843634,3.37105 h -6.285287 v -11.54665 h 5.702441 q 1.984828,0 3.040252,0.67736 1.071176,0.66161 1.071176,2.31563 0,0.75613 -0.409567,1.51225 -0.409568,0.74037 -1.275961,1.02392 z m -2.4259,-4.00116 q -0.330805,-0.0157 -3.985408,-0.0157 v 3.29229 h 3.985408 q 1.370476,0 1.795796,-0.44107 0.441073,-0.44107 0.441073,-1.1972 0,-0.69311 -0.330804,-1.03967 -0.330805,-0.36231 -0.78763,-0.45683 -0.456826,-0.11026 -1.118435,-0.14177 z m -0.283547,8.5064 q 0.834888,0 1.401982,-0.0945 0.582846,-0.0945 0.992413,-0.50408 0.425321,-0.40957 0.425321,-1.26021 0,-0.85064 -0.409568,-1.26021 -0.409568,-0.40957 -0.929403,-0.50408 -0.519836,-0.0945 -1.197198,-0.0945 h -3.985408 v 3.71761 z"
               id="path683" />
            <path
               d="m -26.533691,194.33845 q -1.780044,0 -3.056005,-0.77188 -1.27596,-0.77188 -1.93757,-2.1266 -0.661609,-1.35473 -0.661609,-3.07176 0,-1.71703 0.661609,-3.056 0.66161,-1.35473 1.93757,-2.12661 1.275961,-0.77187 3.056005,-0.77187 1.780043,0 3.056004,0.77187 1.291713,0.77188 1.953322,2.12661 0.661609,1.33897 0.661609,3.056 0,1.71703 -0.661609,3.07176 -0.661609,1.35472 -1.937569,2.1266 -1.275961,0.77188 -3.071757,0.77188 z m 0,-1.55951 q 1.307465,0 2.158106,-0.61435 0.866393,-0.61435 1.27596,-1.60677 0.409568,-1.00817 0.409568,-2.18961 0,-1.16569 -0.409568,-2.15811 -0.409567,-1.00816 -1.27596,-1.62251 -0.850641,-0.61436 -2.158106,-0.61436 -1.291714,0 -2.158107,0.61436 -0.866393,0.61435 -1.27596,1.62251 -0.393815,0.99242 -0.393815,2.15811 0,1.18144 0.393815,2.18961 0.409567,0.99242 1.27596,1.60677 0.866393,0.61435 2.158107,0.61435 z"
               id="path685" />
            <path
               d="m -13.41177,188.10042 4.1901916,6.04899 h -2.0478376 l -3.182025,-4.5525 -3.166273,4.5525 h -2.095096 l 4.221697,-6.03324 -3.859387,-5.51341 h 2.110848 l 2.788211,4.01691 2.803962,-4.01691 h 2.0478382 z"
               id="path687" />
          </g>
          <g
             aria-label="ACR"
             transform="matrix(1.2793708,-0.01991153,-0.05838263,0.78254286,0,0)"
             id="text364"
             style="font-size:9.88927px;font-family:'Shippori Antique';-inkscape-font-specification:'Shippori Antique, Normal';stroke-width:0.635098">
            <path
               d="m -60.695634,203.99872 h -1.265826 l -0.771363,-2.15586 h -2.867889 l -0.771363,2.15586 h -1.265826 l 2.778885,-7.24884 h 1.384497 z m -3.471134,-6.17091 -1.087819,3.05579 h 2.175639 z"
               id="path416" />
            <path
               d="m -56.532255,204.11739 q -1.127376,0 -1.948186,-0.48457 -0.81092,-0.48458 -1.236159,-1.32517 -0.415349,-0.85047 -0.415349,-1.9284 0,-1.07793 0.415349,-1.91852 0.425239,-0.85048 1.236159,-1.33505 0.82081,-0.48458 1.948186,-0.48458 1.137266,0 1.948187,0.49447 0.820809,0.49446 1.246048,1.36471 l -1.147156,0.28679 q -0.603245,-1.16693 -2.047079,-1.16693 -0.830698,0 -1.374608,0.38568 -0.54391,0.38568 -0.801031,1.0186 -0.257121,0.62302 -0.257121,1.35483 0,0.7318 0.257121,1.35483 0.257121,0.62302 0.801031,1.0087 0.54391,0.38568 1.374608,0.38568 0.830699,0 1.424055,-0.40546 0.603246,-0.41535 0.82081,-1.26582 l 1.166933,0.15822 q -0.415349,1.25594 -1.265826,1.87897 -0.840588,0.62302 -2.145972,0.62302 z"
               id="path418" />
            <path
               d="m -45.66395,203.99872 h -1.285605 l -1.987743,-3.02612 h -0.375792 -1.522948 v 3.02612 h -1.07793 v -7.24884 h 2.600878 1.08782 q 1.008705,0 1.651508,0.51425 0.642802,0.50435 0.642802,1.59217 0,0.93948 -0.494463,1.44383 -0.494464,0.49446 -1.315273,0.62303 z m -5.172088,-6.29947 v 2.31409 h 1.997633 q 0.553799,0 0.919702,-0.0593 0.375792,-0.0593 0.632913,-0.31646 0.26701,-0.25712 0.26701,-0.78125 0,-0.52413 -0.26701,-0.78125 -0.257121,-0.25713 -0.632913,-0.31646 -0.365903,-0.0593 -0.919702,-0.0593 z"
               id="path420" />
          </g>
        </g>
      </g>
    </g>
  </g>
</svg>
