G04 #@! TF.GenerationSoftware,KiCad,Pcbnew,(6.0.6)*
G04 #@! TF.CreationDate,2022-07-21T01:25:26+09:00*
G04 #@! TF.ProjectId,Flatbox-rev1_1-kicad,466c6174-626f-4782-9d72-6576315f312d,1.1*
G04 #@! TF.SameCoordinates,Original*
G04 #@! TF.FileFunction,Legend,Top*
G04 #@! TF.FilePolarity,Positive*
%FSLAX46Y46*%
G04 Gerber Fmt 4.6, Leading zero omitted, Abs format (unit mm)*
G04 Created by KiCad (PCBNEW (6.0.6)) date 2022-07-21 01:25:26*
%MOMM*%
%LPD*%
G01*
G04 APERTURE LIST*
%ADD10C,0.120000*%
%ADD11C,0.200000*%
%ADD12C,0.300000*%
%ADD13C,0.150000*%
%ADD14C,0.100000*%
%ADD15C,1.600000*%
%ADD16R,1.600000X1.600000*%
%ADD17C,3.200000*%
%ADD18C,2.000000*%
%ADD19C,1.701800*%
%ADD20C,3.000000*%
%ADD21C,3.429000*%
%ADD22C,2.032000*%
%ADD23C,1.524000*%
%ADD24C,1.800000*%
G04 APERTURE END LIST*
D10*
X170120000Y-88620000D02*
G75*
G03*
X170120000Y-88620000I-12000000J0D01*
G01*
D11*
G36*
X76932212Y-145389435D02*
G01*
X77201452Y-145420874D01*
X77465784Y-145471997D01*
X77723655Y-145541761D01*
X77973512Y-145629125D01*
X78213802Y-145733044D01*
X78442973Y-145852476D01*
X78659471Y-145986379D01*
X78861744Y-146133709D01*
X79048239Y-146293423D01*
X79217403Y-146464479D01*
X79367683Y-146645834D01*
X79497527Y-146836446D01*
X79554300Y-146934896D01*
X79605381Y-147035270D01*
X79650577Y-147137436D01*
X79689692Y-147241265D01*
X79722535Y-147346625D01*
X79748909Y-147453387D01*
X79768403Y-147560149D01*
X79780828Y-147665510D01*
X79786320Y-147769339D01*
X79785019Y-147871505D01*
X79777062Y-147971879D01*
X79762587Y-148070330D01*
X79741733Y-148166727D01*
X79714637Y-148260941D01*
X79681438Y-148352841D01*
X79642273Y-148442296D01*
X79597282Y-148529177D01*
X79546601Y-148613352D01*
X79490369Y-148694692D01*
X79428725Y-148773067D01*
X79361806Y-148848345D01*
X79289750Y-148920397D01*
X79212696Y-148989091D01*
X79130781Y-149054299D01*
X79044144Y-149115889D01*
X78952922Y-149173731D01*
X78857255Y-149227695D01*
X78757279Y-149277650D01*
X78653134Y-149323467D01*
X78544956Y-149365013D01*
X78432885Y-149402161D01*
X78317059Y-149434778D01*
X78197615Y-149462735D01*
X78074691Y-149485901D01*
X77948426Y-149504146D01*
X77818958Y-149517339D01*
X77686425Y-149525351D01*
X77550964Y-149528050D01*
X77278369Y-149517339D01*
X77009129Y-149485901D01*
X76744797Y-149434778D01*
X76486926Y-149365013D01*
X76237069Y-149277650D01*
X75996778Y-149173731D01*
X75767607Y-149054299D01*
X75551109Y-148920397D01*
X75348836Y-148773067D01*
X75162341Y-148613352D01*
X74993177Y-148442296D01*
X74842897Y-148260941D01*
X74713054Y-148070330D01*
X74656281Y-147971879D01*
X74605200Y-147871505D01*
X74560004Y-147769339D01*
X74520888Y-147665510D01*
X74488046Y-147560149D01*
X74461672Y-147453387D01*
X74442177Y-147346625D01*
X74429753Y-147241265D01*
X74424260Y-147137436D01*
X74425562Y-147035270D01*
X74433519Y-146934896D01*
X74447994Y-146836446D01*
X74468848Y-146740048D01*
X74495944Y-146645834D01*
X74529143Y-146553935D01*
X74568307Y-146464479D01*
X74613299Y-146377599D01*
X74663980Y-146293423D01*
X74720211Y-146212083D01*
X74781856Y-146133709D01*
X74848775Y-146058430D01*
X74920831Y-145986379D01*
X74997885Y-145917684D01*
X75079800Y-145852476D01*
X75166437Y-145790886D01*
X75257658Y-145733044D01*
X75353326Y-145679080D01*
X75453301Y-145629125D01*
X75557447Y-145583308D01*
X75665624Y-145541761D01*
X75777695Y-145504614D01*
X75893522Y-145471997D01*
X76012966Y-145444040D01*
X76135890Y-145420874D01*
X76262155Y-145402629D01*
X76391623Y-145389435D01*
X76524156Y-145381424D01*
X76659616Y-145378724D01*
X76932212Y-145389435D01*
G37*
X76932212Y-145389435D02*
X77201452Y-145420874D01*
X77465784Y-145471997D01*
X77723655Y-145541761D01*
X77973512Y-145629125D01*
X78213802Y-145733044D01*
X78442973Y-145852476D01*
X78659471Y-145986379D01*
X78861744Y-146133709D01*
X79048239Y-146293423D01*
X79217403Y-146464479D01*
X79367683Y-146645834D01*
X79497527Y-146836446D01*
X79554300Y-146934896D01*
X79605381Y-147035270D01*
X79650577Y-147137436D01*
X79689692Y-147241265D01*
X79722535Y-147346625D01*
X79748909Y-147453387D01*
X79768403Y-147560149D01*
X79780828Y-147665510D01*
X79786320Y-147769339D01*
X79785019Y-147871505D01*
X79777062Y-147971879D01*
X79762587Y-148070330D01*
X79741733Y-148166727D01*
X79714637Y-148260941D01*
X79681438Y-148352841D01*
X79642273Y-148442296D01*
X79597282Y-148529177D01*
X79546601Y-148613352D01*
X79490369Y-148694692D01*
X79428725Y-148773067D01*
X79361806Y-148848345D01*
X79289750Y-148920397D01*
X79212696Y-148989091D01*
X79130781Y-149054299D01*
X79044144Y-149115889D01*
X78952922Y-149173731D01*
X78857255Y-149227695D01*
X78757279Y-149277650D01*
X78653134Y-149323467D01*
X78544956Y-149365013D01*
X78432885Y-149402161D01*
X78317059Y-149434778D01*
X78197615Y-149462735D01*
X78074691Y-149485901D01*
X77948426Y-149504146D01*
X77818958Y-149517339D01*
X77686425Y-149525351D01*
X77550964Y-149528050D01*
X77278369Y-149517339D01*
X77009129Y-149485901D01*
X76744797Y-149434778D01*
X76486926Y-149365013D01*
X76237069Y-149277650D01*
X75996778Y-149173731D01*
X75767607Y-149054299D01*
X75551109Y-148920397D01*
X75348836Y-148773067D01*
X75162341Y-148613352D01*
X74993177Y-148442296D01*
X74842897Y-148260941D01*
X74713054Y-148070330D01*
X74656281Y-147971879D01*
X74605200Y-147871505D01*
X74560004Y-147769339D01*
X74520888Y-147665510D01*
X74488046Y-147560149D01*
X74461672Y-147453387D01*
X74442177Y-147346625D01*
X74429753Y-147241265D01*
X74424260Y-147137436D01*
X74425562Y-147035270D01*
X74433519Y-146934896D01*
X74447994Y-146836446D01*
X74468848Y-146740048D01*
X74495944Y-146645834D01*
X74529143Y-146553935D01*
X74568307Y-146464479D01*
X74613299Y-146377599D01*
X74663980Y-146293423D01*
X74720211Y-146212083D01*
X74781856Y-146133709D01*
X74848775Y-146058430D01*
X74920831Y-145986379D01*
X74997885Y-145917684D01*
X75079800Y-145852476D01*
X75166437Y-145790886D01*
X75257658Y-145733044D01*
X75353326Y-145679080D01*
X75453301Y-145629125D01*
X75557447Y-145583308D01*
X75665624Y-145541761D01*
X75777695Y-145504614D01*
X75893522Y-145471997D01*
X76012966Y-145444040D01*
X76135890Y-145420874D01*
X76262155Y-145402629D01*
X76391623Y-145389435D01*
X76524156Y-145381424D01*
X76659616Y-145378724D01*
X76932212Y-145389435D01*
G36*
X71750000Y-147750000D02*
G01*
X71773416Y-147751117D01*
X71796848Y-147752881D01*
X71820296Y-147755292D01*
X71843761Y-147758349D01*
X71867241Y-147762054D01*
X71890737Y-147766405D01*
X71914249Y-147771403D01*
X71937777Y-147777048D01*
X71961321Y-147783339D01*
X71984987Y-147790182D01*
X72008476Y-147797547D01*
X72031789Y-147805433D01*
X72054924Y-147813842D01*
X72077883Y-147822772D01*
X72100666Y-147832224D01*
X72123271Y-147842198D01*
X72145700Y-147852694D01*
X72167952Y-147863712D01*
X72190027Y-147875251D01*
X72211925Y-147887312D01*
X72233646Y-147899895D01*
X72255191Y-147913000D01*
X72276559Y-147926627D01*
X72297750Y-147940775D01*
X72318764Y-147955445D01*
X72162973Y-148028619D01*
X72134210Y-148009476D01*
X72105395Y-147991875D01*
X72076527Y-147975814D01*
X72047607Y-147961294D01*
X72018634Y-147948315D01*
X71989609Y-147936876D01*
X71960531Y-147926978D01*
X71931401Y-147918622D01*
X71902218Y-147911805D01*
X71872983Y-147906530D01*
X71843695Y-147902796D01*
X71814354Y-147900602D01*
X71784962Y-147899949D01*
X71755516Y-147900837D01*
X71726018Y-147903266D01*
X71696468Y-147907235D01*
X71679804Y-147910159D01*
X71663846Y-147913476D01*
X71648593Y-147917187D01*
X71634045Y-147921291D01*
X71620204Y-147925788D01*
X71607067Y-147930679D01*
X71594636Y-147935963D01*
X71582911Y-147941641D01*
X71571891Y-147947712D01*
X71561577Y-147954176D01*
X71551968Y-147961034D01*
X71543065Y-147968285D01*
X71534868Y-147975929D01*
X71527376Y-147983967D01*
X71520590Y-147992399D01*
X71514509Y-148001224D01*
X71509073Y-148010361D01*
X71504220Y-148019729D01*
X71499952Y-148029329D01*
X71496267Y-148039159D01*
X71493167Y-148049220D01*
X71490651Y-148059513D01*
X71488718Y-148070036D01*
X71487370Y-148080791D01*
X71486606Y-148091776D01*
X71486426Y-148102993D01*
X71486830Y-148114441D01*
X71487818Y-148126119D01*
X71489390Y-148138029D01*
X71491547Y-148150170D01*
X71494287Y-148162542D01*
X71497612Y-148175145D01*
X71501302Y-148187716D01*
X71505417Y-148200361D01*
X71509956Y-148213081D01*
X71514920Y-148225876D01*
X71520309Y-148238746D01*
X71526122Y-148251690D01*
X71532360Y-148264710D01*
X71539023Y-148277804D01*
X71546110Y-148290973D01*
X71553621Y-148304217D01*
X71561558Y-148317535D01*
X71569919Y-148330928D01*
X71578704Y-148344396D01*
X71587914Y-148357939D01*
X71597549Y-148371557D01*
X71607609Y-148385249D01*
X71617997Y-148398889D01*
X71628620Y-148412348D01*
X71639476Y-148425627D01*
X71650566Y-148438725D01*
X71661889Y-148451643D01*
X71673446Y-148464381D01*
X71685237Y-148476939D01*
X71697262Y-148489316D01*
X71709521Y-148501513D01*
X71722013Y-148513530D01*
X71734739Y-148525366D01*
X71747699Y-148537022D01*
X71760892Y-148548498D01*
X71774320Y-148559793D01*
X71787981Y-148570908D01*
X71801876Y-148581843D01*
X71815967Y-148592519D01*
X71830218Y-148602858D01*
X71844627Y-148612860D01*
X71859195Y-148622525D01*
X71873922Y-148631852D01*
X71888809Y-148640842D01*
X71903854Y-148649495D01*
X71919058Y-148657811D01*
X71934421Y-148665790D01*
X71949943Y-148673432D01*
X71965624Y-148680736D01*
X71981465Y-148687704D01*
X71997464Y-148694334D01*
X72013622Y-148700628D01*
X72029939Y-148706584D01*
X72046415Y-148712203D01*
X72062985Y-148717398D01*
X72079583Y-148722082D01*
X72096210Y-148726255D01*
X72112866Y-148729916D01*
X72129551Y-148733067D01*
X72146265Y-148735706D01*
X72163007Y-148737835D01*
X72179779Y-148739452D01*
X72196579Y-148740558D01*
X72213408Y-148741153D01*
X72230266Y-148741237D01*
X72247153Y-148740810D01*
X72264069Y-148739872D01*
X72281013Y-148738422D01*
X72297987Y-148736462D01*
X72314989Y-148733991D01*
X72331676Y-148731050D01*
X72347703Y-148727683D01*
X72363071Y-148723889D01*
X72377779Y-148719668D01*
X72391828Y-148715021D01*
X72405217Y-148709946D01*
X72417947Y-148704445D01*
X72430017Y-148698518D01*
X72441428Y-148692163D01*
X72452178Y-148685382D01*
X72462270Y-148678174D01*
X72471702Y-148670540D01*
X72480474Y-148662478D01*
X72488586Y-148653990D01*
X72496039Y-148645075D01*
X72502832Y-148635734D01*
X72508922Y-148625745D01*
X72514137Y-148615325D01*
X72518476Y-148604474D01*
X72521939Y-148593192D01*
X72524527Y-148581479D01*
X72526240Y-148569335D01*
X72527076Y-148556760D01*
X72527038Y-148543754D01*
X72526123Y-148530317D01*
X72524334Y-148516448D01*
X72521668Y-148502149D01*
X72518128Y-148487418D01*
X72513711Y-148472256D01*
X72508419Y-148456663D01*
X72502252Y-148440639D01*
X72495209Y-148424184D01*
X72704210Y-148417285D01*
X72712774Y-148441885D01*
X72720226Y-148465833D01*
X72726565Y-148489128D01*
X72731792Y-148511770D01*
X72735907Y-148533758D01*
X72738909Y-148555094D01*
X72740799Y-148575778D01*
X72741577Y-148595808D01*
X72741242Y-148615185D01*
X72739795Y-148633910D01*
X72737236Y-148651981D01*
X72733565Y-148669400D01*
X72728781Y-148686166D01*
X72722885Y-148702279D01*
X72715877Y-148717739D01*
X72707756Y-148732547D01*
X72703376Y-148739692D01*
X72698710Y-148746678D01*
X72693760Y-148753505D01*
X72688523Y-148760173D01*
X72683002Y-148766683D01*
X72677195Y-148773034D01*
X72671102Y-148779226D01*
X72664724Y-148785259D01*
X72658061Y-148791134D01*
X72651112Y-148796850D01*
X72643878Y-148802406D01*
X72636359Y-148807805D01*
X72628554Y-148813044D01*
X72620464Y-148818124D01*
X72612088Y-148823046D01*
X72603427Y-148827809D01*
X72585249Y-148836859D01*
X72565929Y-148845273D01*
X72545467Y-148853052D01*
X72523864Y-148860196D01*
X72501119Y-148866705D01*
X72477233Y-148872579D01*
X72452205Y-148877817D01*
X72426035Y-148882421D01*
X72402924Y-148885806D01*
X72379781Y-148888560D01*
X72356605Y-148890683D01*
X72333397Y-148892175D01*
X72310156Y-148893036D01*
X72286883Y-148893266D01*
X72263576Y-148892865D01*
X72240238Y-148891833D01*
X72216867Y-148890170D01*
X72193463Y-148887875D01*
X72170026Y-148884950D01*
X72146557Y-148881393D01*
X72123056Y-148877206D01*
X72099522Y-148872387D01*
X72075956Y-148866937D01*
X72052357Y-148860856D01*
X72029034Y-148854178D01*
X72005893Y-148847004D01*
X71982934Y-148839333D01*
X71960156Y-148831166D01*
X71937559Y-148822502D01*
X71915144Y-148813341D01*
X71892911Y-148803684D01*
X71870859Y-148793530D01*
X71848988Y-148782880D01*
X71827299Y-148771733D01*
X71805791Y-148760090D01*
X71784465Y-148747950D01*
X71763321Y-148735314D01*
X71742357Y-148722180D01*
X71721576Y-148708551D01*
X71700975Y-148694425D01*
X71680696Y-148679656D01*
X71660749Y-148664536D01*
X71641134Y-148649064D01*
X71621851Y-148633239D01*
X71602900Y-148617063D01*
X71584282Y-148600535D01*
X71565996Y-148583654D01*
X71548042Y-148566422D01*
X71530420Y-148548838D01*
X71513131Y-148530902D01*
X71496174Y-148512613D01*
X71479548Y-148493973D01*
X71463256Y-148474982D01*
X71447295Y-148455638D01*
X71431666Y-148435942D01*
X71416370Y-148415894D01*
X71401610Y-148395768D01*
X71387591Y-148375834D01*
X71374311Y-148356093D01*
X71361771Y-148336545D01*
X71349970Y-148317190D01*
X71338910Y-148298029D01*
X71328590Y-148279060D01*
X71319010Y-148260285D01*
X71310170Y-148241703D01*
X71302070Y-148223313D01*
X71294710Y-148205117D01*
X71288089Y-148187114D01*
X71282209Y-148169304D01*
X71277069Y-148151687D01*
X71272669Y-148134263D01*
X71269008Y-148117032D01*
X71266190Y-148099855D01*
X71264186Y-148083027D01*
X71262996Y-148066549D01*
X71262621Y-148050422D01*
X71263061Y-148034644D01*
X71264316Y-148019216D01*
X71266386Y-148004138D01*
X71269270Y-147989410D01*
X71272969Y-147975032D01*
X71277483Y-147961004D01*
X71282812Y-147947326D01*
X71288955Y-147933997D01*
X71295914Y-147921019D01*
X71303687Y-147908390D01*
X71312275Y-147896112D01*
X71321678Y-147884183D01*
X71332099Y-147872650D01*
X71343338Y-147861623D01*
X71355395Y-147851101D01*
X71368269Y-147841083D01*
X71381961Y-147831572D01*
X71396470Y-147822565D01*
X71411797Y-147814064D01*
X71427942Y-147806068D01*
X71444904Y-147798577D01*
X71462684Y-147791591D01*
X71481281Y-147785111D01*
X71500696Y-147779136D01*
X71520929Y-147773666D01*
X71541979Y-147768702D01*
X71563847Y-147764243D01*
X71586532Y-147760289D01*
X71609837Y-147756879D01*
X71633158Y-147754115D01*
X71656494Y-147751999D01*
X71679846Y-147750529D01*
X71703215Y-147749706D01*
X71726599Y-147749529D01*
X71750000Y-147750000D01*
G37*
X71750000Y-147750000D02*
X71773416Y-147751117D01*
X71796848Y-147752881D01*
X71820296Y-147755292D01*
X71843761Y-147758349D01*
X71867241Y-147762054D01*
X71890737Y-147766405D01*
X71914249Y-147771403D01*
X71937777Y-147777048D01*
X71961321Y-147783339D01*
X71984987Y-147790182D01*
X72008476Y-147797547D01*
X72031789Y-147805433D01*
X72054924Y-147813842D01*
X72077883Y-147822772D01*
X72100666Y-147832224D01*
X72123271Y-147842198D01*
X72145700Y-147852694D01*
X72167952Y-147863712D01*
X72190027Y-147875251D01*
X72211925Y-147887312D01*
X72233646Y-147899895D01*
X72255191Y-147913000D01*
X72276559Y-147926627D01*
X72297750Y-147940775D01*
X72318764Y-147955445D01*
X72162973Y-148028619D01*
X72134210Y-148009476D01*
X72105395Y-147991875D01*
X72076527Y-147975814D01*
X72047607Y-147961294D01*
X72018634Y-147948315D01*
X71989609Y-147936876D01*
X71960531Y-147926978D01*
X71931401Y-147918622D01*
X71902218Y-147911805D01*
X71872983Y-147906530D01*
X71843695Y-147902796D01*
X71814354Y-147900602D01*
X71784962Y-147899949D01*
X71755516Y-147900837D01*
X71726018Y-147903266D01*
X71696468Y-147907235D01*
X71679804Y-147910159D01*
X71663846Y-147913476D01*
X71648593Y-147917187D01*
X71634045Y-147921291D01*
X71620204Y-147925788D01*
X71607067Y-147930679D01*
X71594636Y-147935963D01*
X71582911Y-147941641D01*
X71571891Y-147947712D01*
X71561577Y-147954176D01*
X71551968Y-147961034D01*
X71543065Y-147968285D01*
X71534868Y-147975929D01*
X71527376Y-147983967D01*
X71520590Y-147992399D01*
X71514509Y-148001224D01*
X71509073Y-148010361D01*
X71504220Y-148019729D01*
X71499952Y-148029329D01*
X71496267Y-148039159D01*
X71493167Y-148049220D01*
X71490651Y-148059513D01*
X71488718Y-148070036D01*
X71487370Y-148080791D01*
X71486606Y-148091776D01*
X71486426Y-148102993D01*
X71486830Y-148114441D01*
X71487818Y-148126119D01*
X71489390Y-148138029D01*
X71491547Y-148150170D01*
X71494287Y-148162542D01*
X71497612Y-148175145D01*
X71501302Y-148187716D01*
X71505417Y-148200361D01*
X71509956Y-148213081D01*
X71514920Y-148225876D01*
X71520309Y-148238746D01*
X71526122Y-148251690D01*
X71532360Y-148264710D01*
X71539023Y-148277804D01*
X71546110Y-148290973D01*
X71553621Y-148304217D01*
X71561558Y-148317535D01*
X71569919Y-148330928D01*
X71578704Y-148344396D01*
X71587914Y-148357939D01*
X71597549Y-148371557D01*
X71607609Y-148385249D01*
X71617997Y-148398889D01*
X71628620Y-148412348D01*
X71639476Y-148425627D01*
X71650566Y-148438725D01*
X71661889Y-148451643D01*
X71673446Y-148464381D01*
X71685237Y-148476939D01*
X71697262Y-148489316D01*
X71709521Y-148501513D01*
X71722013Y-148513530D01*
X71734739Y-148525366D01*
X71747699Y-148537022D01*
X71760892Y-148548498D01*
X71774320Y-148559793D01*
X71787981Y-148570908D01*
X71801876Y-148581843D01*
X71815967Y-148592519D01*
X71830218Y-148602858D01*
X71844627Y-148612860D01*
X71859195Y-148622525D01*
X71873922Y-148631852D01*
X71888809Y-148640842D01*
X71903854Y-148649495D01*
X71919058Y-148657811D01*
X71934421Y-148665790D01*
X71949943Y-148673432D01*
X71965624Y-148680736D01*
X71981465Y-148687704D01*
X71997464Y-148694334D01*
X72013622Y-148700628D01*
X72029939Y-148706584D01*
X72046415Y-148712203D01*
X72062985Y-148717398D01*
X72079583Y-148722082D01*
X72096210Y-148726255D01*
X72112866Y-148729916D01*
X72129551Y-148733067D01*
X72146265Y-148735706D01*
X72163007Y-148737835D01*
X72179779Y-148739452D01*
X72196579Y-148740558D01*
X72213408Y-148741153D01*
X72230266Y-148741237D01*
X72247153Y-148740810D01*
X72264069Y-148739872D01*
X72281013Y-148738422D01*
X72297987Y-148736462D01*
X72314989Y-148733991D01*
X72331676Y-148731050D01*
X72347703Y-148727683D01*
X72363071Y-148723889D01*
X72377779Y-148719668D01*
X72391828Y-148715021D01*
X72405217Y-148709946D01*
X72417947Y-148704445D01*
X72430017Y-148698518D01*
X72441428Y-148692163D01*
X72452178Y-148685382D01*
X72462270Y-148678174D01*
X72471702Y-148670540D01*
X72480474Y-148662478D01*
X72488586Y-148653990D01*
X72496039Y-148645075D01*
X72502832Y-148635734D01*
X72508922Y-148625745D01*
X72514137Y-148615325D01*
X72518476Y-148604474D01*
X72521939Y-148593192D01*
X72524527Y-148581479D01*
X72526240Y-148569335D01*
X72527076Y-148556760D01*
X72527038Y-148543754D01*
X72526123Y-148530317D01*
X72524334Y-148516448D01*
X72521668Y-148502149D01*
X72518128Y-148487418D01*
X72513711Y-148472256D01*
X72508419Y-148456663D01*
X72502252Y-148440639D01*
X72495209Y-148424184D01*
X72704210Y-148417285D01*
X72712774Y-148441885D01*
X72720226Y-148465833D01*
X72726565Y-148489128D01*
X72731792Y-148511770D01*
X72735907Y-148533758D01*
X72738909Y-148555094D01*
X72740799Y-148575778D01*
X72741577Y-148595808D01*
X72741242Y-148615185D01*
X72739795Y-148633910D01*
X72737236Y-148651981D01*
X72733565Y-148669400D01*
X72728781Y-148686166D01*
X72722885Y-148702279D01*
X72715877Y-148717739D01*
X72707756Y-148732547D01*
X72703376Y-148739692D01*
X72698710Y-148746678D01*
X72693760Y-148753505D01*
X72688523Y-148760173D01*
X72683002Y-148766683D01*
X72677195Y-148773034D01*
X72671102Y-148779226D01*
X72664724Y-148785259D01*
X72658061Y-148791134D01*
X72651112Y-148796850D01*
X72643878Y-148802406D01*
X72636359Y-148807805D01*
X72628554Y-148813044D01*
X72620464Y-148818124D01*
X72612088Y-148823046D01*
X72603427Y-148827809D01*
X72585249Y-148836859D01*
X72565929Y-148845273D01*
X72545467Y-148853052D01*
X72523864Y-148860196D01*
X72501119Y-148866705D01*
X72477233Y-148872579D01*
X72452205Y-148877817D01*
X72426035Y-148882421D01*
X72402924Y-148885806D01*
X72379781Y-148888560D01*
X72356605Y-148890683D01*
X72333397Y-148892175D01*
X72310156Y-148893036D01*
X72286883Y-148893266D01*
X72263576Y-148892865D01*
X72240238Y-148891833D01*
X72216867Y-148890170D01*
X72193463Y-148887875D01*
X72170026Y-148884950D01*
X72146557Y-148881393D01*
X72123056Y-148877206D01*
X72099522Y-148872387D01*
X72075956Y-148866937D01*
X72052357Y-148860856D01*
X72029034Y-148854178D01*
X72005893Y-148847004D01*
X71982934Y-148839333D01*
X71960156Y-148831166D01*
X71937559Y-148822502D01*
X71915144Y-148813341D01*
X71892911Y-148803684D01*
X71870859Y-148793530D01*
X71848988Y-148782880D01*
X71827299Y-148771733D01*
X71805791Y-148760090D01*
X71784465Y-148747950D01*
X71763321Y-148735314D01*
X71742357Y-148722180D01*
X71721576Y-148708551D01*
X71700975Y-148694425D01*
X71680696Y-148679656D01*
X71660749Y-148664536D01*
X71641134Y-148649064D01*
X71621851Y-148633239D01*
X71602900Y-148617063D01*
X71584282Y-148600535D01*
X71565996Y-148583654D01*
X71548042Y-148566422D01*
X71530420Y-148548838D01*
X71513131Y-148530902D01*
X71496174Y-148512613D01*
X71479548Y-148493973D01*
X71463256Y-148474982D01*
X71447295Y-148455638D01*
X71431666Y-148435942D01*
X71416370Y-148415894D01*
X71401610Y-148395768D01*
X71387591Y-148375834D01*
X71374311Y-148356093D01*
X71361771Y-148336545D01*
X71349970Y-148317190D01*
X71338910Y-148298029D01*
X71328590Y-148279060D01*
X71319010Y-148260285D01*
X71310170Y-148241703D01*
X71302070Y-148223313D01*
X71294710Y-148205117D01*
X71288089Y-148187114D01*
X71282209Y-148169304D01*
X71277069Y-148151687D01*
X71272669Y-148134263D01*
X71269008Y-148117032D01*
X71266190Y-148099855D01*
X71264186Y-148083027D01*
X71262996Y-148066549D01*
X71262621Y-148050422D01*
X71263061Y-148034644D01*
X71264316Y-148019216D01*
X71266386Y-148004138D01*
X71269270Y-147989410D01*
X71272969Y-147975032D01*
X71277483Y-147961004D01*
X71282812Y-147947326D01*
X71288955Y-147933997D01*
X71295914Y-147921019D01*
X71303687Y-147908390D01*
X71312275Y-147896112D01*
X71321678Y-147884183D01*
X71332099Y-147872650D01*
X71343338Y-147861623D01*
X71355395Y-147851101D01*
X71368269Y-147841083D01*
X71381961Y-147831572D01*
X71396470Y-147822565D01*
X71411797Y-147814064D01*
X71427942Y-147806068D01*
X71444904Y-147798577D01*
X71462684Y-147791591D01*
X71481281Y-147785111D01*
X71500696Y-147779136D01*
X71520929Y-147773666D01*
X71541979Y-147768702D01*
X71563847Y-147764243D01*
X71586532Y-147760289D01*
X71609837Y-147756879D01*
X71633158Y-147754115D01*
X71656494Y-147751999D01*
X71679846Y-147750529D01*
X71703215Y-147749706D01*
X71726599Y-147749529D01*
X71750000Y-147750000D01*
G36*
X65860780Y-148257485D02*
G01*
X65530388Y-148310702D01*
X65041501Y-147812152D01*
X64292958Y-147932721D01*
X64379179Y-148496129D01*
X64048786Y-148549346D01*
X63837253Y-146883546D01*
X64131695Y-146883546D01*
X64255351Y-147681907D01*
X64823213Y-147590440D01*
X64131695Y-146883546D01*
X63837253Y-146883546D01*
X63807235Y-146647161D01*
X64168600Y-146588954D01*
X65860780Y-148257485D01*
G37*
X65860780Y-148257485D02*
X65530388Y-148310702D01*
X65041501Y-147812152D01*
X64292958Y-147932721D01*
X64379179Y-148496129D01*
X64048786Y-148549346D01*
X63837253Y-146883546D01*
X64131695Y-146883546D01*
X64255351Y-147681907D01*
X64823213Y-147590440D01*
X64131695Y-146883546D01*
X63837253Y-146883546D01*
X63807235Y-146647161D01*
X64168600Y-146588954D01*
X65860780Y-148257485D01*
G36*
X66724125Y-146431552D02*
G01*
X66047855Y-146540481D01*
X66888092Y-148092013D01*
X66606742Y-148137330D01*
X65766505Y-146585797D01*
X65090234Y-146694726D01*
X64963605Y-146460898D01*
X66597496Y-146197724D01*
X66724125Y-146431552D01*
G37*
X66724125Y-146431552D02*
X66047855Y-146540481D01*
X66888092Y-148092013D01*
X66606742Y-148137330D01*
X65766505Y-146585797D01*
X65090234Y-146694726D01*
X64963605Y-146460898D01*
X66597496Y-146197724D01*
X66724125Y-146431552D01*
G36*
X72781813Y-147587014D02*
G01*
X72960083Y-147558444D01*
X72980737Y-147555471D01*
X73001374Y-147553177D01*
X73021994Y-147551561D01*
X73042596Y-147550622D01*
X73063181Y-147550362D01*
X73083749Y-147550780D01*
X73104299Y-147551876D01*
X73124832Y-147553650D01*
X73145348Y-147556102D01*
X73165847Y-147559233D01*
X73186328Y-147563041D01*
X73206792Y-147567527D01*
X73227239Y-147572692D01*
X73247668Y-147578534D01*
X73268080Y-147585055D01*
X73288475Y-147592254D01*
X73308566Y-147600014D01*
X73328346Y-147608590D01*
X73347815Y-147617982D01*
X73366973Y-147628191D01*
X73385819Y-147639215D01*
X73404355Y-147651055D01*
X73422579Y-147663712D01*
X73440492Y-147677185D01*
X73458095Y-147691473D01*
X73475385Y-147706578D01*
X73492365Y-147722499D01*
X73509034Y-147739236D01*
X73525392Y-147756788D01*
X73541438Y-147775157D01*
X73557173Y-147794342D01*
X73572597Y-147814343D01*
X73585277Y-147831765D01*
X73596941Y-147848778D01*
X73607591Y-147865382D01*
X73617226Y-147881578D01*
X73625846Y-147897364D01*
X73633452Y-147912742D01*
X73640042Y-147927712D01*
X73645618Y-147942272D01*
X73650179Y-147956424D01*
X73653725Y-147970166D01*
X73656257Y-147983500D01*
X73657773Y-147996425D01*
X73658275Y-148008942D01*
X73657762Y-148021049D01*
X73656235Y-148032748D01*
X73653692Y-148044038D01*
X73652005Y-148049442D01*
X73650134Y-148054757D01*
X73648078Y-148059980D01*
X73645837Y-148065113D01*
X73643411Y-148070156D01*
X73640801Y-148075108D01*
X73638006Y-148079970D01*
X73635026Y-148084741D01*
X73631862Y-148089421D01*
X73628513Y-148094011D01*
X73621261Y-148102920D01*
X73613270Y-148111467D01*
X73604540Y-148119651D01*
X73595072Y-148127474D01*
X73584864Y-148134934D01*
X73573918Y-148142033D01*
X73562233Y-148148769D01*
X73549809Y-148155143D01*
X73536646Y-148161155D01*
X73522745Y-148166805D01*
X73508104Y-148172093D01*
X74193792Y-148579167D01*
X73983108Y-148612931D01*
X73317560Y-148210940D01*
X73255976Y-148220809D01*
X73006397Y-148260808D01*
X73346197Y-148715005D01*
X73169546Y-148743314D01*
X72441007Y-147769505D01*
X72638838Y-147769505D01*
X72898683Y-148116832D01*
X73226053Y-148064366D01*
X73248157Y-148060668D01*
X73269090Y-148056846D01*
X73288853Y-148052900D01*
X73307445Y-148048830D01*
X73324867Y-148044637D01*
X73341120Y-148040319D01*
X73356201Y-148035878D01*
X73370113Y-148031312D01*
X73376816Y-148028862D01*
X73383193Y-148026204D01*
X73389245Y-148023338D01*
X73394971Y-148020265D01*
X73400372Y-148016984D01*
X73405447Y-148013496D01*
X73410197Y-148009800D01*
X73414622Y-148005896D01*
X73418721Y-148001785D01*
X73422494Y-147997466D01*
X73425942Y-147992939D01*
X73429064Y-147988205D01*
X73431861Y-147983263D01*
X73434333Y-147978113D01*
X73436479Y-147972756D01*
X73438299Y-147967191D01*
X73439157Y-147964308D01*
X73439871Y-147961361D01*
X73440442Y-147958349D01*
X73440868Y-147955273D01*
X73441150Y-147952132D01*
X73441288Y-147948926D01*
X73441132Y-147942322D01*
X73440400Y-147935459D01*
X73439092Y-147928337D01*
X73437208Y-147920958D01*
X73434748Y-147913320D01*
X73431712Y-147905423D01*
X73428100Y-147897269D01*
X73423912Y-147888856D01*
X73419148Y-147880185D01*
X73413808Y-147871255D01*
X73407892Y-147862068D01*
X73401399Y-147852622D01*
X73394331Y-147842917D01*
X73386920Y-147833268D01*
X73379402Y-147823986D01*
X73371776Y-147815073D01*
X73364043Y-147806527D01*
X73356202Y-147798349D01*
X73348253Y-147790539D01*
X73340197Y-147783097D01*
X73332033Y-147776022D01*
X73323762Y-147769316D01*
X73315383Y-147762977D01*
X73306896Y-147757007D01*
X73298302Y-147751404D01*
X73289600Y-147746169D01*
X73280790Y-147741301D01*
X73271873Y-147736802D01*
X73262848Y-147732671D01*
X73253983Y-147728819D01*
X73245139Y-147725223D01*
X73236317Y-147721884D01*
X73227516Y-147718801D01*
X73218737Y-147715974D01*
X73209979Y-147713404D01*
X73201243Y-147711089D01*
X73192529Y-147709032D01*
X73183836Y-147707230D01*
X73175165Y-147705685D01*
X73166515Y-147704396D01*
X73157887Y-147703363D01*
X73149280Y-147702586D01*
X73140695Y-147702066D01*
X73132132Y-147701802D01*
X73123590Y-147701795D01*
X73106558Y-147702188D01*
X73088771Y-147703014D01*
X73070230Y-147704272D01*
X73050935Y-147705963D01*
X73030886Y-147708086D01*
X73010082Y-147710642D01*
X72988525Y-147713629D01*
X72966213Y-147717050D01*
X72638838Y-147769505D01*
X72441007Y-147769505D01*
X72355583Y-147655322D01*
X72781813Y-147587014D01*
G37*
X72781813Y-147587014D02*
X72960083Y-147558444D01*
X72980737Y-147555471D01*
X73001374Y-147553177D01*
X73021994Y-147551561D01*
X73042596Y-147550622D01*
X73063181Y-147550362D01*
X73083749Y-147550780D01*
X73104299Y-147551876D01*
X73124832Y-147553650D01*
X73145348Y-147556102D01*
X73165847Y-147559233D01*
X73186328Y-147563041D01*
X73206792Y-147567527D01*
X73227239Y-147572692D01*
X73247668Y-147578534D01*
X73268080Y-147585055D01*
X73288475Y-147592254D01*
X73308566Y-147600014D01*
X73328346Y-147608590D01*
X73347815Y-147617982D01*
X73366973Y-147628191D01*
X73385819Y-147639215D01*
X73404355Y-147651055D01*
X73422579Y-147663712D01*
X73440492Y-147677185D01*
X73458095Y-147691473D01*
X73475385Y-147706578D01*
X73492365Y-147722499D01*
X73509034Y-147739236D01*
X73525392Y-147756788D01*
X73541438Y-147775157D01*
X73557173Y-147794342D01*
X73572597Y-147814343D01*
X73585277Y-147831765D01*
X73596941Y-147848778D01*
X73607591Y-147865382D01*
X73617226Y-147881578D01*
X73625846Y-147897364D01*
X73633452Y-147912742D01*
X73640042Y-147927712D01*
X73645618Y-147942272D01*
X73650179Y-147956424D01*
X73653725Y-147970166D01*
X73656257Y-147983500D01*
X73657773Y-147996425D01*
X73658275Y-148008942D01*
X73657762Y-148021049D01*
X73656235Y-148032748D01*
X73653692Y-148044038D01*
X73652005Y-148049442D01*
X73650134Y-148054757D01*
X73648078Y-148059980D01*
X73645837Y-148065113D01*
X73643411Y-148070156D01*
X73640801Y-148075108D01*
X73638006Y-148079970D01*
X73635026Y-148084741D01*
X73631862Y-148089421D01*
X73628513Y-148094011D01*
X73621261Y-148102920D01*
X73613270Y-148111467D01*
X73604540Y-148119651D01*
X73595072Y-148127474D01*
X73584864Y-148134934D01*
X73573918Y-148142033D01*
X73562233Y-148148769D01*
X73549809Y-148155143D01*
X73536646Y-148161155D01*
X73522745Y-148166805D01*
X73508104Y-148172093D01*
X74193792Y-148579167D01*
X73983108Y-148612931D01*
X73317560Y-148210940D01*
X73255976Y-148220809D01*
X73006397Y-148260808D01*
X73346197Y-148715005D01*
X73169546Y-148743314D01*
X72441007Y-147769505D01*
X72638838Y-147769505D01*
X72898683Y-148116832D01*
X73226053Y-148064366D01*
X73248157Y-148060668D01*
X73269090Y-148056846D01*
X73288853Y-148052900D01*
X73307445Y-148048830D01*
X73324867Y-148044637D01*
X73341120Y-148040319D01*
X73356201Y-148035878D01*
X73370113Y-148031312D01*
X73376816Y-148028862D01*
X73383193Y-148026204D01*
X73389245Y-148023338D01*
X73394971Y-148020265D01*
X73400372Y-148016984D01*
X73405447Y-148013496D01*
X73410197Y-148009800D01*
X73414622Y-148005896D01*
X73418721Y-148001785D01*
X73422494Y-147997466D01*
X73425942Y-147992939D01*
X73429064Y-147988205D01*
X73431861Y-147983263D01*
X73434333Y-147978113D01*
X73436479Y-147972756D01*
X73438299Y-147967191D01*
X73439157Y-147964308D01*
X73439871Y-147961361D01*
X73440442Y-147958349D01*
X73440868Y-147955273D01*
X73441150Y-147952132D01*
X73441288Y-147948926D01*
X73441132Y-147942322D01*
X73440400Y-147935459D01*
X73439092Y-147928337D01*
X73437208Y-147920958D01*
X73434748Y-147913320D01*
X73431712Y-147905423D01*
X73428100Y-147897269D01*
X73423912Y-147888856D01*
X73419148Y-147880185D01*
X73413808Y-147871255D01*
X73407892Y-147862068D01*
X73401399Y-147852622D01*
X73394331Y-147842917D01*
X73386920Y-147833268D01*
X73379402Y-147823986D01*
X73371776Y-147815073D01*
X73364043Y-147806527D01*
X73356202Y-147798349D01*
X73348253Y-147790539D01*
X73340197Y-147783097D01*
X73332033Y-147776022D01*
X73323762Y-147769316D01*
X73315383Y-147762977D01*
X73306896Y-147757007D01*
X73298302Y-147751404D01*
X73289600Y-147746169D01*
X73280790Y-147741301D01*
X73271873Y-147736802D01*
X73262848Y-147732671D01*
X73253983Y-147728819D01*
X73245139Y-147725223D01*
X73236317Y-147721884D01*
X73227516Y-147718801D01*
X73218737Y-147715974D01*
X73209979Y-147713404D01*
X73201243Y-147711089D01*
X73192529Y-147709032D01*
X73183836Y-147707230D01*
X73175165Y-147705685D01*
X73166515Y-147704396D01*
X73157887Y-147703363D01*
X73149280Y-147702586D01*
X73140695Y-147702066D01*
X73132132Y-147701802D01*
X73123590Y-147701795D01*
X73106558Y-147702188D01*
X73088771Y-147703014D01*
X73070230Y-147704272D01*
X73050935Y-147705963D01*
X73030886Y-147708086D01*
X73010082Y-147710642D01*
X72988525Y-147713629D01*
X72966213Y-147717050D01*
X72638838Y-147769505D01*
X72441007Y-147769505D01*
X72355583Y-147655322D01*
X72781813Y-147587014D01*
D10*
X64000000Y-69000000D02*
G75*
G03*
X64000000Y-69000000I-12000000J0D01*
G01*
D11*
G36*
X87305034Y-138720109D02*
G01*
X87491125Y-138738353D01*
X87673823Y-138768020D01*
X87852056Y-138808505D01*
X88024750Y-138859203D01*
X88190831Y-138919508D01*
X88349227Y-138988816D01*
X88498864Y-139066520D01*
X88638669Y-139152017D01*
X88767569Y-139244701D01*
X88884490Y-139343967D01*
X88988359Y-139449209D01*
X89078102Y-139559823D01*
X89152648Y-139675202D01*
X89183886Y-139734490D01*
X89210921Y-139794743D01*
X89233621Y-139855885D01*
X89251850Y-139917840D01*
X89265324Y-139979795D01*
X89273911Y-140040937D01*
X89277708Y-140101190D01*
X89276808Y-140160478D01*
X89271308Y-140218726D01*
X89261304Y-140275858D01*
X89246890Y-140331798D01*
X89228162Y-140386471D01*
X89205216Y-140439802D01*
X89178147Y-140491714D01*
X89147050Y-140542131D01*
X89112021Y-140590979D01*
X89073156Y-140638182D01*
X89030549Y-140683663D01*
X88984297Y-140727348D01*
X88934494Y-140769160D01*
X88881236Y-140809025D01*
X88824619Y-140846866D01*
X88764738Y-140882607D01*
X88701689Y-140916173D01*
X88635567Y-140947489D01*
X88566467Y-140976479D01*
X88494484Y-141003067D01*
X88419716Y-141027177D01*
X88342255Y-141048734D01*
X88262200Y-141067662D01*
X88179643Y-141083885D01*
X88094682Y-141097329D01*
X88007412Y-141107917D01*
X87917927Y-141115573D01*
X87826324Y-141120222D01*
X87732698Y-141121789D01*
X87544289Y-141115573D01*
X87358198Y-141097329D01*
X87175500Y-141067662D01*
X86997268Y-141027177D01*
X86824575Y-140976479D01*
X86658493Y-140916173D01*
X86500098Y-140846866D01*
X86350461Y-140769160D01*
X86210656Y-140683663D01*
X86081756Y-140590979D01*
X85964835Y-140491714D01*
X85860966Y-140386471D01*
X85771222Y-140275858D01*
X85696677Y-140160478D01*
X85665439Y-140101190D01*
X85638403Y-140040937D01*
X85615704Y-139979795D01*
X85597475Y-139917840D01*
X85584001Y-139855885D01*
X85575413Y-139794743D01*
X85571617Y-139734490D01*
X85572517Y-139675202D01*
X85578016Y-139616954D01*
X85588021Y-139559823D01*
X85602435Y-139503882D01*
X85621163Y-139449209D01*
X85644109Y-139395879D01*
X85671178Y-139343967D01*
X85702275Y-139293549D01*
X85737304Y-139244701D01*
X85776169Y-139197499D01*
X85818776Y-139152017D01*
X85865028Y-139108333D01*
X85914831Y-139066520D01*
X85968088Y-139026656D01*
X86024705Y-138988816D01*
X86084586Y-138953074D01*
X86147635Y-138919508D01*
X86213758Y-138888192D01*
X86282858Y-138859203D01*
X86354840Y-138832615D01*
X86429609Y-138808505D01*
X86507068Y-138786948D01*
X86587124Y-138768020D01*
X86669680Y-138751796D01*
X86754641Y-138738353D01*
X86841912Y-138727765D01*
X86931396Y-138720109D01*
X87022999Y-138715459D01*
X87116625Y-138713893D01*
X87305034Y-138720109D01*
G37*
X87305034Y-138720109D02*
X87491125Y-138738353D01*
X87673823Y-138768020D01*
X87852056Y-138808505D01*
X88024750Y-138859203D01*
X88190831Y-138919508D01*
X88349227Y-138988816D01*
X88498864Y-139066520D01*
X88638669Y-139152017D01*
X88767569Y-139244701D01*
X88884490Y-139343967D01*
X88988359Y-139449209D01*
X89078102Y-139559823D01*
X89152648Y-139675202D01*
X89183886Y-139734490D01*
X89210921Y-139794743D01*
X89233621Y-139855885D01*
X89251850Y-139917840D01*
X89265324Y-139979795D01*
X89273911Y-140040937D01*
X89277708Y-140101190D01*
X89276808Y-140160478D01*
X89271308Y-140218726D01*
X89261304Y-140275858D01*
X89246890Y-140331798D01*
X89228162Y-140386471D01*
X89205216Y-140439802D01*
X89178147Y-140491714D01*
X89147050Y-140542131D01*
X89112021Y-140590979D01*
X89073156Y-140638182D01*
X89030549Y-140683663D01*
X88984297Y-140727348D01*
X88934494Y-140769160D01*
X88881236Y-140809025D01*
X88824619Y-140846866D01*
X88764738Y-140882607D01*
X88701689Y-140916173D01*
X88635567Y-140947489D01*
X88566467Y-140976479D01*
X88494484Y-141003067D01*
X88419716Y-141027177D01*
X88342255Y-141048734D01*
X88262200Y-141067662D01*
X88179643Y-141083885D01*
X88094682Y-141097329D01*
X88007412Y-141107917D01*
X87917927Y-141115573D01*
X87826324Y-141120222D01*
X87732698Y-141121789D01*
X87544289Y-141115573D01*
X87358198Y-141097329D01*
X87175500Y-141067662D01*
X86997268Y-141027177D01*
X86824575Y-140976479D01*
X86658493Y-140916173D01*
X86500098Y-140846866D01*
X86350461Y-140769160D01*
X86210656Y-140683663D01*
X86081756Y-140590979D01*
X85964835Y-140491714D01*
X85860966Y-140386471D01*
X85771222Y-140275858D01*
X85696677Y-140160478D01*
X85665439Y-140101190D01*
X85638403Y-140040937D01*
X85615704Y-139979795D01*
X85597475Y-139917840D01*
X85584001Y-139855885D01*
X85575413Y-139794743D01*
X85571617Y-139734490D01*
X85572517Y-139675202D01*
X85578016Y-139616954D01*
X85588021Y-139559823D01*
X85602435Y-139503882D01*
X85621163Y-139449209D01*
X85644109Y-139395879D01*
X85671178Y-139343967D01*
X85702275Y-139293549D01*
X85737304Y-139244701D01*
X85776169Y-139197499D01*
X85818776Y-139152017D01*
X85865028Y-139108333D01*
X85914831Y-139066520D01*
X85968088Y-139026656D01*
X86024705Y-138988816D01*
X86084586Y-138953074D01*
X86147635Y-138919508D01*
X86213758Y-138888192D01*
X86282858Y-138859203D01*
X86354840Y-138832615D01*
X86429609Y-138808505D01*
X86507068Y-138786948D01*
X86587124Y-138768020D01*
X86669680Y-138751796D01*
X86754641Y-138738353D01*
X86841912Y-138727765D01*
X86931396Y-138720109D01*
X87022999Y-138715459D01*
X87116625Y-138713893D01*
X87305034Y-138720109D01*
D10*
X171650000Y-58540000D02*
G75*
G03*
X171650000Y-58540000I-12000000J0D01*
G01*
D11*
G36*
X72323469Y-146199641D02*
G01*
X73516580Y-147024354D01*
X73181026Y-147078402D01*
X72278419Y-146458470D01*
X72140808Y-147245952D01*
X71797510Y-147301248D01*
X71984072Y-146256957D01*
X70890013Y-145506326D01*
X71235891Y-145450616D01*
X72029119Y-145998126D01*
X72152212Y-145303021D01*
X72487766Y-145248975D01*
X72323469Y-146199641D01*
G37*
X72323469Y-146199641D02*
X73516580Y-147024354D01*
X73181026Y-147078402D01*
X72278419Y-146458470D01*
X72140808Y-147245952D01*
X71797510Y-147301248D01*
X71984072Y-146256957D01*
X70890013Y-145506326D01*
X71235891Y-145450616D01*
X72029119Y-145998126D01*
X72152212Y-145303021D01*
X72487766Y-145248975D01*
X72323469Y-146199641D01*
G36*
X76100798Y-141499435D02*
G01*
X76319425Y-141524328D01*
X76534067Y-141564807D01*
X76743462Y-141620045D01*
X76946350Y-141689218D01*
X77141470Y-141771500D01*
X77327560Y-141866065D01*
X77503360Y-141972088D01*
X77667609Y-142088742D01*
X77819046Y-142215202D01*
X77956410Y-142350642D01*
X78078439Y-142494237D01*
X78183874Y-142645160D01*
X78229975Y-142723112D01*
X78271453Y-142802587D01*
X78308153Y-142883481D01*
X78339916Y-142965691D01*
X78366584Y-143049114D01*
X78388000Y-143133647D01*
X78403830Y-143218180D01*
X78413919Y-143301602D01*
X78418379Y-143383812D01*
X78417322Y-143464706D01*
X78410861Y-143544181D01*
X78399107Y-143622133D01*
X78382173Y-143698459D01*
X78360171Y-143773056D01*
X78333213Y-143845821D01*
X78301411Y-143916651D01*
X78264877Y-143985441D01*
X78223724Y-144052091D01*
X78178063Y-144116495D01*
X78128007Y-144178550D01*
X78073667Y-144238155D01*
X78015157Y-144295204D01*
X77952588Y-144349596D01*
X77886072Y-144401227D01*
X77815721Y-144449993D01*
X77741648Y-144495792D01*
X77663964Y-144538520D01*
X77582783Y-144578074D01*
X77498215Y-144614350D01*
X77410373Y-144647247D01*
X77319370Y-144676659D01*
X77225317Y-144702485D01*
X77128327Y-144724621D01*
X77028511Y-144742964D01*
X76925982Y-144757410D01*
X76820852Y-144767857D01*
X76713233Y-144774200D01*
X76603237Y-144776338D01*
X76381885Y-144767857D01*
X76163257Y-144742964D01*
X75948615Y-144702485D01*
X75739219Y-144647247D01*
X75536331Y-144578074D01*
X75341212Y-144495792D01*
X75155121Y-144401227D01*
X74979321Y-144295204D01*
X74815072Y-144178550D01*
X74663635Y-144052091D01*
X74526271Y-143916651D01*
X74404242Y-143773056D01*
X74298807Y-143622133D01*
X74252706Y-143544181D01*
X74211228Y-143464706D01*
X74174528Y-143383812D01*
X74142765Y-143301602D01*
X74116097Y-143218180D01*
X74094681Y-143133647D01*
X74078851Y-143049114D01*
X74068762Y-142965691D01*
X74064302Y-142883481D01*
X74065359Y-142802587D01*
X74071820Y-142723112D01*
X74083574Y-142645160D01*
X74100508Y-142568834D01*
X74122510Y-142494237D01*
X74149468Y-142421472D01*
X74181270Y-142350642D01*
X74217804Y-142281851D01*
X74258957Y-142215202D01*
X74304618Y-142150798D01*
X74354675Y-142088742D01*
X74409014Y-142029137D01*
X74467524Y-141972088D01*
X74530094Y-141917696D01*
X74596610Y-141866065D01*
X74666960Y-141817299D01*
X74741034Y-141771500D01*
X74818717Y-141728772D01*
X74899899Y-141689218D01*
X74984467Y-141652942D01*
X75072308Y-141620045D01*
X75163312Y-141590633D01*
X75257365Y-141564807D01*
X75354355Y-141542671D01*
X75454171Y-141524328D01*
X75556700Y-141509882D01*
X75661831Y-141499435D01*
X75769450Y-141493092D01*
X75879446Y-141490954D01*
X76100798Y-141499435D01*
G37*
X76100798Y-141499435D02*
X76319425Y-141524328D01*
X76534067Y-141564807D01*
X76743462Y-141620045D01*
X76946350Y-141689218D01*
X77141470Y-141771500D01*
X77327560Y-141866065D01*
X77503360Y-141972088D01*
X77667609Y-142088742D01*
X77819046Y-142215202D01*
X77956410Y-142350642D01*
X78078439Y-142494237D01*
X78183874Y-142645160D01*
X78229975Y-142723112D01*
X78271453Y-142802587D01*
X78308153Y-142883481D01*
X78339916Y-142965691D01*
X78366584Y-143049114D01*
X78388000Y-143133647D01*
X78403830Y-143218180D01*
X78413919Y-143301602D01*
X78418379Y-143383812D01*
X78417322Y-143464706D01*
X78410861Y-143544181D01*
X78399107Y-143622133D01*
X78382173Y-143698459D01*
X78360171Y-143773056D01*
X78333213Y-143845821D01*
X78301411Y-143916651D01*
X78264877Y-143985441D01*
X78223724Y-144052091D01*
X78178063Y-144116495D01*
X78128007Y-144178550D01*
X78073667Y-144238155D01*
X78015157Y-144295204D01*
X77952588Y-144349596D01*
X77886072Y-144401227D01*
X77815721Y-144449993D01*
X77741648Y-144495792D01*
X77663964Y-144538520D01*
X77582783Y-144578074D01*
X77498215Y-144614350D01*
X77410373Y-144647247D01*
X77319370Y-144676659D01*
X77225317Y-144702485D01*
X77128327Y-144724621D01*
X77028511Y-144742964D01*
X76925982Y-144757410D01*
X76820852Y-144767857D01*
X76713233Y-144774200D01*
X76603237Y-144776338D01*
X76381885Y-144767857D01*
X76163257Y-144742964D01*
X75948615Y-144702485D01*
X75739219Y-144647247D01*
X75536331Y-144578074D01*
X75341212Y-144495792D01*
X75155121Y-144401227D01*
X74979321Y-144295204D01*
X74815072Y-144178550D01*
X74663635Y-144052091D01*
X74526271Y-143916651D01*
X74404242Y-143773056D01*
X74298807Y-143622133D01*
X74252706Y-143544181D01*
X74211228Y-143464706D01*
X74174528Y-143383812D01*
X74142765Y-143301602D01*
X74116097Y-143218180D01*
X74094681Y-143133647D01*
X74078851Y-143049114D01*
X74068762Y-142965691D01*
X74064302Y-142883481D01*
X74065359Y-142802587D01*
X74071820Y-142723112D01*
X74083574Y-142645160D01*
X74100508Y-142568834D01*
X74122510Y-142494237D01*
X74149468Y-142421472D01*
X74181270Y-142350642D01*
X74217804Y-142281851D01*
X74258957Y-142215202D01*
X74304618Y-142150798D01*
X74354675Y-142088742D01*
X74409014Y-142029137D01*
X74467524Y-141972088D01*
X74530094Y-141917696D01*
X74596610Y-141866065D01*
X74666960Y-141817299D01*
X74741034Y-141771500D01*
X74818717Y-141728772D01*
X74899899Y-141689218D01*
X74984467Y-141652942D01*
X75072308Y-141620045D01*
X75163312Y-141590633D01*
X75257365Y-141564807D01*
X75354355Y-141542671D01*
X75454171Y-141524328D01*
X75556700Y-141509882D01*
X75661831Y-141499435D01*
X75769450Y-141493092D01*
X75879446Y-141490954D01*
X76100798Y-141499435D01*
D10*
X134040000Y-134920000D02*
G75*
G03*
X134040000Y-134920000I-15000000J0D01*
G01*
D11*
G36*
X62570876Y-148530522D02*
G01*
X63843401Y-148325555D01*
X63971350Y-148561818D01*
X62417476Y-148812100D01*
X61450610Y-147026742D01*
X61731959Y-146981423D01*
X62570876Y-148530522D01*
G37*
X62570876Y-148530522D02*
X63843401Y-148325555D01*
X63971350Y-148561818D01*
X62417476Y-148812100D01*
X61450610Y-147026742D01*
X61731959Y-146981423D01*
X62570876Y-148530522D01*
G36*
X84305216Y-136104268D02*
G01*
X84491306Y-136122512D01*
X84674005Y-136152179D01*
X84852237Y-136192664D01*
X85024931Y-136243362D01*
X85191012Y-136303667D01*
X85349408Y-136372975D01*
X85499045Y-136450680D01*
X85638850Y-136536176D01*
X85767750Y-136628860D01*
X85884671Y-136728126D01*
X85988540Y-136833368D01*
X86078284Y-136943982D01*
X86152829Y-137059361D01*
X86184067Y-137118650D01*
X86211103Y-137178902D01*
X86233802Y-137240044D01*
X86252031Y-137301999D01*
X86265505Y-137363954D01*
X86274093Y-137425096D01*
X86277889Y-137485348D01*
X86276989Y-137544636D01*
X86271490Y-137602884D01*
X86261485Y-137660016D01*
X86247071Y-137715956D01*
X86228343Y-137770629D01*
X86205397Y-137823960D01*
X86178328Y-137875871D01*
X86147231Y-137926289D01*
X86112202Y-137975137D01*
X86073337Y-138022339D01*
X86030730Y-138067821D01*
X85984478Y-138111506D01*
X85934675Y-138153318D01*
X85881417Y-138193182D01*
X85824801Y-138231023D01*
X85764920Y-138266764D01*
X85701870Y-138300331D01*
X85635748Y-138331646D01*
X85566648Y-138360636D01*
X85494666Y-138387224D01*
X85419897Y-138411334D01*
X85342437Y-138432891D01*
X85262381Y-138451819D01*
X85179825Y-138468043D01*
X85094864Y-138481486D01*
X85007593Y-138492074D01*
X84918109Y-138499730D01*
X84826506Y-138504380D01*
X84732879Y-138505946D01*
X84544470Y-138499730D01*
X84358379Y-138481486D01*
X84175681Y-138451819D01*
X83997448Y-138411334D01*
X83824754Y-138360636D01*
X83658673Y-138300331D01*
X83500277Y-138231023D01*
X83350640Y-138153318D01*
X83210835Y-138067821D01*
X83081936Y-137975137D01*
X82965015Y-137875871D01*
X82861146Y-137770629D01*
X82771402Y-137660016D01*
X82696856Y-137544636D01*
X82665618Y-137485348D01*
X82638583Y-137425096D01*
X82615883Y-137363954D01*
X82597654Y-137301999D01*
X82584180Y-137240044D01*
X82575593Y-137178902D01*
X82571797Y-137118650D01*
X82572696Y-137059361D01*
X82578196Y-137001114D01*
X82588200Y-136943982D01*
X82602614Y-136888041D01*
X82621342Y-136833368D01*
X82644288Y-136780038D01*
X82671357Y-136728126D01*
X82702454Y-136677708D01*
X82737483Y-136628860D01*
X82776348Y-136581658D01*
X82818955Y-136536176D01*
X82865208Y-136492492D01*
X82915010Y-136450680D01*
X82968268Y-136410815D01*
X83024885Y-136372975D01*
X83084766Y-136337233D01*
X83147815Y-136303667D01*
X83213938Y-136272351D01*
X83283038Y-136243362D01*
X83355020Y-136216774D01*
X83429789Y-136192664D01*
X83507249Y-136171107D01*
X83587305Y-136152179D01*
X83669861Y-136135955D01*
X83754822Y-136122512D01*
X83842092Y-136111924D01*
X83931577Y-136104268D01*
X84023180Y-136099619D01*
X84116806Y-136098052D01*
X84305216Y-136104268D01*
G37*
X84305216Y-136104268D02*
X84491306Y-136122512D01*
X84674005Y-136152179D01*
X84852237Y-136192664D01*
X85024931Y-136243362D01*
X85191012Y-136303667D01*
X85349408Y-136372975D01*
X85499045Y-136450680D01*
X85638850Y-136536176D01*
X85767750Y-136628860D01*
X85884671Y-136728126D01*
X85988540Y-136833368D01*
X86078284Y-136943982D01*
X86152829Y-137059361D01*
X86184067Y-137118650D01*
X86211103Y-137178902D01*
X86233802Y-137240044D01*
X86252031Y-137301999D01*
X86265505Y-137363954D01*
X86274093Y-137425096D01*
X86277889Y-137485348D01*
X86276989Y-137544636D01*
X86271490Y-137602884D01*
X86261485Y-137660016D01*
X86247071Y-137715956D01*
X86228343Y-137770629D01*
X86205397Y-137823960D01*
X86178328Y-137875871D01*
X86147231Y-137926289D01*
X86112202Y-137975137D01*
X86073337Y-138022339D01*
X86030730Y-138067821D01*
X85984478Y-138111506D01*
X85934675Y-138153318D01*
X85881417Y-138193182D01*
X85824801Y-138231023D01*
X85764920Y-138266764D01*
X85701870Y-138300331D01*
X85635748Y-138331646D01*
X85566648Y-138360636D01*
X85494666Y-138387224D01*
X85419897Y-138411334D01*
X85342437Y-138432891D01*
X85262381Y-138451819D01*
X85179825Y-138468043D01*
X85094864Y-138481486D01*
X85007593Y-138492074D01*
X84918109Y-138499730D01*
X84826506Y-138504380D01*
X84732879Y-138505946D01*
X84544470Y-138499730D01*
X84358379Y-138481486D01*
X84175681Y-138451819D01*
X83997448Y-138411334D01*
X83824754Y-138360636D01*
X83658673Y-138300331D01*
X83500277Y-138231023D01*
X83350640Y-138153318D01*
X83210835Y-138067821D01*
X83081936Y-137975137D01*
X82965015Y-137875871D01*
X82861146Y-137770629D01*
X82771402Y-137660016D01*
X82696856Y-137544636D01*
X82665618Y-137485348D01*
X82638583Y-137425096D01*
X82615883Y-137363954D01*
X82597654Y-137301999D01*
X82584180Y-137240044D01*
X82575593Y-137178902D01*
X82571797Y-137118650D01*
X82572696Y-137059361D01*
X82578196Y-137001114D01*
X82588200Y-136943982D01*
X82602614Y-136888041D01*
X82621342Y-136833368D01*
X82644288Y-136780038D01*
X82671357Y-136728126D01*
X82702454Y-136677708D01*
X82737483Y-136628860D01*
X82776348Y-136581658D01*
X82818955Y-136536176D01*
X82865208Y-136492492D01*
X82915010Y-136450680D01*
X82968268Y-136410815D01*
X83024885Y-136372975D01*
X83084766Y-136337233D01*
X83147815Y-136303667D01*
X83213938Y-136272351D01*
X83283038Y-136243362D01*
X83355020Y-136216774D01*
X83429789Y-136192664D01*
X83507249Y-136171107D01*
X83587305Y-136152179D01*
X83669861Y-136135955D01*
X83754822Y-136122512D01*
X83842092Y-136111924D01*
X83931577Y-136104268D01*
X84023180Y-136099619D01*
X84116806Y-136098052D01*
X84305216Y-136104268D01*
G36*
X70965107Y-141283451D02*
G01*
X71183735Y-141308344D01*
X71398376Y-141348822D01*
X71607772Y-141404061D01*
X71810660Y-141473234D01*
X72005779Y-141555516D01*
X72191869Y-141650081D01*
X72367669Y-141756103D01*
X72531918Y-141872757D01*
X72683355Y-141999217D01*
X72820719Y-142134657D01*
X72942749Y-142278252D01*
X73048184Y-142429175D01*
X73094284Y-142507127D01*
X73135763Y-142586601D01*
X73172462Y-142667495D01*
X73204225Y-142749705D01*
X73230893Y-142833128D01*
X73252310Y-142917661D01*
X73268139Y-143002193D01*
X73278228Y-143085616D01*
X73282688Y-143167826D01*
X73281632Y-143248720D01*
X73275170Y-143328194D01*
X73263417Y-143406146D01*
X73246483Y-143482473D01*
X73224480Y-143557070D01*
X73197522Y-143629835D01*
X73165720Y-143700664D01*
X73129186Y-143769455D01*
X73088033Y-143836104D01*
X73042372Y-143900508D01*
X72992316Y-143962564D01*
X72937976Y-144022168D01*
X72879466Y-144079218D01*
X72816897Y-144133610D01*
X72750380Y-144185240D01*
X72680030Y-144234007D01*
X72605957Y-144279805D01*
X72528273Y-144322533D01*
X72447091Y-144362087D01*
X72362524Y-144398364D01*
X72274682Y-144431260D01*
X72183679Y-144460673D01*
X72089625Y-144486499D01*
X71992635Y-144508635D01*
X71892819Y-144526978D01*
X71790290Y-144541424D01*
X71685160Y-144551870D01*
X71577540Y-144558214D01*
X71467544Y-144560351D01*
X71246192Y-144551870D01*
X71027565Y-144526978D01*
X70812923Y-144486499D01*
X70603528Y-144431260D01*
X70400640Y-144362087D01*
X70205520Y-144279805D01*
X70019430Y-144185240D01*
X69843630Y-144079218D01*
X69679381Y-143962564D01*
X69527944Y-143836104D01*
X69390581Y-143700664D01*
X69268551Y-143557070D01*
X69163116Y-143406146D01*
X69117016Y-143328194D01*
X69075537Y-143248720D01*
X69038837Y-143167826D01*
X69007075Y-143085616D01*
X68980406Y-143002193D01*
X68958990Y-142917661D01*
X68943160Y-142833128D01*
X68933071Y-142749705D01*
X68928611Y-142667495D01*
X68929668Y-142586601D01*
X68936129Y-142507127D01*
X68947883Y-142429175D01*
X68964817Y-142352849D01*
X68986819Y-142278252D01*
X69013777Y-142205487D01*
X69045580Y-142134657D01*
X69082113Y-142065866D01*
X69123267Y-141999217D01*
X69168928Y-141934813D01*
X69218984Y-141872757D01*
X69273323Y-141813153D01*
X69331834Y-141756103D01*
X69394403Y-141701712D01*
X69460919Y-141650081D01*
X69531270Y-141601315D01*
X69605343Y-141555516D01*
X69683026Y-141512788D01*
X69764208Y-141473234D01*
X69848776Y-141436957D01*
X69936618Y-141404061D01*
X70027621Y-141374648D01*
X70121674Y-141348822D01*
X70218665Y-141326686D01*
X70318481Y-141308344D01*
X70421010Y-141293898D01*
X70526140Y-141283451D01*
X70633759Y-141277107D01*
X70743755Y-141274970D01*
X70965107Y-141283451D01*
G37*
X70965107Y-141283451D02*
X71183735Y-141308344D01*
X71398376Y-141348822D01*
X71607772Y-141404061D01*
X71810660Y-141473234D01*
X72005779Y-141555516D01*
X72191869Y-141650081D01*
X72367669Y-141756103D01*
X72531918Y-141872757D01*
X72683355Y-141999217D01*
X72820719Y-142134657D01*
X72942749Y-142278252D01*
X73048184Y-142429175D01*
X73094284Y-142507127D01*
X73135763Y-142586601D01*
X73172462Y-142667495D01*
X73204225Y-142749705D01*
X73230893Y-142833128D01*
X73252310Y-142917661D01*
X73268139Y-143002193D01*
X73278228Y-143085616D01*
X73282688Y-143167826D01*
X73281632Y-143248720D01*
X73275170Y-143328194D01*
X73263417Y-143406146D01*
X73246483Y-143482473D01*
X73224480Y-143557070D01*
X73197522Y-143629835D01*
X73165720Y-143700664D01*
X73129186Y-143769455D01*
X73088033Y-143836104D01*
X73042372Y-143900508D01*
X72992316Y-143962564D01*
X72937976Y-144022168D01*
X72879466Y-144079218D01*
X72816897Y-144133610D01*
X72750380Y-144185240D01*
X72680030Y-144234007D01*
X72605957Y-144279805D01*
X72528273Y-144322533D01*
X72447091Y-144362087D01*
X72362524Y-144398364D01*
X72274682Y-144431260D01*
X72183679Y-144460673D01*
X72089625Y-144486499D01*
X71992635Y-144508635D01*
X71892819Y-144526978D01*
X71790290Y-144541424D01*
X71685160Y-144551870D01*
X71577540Y-144558214D01*
X71467544Y-144560351D01*
X71246192Y-144551870D01*
X71027565Y-144526978D01*
X70812923Y-144486499D01*
X70603528Y-144431260D01*
X70400640Y-144362087D01*
X70205520Y-144279805D01*
X70019430Y-144185240D01*
X69843630Y-144079218D01*
X69679381Y-143962564D01*
X69527944Y-143836104D01*
X69390581Y-143700664D01*
X69268551Y-143557070D01*
X69163116Y-143406146D01*
X69117016Y-143328194D01*
X69075537Y-143248720D01*
X69038837Y-143167826D01*
X69007075Y-143085616D01*
X68980406Y-143002193D01*
X68958990Y-142917661D01*
X68943160Y-142833128D01*
X68933071Y-142749705D01*
X68928611Y-142667495D01*
X68929668Y-142586601D01*
X68936129Y-142507127D01*
X68947883Y-142429175D01*
X68964817Y-142352849D01*
X68986819Y-142278252D01*
X69013777Y-142205487D01*
X69045580Y-142134657D01*
X69082113Y-142065866D01*
X69123267Y-141999217D01*
X69168928Y-141934813D01*
X69218984Y-141872757D01*
X69273323Y-141813153D01*
X69331834Y-141756103D01*
X69394403Y-141701712D01*
X69460919Y-141650081D01*
X69531270Y-141601315D01*
X69605343Y-141555516D01*
X69683026Y-141512788D01*
X69764208Y-141473234D01*
X69848776Y-141436957D01*
X69936618Y-141404061D01*
X70027621Y-141374648D01*
X70121674Y-141348822D01*
X70218665Y-141326686D01*
X70318481Y-141308344D01*
X70421010Y-141293898D01*
X70526140Y-141283451D01*
X70633759Y-141277107D01*
X70743755Y-141274970D01*
X70965107Y-141283451D01*
G36*
X72916737Y-138373709D02*
G01*
X73123314Y-138397229D01*
X73326125Y-138435476D01*
X73523979Y-138487670D01*
X73715684Y-138553031D01*
X73900048Y-138630777D01*
X74075881Y-138720130D01*
X74241992Y-138820308D01*
X74397187Y-138930532D01*
X74540277Y-139050021D01*
X74670069Y-139177996D01*
X74785373Y-139313675D01*
X74884996Y-139456280D01*
X74928556Y-139529935D01*
X74967748Y-139605029D01*
X75002425Y-139681464D01*
X75032437Y-139759142D01*
X75057635Y-139837967D01*
X75077871Y-139917840D01*
X75092828Y-139997713D01*
X75102361Y-140076538D01*
X75106575Y-140154217D01*
X75105577Y-140230652D01*
X75099472Y-140305746D01*
X75088366Y-140379401D01*
X75072365Y-140451520D01*
X75051575Y-140522006D01*
X75026103Y-140590760D01*
X74996054Y-140657685D01*
X74961534Y-140722685D01*
X74922649Y-140785660D01*
X74879504Y-140846514D01*
X74832207Y-140905150D01*
X74780863Y-140961469D01*
X74725577Y-141015374D01*
X74666457Y-141066767D01*
X74603607Y-141115552D01*
X74537134Y-141161630D01*
X74467144Y-141204905D01*
X74393742Y-141245277D01*
X74317035Y-141282651D01*
X74237128Y-141316928D01*
X74154128Y-141348012D01*
X74068141Y-141375803D01*
X73979272Y-141400205D01*
X73887627Y-141421121D01*
X73793313Y-141438453D01*
X73696435Y-141452103D01*
X73597100Y-141461973D01*
X73495412Y-141467967D01*
X73391479Y-141469987D01*
X73182328Y-141461973D01*
X72975751Y-141438453D01*
X72772941Y-141400205D01*
X72575087Y-141348012D01*
X72383382Y-141282651D01*
X72199018Y-141204905D01*
X72023185Y-141115552D01*
X71857075Y-141015374D01*
X71701879Y-140905150D01*
X71558790Y-140785660D01*
X71428998Y-140657685D01*
X71313694Y-140522006D01*
X71214071Y-140379401D01*
X71170511Y-140305746D01*
X71131319Y-140230652D01*
X71096642Y-140154217D01*
X71066630Y-140076538D01*
X71041432Y-139997713D01*
X71021196Y-139917840D01*
X71006239Y-139837967D01*
X70996706Y-139759142D01*
X70992492Y-139681464D01*
X70993490Y-139605029D01*
X70999596Y-139529935D01*
X71010702Y-139456280D01*
X71026702Y-139384161D01*
X71047492Y-139313675D01*
X71072964Y-139244921D01*
X71103013Y-139177996D01*
X71137533Y-139112997D01*
X71176418Y-139050021D01*
X71219562Y-138989167D01*
X71266859Y-138930532D01*
X71318204Y-138874213D01*
X71373489Y-138820308D01*
X71432610Y-138768914D01*
X71495459Y-138720130D01*
X71561932Y-138674051D01*
X71631923Y-138630777D01*
X71705324Y-138590404D01*
X71782031Y-138553031D01*
X71861938Y-138518753D01*
X71944937Y-138487670D01*
X72030925Y-138459879D01*
X72119794Y-138435476D01*
X72211438Y-138414561D01*
X72305752Y-138397229D01*
X72402630Y-138383579D01*
X72501966Y-138373709D01*
X72603653Y-138367715D01*
X72707586Y-138365695D01*
X72916737Y-138373709D01*
G37*
X72916737Y-138373709D02*
X73123314Y-138397229D01*
X73326125Y-138435476D01*
X73523979Y-138487670D01*
X73715684Y-138553031D01*
X73900048Y-138630777D01*
X74075881Y-138720130D01*
X74241992Y-138820308D01*
X74397187Y-138930532D01*
X74540277Y-139050021D01*
X74670069Y-139177996D01*
X74785373Y-139313675D01*
X74884996Y-139456280D01*
X74928556Y-139529935D01*
X74967748Y-139605029D01*
X75002425Y-139681464D01*
X75032437Y-139759142D01*
X75057635Y-139837967D01*
X75077871Y-139917840D01*
X75092828Y-139997713D01*
X75102361Y-140076538D01*
X75106575Y-140154217D01*
X75105577Y-140230652D01*
X75099472Y-140305746D01*
X75088366Y-140379401D01*
X75072365Y-140451520D01*
X75051575Y-140522006D01*
X75026103Y-140590760D01*
X74996054Y-140657685D01*
X74961534Y-140722685D01*
X74922649Y-140785660D01*
X74879504Y-140846514D01*
X74832207Y-140905150D01*
X74780863Y-140961469D01*
X74725577Y-141015374D01*
X74666457Y-141066767D01*
X74603607Y-141115552D01*
X74537134Y-141161630D01*
X74467144Y-141204905D01*
X74393742Y-141245277D01*
X74317035Y-141282651D01*
X74237128Y-141316928D01*
X74154128Y-141348012D01*
X74068141Y-141375803D01*
X73979272Y-141400205D01*
X73887627Y-141421121D01*
X73793313Y-141438453D01*
X73696435Y-141452103D01*
X73597100Y-141461973D01*
X73495412Y-141467967D01*
X73391479Y-141469987D01*
X73182328Y-141461973D01*
X72975751Y-141438453D01*
X72772941Y-141400205D01*
X72575087Y-141348012D01*
X72383382Y-141282651D01*
X72199018Y-141204905D01*
X72023185Y-141115552D01*
X71857075Y-141015374D01*
X71701879Y-140905150D01*
X71558790Y-140785660D01*
X71428998Y-140657685D01*
X71313694Y-140522006D01*
X71214071Y-140379401D01*
X71170511Y-140305746D01*
X71131319Y-140230652D01*
X71096642Y-140154217D01*
X71066630Y-140076538D01*
X71041432Y-139997713D01*
X71021196Y-139917840D01*
X71006239Y-139837967D01*
X70996706Y-139759142D01*
X70992492Y-139681464D01*
X70993490Y-139605029D01*
X70999596Y-139529935D01*
X71010702Y-139456280D01*
X71026702Y-139384161D01*
X71047492Y-139313675D01*
X71072964Y-139244921D01*
X71103013Y-139177996D01*
X71137533Y-139112997D01*
X71176418Y-139050021D01*
X71219562Y-138989167D01*
X71266859Y-138930532D01*
X71318204Y-138874213D01*
X71373489Y-138820308D01*
X71432610Y-138768914D01*
X71495459Y-138720130D01*
X71561932Y-138674051D01*
X71631923Y-138630777D01*
X71705324Y-138590404D01*
X71782031Y-138553031D01*
X71861938Y-138518753D01*
X71944937Y-138487670D01*
X72030925Y-138459879D01*
X72119794Y-138435476D01*
X72211438Y-138414561D01*
X72305752Y-138397229D01*
X72402630Y-138383579D01*
X72501966Y-138373709D01*
X72603653Y-138367715D01*
X72707586Y-138365695D01*
X72916737Y-138373709D01*
D10*
X228970000Y-92890000D02*
G75*
G03*
X228970000Y-92890000I-12000000J0D01*
G01*
D11*
G36*
X61297210Y-147308324D02*
G01*
X60127933Y-147496661D01*
X60402296Y-148003283D01*
X61153422Y-147882298D01*
X61280051Y-148116126D01*
X60528925Y-148237111D01*
X60966851Y-149045758D01*
X60685501Y-149091077D01*
X59719955Y-147308152D01*
X61170581Y-147074496D01*
X61297210Y-147308324D01*
G37*
X61297210Y-147308324D02*
X60127933Y-147496661D01*
X60402296Y-148003283D01*
X61153422Y-147882298D01*
X61280051Y-148116126D01*
X60528925Y-148237111D01*
X60966851Y-149045758D01*
X60685501Y-149091077D01*
X59719955Y-147308152D01*
X61170581Y-147074496D01*
X61297210Y-147308324D01*
G36*
X79332870Y-139656798D02*
G01*
X79526191Y-139677224D01*
X79715988Y-139710439D01*
X79901145Y-139755766D01*
X80080549Y-139812527D01*
X80253083Y-139880045D01*
X80417633Y-139957641D01*
X80573084Y-140044640D01*
X80718321Y-140140362D01*
X80852229Y-140244131D01*
X80973693Y-140355269D01*
X81081598Y-140473098D01*
X81174829Y-140596941D01*
X81215593Y-140660906D01*
X81252271Y-140726120D01*
X81284722Y-140792499D01*
X81312809Y-140859958D01*
X81336390Y-140928412D01*
X81355327Y-140997777D01*
X81369325Y-141067142D01*
X81378246Y-141135596D01*
X81382190Y-141203055D01*
X81381255Y-141269433D01*
X81375542Y-141334648D01*
X81365148Y-141398612D01*
X81350174Y-141461243D01*
X81330719Y-141522455D01*
X81306881Y-141582164D01*
X81278760Y-141640284D01*
X81246455Y-141696732D01*
X81210065Y-141751422D01*
X81169690Y-141804269D01*
X81125427Y-141855190D01*
X81077378Y-141904099D01*
X81025640Y-141950912D01*
X80970313Y-141995544D01*
X80911497Y-142037911D01*
X80849289Y-142077927D01*
X80783790Y-142115507D01*
X80715098Y-142150569D01*
X80643314Y-142183025D01*
X80568535Y-142212793D01*
X80490861Y-142239786D01*
X80410391Y-142263921D01*
X80327225Y-142285113D01*
X80241461Y-142303277D01*
X80153199Y-142318328D01*
X80062538Y-142330182D01*
X79969577Y-142338754D01*
X79874415Y-142343960D01*
X79777151Y-142345714D01*
X79581421Y-142338754D01*
X79388099Y-142318328D01*
X79198302Y-142285113D01*
X79013145Y-142239786D01*
X78833741Y-142183025D01*
X78661207Y-142115507D01*
X78496657Y-142037911D01*
X78341205Y-141950912D01*
X78195968Y-141855190D01*
X78062061Y-141751422D01*
X77940597Y-141640284D01*
X77832692Y-141522455D01*
X77739461Y-141398612D01*
X77698697Y-141334648D01*
X77662020Y-141269433D01*
X77629568Y-141203055D01*
X77601482Y-141135596D01*
X77577901Y-141067142D01*
X77558964Y-140997777D01*
X77544966Y-140928412D01*
X77536045Y-140859958D01*
X77532101Y-140792499D01*
X77533035Y-140726120D01*
X77538749Y-140660906D01*
X77549142Y-140596941D01*
X77564116Y-140534310D01*
X77583571Y-140473098D01*
X77607409Y-140413389D01*
X77635530Y-140355269D01*
X77667835Y-140298821D01*
X77704225Y-140244131D01*
X77744601Y-140191283D01*
X77788863Y-140140362D01*
X77836912Y-140091453D01*
X77888650Y-140044640D01*
X77943977Y-140000008D01*
X78002794Y-139957641D01*
X78065001Y-139917626D01*
X78130501Y-139880045D01*
X78199192Y-139844984D01*
X78270977Y-139812527D01*
X78345756Y-139782759D01*
X78423430Y-139755766D01*
X78503900Y-139731631D01*
X78587066Y-139710439D01*
X78672830Y-139692275D01*
X78761092Y-139677224D01*
X78851753Y-139665370D01*
X78944714Y-139656798D01*
X79039876Y-139651592D01*
X79137140Y-139649838D01*
X79332870Y-139656798D01*
G37*
X79332870Y-139656798D02*
X79526191Y-139677224D01*
X79715988Y-139710439D01*
X79901145Y-139755766D01*
X80080549Y-139812527D01*
X80253083Y-139880045D01*
X80417633Y-139957641D01*
X80573084Y-140044640D01*
X80718321Y-140140362D01*
X80852229Y-140244131D01*
X80973693Y-140355269D01*
X81081598Y-140473098D01*
X81174829Y-140596941D01*
X81215593Y-140660906D01*
X81252271Y-140726120D01*
X81284722Y-140792499D01*
X81312809Y-140859958D01*
X81336390Y-140928412D01*
X81355327Y-140997777D01*
X81369325Y-141067142D01*
X81378246Y-141135596D01*
X81382190Y-141203055D01*
X81381255Y-141269433D01*
X81375542Y-141334648D01*
X81365148Y-141398612D01*
X81350174Y-141461243D01*
X81330719Y-141522455D01*
X81306881Y-141582164D01*
X81278760Y-141640284D01*
X81246455Y-141696732D01*
X81210065Y-141751422D01*
X81169690Y-141804269D01*
X81125427Y-141855190D01*
X81077378Y-141904099D01*
X81025640Y-141950912D01*
X80970313Y-141995544D01*
X80911497Y-142037911D01*
X80849289Y-142077927D01*
X80783790Y-142115507D01*
X80715098Y-142150569D01*
X80643314Y-142183025D01*
X80568535Y-142212793D01*
X80490861Y-142239786D01*
X80410391Y-142263921D01*
X80327225Y-142285113D01*
X80241461Y-142303277D01*
X80153199Y-142318328D01*
X80062538Y-142330182D01*
X79969577Y-142338754D01*
X79874415Y-142343960D01*
X79777151Y-142345714D01*
X79581421Y-142338754D01*
X79388099Y-142318328D01*
X79198302Y-142285113D01*
X79013145Y-142239786D01*
X78833741Y-142183025D01*
X78661207Y-142115507D01*
X78496657Y-142037911D01*
X78341205Y-141950912D01*
X78195968Y-141855190D01*
X78062061Y-141751422D01*
X77940597Y-141640284D01*
X77832692Y-141522455D01*
X77739461Y-141398612D01*
X77698697Y-141334648D01*
X77662020Y-141269433D01*
X77629568Y-141203055D01*
X77601482Y-141135596D01*
X77577901Y-141067142D01*
X77558964Y-140997777D01*
X77544966Y-140928412D01*
X77536045Y-140859958D01*
X77532101Y-140792499D01*
X77533035Y-140726120D01*
X77538749Y-140660906D01*
X77549142Y-140596941D01*
X77564116Y-140534310D01*
X77583571Y-140473098D01*
X77607409Y-140413389D01*
X77635530Y-140355269D01*
X77667835Y-140298821D01*
X77704225Y-140244131D01*
X77744601Y-140191283D01*
X77788863Y-140140362D01*
X77836912Y-140091453D01*
X77888650Y-140044640D01*
X77943977Y-140000008D01*
X78002794Y-139957641D01*
X78065001Y-139917626D01*
X78130501Y-139880045D01*
X78199192Y-139844984D01*
X78270977Y-139812527D01*
X78345756Y-139782759D01*
X78423430Y-139755766D01*
X78503900Y-139731631D01*
X78587066Y-139710439D01*
X78672830Y-139692275D01*
X78761092Y-139677224D01*
X78851753Y-139665370D01*
X78944714Y-139656798D01*
X79039876Y-139651592D01*
X79137140Y-139649838D01*
X79332870Y-139656798D01*
G36*
X80173598Y-136248569D02*
G01*
X80365714Y-136267722D01*
X80554327Y-136298868D01*
X80738330Y-136341371D01*
X80916615Y-136394595D01*
X81088074Y-136457905D01*
X81251599Y-136530667D01*
X81406081Y-136612244D01*
X81550412Y-136702002D01*
X81683485Y-136799304D01*
X81804192Y-136903516D01*
X81911424Y-137014003D01*
X82004074Y-137130129D01*
X82081033Y-137251258D01*
X82113282Y-137313500D01*
X82141193Y-137376756D01*
X82164627Y-137440944D01*
X82183447Y-137505986D01*
X82197357Y-137571029D01*
X82206222Y-137635217D01*
X82210142Y-137698473D01*
X82209213Y-137760716D01*
X82203535Y-137821866D01*
X82193207Y-137881845D01*
X82178326Y-137940573D01*
X82158992Y-137997971D01*
X82135303Y-138053959D01*
X82107357Y-138108458D01*
X82075254Y-138161388D01*
X82039091Y-138212670D01*
X81998967Y-138262224D01*
X81954981Y-138309972D01*
X81907231Y-138355834D01*
X81855815Y-138399730D01*
X81800833Y-138441580D01*
X81742383Y-138481307D01*
X81680563Y-138518829D01*
X81615473Y-138554068D01*
X81547209Y-138586944D01*
X81475872Y-138617378D01*
X81401559Y-138645291D01*
X81324370Y-138670602D01*
X81244401Y-138693234D01*
X81161754Y-138713105D01*
X81076524Y-138730137D01*
X80988813Y-138744250D01*
X80898716Y-138755366D01*
X80806335Y-138763403D01*
X80711766Y-138768284D01*
X80615108Y-138769929D01*
X80420598Y-138763403D01*
X80228482Y-138744250D01*
X80039868Y-138713105D01*
X79855864Y-138670602D01*
X79677579Y-138617378D01*
X79506120Y-138554068D01*
X79342596Y-138481307D01*
X79188114Y-138399730D01*
X79043782Y-138309972D01*
X78910709Y-138212670D01*
X78790002Y-138108458D01*
X78682770Y-137997971D01*
X78590121Y-137881845D01*
X78513162Y-137760716D01*
X78480912Y-137698473D01*
X78453001Y-137635217D01*
X78429567Y-137571029D01*
X78410747Y-137505986D01*
X78396837Y-137440944D01*
X78387972Y-137376756D01*
X78384052Y-137313500D01*
X78384981Y-137251258D01*
X78390659Y-137190108D01*
X78400987Y-137130129D01*
X78415868Y-137071401D01*
X78435202Y-137014003D01*
X78458891Y-136958015D01*
X78486837Y-136903516D01*
X78518941Y-136850586D01*
X78555104Y-136799304D01*
X78595227Y-136749750D01*
X78639214Y-136702002D01*
X78686964Y-136656140D01*
X78738379Y-136612244D01*
X78793361Y-136570393D01*
X78851811Y-136530667D01*
X78913631Y-136493144D01*
X78978722Y-136457905D01*
X79046985Y-136425029D01*
X79118323Y-136394595D01*
X79192636Y-136366682D01*
X79269825Y-136341371D01*
X79349794Y-136318739D01*
X79432442Y-136298868D01*
X79517671Y-136281836D01*
X79605383Y-136267722D01*
X79695479Y-136256607D01*
X79787861Y-136248569D01*
X79882430Y-136243688D01*
X79979088Y-136242043D01*
X80173598Y-136248569D01*
G37*
X80173598Y-136248569D02*
X80365714Y-136267722D01*
X80554327Y-136298868D01*
X80738330Y-136341371D01*
X80916615Y-136394595D01*
X81088074Y-136457905D01*
X81251599Y-136530667D01*
X81406081Y-136612244D01*
X81550412Y-136702002D01*
X81683485Y-136799304D01*
X81804192Y-136903516D01*
X81911424Y-137014003D01*
X82004074Y-137130129D01*
X82081033Y-137251258D01*
X82113282Y-137313500D01*
X82141193Y-137376756D01*
X82164627Y-137440944D01*
X82183447Y-137505986D01*
X82197357Y-137571029D01*
X82206222Y-137635217D01*
X82210142Y-137698473D01*
X82209213Y-137760716D01*
X82203535Y-137821866D01*
X82193207Y-137881845D01*
X82178326Y-137940573D01*
X82158992Y-137997971D01*
X82135303Y-138053959D01*
X82107357Y-138108458D01*
X82075254Y-138161388D01*
X82039091Y-138212670D01*
X81998967Y-138262224D01*
X81954981Y-138309972D01*
X81907231Y-138355834D01*
X81855815Y-138399730D01*
X81800833Y-138441580D01*
X81742383Y-138481307D01*
X81680563Y-138518829D01*
X81615473Y-138554068D01*
X81547209Y-138586944D01*
X81475872Y-138617378D01*
X81401559Y-138645291D01*
X81324370Y-138670602D01*
X81244401Y-138693234D01*
X81161754Y-138713105D01*
X81076524Y-138730137D01*
X80988813Y-138744250D01*
X80898716Y-138755366D01*
X80806335Y-138763403D01*
X80711766Y-138768284D01*
X80615108Y-138769929D01*
X80420598Y-138763403D01*
X80228482Y-138744250D01*
X80039868Y-138713105D01*
X79855864Y-138670602D01*
X79677579Y-138617378D01*
X79506120Y-138554068D01*
X79342596Y-138481307D01*
X79188114Y-138399730D01*
X79043782Y-138309972D01*
X78910709Y-138212670D01*
X78790002Y-138108458D01*
X78682770Y-137997971D01*
X78590121Y-137881845D01*
X78513162Y-137760716D01*
X78480912Y-137698473D01*
X78453001Y-137635217D01*
X78429567Y-137571029D01*
X78410747Y-137505986D01*
X78396837Y-137440944D01*
X78387972Y-137376756D01*
X78384052Y-137313500D01*
X78384981Y-137251258D01*
X78390659Y-137190108D01*
X78400987Y-137130129D01*
X78415868Y-137071401D01*
X78435202Y-137014003D01*
X78458891Y-136958015D01*
X78486837Y-136903516D01*
X78518941Y-136850586D01*
X78555104Y-136799304D01*
X78595227Y-136749750D01*
X78639214Y-136702002D01*
X78686964Y-136656140D01*
X78738379Y-136612244D01*
X78793361Y-136570393D01*
X78851811Y-136530667D01*
X78913631Y-136493144D01*
X78978722Y-136457905D01*
X79046985Y-136425029D01*
X79118323Y-136394595D01*
X79192636Y-136366682D01*
X79269825Y-136341371D01*
X79349794Y-136318739D01*
X79432442Y-136298868D01*
X79517671Y-136281836D01*
X79605383Y-136267722D01*
X79695479Y-136256607D01*
X79787861Y-136248569D01*
X79882430Y-136243688D01*
X79979088Y-136242043D01*
X80173598Y-136248569D01*
D10*
X200750000Y-59300000D02*
G75*
G03*
X200750000Y-59300000I-12000000J0D01*
G01*
D11*
G36*
X83364622Y-138912842D02*
G01*
X83557944Y-138933268D01*
X83747741Y-138966483D01*
X83932899Y-139011811D01*
X84112302Y-139068572D01*
X84284837Y-139136090D01*
X84449387Y-139213686D01*
X84604838Y-139300685D01*
X84750075Y-139396407D01*
X84883983Y-139500176D01*
X85005446Y-139611314D01*
X85113351Y-139729143D01*
X85206581Y-139852986D01*
X85247345Y-139916951D01*
X85284023Y-139982165D01*
X85316474Y-140048544D01*
X85344560Y-140116002D01*
X85368142Y-140184457D01*
X85387079Y-140253821D01*
X85401077Y-140323186D01*
X85409998Y-140391641D01*
X85413942Y-140459100D01*
X85413007Y-140525479D01*
X85407294Y-140590693D01*
X85396901Y-140654658D01*
X85381927Y-140717289D01*
X85362472Y-140778501D01*
X85338634Y-140838209D01*
X85310513Y-140896330D01*
X85278208Y-140952777D01*
X85241818Y-141007467D01*
X85201443Y-141060315D01*
X85157180Y-141111236D01*
X85109131Y-141160146D01*
X85057393Y-141206959D01*
X85002066Y-141251591D01*
X84943250Y-141293957D01*
X84881042Y-141333973D01*
X84815543Y-141371554D01*
X84746851Y-141406615D01*
X84675066Y-141439071D01*
X84600287Y-141468839D01*
X84522614Y-141495832D01*
X84442144Y-141519968D01*
X84358977Y-141541159D01*
X84273214Y-141559323D01*
X84184951Y-141574375D01*
X84094290Y-141586229D01*
X84001329Y-141594801D01*
X83906166Y-141600006D01*
X83808903Y-141601760D01*
X83613173Y-141594801D01*
X83419852Y-141574375D01*
X83230055Y-141541159D01*
X83044897Y-141495832D01*
X82865494Y-141439071D01*
X82692960Y-141371554D01*
X82528410Y-141293957D01*
X82372959Y-141206959D01*
X82227721Y-141111236D01*
X82093814Y-141007467D01*
X81972350Y-140896330D01*
X81864445Y-140778501D01*
X81771214Y-140654658D01*
X81730450Y-140590693D01*
X81693772Y-140525479D01*
X81661320Y-140459100D01*
X81633234Y-140391641D01*
X81609653Y-140323186D01*
X81590715Y-140253821D01*
X81576718Y-140184457D01*
X81567797Y-140116002D01*
X81563853Y-140048544D01*
X81564788Y-139982165D01*
X81570501Y-139916951D01*
X81580894Y-139852986D01*
X81595868Y-139790355D01*
X81615324Y-139729143D01*
X81639162Y-139669434D01*
X81667283Y-139611314D01*
X81699588Y-139554866D01*
X81735978Y-139500176D01*
X81776353Y-139447328D01*
X81820615Y-139396407D01*
X81868665Y-139347498D01*
X81920403Y-139300685D01*
X81975729Y-139256053D01*
X82034546Y-139213686D01*
X82096754Y-139173670D01*
X82162253Y-139136090D01*
X82230944Y-139101028D01*
X82302729Y-139068572D01*
X82377508Y-139038804D01*
X82455182Y-139011811D01*
X82535651Y-138987675D01*
X82618818Y-138966483D01*
X82704581Y-138948319D01*
X82792844Y-138933268D01*
X82883505Y-138921414D01*
X82976466Y-138912842D01*
X83071628Y-138907637D01*
X83168892Y-138905883D01*
X83364622Y-138912842D01*
G37*
X83364622Y-138912842D02*
X83557944Y-138933268D01*
X83747741Y-138966483D01*
X83932899Y-139011811D01*
X84112302Y-139068572D01*
X84284837Y-139136090D01*
X84449387Y-139213686D01*
X84604838Y-139300685D01*
X84750075Y-139396407D01*
X84883983Y-139500176D01*
X85005446Y-139611314D01*
X85113351Y-139729143D01*
X85206581Y-139852986D01*
X85247345Y-139916951D01*
X85284023Y-139982165D01*
X85316474Y-140048544D01*
X85344560Y-140116002D01*
X85368142Y-140184457D01*
X85387079Y-140253821D01*
X85401077Y-140323186D01*
X85409998Y-140391641D01*
X85413942Y-140459100D01*
X85413007Y-140525479D01*
X85407294Y-140590693D01*
X85396901Y-140654658D01*
X85381927Y-140717289D01*
X85362472Y-140778501D01*
X85338634Y-140838209D01*
X85310513Y-140896330D01*
X85278208Y-140952777D01*
X85241818Y-141007467D01*
X85201443Y-141060315D01*
X85157180Y-141111236D01*
X85109131Y-141160146D01*
X85057393Y-141206959D01*
X85002066Y-141251591D01*
X84943250Y-141293957D01*
X84881042Y-141333973D01*
X84815543Y-141371554D01*
X84746851Y-141406615D01*
X84675066Y-141439071D01*
X84600287Y-141468839D01*
X84522614Y-141495832D01*
X84442144Y-141519968D01*
X84358977Y-141541159D01*
X84273214Y-141559323D01*
X84184951Y-141574375D01*
X84094290Y-141586229D01*
X84001329Y-141594801D01*
X83906166Y-141600006D01*
X83808903Y-141601760D01*
X83613173Y-141594801D01*
X83419852Y-141574375D01*
X83230055Y-141541159D01*
X83044897Y-141495832D01*
X82865494Y-141439071D01*
X82692960Y-141371554D01*
X82528410Y-141293957D01*
X82372959Y-141206959D01*
X82227721Y-141111236D01*
X82093814Y-141007467D01*
X81972350Y-140896330D01*
X81864445Y-140778501D01*
X81771214Y-140654658D01*
X81730450Y-140590693D01*
X81693772Y-140525479D01*
X81661320Y-140459100D01*
X81633234Y-140391641D01*
X81609653Y-140323186D01*
X81590715Y-140253821D01*
X81576718Y-140184457D01*
X81567797Y-140116002D01*
X81563853Y-140048544D01*
X81564788Y-139982165D01*
X81570501Y-139916951D01*
X81580894Y-139852986D01*
X81595868Y-139790355D01*
X81615324Y-139729143D01*
X81639162Y-139669434D01*
X81667283Y-139611314D01*
X81699588Y-139554866D01*
X81735978Y-139500176D01*
X81776353Y-139447328D01*
X81820615Y-139396407D01*
X81868665Y-139347498D01*
X81920403Y-139300685D01*
X81975729Y-139256053D01*
X82034546Y-139213686D01*
X82096754Y-139173670D01*
X82162253Y-139136090D01*
X82230944Y-139101028D01*
X82302729Y-139068572D01*
X82377508Y-139038804D01*
X82455182Y-139011811D01*
X82535651Y-138987675D01*
X82618818Y-138966483D01*
X82704581Y-138948319D01*
X82792844Y-138933268D01*
X82883505Y-138921414D01*
X82976466Y-138912842D01*
X83071628Y-138907637D01*
X83168892Y-138905883D01*
X83364622Y-138912842D01*
D10*
X229860000Y-62940000D02*
G75*
G03*
X229860000Y-62940000I-12000000J0D01*
G01*
D11*
G36*
X61569673Y-141127460D02*
G01*
X61788300Y-141152353D01*
X62002942Y-141192832D01*
X62212338Y-141248070D01*
X62415226Y-141317243D01*
X62610345Y-141399525D01*
X62796436Y-141494090D01*
X62972236Y-141600113D01*
X63136485Y-141716767D01*
X63287922Y-141843226D01*
X63425285Y-141978667D01*
X63547315Y-142122261D01*
X63652750Y-142273184D01*
X63698851Y-142351136D01*
X63740329Y-142430611D01*
X63777029Y-142511505D01*
X63808792Y-142593715D01*
X63835460Y-142677138D01*
X63856876Y-142761670D01*
X63872706Y-142846203D01*
X63882795Y-142929626D01*
X63887255Y-143011836D01*
X63886198Y-143092729D01*
X63879737Y-143172204D01*
X63867983Y-143250156D01*
X63851049Y-143326482D01*
X63829047Y-143401079D01*
X63802089Y-143473844D01*
X63770287Y-143544674D01*
X63733753Y-143613465D01*
X63692599Y-143680114D01*
X63646938Y-143744518D01*
X63596882Y-143806574D01*
X63542543Y-143866178D01*
X63484033Y-143923228D01*
X63421463Y-143977619D01*
X63354947Y-144029250D01*
X63284596Y-144078016D01*
X63210523Y-144123815D01*
X63132840Y-144166543D01*
X63051658Y-144206097D01*
X62967090Y-144242374D01*
X62879249Y-144275270D01*
X62788245Y-144304683D01*
X62694192Y-144330509D01*
X62597202Y-144352644D01*
X62497386Y-144370987D01*
X62394857Y-144385433D01*
X62289726Y-144395880D01*
X62182107Y-144402223D01*
X62072111Y-144404361D01*
X61850759Y-144395880D01*
X61632132Y-144370987D01*
X61417490Y-144330509D01*
X61208095Y-144275270D01*
X61005207Y-144206097D01*
X60810087Y-144123815D01*
X60623997Y-144029250D01*
X60448196Y-143923228D01*
X60283947Y-143806574D01*
X60132510Y-143680114D01*
X59995147Y-143544674D01*
X59873117Y-143401079D01*
X59767682Y-143250156D01*
X59721581Y-143172204D01*
X59680103Y-143092729D01*
X59643403Y-143011836D01*
X59611640Y-142929626D01*
X59584972Y-142846203D01*
X59563556Y-142761670D01*
X59547726Y-142677138D01*
X59537637Y-142593715D01*
X59533177Y-142511505D01*
X59534234Y-142430611D01*
X59540695Y-142351136D01*
X59552449Y-142273184D01*
X59569383Y-142196858D01*
X59591385Y-142122261D01*
X59618343Y-142049496D01*
X59650145Y-141978667D01*
X59686679Y-141909876D01*
X59727833Y-141843226D01*
X59773494Y-141778822D01*
X59823550Y-141716767D01*
X59877889Y-141657162D01*
X59936400Y-141600113D01*
X59998969Y-141545721D01*
X60065485Y-141494090D01*
X60135836Y-141445324D01*
X60209909Y-141399525D01*
X60287592Y-141356797D01*
X60368774Y-141317243D01*
X60453342Y-141280967D01*
X60541183Y-141248070D01*
X60632187Y-141218658D01*
X60726240Y-141192832D01*
X60823231Y-141170696D01*
X60923046Y-141152353D01*
X61025576Y-141137907D01*
X61130706Y-141127460D01*
X61238325Y-141121117D01*
X61348321Y-141118979D01*
X61569673Y-141127460D01*
G37*
X61569673Y-141127460D02*
X61788300Y-141152353D01*
X62002942Y-141192832D01*
X62212338Y-141248070D01*
X62415226Y-141317243D01*
X62610345Y-141399525D01*
X62796436Y-141494090D01*
X62972236Y-141600113D01*
X63136485Y-141716767D01*
X63287922Y-141843226D01*
X63425285Y-141978667D01*
X63547315Y-142122261D01*
X63652750Y-142273184D01*
X63698851Y-142351136D01*
X63740329Y-142430611D01*
X63777029Y-142511505D01*
X63808792Y-142593715D01*
X63835460Y-142677138D01*
X63856876Y-142761670D01*
X63872706Y-142846203D01*
X63882795Y-142929626D01*
X63887255Y-143011836D01*
X63886198Y-143092729D01*
X63879737Y-143172204D01*
X63867983Y-143250156D01*
X63851049Y-143326482D01*
X63829047Y-143401079D01*
X63802089Y-143473844D01*
X63770287Y-143544674D01*
X63733753Y-143613465D01*
X63692599Y-143680114D01*
X63646938Y-143744518D01*
X63596882Y-143806574D01*
X63542543Y-143866178D01*
X63484033Y-143923228D01*
X63421463Y-143977619D01*
X63354947Y-144029250D01*
X63284596Y-144078016D01*
X63210523Y-144123815D01*
X63132840Y-144166543D01*
X63051658Y-144206097D01*
X62967090Y-144242374D01*
X62879249Y-144275270D01*
X62788245Y-144304683D01*
X62694192Y-144330509D01*
X62597202Y-144352644D01*
X62497386Y-144370987D01*
X62394857Y-144385433D01*
X62289726Y-144395880D01*
X62182107Y-144402223D01*
X62072111Y-144404361D01*
X61850759Y-144395880D01*
X61632132Y-144370987D01*
X61417490Y-144330509D01*
X61208095Y-144275270D01*
X61005207Y-144206097D01*
X60810087Y-144123815D01*
X60623997Y-144029250D01*
X60448196Y-143923228D01*
X60283947Y-143806574D01*
X60132510Y-143680114D01*
X59995147Y-143544674D01*
X59873117Y-143401079D01*
X59767682Y-143250156D01*
X59721581Y-143172204D01*
X59680103Y-143092729D01*
X59643403Y-143011836D01*
X59611640Y-142929626D01*
X59584972Y-142846203D01*
X59563556Y-142761670D01*
X59547726Y-142677138D01*
X59537637Y-142593715D01*
X59533177Y-142511505D01*
X59534234Y-142430611D01*
X59540695Y-142351136D01*
X59552449Y-142273184D01*
X59569383Y-142196858D01*
X59591385Y-142122261D01*
X59618343Y-142049496D01*
X59650145Y-141978667D01*
X59686679Y-141909876D01*
X59727833Y-141843226D01*
X59773494Y-141778822D01*
X59823550Y-141716767D01*
X59877889Y-141657162D01*
X59936400Y-141600113D01*
X59998969Y-141545721D01*
X60065485Y-141494090D01*
X60135836Y-141445324D01*
X60209909Y-141399525D01*
X60287592Y-141356797D01*
X60368774Y-141317243D01*
X60453342Y-141280967D01*
X60541183Y-141248070D01*
X60632187Y-141218658D01*
X60726240Y-141192832D01*
X60823231Y-141170696D01*
X60923046Y-141152353D01*
X61025576Y-141137907D01*
X61130706Y-141127460D01*
X61238325Y-141121117D01*
X61348321Y-141118979D01*
X61569673Y-141127460D01*
G36*
X66896916Y-146149501D02*
G01*
X67831306Y-145998998D01*
X67871587Y-145992954D01*
X67911120Y-145987921D01*
X67949907Y-145983898D01*
X67987948Y-145980884D01*
X68025241Y-145978880D01*
X68061788Y-145977886D01*
X68097589Y-145977902D01*
X68132643Y-145978928D01*
X68166950Y-145980963D01*
X68200510Y-145984009D01*
X68233324Y-145988064D01*
X68265391Y-145993129D01*
X68296712Y-145999204D01*
X68327286Y-146006289D01*
X68357113Y-146014383D01*
X68386194Y-146023488D01*
X68414698Y-146033451D01*
X68442480Y-146044835D01*
X68469540Y-146057637D01*
X68495877Y-146071860D01*
X68521493Y-146087502D01*
X68546387Y-146104564D01*
X68570559Y-146123045D01*
X68594009Y-146142946D01*
X68616736Y-146164267D01*
X68638742Y-146187007D01*
X68660026Y-146211167D01*
X68680587Y-146236747D01*
X68700427Y-146263746D01*
X68719544Y-146292166D01*
X68737940Y-146322004D01*
X68755613Y-146353263D01*
X68763266Y-146367920D01*
X68770394Y-146382661D01*
X68776998Y-146397486D01*
X68783077Y-146412396D01*
X68788632Y-146427390D01*
X68793663Y-146442469D01*
X68798170Y-146457632D01*
X68802152Y-146472880D01*
X68805610Y-146488212D01*
X68808543Y-146503628D01*
X68810952Y-146519129D01*
X68812837Y-146534714D01*
X68814197Y-146550384D01*
X68815033Y-146566138D01*
X68815345Y-146581976D01*
X68815132Y-146597899D01*
X68814051Y-146613331D01*
X68812086Y-146628306D01*
X68809238Y-146642823D01*
X68805506Y-146656882D01*
X68800890Y-146670484D01*
X68795391Y-146683627D01*
X68789008Y-146696314D01*
X68781741Y-146708543D01*
X68773591Y-146720314D01*
X68764557Y-146731627D01*
X68754639Y-146742483D01*
X68743838Y-146752881D01*
X68732152Y-146762822D01*
X68719584Y-146772305D01*
X68706131Y-146781331D01*
X68691795Y-146789899D01*
X68712281Y-146792485D01*
X68732642Y-146795609D01*
X68752877Y-146799270D01*
X68772987Y-146803468D01*
X68792971Y-146808204D01*
X68812829Y-146813478D01*
X68832562Y-146819288D01*
X68852169Y-146825637D01*
X68871651Y-146832522D01*
X68891007Y-146839945D01*
X68910238Y-146847906D01*
X68929343Y-146856403D01*
X68948322Y-146865439D01*
X68967176Y-146875011D01*
X68985904Y-146885121D01*
X69004507Y-146895768D01*
X69022813Y-146906981D01*
X69040651Y-146918786D01*
X69058021Y-146931184D01*
X69074922Y-146944175D01*
X69091355Y-146957758D01*
X69107320Y-146971934D01*
X69122816Y-146986703D01*
X69137844Y-147002065D01*
X69152404Y-147018019D01*
X69166495Y-147034566D01*
X69180118Y-147051705D01*
X69193273Y-147069437D01*
X69205959Y-147087762D01*
X69218177Y-147106680D01*
X69229927Y-147126190D01*
X69241209Y-147146293D01*
X69257960Y-147178460D01*
X69272931Y-147209807D01*
X69286119Y-147240335D01*
X69297527Y-147270042D01*
X69307153Y-147298930D01*
X69314997Y-147326998D01*
X69321060Y-147354245D01*
X69325342Y-147380673D01*
X69327842Y-147406281D01*
X69328561Y-147431070D01*
X69327498Y-147455038D01*
X69324654Y-147478186D01*
X69320028Y-147500514D01*
X69313621Y-147522023D01*
X69305433Y-147542712D01*
X69295463Y-147562580D01*
X69283712Y-147581629D01*
X69270179Y-147599858D01*
X69254865Y-147617267D01*
X69237770Y-147633856D01*
X69218893Y-147649625D01*
X69198235Y-147664575D01*
X69175795Y-147678704D01*
X69151574Y-147692014D01*
X69125572Y-147704503D01*
X69097788Y-147716173D01*
X69068222Y-147727023D01*
X69036876Y-147737053D01*
X69003747Y-147746263D01*
X68968838Y-147754653D01*
X68932147Y-147762223D01*
X68893675Y-147768973D01*
X67863781Y-147934859D01*
X67401318Y-147080901D01*
X67707208Y-147080901D01*
X68018505Y-147655723D01*
X68625082Y-147558013D01*
X68658473Y-147552387D01*
X68690246Y-147546525D01*
X68720400Y-147540427D01*
X68748936Y-147534093D01*
X68775853Y-147527523D01*
X68801151Y-147520718D01*
X68824832Y-147513676D01*
X68846893Y-147506398D01*
X68857628Y-147502477D01*
X68867935Y-147498210D01*
X68877814Y-147493599D01*
X68887265Y-147488643D01*
X68896288Y-147483342D01*
X68904883Y-147477696D01*
X68913051Y-147471705D01*
X68920790Y-147465369D01*
X68928102Y-147458688D01*
X68934985Y-147451662D01*
X68941441Y-147444292D01*
X68947469Y-147436577D01*
X68953069Y-147428516D01*
X68958240Y-147420111D01*
X68962984Y-147411361D01*
X68967300Y-147402266D01*
X68971308Y-147392724D01*
X68974483Y-147382737D01*
X68976825Y-147372305D01*
X68978333Y-147361428D01*
X68979009Y-147350106D01*
X68978852Y-147338338D01*
X68977862Y-147326126D01*
X68976039Y-147313469D01*
X68973383Y-147300367D01*
X68969894Y-147286819D01*
X68965572Y-147272827D01*
X68960417Y-147258389D01*
X68954429Y-147243506D01*
X68947608Y-147228178D01*
X68939954Y-147212405D01*
X68931467Y-147196187D01*
X68922445Y-147180054D01*
X68913188Y-147164539D01*
X68903695Y-147149641D01*
X68893966Y-147135361D01*
X68884001Y-147121697D01*
X68873801Y-147108651D01*
X68863365Y-147096222D01*
X68852693Y-147084411D01*
X68841785Y-147073216D01*
X68830642Y-147062639D01*
X68819263Y-147052680D01*
X68807648Y-147043337D01*
X68795797Y-147034612D01*
X68783711Y-147026504D01*
X68771389Y-147019013D01*
X68758831Y-147012139D01*
X68746188Y-147005776D01*
X68733609Y-146999816D01*
X68721096Y-146994259D01*
X68708647Y-146989106D01*
X68696264Y-146984356D01*
X68683945Y-146980010D01*
X68671692Y-146976067D01*
X68659503Y-146972527D01*
X68647380Y-146969391D01*
X68635321Y-146966658D01*
X68623327Y-146964328D01*
X68611398Y-146962401D01*
X68599535Y-146960879D01*
X68587736Y-146959759D01*
X68576002Y-146959043D01*
X68564333Y-146958730D01*
X68540780Y-146958799D01*
X68516668Y-146959456D01*
X68491997Y-146960699D01*
X68466766Y-146962529D01*
X68440976Y-146964945D01*
X68414627Y-146967948D01*
X68387718Y-146971538D01*
X68360250Y-146975715D01*
X67707208Y-147080901D01*
X67401318Y-147080901D01*
X66999007Y-146338017D01*
X67304899Y-146338017D01*
X67580582Y-146847077D01*
X68233621Y-146741891D01*
X68260943Y-146737200D01*
X68286766Y-146732172D01*
X68311090Y-146726806D01*
X68333916Y-146721102D01*
X68355243Y-146715060D01*
X68375072Y-146708680D01*
X68393402Y-146701962D01*
X68410234Y-146694907D01*
X68425567Y-146687513D01*
X68439402Y-146679782D01*
X68451739Y-146671712D01*
X68462577Y-146663305D01*
X68471916Y-146654560D01*
X68479757Y-146645476D01*
X68486100Y-146636055D01*
X68490944Y-146626296D01*
X68494976Y-146616171D01*
X68498237Y-146605756D01*
X68500728Y-146595052D01*
X68502448Y-146584058D01*
X68503397Y-146572774D01*
X68503575Y-146561201D01*
X68502983Y-146549339D01*
X68501620Y-146537186D01*
X68499486Y-146524744D01*
X68496581Y-146512012D01*
X68492906Y-146498991D01*
X68488460Y-146485680D01*
X68483243Y-146472080D01*
X68477256Y-146458189D01*
X68470498Y-146444009D01*
X68462969Y-146429540D01*
X68455615Y-146416387D01*
X68448065Y-146403721D01*
X68440319Y-146391541D01*
X68432375Y-146379849D01*
X68424235Y-146368644D01*
X68415898Y-146357925D01*
X68407364Y-146347693D01*
X68398633Y-146337948D01*
X68389706Y-146328690D01*
X68380582Y-146319919D01*
X68371261Y-146311635D01*
X68361744Y-146303837D01*
X68352030Y-146296527D01*
X68342119Y-146289703D01*
X68332011Y-146283366D01*
X68321707Y-146277516D01*
X68311146Y-146271780D01*
X68300599Y-146266393D01*
X68290065Y-146261355D01*
X68279546Y-146256667D01*
X68269040Y-146252328D01*
X68258549Y-146248339D01*
X68248071Y-146244699D01*
X68237607Y-146241409D01*
X68227157Y-146238468D01*
X68216720Y-146235876D01*
X68206298Y-146233634D01*
X68195890Y-146231742D01*
X68185495Y-146230199D01*
X68175114Y-146229005D01*
X68164747Y-146228161D01*
X68154394Y-146227666D01*
X68132951Y-146226694D01*
X68110666Y-146226270D01*
X68087538Y-146226396D01*
X68063567Y-146227072D01*
X68038753Y-146228296D01*
X68013097Y-146230069D01*
X67986598Y-146232392D01*
X67959257Y-146235265D01*
X67959257Y-146235264D01*
X67959256Y-146235263D01*
X67959256Y-146235262D01*
X67959255Y-146235261D01*
X67959255Y-146235260D01*
X67959254Y-146235260D01*
X67959253Y-146235259D01*
X67897536Y-146244044D01*
X67767905Y-146264099D01*
X67304899Y-146338017D01*
X66999007Y-146338017D01*
X66896916Y-146149501D01*
G37*
X66896916Y-146149501D02*
X67831306Y-145998998D01*
X67871587Y-145992954D01*
X67911120Y-145987921D01*
X67949907Y-145983898D01*
X67987948Y-145980884D01*
X68025241Y-145978880D01*
X68061788Y-145977886D01*
X68097589Y-145977902D01*
X68132643Y-145978928D01*
X68166950Y-145980963D01*
X68200510Y-145984009D01*
X68233324Y-145988064D01*
X68265391Y-145993129D01*
X68296712Y-145999204D01*
X68327286Y-146006289D01*
X68357113Y-146014383D01*
X68386194Y-146023488D01*
X68414698Y-146033451D01*
X68442480Y-146044835D01*
X68469540Y-146057637D01*
X68495877Y-146071860D01*
X68521493Y-146087502D01*
X68546387Y-146104564D01*
X68570559Y-146123045D01*
X68594009Y-146142946D01*
X68616736Y-146164267D01*
X68638742Y-146187007D01*
X68660026Y-146211167D01*
X68680587Y-146236747D01*
X68700427Y-146263746D01*
X68719544Y-146292166D01*
X68737940Y-146322004D01*
X68755613Y-146353263D01*
X68763266Y-146367920D01*
X68770394Y-146382661D01*
X68776998Y-146397486D01*
X68783077Y-146412396D01*
X68788632Y-146427390D01*
X68793663Y-146442469D01*
X68798170Y-146457632D01*
X68802152Y-146472880D01*
X68805610Y-146488212D01*
X68808543Y-146503628D01*
X68810952Y-146519129D01*
X68812837Y-146534714D01*
X68814197Y-146550384D01*
X68815033Y-146566138D01*
X68815345Y-146581976D01*
X68815132Y-146597899D01*
X68814051Y-146613331D01*
X68812086Y-146628306D01*
X68809238Y-146642823D01*
X68805506Y-146656882D01*
X68800890Y-146670484D01*
X68795391Y-146683627D01*
X68789008Y-146696314D01*
X68781741Y-146708543D01*
X68773591Y-146720314D01*
X68764557Y-146731627D01*
X68754639Y-146742483D01*
X68743838Y-146752881D01*
X68732152Y-146762822D01*
X68719584Y-146772305D01*
X68706131Y-146781331D01*
X68691795Y-146789899D01*
X68712281Y-146792485D01*
X68732642Y-146795609D01*
X68752877Y-146799270D01*
X68772987Y-146803468D01*
X68792971Y-146808204D01*
X68812829Y-146813478D01*
X68832562Y-146819288D01*
X68852169Y-146825637D01*
X68871651Y-146832522D01*
X68891007Y-146839945D01*
X68910238Y-146847906D01*
X68929343Y-146856403D01*
X68948322Y-146865439D01*
X68967176Y-146875011D01*
X68985904Y-146885121D01*
X69004507Y-146895768D01*
X69022813Y-146906981D01*
X69040651Y-146918786D01*
X69058021Y-146931184D01*
X69074922Y-146944175D01*
X69091355Y-146957758D01*
X69107320Y-146971934D01*
X69122816Y-146986703D01*
X69137844Y-147002065D01*
X69152404Y-147018019D01*
X69166495Y-147034566D01*
X69180118Y-147051705D01*
X69193273Y-147069437D01*
X69205959Y-147087762D01*
X69218177Y-147106680D01*
X69229927Y-147126190D01*
X69241209Y-147146293D01*
X69257960Y-147178460D01*
X69272931Y-147209807D01*
X69286119Y-147240335D01*
X69297527Y-147270042D01*
X69307153Y-147298930D01*
X69314997Y-147326998D01*
X69321060Y-147354245D01*
X69325342Y-147380673D01*
X69327842Y-147406281D01*
X69328561Y-147431070D01*
X69327498Y-147455038D01*
X69324654Y-147478186D01*
X69320028Y-147500514D01*
X69313621Y-147522023D01*
X69305433Y-147542712D01*
X69295463Y-147562580D01*
X69283712Y-147581629D01*
X69270179Y-147599858D01*
X69254865Y-147617267D01*
X69237770Y-147633856D01*
X69218893Y-147649625D01*
X69198235Y-147664575D01*
X69175795Y-147678704D01*
X69151574Y-147692014D01*
X69125572Y-147704503D01*
X69097788Y-147716173D01*
X69068222Y-147727023D01*
X69036876Y-147737053D01*
X69003747Y-147746263D01*
X68968838Y-147754653D01*
X68932147Y-147762223D01*
X68893675Y-147768973D01*
X67863781Y-147934859D01*
X67401318Y-147080901D01*
X67707208Y-147080901D01*
X68018505Y-147655723D01*
X68625082Y-147558013D01*
X68658473Y-147552387D01*
X68690246Y-147546525D01*
X68720400Y-147540427D01*
X68748936Y-147534093D01*
X68775853Y-147527523D01*
X68801151Y-147520718D01*
X68824832Y-147513676D01*
X68846893Y-147506398D01*
X68857628Y-147502477D01*
X68867935Y-147498210D01*
X68877814Y-147493599D01*
X68887265Y-147488643D01*
X68896288Y-147483342D01*
X68904883Y-147477696D01*
X68913051Y-147471705D01*
X68920790Y-147465369D01*
X68928102Y-147458688D01*
X68934985Y-147451662D01*
X68941441Y-147444292D01*
X68947469Y-147436577D01*
X68953069Y-147428516D01*
X68958240Y-147420111D01*
X68962984Y-147411361D01*
X68967300Y-147402266D01*
X68971308Y-147392724D01*
X68974483Y-147382737D01*
X68976825Y-147372305D01*
X68978333Y-147361428D01*
X68979009Y-147350106D01*
X68978852Y-147338338D01*
X68977862Y-147326126D01*
X68976039Y-147313469D01*
X68973383Y-147300367D01*
X68969894Y-147286819D01*
X68965572Y-147272827D01*
X68960417Y-147258389D01*
X68954429Y-147243506D01*
X68947608Y-147228178D01*
X68939954Y-147212405D01*
X68931467Y-147196187D01*
X68922445Y-147180054D01*
X68913188Y-147164539D01*
X68903695Y-147149641D01*
X68893966Y-147135361D01*
X68884001Y-147121697D01*
X68873801Y-147108651D01*
X68863365Y-147096222D01*
X68852693Y-147084411D01*
X68841785Y-147073216D01*
X68830642Y-147062639D01*
X68819263Y-147052680D01*
X68807648Y-147043337D01*
X68795797Y-147034612D01*
X68783711Y-147026504D01*
X68771389Y-147019013D01*
X68758831Y-147012139D01*
X68746188Y-147005776D01*
X68733609Y-146999816D01*
X68721096Y-146994259D01*
X68708647Y-146989106D01*
X68696264Y-146984356D01*
X68683945Y-146980010D01*
X68671692Y-146976067D01*
X68659503Y-146972527D01*
X68647380Y-146969391D01*
X68635321Y-146966658D01*
X68623327Y-146964328D01*
X68611398Y-146962401D01*
X68599535Y-146960879D01*
X68587736Y-146959759D01*
X68576002Y-146959043D01*
X68564333Y-146958730D01*
X68540780Y-146958799D01*
X68516668Y-146959456D01*
X68491997Y-146960699D01*
X68466766Y-146962529D01*
X68440976Y-146964945D01*
X68414627Y-146967948D01*
X68387718Y-146971538D01*
X68360250Y-146975715D01*
X67707208Y-147080901D01*
X67401318Y-147080901D01*
X66999007Y-146338017D01*
X67304899Y-146338017D01*
X67580582Y-146847077D01*
X68233621Y-146741891D01*
X68260943Y-146737200D01*
X68286766Y-146732172D01*
X68311090Y-146726806D01*
X68333916Y-146721102D01*
X68355243Y-146715060D01*
X68375072Y-146708680D01*
X68393402Y-146701962D01*
X68410234Y-146694907D01*
X68425567Y-146687513D01*
X68439402Y-146679782D01*
X68451739Y-146671712D01*
X68462577Y-146663305D01*
X68471916Y-146654560D01*
X68479757Y-146645476D01*
X68486100Y-146636055D01*
X68490944Y-146626296D01*
X68494976Y-146616171D01*
X68498237Y-146605756D01*
X68500728Y-146595052D01*
X68502448Y-146584058D01*
X68503397Y-146572774D01*
X68503575Y-146561201D01*
X68502983Y-146549339D01*
X68501620Y-146537186D01*
X68499486Y-146524744D01*
X68496581Y-146512012D01*
X68492906Y-146498991D01*
X68488460Y-146485680D01*
X68483243Y-146472080D01*
X68477256Y-146458189D01*
X68470498Y-146444009D01*
X68462969Y-146429540D01*
X68455615Y-146416387D01*
X68448065Y-146403721D01*
X68440319Y-146391541D01*
X68432375Y-146379849D01*
X68424235Y-146368644D01*
X68415898Y-146357925D01*
X68407364Y-146347693D01*
X68398633Y-146337948D01*
X68389706Y-146328690D01*
X68380582Y-146319919D01*
X68371261Y-146311635D01*
X68361744Y-146303837D01*
X68352030Y-146296527D01*
X68342119Y-146289703D01*
X68332011Y-146283366D01*
X68321707Y-146277516D01*
X68311146Y-146271780D01*
X68300599Y-146266393D01*
X68290065Y-146261355D01*
X68279546Y-146256667D01*
X68269040Y-146252328D01*
X68258549Y-146248339D01*
X68248071Y-146244699D01*
X68237607Y-146241409D01*
X68227157Y-146238468D01*
X68216720Y-146235876D01*
X68206298Y-146233634D01*
X68195890Y-146231742D01*
X68185495Y-146230199D01*
X68175114Y-146229005D01*
X68164747Y-146228161D01*
X68154394Y-146227666D01*
X68132951Y-146226694D01*
X68110666Y-146226270D01*
X68087538Y-146226396D01*
X68063567Y-146227072D01*
X68038753Y-146228296D01*
X68013097Y-146230069D01*
X67986598Y-146232392D01*
X67959257Y-146235265D01*
X67959257Y-146235264D01*
X67959256Y-146235263D01*
X67959256Y-146235262D01*
X67959255Y-146235261D01*
X67959255Y-146235260D01*
X67959254Y-146235260D01*
X67959253Y-146235259D01*
X67897536Y-146244044D01*
X67767905Y-146264099D01*
X67304899Y-146338017D01*
X66999007Y-146338017D01*
X66896916Y-146149501D01*
G36*
X69121631Y-146246644D02*
G01*
X69121587Y-146218566D01*
X69122709Y-146191066D01*
X69125000Y-146164143D01*
X69128458Y-146137797D01*
X69133084Y-146112029D01*
X69138878Y-146086838D01*
X69145840Y-146062224D01*
X69153969Y-146038188D01*
X69163266Y-146014729D01*
X69173731Y-145991848D01*
X69185363Y-145969544D01*
X69198164Y-145947817D01*
X69212132Y-145926668D01*
X69227268Y-145906096D01*
X69243572Y-145886102D01*
X69261043Y-145866685D01*
X69279674Y-145847971D01*
X69299455Y-145830086D01*
X69320386Y-145813029D01*
X69342467Y-145796800D01*
X69365699Y-145781401D01*
X69390081Y-145766829D01*
X69415613Y-145753086D01*
X69442295Y-145740172D01*
X69470127Y-145728086D01*
X69499110Y-145716828D01*
X69529243Y-145706399D01*
X69560526Y-145696798D01*
X69592959Y-145688026D01*
X69626543Y-145680082D01*
X69661277Y-145672967D01*
X69697161Y-145666680D01*
X69733550Y-145661326D01*
X69769799Y-145657008D01*
X69805907Y-145653727D01*
X69841875Y-145651482D01*
X69877703Y-145650273D01*
X69913390Y-145650100D01*
X69948937Y-145650964D01*
X69984343Y-145652863D01*
X70019609Y-145655800D01*
X70054735Y-145659772D01*
X70089721Y-145664781D01*
X70124566Y-145670826D01*
X70159270Y-145677908D01*
X70193835Y-145686026D01*
X70228259Y-145695180D01*
X70262543Y-145705371D01*
X70296866Y-145716445D01*
X70330765Y-145728354D01*
X70364238Y-145741096D01*
X70397286Y-145754672D01*
X70429909Y-145769083D01*
X70462106Y-145784327D01*
X70493878Y-145800405D01*
X70525224Y-145817318D01*
X70556146Y-145835064D01*
X70586641Y-145853644D01*
X70616712Y-145873058D01*
X70646357Y-145893307D01*
X70675577Y-145914389D01*
X70704372Y-145936305D01*
X70732741Y-145959055D01*
X70760685Y-145982638D01*
X70787951Y-146006632D01*
X70814618Y-146031218D01*
X70840685Y-146056397D01*
X70866153Y-146082170D01*
X70891020Y-146108535D01*
X70915288Y-146135494D01*
X70938957Y-146163046D01*
X70962026Y-146191190D01*
X70984495Y-146219928D01*
X71006364Y-146249259D01*
X71027634Y-146279183D01*
X71048305Y-146309700D01*
X71068376Y-146340810D01*
X71087847Y-146372513D01*
X71106718Y-146404810D01*
X71124990Y-146437699D01*
X71142420Y-146470735D01*
X71158766Y-146503469D01*
X71174028Y-146535902D01*
X71188206Y-146568034D01*
X71201301Y-146599865D01*
X71213311Y-146631394D01*
X71224237Y-146662623D01*
X71234079Y-146693550D01*
X71242838Y-146724176D01*
X71250512Y-146754500D01*
X71257103Y-146784524D01*
X71262609Y-146814246D01*
X71267032Y-146843667D01*
X71270371Y-146872786D01*
X71272625Y-146901604D01*
X71273796Y-146930121D01*
X71273841Y-146958199D01*
X71272718Y-146985700D01*
X71270427Y-147012623D01*
X71266969Y-147038969D01*
X71262342Y-147064737D01*
X71256548Y-147089928D01*
X71249587Y-147114541D01*
X71241457Y-147138577D01*
X71232160Y-147162036D01*
X71221695Y-147184917D01*
X71210062Y-147207221D01*
X71197262Y-147228947D01*
X71183294Y-147250096D01*
X71168158Y-147270668D01*
X71151855Y-147290662D01*
X71134384Y-147310079D01*
X71115743Y-147328794D01*
X71095932Y-147346684D01*
X71074951Y-147363749D01*
X71052799Y-147379989D01*
X71029476Y-147395404D01*
X71004984Y-147409993D01*
X70979321Y-147423757D01*
X70952487Y-147436696D01*
X70924483Y-147448810D01*
X70895309Y-147460098D01*
X70864964Y-147470561D01*
X70833449Y-147480199D01*
X70800763Y-147489012D01*
X70766907Y-147497000D01*
X70731881Y-147504162D01*
X70695684Y-147510499D01*
X70659295Y-147515853D01*
X70623047Y-147520171D01*
X70586938Y-147523453D01*
X70550971Y-147525699D01*
X70515143Y-147526908D01*
X70479456Y-147527080D01*
X70443909Y-147526217D01*
X70408502Y-147524317D01*
X70373236Y-147521380D01*
X70338110Y-147517407D01*
X70303125Y-147512398D01*
X70268279Y-147506353D01*
X70233575Y-147499271D01*
X70199010Y-147491153D01*
X70164586Y-147481999D01*
X70130302Y-147471808D01*
X70096291Y-147460684D01*
X70062684Y-147448729D01*
X70029483Y-147435943D01*
X69996687Y-147422326D01*
X69964297Y-147407878D01*
X69932311Y-147392600D01*
X69900731Y-147376491D01*
X69869556Y-147359552D01*
X69838786Y-147341781D01*
X69808422Y-147323180D01*
X69778462Y-147303748D01*
X69748908Y-147283485D01*
X69719759Y-147262392D01*
X69691015Y-147240468D01*
X69662676Y-147217713D01*
X69634743Y-147194127D01*
X69607316Y-147169839D01*
X69580500Y-147144977D01*
X69554294Y-147119540D01*
X69528697Y-147093530D01*
X69503711Y-147066945D01*
X69479334Y-147039787D01*
X69455568Y-147012054D01*
X69432411Y-146983748D01*
X69409865Y-146954867D01*
X69387928Y-146925412D01*
X69366601Y-146895383D01*
X69345884Y-146864780D01*
X69325778Y-146833604D01*
X69306281Y-146801853D01*
X69287394Y-146769528D01*
X69269117Y-146736629D01*
X69251692Y-146703603D01*
X69235361Y-146670897D01*
X69220125Y-146638511D01*
X69205983Y-146606446D01*
X69192935Y-146574701D01*
X69180982Y-146543277D01*
X69170122Y-146512172D01*
X69160358Y-146481388D01*
X69151687Y-146450924D01*
X69144111Y-146420781D01*
X69137628Y-146390957D01*
X69132241Y-146361454D01*
X69127947Y-146332271D01*
X69124748Y-146303408D01*
X69123281Y-146283525D01*
X69449656Y-146283525D01*
X69449714Y-146303407D01*
X69450614Y-146323672D01*
X69452356Y-146344317D01*
X69454986Y-146364862D01*
X69458233Y-146385534D01*
X69462098Y-146406335D01*
X69466581Y-146427264D01*
X69471681Y-146448321D01*
X69477398Y-146469506D01*
X69483733Y-146490819D01*
X69490686Y-146512260D01*
X69498256Y-146533830D01*
X69506444Y-146555527D01*
X69515249Y-146577353D01*
X69524671Y-146599307D01*
X69534712Y-146621389D01*
X69545369Y-146643599D01*
X69556644Y-146665937D01*
X69568537Y-146688403D01*
X69581098Y-146711092D01*
X69594050Y-146733491D01*
X69607393Y-146755599D01*
X69621127Y-146777417D01*
X69635252Y-146798944D01*
X69649767Y-146820181D01*
X69664673Y-146841127D01*
X69679970Y-146861783D01*
X69695658Y-146882148D01*
X69711737Y-146902222D01*
X69728206Y-146922006D01*
X69745066Y-146941500D01*
X69762317Y-146960703D01*
X69779958Y-146979615D01*
X69797991Y-146998237D01*
X69816414Y-147016568D01*
X69835359Y-147034123D01*
X69854642Y-147051126D01*
X69874262Y-147067579D01*
X69894220Y-147083481D01*
X69914515Y-147098832D01*
X69935147Y-147113632D01*
X69956117Y-147127881D01*
X69977425Y-147141580D01*
X69999070Y-147154727D01*
X70021052Y-147167324D01*
X70043372Y-147179370D01*
X70066030Y-147190864D01*
X70089025Y-147201808D01*
X70112357Y-147212201D01*
X70136027Y-147222043D01*
X70160034Y-147231334D01*
X70184281Y-147239934D01*
X70208671Y-147247705D01*
X70233203Y-147254646D01*
X70257878Y-147260757D01*
X70282695Y-147266039D01*
X70307655Y-147270491D01*
X70332758Y-147274112D01*
X70358003Y-147276905D01*
X70383391Y-147278867D01*
X70408922Y-147279999D01*
X70434595Y-147280302D01*
X70460410Y-147279774D01*
X70486368Y-147278417D01*
X70512469Y-147276230D01*
X70538712Y-147273213D01*
X70565098Y-147269366D01*
X70591384Y-147264729D01*
X70616684Y-147259444D01*
X70640997Y-147253510D01*
X70664324Y-147246929D01*
X70686663Y-147239700D01*
X70708016Y-147231823D01*
X70728383Y-147223298D01*
X70747763Y-147214125D01*
X70766156Y-147204304D01*
X70783562Y-147193835D01*
X70799981Y-147182719D01*
X70815414Y-147170954D01*
X70829860Y-147158542D01*
X70843320Y-147145481D01*
X70855793Y-147131773D01*
X70867279Y-147117417D01*
X70878178Y-147102504D01*
X70888245Y-147087227D01*
X70897480Y-147071589D01*
X70905883Y-147055587D01*
X70913454Y-147039224D01*
X70920192Y-147022498D01*
X70926099Y-147005409D01*
X70931173Y-146987958D01*
X70935415Y-146970144D01*
X70938825Y-146951968D01*
X70941403Y-146933429D01*
X70943149Y-146914528D01*
X70944062Y-146895265D01*
X70944144Y-146875639D01*
X70943393Y-146855650D01*
X70941810Y-146835299D01*
X70939328Y-146814401D01*
X70936208Y-146793377D01*
X70932451Y-146772228D01*
X70928056Y-146750954D01*
X70923023Y-146729555D01*
X70917352Y-146708032D01*
X70911044Y-146686383D01*
X70904098Y-146664610D01*
X70896515Y-146642712D01*
X70888293Y-146620689D01*
X70879434Y-146598541D01*
X70869938Y-146576268D01*
X70859803Y-146553870D01*
X70849032Y-146531348D01*
X70837622Y-146508701D01*
X70825575Y-146485929D01*
X70813168Y-146463545D01*
X70800350Y-146441456D01*
X70787121Y-146419660D01*
X70773481Y-146398158D01*
X70759431Y-146376950D01*
X70744969Y-146356035D01*
X70730096Y-146335415D01*
X70714813Y-146315088D01*
X70699119Y-146295055D01*
X70683014Y-146275316D01*
X70666497Y-146255870D01*
X70649570Y-146236718D01*
X70632232Y-146217860D01*
X70614483Y-146199296D01*
X70596324Y-146181025D01*
X70577753Y-146163049D01*
X70558648Y-146145199D01*
X70539216Y-146127920D01*
X70519457Y-146111210D01*
X70499370Y-146095071D01*
X70478957Y-146079501D01*
X70458216Y-146064501D01*
X70437148Y-146050071D01*
X70415753Y-146036211D01*
X70394031Y-146022921D01*
X70371981Y-146010201D01*
X70349605Y-145998051D01*
X70326901Y-145986471D01*
X70303870Y-145975461D01*
X70280512Y-145965020D01*
X70256827Y-145955150D01*
X70232815Y-145945849D01*
X70208870Y-145937200D01*
X70184742Y-145929387D01*
X70160431Y-145922410D01*
X70135938Y-145916269D01*
X70111261Y-145910965D01*
X70086402Y-145906497D01*
X70061359Y-145902865D01*
X70036134Y-145900069D01*
X70010726Y-145898110D01*
X69985135Y-145896987D01*
X69959361Y-145896701D01*
X69933404Y-145897250D01*
X69907264Y-145898637D01*
X69880941Y-145900859D01*
X69854436Y-145903918D01*
X69827747Y-145907813D01*
X69801763Y-145912402D01*
X69776726Y-145917645D01*
X69752635Y-145923543D01*
X69729490Y-145930095D01*
X69707292Y-145937302D01*
X69686040Y-145945163D01*
X69665734Y-145953678D01*
X69646375Y-145962848D01*
X69627962Y-145972673D01*
X69610495Y-145983151D01*
X69593975Y-145994284D01*
X69578401Y-146006072D01*
X69563774Y-146018514D01*
X69550093Y-146031610D01*
X69537358Y-146045361D01*
X69525570Y-146059766D01*
X69514676Y-146074689D01*
X69504624Y-146089994D01*
X69495415Y-146105680D01*
X69487048Y-146121748D01*
X69479523Y-146138197D01*
X69472842Y-146155028D01*
X69467002Y-146172240D01*
X69462005Y-146189834D01*
X69457850Y-146207809D01*
X69454538Y-146226166D01*
X69452068Y-146244904D01*
X69450441Y-146264024D01*
X69449656Y-146283525D01*
X69123281Y-146283525D01*
X69122642Y-146274866D01*
X69121631Y-146246644D01*
G37*
X69121631Y-146246644D02*
X69121587Y-146218566D01*
X69122709Y-146191066D01*
X69125000Y-146164143D01*
X69128458Y-146137797D01*
X69133084Y-146112029D01*
X69138878Y-146086838D01*
X69145840Y-146062224D01*
X69153969Y-146038188D01*
X69163266Y-146014729D01*
X69173731Y-145991848D01*
X69185363Y-145969544D01*
X69198164Y-145947817D01*
X69212132Y-145926668D01*
X69227268Y-145906096D01*
X69243572Y-145886102D01*
X69261043Y-145866685D01*
X69279674Y-145847971D01*
X69299455Y-145830086D01*
X69320386Y-145813029D01*
X69342467Y-145796800D01*
X69365699Y-145781401D01*
X69390081Y-145766829D01*
X69415613Y-145753086D01*
X69442295Y-145740172D01*
X69470127Y-145728086D01*
X69499110Y-145716828D01*
X69529243Y-145706399D01*
X69560526Y-145696798D01*
X69592959Y-145688026D01*
X69626543Y-145680082D01*
X69661277Y-145672967D01*
X69697161Y-145666680D01*
X69733550Y-145661326D01*
X69769799Y-145657008D01*
X69805907Y-145653727D01*
X69841875Y-145651482D01*
X69877703Y-145650273D01*
X69913390Y-145650100D01*
X69948937Y-145650964D01*
X69984343Y-145652863D01*
X70019609Y-145655800D01*
X70054735Y-145659772D01*
X70089721Y-145664781D01*
X70124566Y-145670826D01*
X70159270Y-145677908D01*
X70193835Y-145686026D01*
X70228259Y-145695180D01*
X70262543Y-145705371D01*
X70296866Y-145716445D01*
X70330765Y-145728354D01*
X70364238Y-145741096D01*
X70397286Y-145754672D01*
X70429909Y-145769083D01*
X70462106Y-145784327D01*
X70493878Y-145800405D01*
X70525224Y-145817318D01*
X70556146Y-145835064D01*
X70586641Y-145853644D01*
X70616712Y-145873058D01*
X70646357Y-145893307D01*
X70675577Y-145914389D01*
X70704372Y-145936305D01*
X70732741Y-145959055D01*
X70760685Y-145982638D01*
X70787951Y-146006632D01*
X70814618Y-146031218D01*
X70840685Y-146056397D01*
X70866153Y-146082170D01*
X70891020Y-146108535D01*
X70915288Y-146135494D01*
X70938957Y-146163046D01*
X70962026Y-146191190D01*
X70984495Y-146219928D01*
X71006364Y-146249259D01*
X71027634Y-146279183D01*
X71048305Y-146309700D01*
X71068376Y-146340810D01*
X71087847Y-146372513D01*
X71106718Y-146404810D01*
X71124990Y-146437699D01*
X71142420Y-146470735D01*
X71158766Y-146503469D01*
X71174028Y-146535902D01*
X71188206Y-146568034D01*
X71201301Y-146599865D01*
X71213311Y-146631394D01*
X71224237Y-146662623D01*
X71234079Y-146693550D01*
X71242838Y-146724176D01*
X71250512Y-146754500D01*
X71257103Y-146784524D01*
X71262609Y-146814246D01*
X71267032Y-146843667D01*
X71270371Y-146872786D01*
X71272625Y-146901604D01*
X71273796Y-146930121D01*
X71273841Y-146958199D01*
X71272718Y-146985700D01*
X71270427Y-147012623D01*
X71266969Y-147038969D01*
X71262342Y-147064737D01*
X71256548Y-147089928D01*
X71249587Y-147114541D01*
X71241457Y-147138577D01*
X71232160Y-147162036D01*
X71221695Y-147184917D01*
X71210062Y-147207221D01*
X71197262Y-147228947D01*
X71183294Y-147250096D01*
X71168158Y-147270668D01*
X71151855Y-147290662D01*
X71134384Y-147310079D01*
X71115743Y-147328794D01*
X71095932Y-147346684D01*
X71074951Y-147363749D01*
X71052799Y-147379989D01*
X71029476Y-147395404D01*
X71004984Y-147409993D01*
X70979321Y-147423757D01*
X70952487Y-147436696D01*
X70924483Y-147448810D01*
X70895309Y-147460098D01*
X70864964Y-147470561D01*
X70833449Y-147480199D01*
X70800763Y-147489012D01*
X70766907Y-147497000D01*
X70731881Y-147504162D01*
X70695684Y-147510499D01*
X70659295Y-147515853D01*
X70623047Y-147520171D01*
X70586938Y-147523453D01*
X70550971Y-147525699D01*
X70515143Y-147526908D01*
X70479456Y-147527080D01*
X70443909Y-147526217D01*
X70408502Y-147524317D01*
X70373236Y-147521380D01*
X70338110Y-147517407D01*
X70303125Y-147512398D01*
X70268279Y-147506353D01*
X70233575Y-147499271D01*
X70199010Y-147491153D01*
X70164586Y-147481999D01*
X70130302Y-147471808D01*
X70096291Y-147460684D01*
X70062684Y-147448729D01*
X70029483Y-147435943D01*
X69996687Y-147422326D01*
X69964297Y-147407878D01*
X69932311Y-147392600D01*
X69900731Y-147376491D01*
X69869556Y-147359552D01*
X69838786Y-147341781D01*
X69808422Y-147323180D01*
X69778462Y-147303748D01*
X69748908Y-147283485D01*
X69719759Y-147262392D01*
X69691015Y-147240468D01*
X69662676Y-147217713D01*
X69634743Y-147194127D01*
X69607316Y-147169839D01*
X69580500Y-147144977D01*
X69554294Y-147119540D01*
X69528697Y-147093530D01*
X69503711Y-147066945D01*
X69479334Y-147039787D01*
X69455568Y-147012054D01*
X69432411Y-146983748D01*
X69409865Y-146954867D01*
X69387928Y-146925412D01*
X69366601Y-146895383D01*
X69345884Y-146864780D01*
X69325778Y-146833604D01*
X69306281Y-146801853D01*
X69287394Y-146769528D01*
X69269117Y-146736629D01*
X69251692Y-146703603D01*
X69235361Y-146670897D01*
X69220125Y-146638511D01*
X69205983Y-146606446D01*
X69192935Y-146574701D01*
X69180982Y-146543277D01*
X69170122Y-146512172D01*
X69160358Y-146481388D01*
X69151687Y-146450924D01*
X69144111Y-146420781D01*
X69137628Y-146390957D01*
X69132241Y-146361454D01*
X69127947Y-146332271D01*
X69124748Y-146303408D01*
X69123281Y-146283525D01*
X69449656Y-146283525D01*
X69449714Y-146303407D01*
X69450614Y-146323672D01*
X69452356Y-146344317D01*
X69454986Y-146364862D01*
X69458233Y-146385534D01*
X69462098Y-146406335D01*
X69466581Y-146427264D01*
X69471681Y-146448321D01*
X69477398Y-146469506D01*
X69483733Y-146490819D01*
X69490686Y-146512260D01*
X69498256Y-146533830D01*
X69506444Y-146555527D01*
X69515249Y-146577353D01*
X69524671Y-146599307D01*
X69534712Y-146621389D01*
X69545369Y-146643599D01*
X69556644Y-146665937D01*
X69568537Y-146688403D01*
X69581098Y-146711092D01*
X69594050Y-146733491D01*
X69607393Y-146755599D01*
X69621127Y-146777417D01*
X69635252Y-146798944D01*
X69649767Y-146820181D01*
X69664673Y-146841127D01*
X69679970Y-146861783D01*
X69695658Y-146882148D01*
X69711737Y-146902222D01*
X69728206Y-146922006D01*
X69745066Y-146941500D01*
X69762317Y-146960703D01*
X69779958Y-146979615D01*
X69797991Y-146998237D01*
X69816414Y-147016568D01*
X69835359Y-147034123D01*
X69854642Y-147051126D01*
X69874262Y-147067579D01*
X69894220Y-147083481D01*
X69914515Y-147098832D01*
X69935147Y-147113632D01*
X69956117Y-147127881D01*
X69977425Y-147141580D01*
X69999070Y-147154727D01*
X70021052Y-147167324D01*
X70043372Y-147179370D01*
X70066030Y-147190864D01*
X70089025Y-147201808D01*
X70112357Y-147212201D01*
X70136027Y-147222043D01*
X70160034Y-147231334D01*
X70184281Y-147239934D01*
X70208671Y-147247705D01*
X70233203Y-147254646D01*
X70257878Y-147260757D01*
X70282695Y-147266039D01*
X70307655Y-147270491D01*
X70332758Y-147274112D01*
X70358003Y-147276905D01*
X70383391Y-147278867D01*
X70408922Y-147279999D01*
X70434595Y-147280302D01*
X70460410Y-147279774D01*
X70486368Y-147278417D01*
X70512469Y-147276230D01*
X70538712Y-147273213D01*
X70565098Y-147269366D01*
X70591384Y-147264729D01*
X70616684Y-147259444D01*
X70640997Y-147253510D01*
X70664324Y-147246929D01*
X70686663Y-147239700D01*
X70708016Y-147231823D01*
X70728383Y-147223298D01*
X70747763Y-147214125D01*
X70766156Y-147204304D01*
X70783562Y-147193835D01*
X70799981Y-147182719D01*
X70815414Y-147170954D01*
X70829860Y-147158542D01*
X70843320Y-147145481D01*
X70855793Y-147131773D01*
X70867279Y-147117417D01*
X70878178Y-147102504D01*
X70888245Y-147087227D01*
X70897480Y-147071589D01*
X70905883Y-147055587D01*
X70913454Y-147039224D01*
X70920192Y-147022498D01*
X70926099Y-147005409D01*
X70931173Y-146987958D01*
X70935415Y-146970144D01*
X70938825Y-146951968D01*
X70941403Y-146933429D01*
X70943149Y-146914528D01*
X70944062Y-146895265D01*
X70944144Y-146875639D01*
X70943393Y-146855650D01*
X70941810Y-146835299D01*
X70939328Y-146814401D01*
X70936208Y-146793377D01*
X70932451Y-146772228D01*
X70928056Y-146750954D01*
X70923023Y-146729555D01*
X70917352Y-146708032D01*
X70911044Y-146686383D01*
X70904098Y-146664610D01*
X70896515Y-146642712D01*
X70888293Y-146620689D01*
X70879434Y-146598541D01*
X70869938Y-146576268D01*
X70859803Y-146553870D01*
X70849032Y-146531348D01*
X70837622Y-146508701D01*
X70825575Y-146485929D01*
X70813168Y-146463545D01*
X70800350Y-146441456D01*
X70787121Y-146419660D01*
X70773481Y-146398158D01*
X70759431Y-146376950D01*
X70744969Y-146356035D01*
X70730096Y-146335415D01*
X70714813Y-146315088D01*
X70699119Y-146295055D01*
X70683014Y-146275316D01*
X70666497Y-146255870D01*
X70649570Y-146236718D01*
X70632232Y-146217860D01*
X70614483Y-146199296D01*
X70596324Y-146181025D01*
X70577753Y-146163049D01*
X70558648Y-146145199D01*
X70539216Y-146127920D01*
X70519457Y-146111210D01*
X70499370Y-146095071D01*
X70478957Y-146079501D01*
X70458216Y-146064501D01*
X70437148Y-146050071D01*
X70415753Y-146036211D01*
X70394031Y-146022921D01*
X70371981Y-146010201D01*
X70349605Y-145998051D01*
X70326901Y-145986471D01*
X70303870Y-145975461D01*
X70280512Y-145965020D01*
X70256827Y-145955150D01*
X70232815Y-145945849D01*
X70208870Y-145937200D01*
X70184742Y-145929387D01*
X70160431Y-145922410D01*
X70135938Y-145916269D01*
X70111261Y-145910965D01*
X70086402Y-145906497D01*
X70061359Y-145902865D01*
X70036134Y-145900069D01*
X70010726Y-145898110D01*
X69985135Y-145896987D01*
X69959361Y-145896701D01*
X69933404Y-145897250D01*
X69907264Y-145898637D01*
X69880941Y-145900859D01*
X69854436Y-145903918D01*
X69827747Y-145907813D01*
X69801763Y-145912402D01*
X69776726Y-145917645D01*
X69752635Y-145923543D01*
X69729490Y-145930095D01*
X69707292Y-145937302D01*
X69686040Y-145945163D01*
X69665734Y-145953678D01*
X69646375Y-145962848D01*
X69627962Y-145972673D01*
X69610495Y-145983151D01*
X69593975Y-145994284D01*
X69578401Y-146006072D01*
X69563774Y-146018514D01*
X69550093Y-146031610D01*
X69537358Y-146045361D01*
X69525570Y-146059766D01*
X69514676Y-146074689D01*
X69504624Y-146089994D01*
X69495415Y-146105680D01*
X69487048Y-146121748D01*
X69479523Y-146138197D01*
X69472842Y-146155028D01*
X69467002Y-146172240D01*
X69462005Y-146189834D01*
X69457850Y-146207809D01*
X69454538Y-146226166D01*
X69452068Y-146244904D01*
X69450441Y-146264024D01*
X69449656Y-146283525D01*
X69123281Y-146283525D01*
X69122642Y-146274866D01*
X69121631Y-146246644D01*
G36*
X71730421Y-148973950D02*
G01*
X71522980Y-149007195D01*
X71154491Y-148703879D01*
X70684505Y-148779202D01*
X70800175Y-149123036D01*
X70592733Y-149156281D01*
X70278523Y-148138911D01*
X70468653Y-148138911D01*
X70633512Y-148626132D01*
X70990053Y-148568992D01*
X70468653Y-148138911D01*
X70278523Y-148138911D01*
X70234171Y-147995305D01*
X70461059Y-147958943D01*
X71730421Y-148973950D01*
G37*
X71730421Y-148973950D02*
X71522980Y-149007195D01*
X71154491Y-148703879D01*
X70684505Y-148779202D01*
X70800175Y-149123036D01*
X70592733Y-149156281D01*
X70278523Y-148138911D01*
X70468653Y-148138911D01*
X70633512Y-148626132D01*
X70990053Y-148568992D01*
X70468653Y-148138911D01*
X70278523Y-148138911D01*
X70234171Y-147995305D01*
X70461059Y-147958943D01*
X71730421Y-148973950D01*
G36*
X76153063Y-136800968D02*
G01*
X76346384Y-136821395D01*
X76536181Y-136854610D01*
X76721339Y-136899937D01*
X76900742Y-136956698D01*
X77073277Y-137024216D01*
X77237827Y-137101813D01*
X77393278Y-137188812D01*
X77538515Y-137284534D01*
X77672423Y-137388303D01*
X77793887Y-137499441D01*
X77901791Y-137617270D01*
X77995022Y-137741113D01*
X78035786Y-137805078D01*
X78072464Y-137870292D01*
X78104915Y-137936671D01*
X78133001Y-138004130D01*
X78156583Y-138072585D01*
X78175520Y-138141950D01*
X78189517Y-138211314D01*
X78198438Y-138279768D01*
X78202382Y-138347227D01*
X78201448Y-138413606D01*
X78195735Y-138478820D01*
X78185341Y-138542785D01*
X78170367Y-138605416D01*
X78150912Y-138666628D01*
X78127074Y-138726336D01*
X78098953Y-138784457D01*
X78066648Y-138840904D01*
X78030258Y-138895594D01*
X77989883Y-138948442D01*
X77945621Y-138999363D01*
X77897571Y-139048272D01*
X77845833Y-139095085D01*
X77790506Y-139139717D01*
X77731689Y-139182083D01*
X77669482Y-139222099D01*
X77603983Y-139259680D01*
X77535291Y-139294741D01*
X77463506Y-139327198D01*
X77388727Y-139356965D01*
X77311053Y-139383959D01*
X77230584Y-139408094D01*
X77147417Y-139429286D01*
X77061654Y-139447450D01*
X76973392Y-139462501D01*
X76882730Y-139474355D01*
X76789769Y-139482927D01*
X76694607Y-139488132D01*
X76597343Y-139489886D01*
X76401613Y-139482927D01*
X76208292Y-139462501D01*
X76018496Y-139429286D01*
X75833338Y-139383959D01*
X75653935Y-139327198D01*
X75481400Y-139259680D01*
X75316850Y-139182083D01*
X75161399Y-139095085D01*
X75016162Y-138999363D01*
X74882254Y-138895594D01*
X74760790Y-138784457D01*
X74652886Y-138666628D01*
X74559655Y-138542785D01*
X74518890Y-138478820D01*
X74482213Y-138413606D01*
X74449761Y-138347227D01*
X74421675Y-138279768D01*
X74398093Y-138211314D01*
X74379156Y-138141950D01*
X74365159Y-138072585D01*
X74356238Y-138004130D01*
X74352294Y-137936671D01*
X74353228Y-137870292D01*
X74358942Y-137805078D01*
X74369335Y-137741113D01*
X74384309Y-137678482D01*
X74403765Y-137617270D01*
X74427602Y-137557561D01*
X74455723Y-137499441D01*
X74488028Y-137442993D01*
X74524418Y-137388303D01*
X74564794Y-137335455D01*
X74609056Y-137284534D01*
X74657106Y-137235625D01*
X74708843Y-137188812D01*
X74764170Y-137144179D01*
X74822987Y-137101813D01*
X74885194Y-137061797D01*
X74950693Y-137024216D01*
X75019385Y-136989155D01*
X75091170Y-136956698D01*
X75165949Y-136926931D01*
X75243623Y-136899937D01*
X75324092Y-136875802D01*
X75407258Y-136854610D01*
X75493022Y-136836446D01*
X75581284Y-136821395D01*
X75671945Y-136809540D01*
X75764907Y-136800968D01*
X75860069Y-136795763D01*
X75957332Y-136794009D01*
X76153063Y-136800968D01*
G37*
X76153063Y-136800968D02*
X76346384Y-136821395D01*
X76536181Y-136854610D01*
X76721339Y-136899937D01*
X76900742Y-136956698D01*
X77073277Y-137024216D01*
X77237827Y-137101813D01*
X77393278Y-137188812D01*
X77538515Y-137284534D01*
X77672423Y-137388303D01*
X77793887Y-137499441D01*
X77901791Y-137617270D01*
X77995022Y-137741113D01*
X78035786Y-137805078D01*
X78072464Y-137870292D01*
X78104915Y-137936671D01*
X78133001Y-138004130D01*
X78156583Y-138072585D01*
X78175520Y-138141950D01*
X78189517Y-138211314D01*
X78198438Y-138279768D01*
X78202382Y-138347227D01*
X78201448Y-138413606D01*
X78195735Y-138478820D01*
X78185341Y-138542785D01*
X78170367Y-138605416D01*
X78150912Y-138666628D01*
X78127074Y-138726336D01*
X78098953Y-138784457D01*
X78066648Y-138840904D01*
X78030258Y-138895594D01*
X77989883Y-138948442D01*
X77945621Y-138999363D01*
X77897571Y-139048272D01*
X77845833Y-139095085D01*
X77790506Y-139139717D01*
X77731689Y-139182083D01*
X77669482Y-139222099D01*
X77603983Y-139259680D01*
X77535291Y-139294741D01*
X77463506Y-139327198D01*
X77388727Y-139356965D01*
X77311053Y-139383959D01*
X77230584Y-139408094D01*
X77147417Y-139429286D01*
X77061654Y-139447450D01*
X76973392Y-139462501D01*
X76882730Y-139474355D01*
X76789769Y-139482927D01*
X76694607Y-139488132D01*
X76597343Y-139489886D01*
X76401613Y-139482927D01*
X76208292Y-139462501D01*
X76018496Y-139429286D01*
X75833338Y-139383959D01*
X75653935Y-139327198D01*
X75481400Y-139259680D01*
X75316850Y-139182083D01*
X75161399Y-139095085D01*
X75016162Y-138999363D01*
X74882254Y-138895594D01*
X74760790Y-138784457D01*
X74652886Y-138666628D01*
X74559655Y-138542785D01*
X74518890Y-138478820D01*
X74482213Y-138413606D01*
X74449761Y-138347227D01*
X74421675Y-138279768D01*
X74398093Y-138211314D01*
X74379156Y-138141950D01*
X74365159Y-138072585D01*
X74356238Y-138004130D01*
X74352294Y-137936671D01*
X74353228Y-137870292D01*
X74358942Y-137805078D01*
X74369335Y-137741113D01*
X74384309Y-137678482D01*
X74403765Y-137617270D01*
X74427602Y-137557561D01*
X74455723Y-137499441D01*
X74488028Y-137442993D01*
X74524418Y-137388303D01*
X74564794Y-137335455D01*
X74609056Y-137284534D01*
X74657106Y-137235625D01*
X74708843Y-137188812D01*
X74764170Y-137144179D01*
X74822987Y-137101813D01*
X74885194Y-137061797D01*
X74950693Y-137024216D01*
X75019385Y-136989155D01*
X75091170Y-136956698D01*
X75165949Y-136926931D01*
X75243623Y-136899937D01*
X75324092Y-136875802D01*
X75407258Y-136854610D01*
X75493022Y-136836446D01*
X75581284Y-136821395D01*
X75671945Y-136809540D01*
X75764907Y-136800968D01*
X75860069Y-136795763D01*
X75957332Y-136794009D01*
X76153063Y-136800968D01*
D10*
X143140000Y-100060000D02*
G75*
G03*
X143140000Y-100060000I-12000000J0D01*
G01*
X200490000Y-88460000D02*
G75*
G03*
X200490000Y-88460000I-12000000J0D01*
G01*
X145300000Y-69950000D02*
G75*
G03*
X145300000Y-69950000I-12000000J0D01*
G01*
X92620000Y-69000000D02*
G75*
G03*
X92620000Y-69000000I-12000000J0D01*
G01*
D11*
G36*
X66333386Y-140587490D02*
G01*
X66552013Y-140612383D01*
X66766655Y-140652861D01*
X66976050Y-140708100D01*
X67178938Y-140777273D01*
X67374058Y-140859555D01*
X67560148Y-140954120D01*
X67735949Y-141060142D01*
X67900198Y-141176796D01*
X68051635Y-141303256D01*
X68188999Y-141438696D01*
X68311029Y-141582291D01*
X68416464Y-141733214D01*
X68462564Y-141811166D01*
X68504043Y-141890640D01*
X68540743Y-141971534D01*
X68572505Y-142053744D01*
X68599174Y-142137167D01*
X68620590Y-142221700D01*
X68636420Y-142306232D01*
X68646508Y-142389655D01*
X68650968Y-142471866D01*
X68649911Y-142552760D01*
X68643450Y-142632234D01*
X68631696Y-142710186D01*
X68614762Y-142786513D01*
X68592760Y-142861110D01*
X68565802Y-142933875D01*
X68534000Y-143004705D01*
X68497466Y-143073496D01*
X68456312Y-143140145D01*
X68410651Y-143204549D01*
X68360595Y-143266605D01*
X68306256Y-143326209D01*
X68247746Y-143383259D01*
X68185176Y-143437651D01*
X68118660Y-143489281D01*
X68048310Y-143538047D01*
X67974236Y-143583846D01*
X67896553Y-143626574D01*
X67815371Y-143666128D01*
X67730804Y-143702405D01*
X67642962Y-143735301D01*
X67551959Y-143764714D01*
X67457905Y-143790540D01*
X67360915Y-143812676D01*
X67261099Y-143831019D01*
X67158570Y-143845465D01*
X67053440Y-143855911D01*
X66945820Y-143862255D01*
X66835824Y-143864392D01*
X66614472Y-143855911D01*
X66395845Y-143831019D01*
X66181203Y-143790540D01*
X65971807Y-143735301D01*
X65768919Y-143666128D01*
X65573800Y-143583846D01*
X65387709Y-143489281D01*
X65211909Y-143383259D01*
X65047660Y-143266605D01*
X64896223Y-143140145D01*
X64758859Y-143004705D01*
X64636829Y-142861110D01*
X64531394Y-142710186D01*
X64485294Y-142632234D01*
X64443815Y-142552760D01*
X64407116Y-142471866D01*
X64375353Y-142389655D01*
X64348685Y-142306232D01*
X64327268Y-142221700D01*
X64311439Y-142137167D01*
X64301350Y-142053744D01*
X64296890Y-141971534D01*
X64297946Y-141890640D01*
X64304408Y-141811166D01*
X64316162Y-141733214D01*
X64333096Y-141656888D01*
X64355098Y-141582291D01*
X64382056Y-141509526D01*
X64413858Y-141438696D01*
X64450392Y-141369905D01*
X64491545Y-141303256D01*
X64537206Y-141238852D01*
X64587262Y-141176796D01*
X64641602Y-141117192D01*
X64700112Y-141060142D01*
X64762681Y-141005751D01*
X64829198Y-140954120D01*
X64899548Y-140905354D01*
X64973621Y-140859555D01*
X65051305Y-140816827D01*
X65132487Y-140777273D01*
X65217054Y-140740996D01*
X65304896Y-140708100D01*
X65395900Y-140678687D01*
X65489953Y-140652861D01*
X65586943Y-140630725D01*
X65686759Y-140612383D01*
X65789288Y-140597937D01*
X65894419Y-140587490D01*
X66002038Y-140581147D01*
X66112034Y-140579009D01*
X66333386Y-140587490D01*
G37*
X66333386Y-140587490D02*
X66552013Y-140612383D01*
X66766655Y-140652861D01*
X66976050Y-140708100D01*
X67178938Y-140777273D01*
X67374058Y-140859555D01*
X67560148Y-140954120D01*
X67735949Y-141060142D01*
X67900198Y-141176796D01*
X68051635Y-141303256D01*
X68188999Y-141438696D01*
X68311029Y-141582291D01*
X68416464Y-141733214D01*
X68462564Y-141811166D01*
X68504043Y-141890640D01*
X68540743Y-141971534D01*
X68572505Y-142053744D01*
X68599174Y-142137167D01*
X68620590Y-142221700D01*
X68636420Y-142306232D01*
X68646508Y-142389655D01*
X68650968Y-142471866D01*
X68649911Y-142552760D01*
X68643450Y-142632234D01*
X68631696Y-142710186D01*
X68614762Y-142786513D01*
X68592760Y-142861110D01*
X68565802Y-142933875D01*
X68534000Y-143004705D01*
X68497466Y-143073496D01*
X68456312Y-143140145D01*
X68410651Y-143204549D01*
X68360595Y-143266605D01*
X68306256Y-143326209D01*
X68247746Y-143383259D01*
X68185176Y-143437651D01*
X68118660Y-143489281D01*
X68048310Y-143538047D01*
X67974236Y-143583846D01*
X67896553Y-143626574D01*
X67815371Y-143666128D01*
X67730804Y-143702405D01*
X67642962Y-143735301D01*
X67551959Y-143764714D01*
X67457905Y-143790540D01*
X67360915Y-143812676D01*
X67261099Y-143831019D01*
X67158570Y-143845465D01*
X67053440Y-143855911D01*
X66945820Y-143862255D01*
X66835824Y-143864392D01*
X66614472Y-143855911D01*
X66395845Y-143831019D01*
X66181203Y-143790540D01*
X65971807Y-143735301D01*
X65768919Y-143666128D01*
X65573800Y-143583846D01*
X65387709Y-143489281D01*
X65211909Y-143383259D01*
X65047660Y-143266605D01*
X64896223Y-143140145D01*
X64758859Y-143004705D01*
X64636829Y-142861110D01*
X64531394Y-142710186D01*
X64485294Y-142632234D01*
X64443815Y-142552760D01*
X64407116Y-142471866D01*
X64375353Y-142389655D01*
X64348685Y-142306232D01*
X64327268Y-142221700D01*
X64311439Y-142137167D01*
X64301350Y-142053744D01*
X64296890Y-141971534D01*
X64297946Y-141890640D01*
X64304408Y-141811166D01*
X64316162Y-141733214D01*
X64333096Y-141656888D01*
X64355098Y-141582291D01*
X64382056Y-141509526D01*
X64413858Y-141438696D01*
X64450392Y-141369905D01*
X64491545Y-141303256D01*
X64537206Y-141238852D01*
X64587262Y-141176796D01*
X64641602Y-141117192D01*
X64700112Y-141060142D01*
X64762681Y-141005751D01*
X64829198Y-140954120D01*
X64899548Y-140905354D01*
X64973621Y-140859555D01*
X65051305Y-140816827D01*
X65132487Y-140777273D01*
X65217054Y-140740996D01*
X65304896Y-140708100D01*
X65395900Y-140678687D01*
X65489953Y-140652861D01*
X65586943Y-140630725D01*
X65686759Y-140612383D01*
X65789288Y-140597937D01*
X65894419Y-140587490D01*
X66002038Y-140581147D01*
X66112034Y-140579009D01*
X66333386Y-140587490D01*
D10*
X118070000Y-82540000D02*
G75*
G03*
X118070000Y-82540000I-12000000J0D01*
G01*
D12*
X129428571Y-84607142D02*
X129642857Y-84678571D01*
X130000000Y-84678571D01*
X130142857Y-84607142D01*
X130214285Y-84535714D01*
X130285714Y-84392857D01*
X130285714Y-84250000D01*
X130214285Y-84107142D01*
X130142857Y-84035714D01*
X130000000Y-83964285D01*
X129714285Y-83892857D01*
X129571428Y-83821428D01*
X129500000Y-83750000D01*
X129428571Y-83607142D01*
X129428571Y-83464285D01*
X129500000Y-83321428D01*
X129571428Y-83250000D01*
X129714285Y-83178571D01*
X130071428Y-83178571D01*
X130285714Y-83250000D01*
X131928571Y-84821428D02*
X131785714Y-84750000D01*
X131642857Y-84607142D01*
X131428571Y-84392857D01*
X131285714Y-84321428D01*
X131142857Y-84321428D01*
X131214285Y-84678571D02*
X131071428Y-84607142D01*
X130928571Y-84464285D01*
X130857142Y-84178571D01*
X130857142Y-83678571D01*
X130928571Y-83392857D01*
X131071428Y-83250000D01*
X131214285Y-83178571D01*
X131500000Y-83178571D01*
X131642857Y-83250000D01*
X131785714Y-83392857D01*
X131857142Y-83678571D01*
X131857142Y-84178571D01*
X131785714Y-84464285D01*
X131642857Y-84607142D01*
X131500000Y-84678571D01*
X131214285Y-84678571D01*
X132500000Y-83178571D02*
X132500000Y-84392857D01*
X132571428Y-84535714D01*
X132642857Y-84607142D01*
X132785714Y-84678571D01*
X133071428Y-84678571D01*
X133214285Y-84607142D01*
X133285714Y-84535714D01*
X133357142Y-84392857D01*
X133357142Y-83178571D01*
X134000000Y-84250000D02*
X134714285Y-84250000D01*
X133857142Y-84678571D02*
X134357142Y-83178571D01*
X134857142Y-84678571D01*
X136214285Y-84678571D02*
X135714285Y-83964285D01*
X135357142Y-84678571D02*
X135357142Y-83178571D01*
X135928571Y-83178571D01*
X136071428Y-83250000D01*
X136142857Y-83321428D01*
X136214285Y-83464285D01*
X136214285Y-83678571D01*
X136142857Y-83821428D01*
X136071428Y-83892857D01*
X135928571Y-83964285D01*
X135357142Y-83964285D01*
X136857142Y-83892857D02*
X137357142Y-83892857D01*
X137571428Y-84678571D02*
X136857142Y-84678571D01*
X136857142Y-83178571D01*
X137571428Y-83178571D01*
D13*
X81488095Y-149452380D02*
X81154761Y-148976190D01*
X80916666Y-149452380D02*
X80916666Y-148452380D01*
X81297619Y-148452380D01*
X81392857Y-148500000D01*
X81440476Y-148547619D01*
X81488095Y-148642857D01*
X81488095Y-148785714D01*
X81440476Y-148880952D01*
X81392857Y-148928571D01*
X81297619Y-148976190D01*
X80916666Y-148976190D01*
X81916666Y-148928571D02*
X82250000Y-148928571D01*
X82392857Y-149452380D02*
X81916666Y-149452380D01*
X81916666Y-148452380D01*
X82392857Y-148452380D01*
X82678571Y-148452380D02*
X83011904Y-149452380D01*
X83345238Y-148452380D01*
X84202380Y-149452380D02*
X83630952Y-149452380D01*
X83916666Y-149452380D02*
X83916666Y-148452380D01*
X83821428Y-148595238D01*
X83726190Y-148690476D01*
X83630952Y-148738095D01*
X84630952Y-149357142D02*
X84678571Y-149404761D01*
X84630952Y-149452380D01*
X84583333Y-149404761D01*
X84630952Y-149357142D01*
X84630952Y-149452380D01*
X85630952Y-149452380D02*
X85059523Y-149452380D01*
X85345238Y-149452380D02*
X85345238Y-148452380D01*
X85250000Y-148595238D01*
X85154761Y-148690476D01*
X85059523Y-148738095D01*
X70023809Y-40404761D02*
X70166666Y-40452380D01*
X70404761Y-40452380D01*
X70500000Y-40404761D01*
X70547619Y-40357142D01*
X70595238Y-40261904D01*
X70595238Y-40166666D01*
X70547619Y-40071428D01*
X70500000Y-40023809D01*
X70404761Y-39976190D01*
X70214285Y-39928571D01*
X70119047Y-39880952D01*
X70071428Y-39833333D01*
X70023809Y-39738095D01*
X70023809Y-39642857D01*
X70071428Y-39547619D01*
X70119047Y-39500000D01*
X70214285Y-39452380D01*
X70452380Y-39452380D01*
X70595238Y-39500000D01*
X71023809Y-39928571D02*
X71357142Y-39928571D01*
X71500000Y-40452380D02*
X71023809Y-40452380D01*
X71023809Y-39452380D01*
X71500000Y-39452380D01*
X72404761Y-40452380D02*
X71928571Y-40452380D01*
X71928571Y-39452380D01*
X72738095Y-39928571D02*
X73071428Y-39928571D01*
X73214285Y-40452380D02*
X72738095Y-40452380D01*
X72738095Y-39452380D01*
X73214285Y-39452380D01*
X74214285Y-40357142D02*
X74166666Y-40404761D01*
X74023809Y-40452380D01*
X73928571Y-40452380D01*
X73785714Y-40404761D01*
X73690476Y-40309523D01*
X73642857Y-40214285D01*
X73595238Y-40023809D01*
X73595238Y-39880952D01*
X73642857Y-39690476D01*
X73690476Y-39595238D01*
X73785714Y-39500000D01*
X73928571Y-39452380D01*
X74023809Y-39452380D01*
X74166666Y-39500000D01*
X74214285Y-39547619D01*
X74500000Y-39452380D02*
X75071428Y-39452380D01*
X74785714Y-40452380D02*
X74785714Y-39452380D01*
X62333333Y-40452380D02*
X62000000Y-39976190D01*
X61761904Y-40452380D02*
X61761904Y-39452380D01*
X62142857Y-39452380D01*
X62238095Y-39500000D01*
X62285714Y-39547619D01*
X62333333Y-39642857D01*
X62333333Y-39785714D01*
X62285714Y-39880952D01*
X62238095Y-39928571D01*
X62142857Y-39976190D01*
X61761904Y-39976190D01*
X62666666Y-39452380D02*
X63285714Y-39452380D01*
X62952380Y-39833333D01*
X63095238Y-39833333D01*
X63190476Y-39880952D01*
X63238095Y-39928571D01*
X63285714Y-40023809D01*
X63285714Y-40261904D01*
X63238095Y-40357142D01*
X63190476Y-40404761D01*
X63095238Y-40452380D01*
X62809523Y-40452380D01*
X62714285Y-40404761D01*
X62666666Y-40357142D01*
D12*
X216750000Y-107678571D02*
X216035714Y-107678571D01*
X216035714Y-106178571D01*
X217178571Y-106321428D02*
X217250000Y-106250000D01*
X217392857Y-106178571D01*
X217750000Y-106178571D01*
X217892857Y-106250000D01*
X217964285Y-106321428D01*
X218035714Y-106464285D01*
X218035714Y-106607142D01*
X217964285Y-106821428D01*
X217107142Y-107678571D01*
X218035714Y-107678571D01*
D13*
X81761904Y-40452380D02*
X81761904Y-39452380D01*
X82142857Y-39452380D01*
X82238095Y-39500000D01*
X82285714Y-39547619D01*
X82333333Y-39642857D01*
X82333333Y-39785714D01*
X82285714Y-39880952D01*
X82238095Y-39928571D01*
X82142857Y-39976190D01*
X81761904Y-39976190D01*
X82714285Y-40404761D02*
X82857142Y-40452380D01*
X83095238Y-40452380D01*
X83190476Y-40404761D01*
X83238095Y-40357142D01*
X83285714Y-40261904D01*
X83285714Y-40166666D01*
X83238095Y-40071428D01*
X83190476Y-40023809D01*
X83095238Y-39976190D01*
X82904761Y-39928571D01*
X82809523Y-39880952D01*
X82761904Y-39833333D01*
X82714285Y-39738095D01*
X82714285Y-39642857D01*
X82761904Y-39547619D01*
X82809523Y-39500000D01*
X82904761Y-39452380D01*
X83142857Y-39452380D01*
X83285714Y-39500000D01*
D12*
X129000000Y-114535714D02*
X128928571Y-114607142D01*
X128714285Y-114678571D01*
X128571428Y-114678571D01*
X128357142Y-114607142D01*
X128214285Y-114464285D01*
X128142857Y-114321428D01*
X128071428Y-114035714D01*
X128071428Y-113821428D01*
X128142857Y-113535714D01*
X128214285Y-113392857D01*
X128357142Y-113250000D01*
X128571428Y-113178571D01*
X128714285Y-113178571D01*
X128928571Y-113250000D01*
X129000000Y-113321428D01*
X130500000Y-114678571D02*
X130000000Y-113964285D01*
X129642857Y-114678571D02*
X129642857Y-113178571D01*
X130214285Y-113178571D01*
X130357142Y-113250000D01*
X130428571Y-113321428D01*
X130500000Y-113464285D01*
X130500000Y-113678571D01*
X130428571Y-113821428D01*
X130357142Y-113892857D01*
X130214285Y-113964285D01*
X129642857Y-113964285D01*
X131428571Y-113178571D02*
X131714285Y-113178571D01*
X131857142Y-113250000D01*
X132000000Y-113392857D01*
X132071428Y-113678571D01*
X132071428Y-114178571D01*
X132000000Y-114464285D01*
X131857142Y-114607142D01*
X131714285Y-114678571D01*
X131428571Y-114678571D01*
X131285714Y-114607142D01*
X131142857Y-114464285D01*
X131071428Y-114178571D01*
X131071428Y-113678571D01*
X131142857Y-113392857D01*
X131285714Y-113250000D01*
X131428571Y-113178571D01*
X132642857Y-114607142D02*
X132857142Y-114678571D01*
X133214285Y-114678571D01*
X133357142Y-114607142D01*
X133428571Y-114535714D01*
X133500000Y-114392857D01*
X133500000Y-114250000D01*
X133428571Y-114107142D01*
X133357142Y-114035714D01*
X133214285Y-113964285D01*
X132928571Y-113892857D01*
X132785714Y-113821428D01*
X132714285Y-113750000D01*
X132642857Y-113607142D01*
X132642857Y-113464285D01*
X132714285Y-113321428D01*
X132785714Y-113250000D01*
X132928571Y-113178571D01*
X133285714Y-113178571D01*
X133500000Y-113250000D01*
X134071428Y-114607142D02*
X134285714Y-114678571D01*
X134642857Y-114678571D01*
X134785714Y-114607142D01*
X134857142Y-114535714D01*
X134928571Y-114392857D01*
X134928571Y-114250000D01*
X134857142Y-114107142D01*
X134785714Y-114035714D01*
X134642857Y-113964285D01*
X134357142Y-113892857D01*
X134214285Y-113821428D01*
X134142857Y-113750000D01*
X134071428Y-113607142D01*
X134071428Y-113464285D01*
X134142857Y-113321428D01*
X134214285Y-113250000D01*
X134357142Y-113178571D01*
X134714285Y-113178571D01*
X134928571Y-113250000D01*
X78178571Y-83678571D02*
X78178571Y-82178571D01*
X78535714Y-82178571D01*
X78750000Y-82250000D01*
X78892857Y-82392857D01*
X78964285Y-82535714D01*
X79035714Y-82821428D01*
X79035714Y-83035714D01*
X78964285Y-83321428D01*
X78892857Y-83464285D01*
X78750000Y-83607142D01*
X78535714Y-83678571D01*
X78178571Y-83678571D01*
X79964285Y-82178571D02*
X80250000Y-82178571D01*
X80392857Y-82250000D01*
X80535714Y-82392857D01*
X80607142Y-82678571D01*
X80607142Y-83178571D01*
X80535714Y-83464285D01*
X80392857Y-83607142D01*
X80250000Y-83678571D01*
X79964285Y-83678571D01*
X79821428Y-83607142D01*
X79678571Y-83464285D01*
X79607142Y-83178571D01*
X79607142Y-82678571D01*
X79678571Y-82392857D01*
X79821428Y-82250000D01*
X79964285Y-82178571D01*
X81107142Y-82178571D02*
X81464285Y-83678571D01*
X81750000Y-82607142D01*
X82035714Y-83678571D01*
X82392857Y-82178571D01*
X82964285Y-83678571D02*
X82964285Y-82178571D01*
X83821428Y-83678571D01*
X83821428Y-82178571D01*
D13*
X41833333Y-40452380D02*
X41357142Y-40452380D01*
X41357142Y-39452380D01*
X42071428Y-39452380D02*
X42690476Y-39452380D01*
X42357142Y-39833333D01*
X42500000Y-39833333D01*
X42595238Y-39880952D01*
X42642857Y-39928571D01*
X42690476Y-40023809D01*
X42690476Y-40261904D01*
X42642857Y-40357142D01*
X42595238Y-40404761D01*
X42500000Y-40452380D01*
X42214285Y-40452380D01*
X42119047Y-40404761D01*
X42071428Y-40357142D01*
X90023809Y-40404761D02*
X90166666Y-40452380D01*
X90404761Y-40452380D01*
X90500000Y-40404761D01*
X90547619Y-40357142D01*
X90595238Y-40261904D01*
X90595238Y-40166666D01*
X90547619Y-40071428D01*
X90500000Y-40023809D01*
X90404761Y-39976190D01*
X90214285Y-39928571D01*
X90119047Y-39880952D01*
X90071428Y-39833333D01*
X90023809Y-39738095D01*
X90023809Y-39642857D01*
X90071428Y-39547619D01*
X90119047Y-39500000D01*
X90214285Y-39452380D01*
X90452380Y-39452380D01*
X90595238Y-39500000D01*
X90880952Y-39452380D02*
X91452380Y-39452380D01*
X91166666Y-40452380D02*
X91166666Y-39452380D01*
X91738095Y-40166666D02*
X92214285Y-40166666D01*
X91642857Y-40452380D02*
X91976190Y-39452380D01*
X92309523Y-40452380D01*
X93214285Y-40452380D02*
X92880952Y-39976190D01*
X92642857Y-40452380D02*
X92642857Y-39452380D01*
X93023809Y-39452380D01*
X93119047Y-39500000D01*
X93166666Y-39547619D01*
X93214285Y-39642857D01*
X93214285Y-39785714D01*
X93166666Y-39880952D01*
X93119047Y-39928571D01*
X93023809Y-39976190D01*
X92642857Y-39976190D01*
X93500000Y-39452380D02*
X94071428Y-39452380D01*
X93785714Y-40452380D02*
X93785714Y-39452380D01*
D12*
X155000000Y-71678571D02*
X155857142Y-71678571D01*
X155428571Y-73178571D02*
X155428571Y-71678571D01*
X157214285Y-73178571D02*
X156714285Y-72464285D01*
X156357142Y-73178571D02*
X156357142Y-71678571D01*
X156928571Y-71678571D01*
X157071428Y-71750000D01*
X157142857Y-71821428D01*
X157214285Y-71964285D01*
X157214285Y-72178571D01*
X157142857Y-72321428D01*
X157071428Y-72392857D01*
X156928571Y-72464285D01*
X156357142Y-72464285D01*
X157857142Y-73178571D02*
X157857142Y-71678571D01*
X158500000Y-72750000D02*
X159214285Y-72750000D01*
X158357142Y-73178571D02*
X158857142Y-71678571D01*
X159357142Y-73178571D01*
X159857142Y-73178571D02*
X159857142Y-71678571D01*
X160714285Y-73178571D01*
X160714285Y-71678571D01*
X162214285Y-71750000D02*
X162071428Y-71678571D01*
X161857142Y-71678571D01*
X161642857Y-71750000D01*
X161500000Y-71892857D01*
X161428571Y-72035714D01*
X161357142Y-72321428D01*
X161357142Y-72535714D01*
X161428571Y-72821428D01*
X161500000Y-72964285D01*
X161642857Y-73107142D01*
X161857142Y-73178571D01*
X162000000Y-73178571D01*
X162214285Y-73107142D01*
X162285714Y-73035714D01*
X162285714Y-72535714D01*
X162000000Y-72535714D01*
X163642857Y-73178571D02*
X162928571Y-73178571D01*
X162928571Y-71678571D01*
X164142857Y-72392857D02*
X164642857Y-72392857D01*
X164857142Y-73178571D02*
X164142857Y-73178571D01*
X164142857Y-71678571D01*
X164857142Y-71678571D01*
X155321428Y-103035714D02*
X155250000Y-103107142D01*
X155035714Y-103178571D01*
X154892857Y-103178571D01*
X154678571Y-103107142D01*
X154535714Y-102964285D01*
X154464285Y-102821428D01*
X154392857Y-102535714D01*
X154392857Y-102321428D01*
X154464285Y-102035714D01*
X154535714Y-101892857D01*
X154678571Y-101750000D01*
X154892857Y-101678571D01*
X155035714Y-101678571D01*
X155250000Y-101750000D01*
X155321428Y-101821428D01*
X155964285Y-103178571D02*
X155964285Y-101678571D01*
X157535714Y-103178571D02*
X157035714Y-102464285D01*
X156678571Y-103178571D02*
X156678571Y-101678571D01*
X157250000Y-101678571D01*
X157392857Y-101750000D01*
X157464285Y-101821428D01*
X157535714Y-101964285D01*
X157535714Y-102178571D01*
X157464285Y-102321428D01*
X157392857Y-102392857D01*
X157250000Y-102464285D01*
X156678571Y-102464285D01*
X159035714Y-103035714D02*
X158964285Y-103107142D01*
X158750000Y-103178571D01*
X158607142Y-103178571D01*
X158392857Y-103107142D01*
X158250000Y-102964285D01*
X158178571Y-102821428D01*
X158107142Y-102535714D01*
X158107142Y-102321428D01*
X158178571Y-102035714D01*
X158250000Y-101892857D01*
X158392857Y-101750000D01*
X158607142Y-101678571D01*
X158750000Y-101678571D01*
X158964285Y-101750000D01*
X159035714Y-101821428D01*
X160392857Y-103178571D02*
X159678571Y-103178571D01*
X159678571Y-101678571D01*
X160892857Y-102392857D02*
X161392857Y-102392857D01*
X161607142Y-103178571D02*
X160892857Y-103178571D01*
X160892857Y-101678571D01*
X161607142Y-101678571D01*
X117821428Y-117178571D02*
X117821428Y-118392857D01*
X117892857Y-118535714D01*
X117964285Y-118607142D01*
X118107142Y-118678571D01*
X118392857Y-118678571D01*
X118535714Y-118607142D01*
X118607142Y-118535714D01*
X118678571Y-118392857D01*
X118678571Y-117178571D01*
X119392857Y-118678571D02*
X119392857Y-117178571D01*
X119964285Y-117178571D01*
X120107142Y-117250000D01*
X120178571Y-117321428D01*
X120250000Y-117464285D01*
X120250000Y-117678571D01*
X120178571Y-117821428D01*
X120107142Y-117892857D01*
X119964285Y-117964285D01*
X119392857Y-117964285D01*
X188250000Y-103178571D02*
X187750000Y-102464285D01*
X187392857Y-103178571D02*
X187392857Y-101678571D01*
X187964285Y-101678571D01*
X188107142Y-101750000D01*
X188178571Y-101821428D01*
X188250000Y-101964285D01*
X188250000Y-102178571D01*
X188178571Y-102321428D01*
X188107142Y-102392857D01*
X187964285Y-102464285D01*
X187392857Y-102464285D01*
X188821428Y-101821428D02*
X188892857Y-101750000D01*
X189035714Y-101678571D01*
X189392857Y-101678571D01*
X189535714Y-101750000D01*
X189607142Y-101821428D01*
X189678571Y-101964285D01*
X189678571Y-102107142D01*
X189607142Y-102321428D01*
X188750000Y-103178571D01*
X189678571Y-103178571D01*
X104000000Y-97178571D02*
X103500000Y-96464285D01*
X103142857Y-97178571D02*
X103142857Y-95678571D01*
X103714285Y-95678571D01*
X103857142Y-95750000D01*
X103928571Y-95821428D01*
X104000000Y-95964285D01*
X104000000Y-96178571D01*
X103928571Y-96321428D01*
X103857142Y-96392857D01*
X103714285Y-96464285D01*
X103142857Y-96464285D01*
X104642857Y-97178571D02*
X104642857Y-95678571D01*
X106142857Y-95750000D02*
X106000000Y-95678571D01*
X105785714Y-95678571D01*
X105571428Y-95750000D01*
X105428571Y-95892857D01*
X105357142Y-96035714D01*
X105285714Y-96321428D01*
X105285714Y-96535714D01*
X105357142Y-96821428D01*
X105428571Y-96964285D01*
X105571428Y-97107142D01*
X105785714Y-97178571D01*
X105928571Y-97178571D01*
X106142857Y-97107142D01*
X106214285Y-97035714D01*
X106214285Y-96535714D01*
X105928571Y-96535714D01*
X106857142Y-97178571D02*
X106857142Y-95678571D01*
X106857142Y-96392857D02*
X107714285Y-96392857D01*
X107714285Y-97178571D02*
X107714285Y-95678571D01*
X108214285Y-95678571D02*
X109071428Y-95678571D01*
X108642857Y-97178571D02*
X108642857Y-95678571D01*
X188750000Y-74178571D02*
X188250000Y-73464285D01*
X187892857Y-74178571D02*
X187892857Y-72678571D01*
X188464285Y-72678571D01*
X188607142Y-72750000D01*
X188678571Y-72821428D01*
X188750000Y-72964285D01*
X188750000Y-73178571D01*
X188678571Y-73321428D01*
X188607142Y-73392857D01*
X188464285Y-73464285D01*
X187892857Y-73464285D01*
X190178571Y-74178571D02*
X189321428Y-74178571D01*
X189750000Y-74178571D02*
X189750000Y-72678571D01*
X189607142Y-72892857D01*
X189464285Y-73035714D01*
X189321428Y-73107142D01*
X217750000Y-77678571D02*
X217035714Y-77678571D01*
X217035714Y-76178571D01*
X219035714Y-77678571D02*
X218178571Y-77678571D01*
X218607142Y-77678571D02*
X218607142Y-76178571D01*
X218464285Y-76392857D01*
X218321428Y-76535714D01*
X218178571Y-76607142D01*
X50571428Y-83678571D02*
X49857142Y-83678571D01*
X49857142Y-82178571D01*
X51071428Y-82892857D02*
X51571428Y-82892857D01*
X51785714Y-83678571D02*
X51071428Y-83678571D01*
X51071428Y-82178571D01*
X51785714Y-82178571D01*
X52928571Y-82892857D02*
X52428571Y-82892857D01*
X52428571Y-83678571D02*
X52428571Y-82178571D01*
X53142857Y-82178571D01*
X53500000Y-82178571D02*
X54357142Y-82178571D01*
X53928571Y-83678571D02*
X53928571Y-82178571D01*
D13*
X68404761Y-48583333D02*
X68452380Y-48440476D01*
X68452380Y-48202380D01*
X68404761Y-48107142D01*
X68357142Y-48059523D01*
X68261904Y-48011904D01*
X68166666Y-48011904D01*
X68071428Y-48059523D01*
X68023809Y-48107142D01*
X67976190Y-48202380D01*
X67928571Y-48392857D01*
X67880952Y-48488095D01*
X67833333Y-48535714D01*
X67738095Y-48583333D01*
X67642857Y-48583333D01*
X67547619Y-48535714D01*
X67500000Y-48488095D01*
X67452380Y-48392857D01*
X67452380Y-48154761D01*
X67500000Y-48011904D01*
X67452380Y-47678571D02*
X68452380Y-47440476D01*
X67738095Y-47250000D01*
X68452380Y-47059523D01*
X67452380Y-46821428D01*
X67785714Y-46011904D02*
X68452380Y-46011904D01*
X67404761Y-46250000D02*
X68119047Y-46488095D01*
X68119047Y-45869047D01*
X157840476Y-50689761D02*
X157983333Y-50737380D01*
X158221428Y-50737380D01*
X158316666Y-50689761D01*
X158364285Y-50642142D01*
X158411904Y-50546904D01*
X158411904Y-50451666D01*
X158364285Y-50356428D01*
X158316666Y-50308809D01*
X158221428Y-50261190D01*
X158030952Y-50213571D01*
X157935714Y-50165952D01*
X157888095Y-50118333D01*
X157840476Y-50023095D01*
X157840476Y-49927857D01*
X157888095Y-49832619D01*
X157935714Y-49785000D01*
X158030952Y-49737380D01*
X158269047Y-49737380D01*
X158411904Y-49785000D01*
X158745238Y-49737380D02*
X158983333Y-50737380D01*
X159173809Y-50023095D01*
X159364285Y-50737380D01*
X159602380Y-49737380D01*
X160507142Y-50737380D02*
X159935714Y-50737380D01*
X160221428Y-50737380D02*
X160221428Y-49737380D01*
X160126190Y-49880238D01*
X160030952Y-49975476D01*
X159935714Y-50023095D01*
X161459523Y-50737380D02*
X160888095Y-50737380D01*
X161173809Y-50737380D02*
X161173809Y-49737380D01*
X161078571Y-49880238D01*
X160983333Y-49975476D01*
X160888095Y-50023095D01*
X58404761Y-48583333D02*
X58452380Y-48440476D01*
X58452380Y-48202380D01*
X58404761Y-48107142D01*
X58357142Y-48059523D01*
X58261904Y-48011904D01*
X58166666Y-48011904D01*
X58071428Y-48059523D01*
X58023809Y-48107142D01*
X57976190Y-48202380D01*
X57928571Y-48392857D01*
X57880952Y-48488095D01*
X57833333Y-48535714D01*
X57738095Y-48583333D01*
X57642857Y-48583333D01*
X57547619Y-48535714D01*
X57500000Y-48488095D01*
X57452380Y-48392857D01*
X57452380Y-48154761D01*
X57500000Y-48011904D01*
X57452380Y-47678571D02*
X58452380Y-47440476D01*
X57738095Y-47250000D01*
X58452380Y-47059523D01*
X57452380Y-46821428D01*
X57452380Y-46535714D02*
X57452380Y-45916666D01*
X57833333Y-46250000D01*
X57833333Y-46107142D01*
X57880952Y-46011904D01*
X57928571Y-45964285D01*
X58023809Y-45916666D01*
X58261904Y-45916666D01*
X58357142Y-45964285D01*
X58404761Y-46011904D01*
X58452380Y-46107142D01*
X58452380Y-46392857D01*
X58404761Y-46488095D01*
X58357142Y-46535714D01*
X117230476Y-127069761D02*
X117373333Y-127117380D01*
X117611428Y-127117380D01*
X117706666Y-127069761D01*
X117754285Y-127022142D01*
X117801904Y-126926904D01*
X117801904Y-126831666D01*
X117754285Y-126736428D01*
X117706666Y-126688809D01*
X117611428Y-126641190D01*
X117420952Y-126593571D01*
X117325714Y-126545952D01*
X117278095Y-126498333D01*
X117230476Y-126403095D01*
X117230476Y-126307857D01*
X117278095Y-126212619D01*
X117325714Y-126165000D01*
X117420952Y-126117380D01*
X117659047Y-126117380D01*
X117801904Y-126165000D01*
X118135238Y-126117380D02*
X118373333Y-127117380D01*
X118563809Y-126403095D01*
X118754285Y-127117380D01*
X118992380Y-126117380D01*
X119897142Y-127117380D02*
X119325714Y-127117380D01*
X119611428Y-127117380D02*
X119611428Y-126117380D01*
X119516190Y-126260238D01*
X119420952Y-126355476D01*
X119325714Y-126403095D01*
X120468571Y-126545952D02*
X120373333Y-126498333D01*
X120325714Y-126450714D01*
X120278095Y-126355476D01*
X120278095Y-126307857D01*
X120325714Y-126212619D01*
X120373333Y-126165000D01*
X120468571Y-126117380D01*
X120659047Y-126117380D01*
X120754285Y-126165000D01*
X120801904Y-126212619D01*
X120849523Y-126307857D01*
X120849523Y-126355476D01*
X120801904Y-126450714D01*
X120754285Y-126498333D01*
X120659047Y-126545952D01*
X120468571Y-126545952D01*
X120373333Y-126593571D01*
X120325714Y-126641190D01*
X120278095Y-126736428D01*
X120278095Y-126926904D01*
X120325714Y-127022142D01*
X120373333Y-127069761D01*
X120468571Y-127117380D01*
X120659047Y-127117380D01*
X120754285Y-127069761D01*
X120801904Y-127022142D01*
X120849523Y-126926904D01*
X120849523Y-126736428D01*
X120801904Y-126641190D01*
X120754285Y-126593571D01*
X120659047Y-126545952D01*
X216050476Y-55089761D02*
X216193333Y-55137380D01*
X216431428Y-55137380D01*
X216526666Y-55089761D01*
X216574285Y-55042142D01*
X216621904Y-54946904D01*
X216621904Y-54851666D01*
X216574285Y-54756428D01*
X216526666Y-54708809D01*
X216431428Y-54661190D01*
X216240952Y-54613571D01*
X216145714Y-54565952D01*
X216098095Y-54518333D01*
X216050476Y-54423095D01*
X216050476Y-54327857D01*
X216098095Y-54232619D01*
X216145714Y-54185000D01*
X216240952Y-54137380D01*
X216479047Y-54137380D01*
X216621904Y-54185000D01*
X216955238Y-54137380D02*
X217193333Y-55137380D01*
X217383809Y-54423095D01*
X217574285Y-55137380D01*
X217812380Y-54137380D01*
X218717142Y-55137380D02*
X218145714Y-55137380D01*
X218431428Y-55137380D02*
X218431428Y-54137380D01*
X218336190Y-54280238D01*
X218240952Y-54375476D01*
X218145714Y-54423095D01*
X219050476Y-54137380D02*
X219669523Y-54137380D01*
X219336190Y-54518333D01*
X219479047Y-54518333D01*
X219574285Y-54565952D01*
X219621904Y-54613571D01*
X219669523Y-54708809D01*
X219669523Y-54946904D01*
X219621904Y-55042142D01*
X219574285Y-55089761D01*
X219479047Y-55137380D01*
X219193333Y-55137380D01*
X219098095Y-55089761D01*
X219050476Y-55042142D01*
X129330476Y-92209761D02*
X129473333Y-92257380D01*
X129711428Y-92257380D01*
X129806666Y-92209761D01*
X129854285Y-92162142D01*
X129901904Y-92066904D01*
X129901904Y-91971666D01*
X129854285Y-91876428D01*
X129806666Y-91828809D01*
X129711428Y-91781190D01*
X129520952Y-91733571D01*
X129425714Y-91685952D01*
X129378095Y-91638333D01*
X129330476Y-91543095D01*
X129330476Y-91447857D01*
X129378095Y-91352619D01*
X129425714Y-91305000D01*
X129520952Y-91257380D01*
X129759047Y-91257380D01*
X129901904Y-91305000D01*
X130235238Y-91257380D02*
X130473333Y-92257380D01*
X130663809Y-91543095D01*
X130854285Y-92257380D01*
X131092380Y-91257380D01*
X131997142Y-92257380D02*
X131425714Y-92257380D01*
X131711428Y-92257380D02*
X131711428Y-91257380D01*
X131616190Y-91400238D01*
X131520952Y-91495476D01*
X131425714Y-91543095D01*
X132854285Y-91590714D02*
X132854285Y-92257380D01*
X132616190Y-91209761D02*
X132378095Y-91924047D01*
X132997142Y-91924047D01*
X48404761Y-48583333D02*
X48452380Y-48440476D01*
X48452380Y-48202380D01*
X48404761Y-48107142D01*
X48357142Y-48059523D01*
X48261904Y-48011904D01*
X48166666Y-48011904D01*
X48071428Y-48059523D01*
X48023809Y-48107142D01*
X47976190Y-48202380D01*
X47928571Y-48392857D01*
X47880952Y-48488095D01*
X47833333Y-48535714D01*
X47738095Y-48583333D01*
X47642857Y-48583333D01*
X47547619Y-48535714D01*
X47500000Y-48488095D01*
X47452380Y-48392857D01*
X47452380Y-48154761D01*
X47500000Y-48011904D01*
X47452380Y-47678571D02*
X48452380Y-47440476D01*
X47738095Y-47250000D01*
X48452380Y-47059523D01*
X47452380Y-46821428D01*
X47547619Y-46488095D02*
X47500000Y-46440476D01*
X47452380Y-46345238D01*
X47452380Y-46107142D01*
X47500000Y-46011904D01*
X47547619Y-45964285D01*
X47642857Y-45916666D01*
X47738095Y-45916666D01*
X47880952Y-45964285D01*
X48452380Y-46535714D01*
X48452380Y-45916666D01*
X88404761Y-48583333D02*
X88452380Y-48440476D01*
X88452380Y-48202380D01*
X88404761Y-48107142D01*
X88357142Y-48059523D01*
X88261904Y-48011904D01*
X88166666Y-48011904D01*
X88071428Y-48059523D01*
X88023809Y-48107142D01*
X87976190Y-48202380D01*
X87928571Y-48392857D01*
X87880952Y-48488095D01*
X87833333Y-48535714D01*
X87738095Y-48583333D01*
X87642857Y-48583333D01*
X87547619Y-48535714D01*
X87500000Y-48488095D01*
X87452380Y-48392857D01*
X87452380Y-48154761D01*
X87500000Y-48011904D01*
X87452380Y-47678571D02*
X88452380Y-47440476D01*
X87738095Y-47250000D01*
X88452380Y-47059523D01*
X87452380Y-46821428D01*
X87452380Y-46011904D02*
X87452380Y-46202380D01*
X87500000Y-46297619D01*
X87547619Y-46345238D01*
X87690476Y-46440476D01*
X87880952Y-46488095D01*
X88261904Y-46488095D01*
X88357142Y-46440476D01*
X88404761Y-46392857D01*
X88452380Y-46297619D01*
X88452380Y-46107142D01*
X88404761Y-46011904D01*
X88357142Y-45964285D01*
X88261904Y-45916666D01*
X88023809Y-45916666D01*
X87928571Y-45964285D01*
X87880952Y-46011904D01*
X87833333Y-46107142D01*
X87833333Y-46297619D01*
X87880952Y-46392857D01*
X87928571Y-46440476D01*
X88023809Y-46488095D01*
X50666666Y-61149761D02*
X50809523Y-61197380D01*
X51047619Y-61197380D01*
X51142857Y-61149761D01*
X51190476Y-61102142D01*
X51238095Y-61006904D01*
X51238095Y-60911666D01*
X51190476Y-60816428D01*
X51142857Y-60768809D01*
X51047619Y-60721190D01*
X50857142Y-60673571D01*
X50761904Y-60625952D01*
X50714285Y-60578333D01*
X50666666Y-60483095D01*
X50666666Y-60387857D01*
X50714285Y-60292619D01*
X50761904Y-60245000D01*
X50857142Y-60197380D01*
X51095238Y-60197380D01*
X51238095Y-60245000D01*
X51571428Y-60197380D02*
X51809523Y-61197380D01*
X52000000Y-60483095D01*
X52190476Y-61197380D01*
X52428571Y-60197380D01*
X52714285Y-60197380D02*
X53380952Y-60197380D01*
X52952380Y-61197380D01*
X104736666Y-74689761D02*
X104879523Y-74737380D01*
X105117619Y-74737380D01*
X105212857Y-74689761D01*
X105260476Y-74642142D01*
X105308095Y-74546904D01*
X105308095Y-74451666D01*
X105260476Y-74356428D01*
X105212857Y-74308809D01*
X105117619Y-74261190D01*
X104927142Y-74213571D01*
X104831904Y-74165952D01*
X104784285Y-74118333D01*
X104736666Y-74023095D01*
X104736666Y-73927857D01*
X104784285Y-73832619D01*
X104831904Y-73785000D01*
X104927142Y-73737380D01*
X105165238Y-73737380D01*
X105308095Y-73785000D01*
X105641428Y-73737380D02*
X105879523Y-74737380D01*
X106070000Y-74023095D01*
X106260476Y-74737380D01*
X106498571Y-73737380D01*
X106927142Y-74737380D02*
X107117619Y-74737380D01*
X107212857Y-74689761D01*
X107260476Y-74642142D01*
X107355714Y-74499285D01*
X107403333Y-74308809D01*
X107403333Y-73927857D01*
X107355714Y-73832619D01*
X107308095Y-73785000D01*
X107212857Y-73737380D01*
X107022380Y-73737380D01*
X106927142Y-73785000D01*
X106879523Y-73832619D01*
X106831904Y-73927857D01*
X106831904Y-74165952D01*
X106879523Y-74261190D01*
X106927142Y-74308809D01*
X107022380Y-74356428D01*
X107212857Y-74356428D01*
X107308095Y-74308809D01*
X107355714Y-74261190D01*
X107403333Y-74165952D01*
X186680476Y-80609761D02*
X186823333Y-80657380D01*
X187061428Y-80657380D01*
X187156666Y-80609761D01*
X187204285Y-80562142D01*
X187251904Y-80466904D01*
X187251904Y-80371666D01*
X187204285Y-80276428D01*
X187156666Y-80228809D01*
X187061428Y-80181190D01*
X186870952Y-80133571D01*
X186775714Y-80085952D01*
X186728095Y-80038333D01*
X186680476Y-79943095D01*
X186680476Y-79847857D01*
X186728095Y-79752619D01*
X186775714Y-79705000D01*
X186870952Y-79657380D01*
X187109047Y-79657380D01*
X187251904Y-79705000D01*
X187585238Y-79657380D02*
X187823333Y-80657380D01*
X188013809Y-79943095D01*
X188204285Y-80657380D01*
X188442380Y-79657380D01*
X189347142Y-80657380D02*
X188775714Y-80657380D01*
X189061428Y-80657380D02*
X189061428Y-79657380D01*
X188966190Y-79800238D01*
X188870952Y-79895476D01*
X188775714Y-79943095D01*
X190204285Y-79657380D02*
X190013809Y-79657380D01*
X189918571Y-79705000D01*
X189870952Y-79752619D01*
X189775714Y-79895476D01*
X189728095Y-80085952D01*
X189728095Y-80466904D01*
X189775714Y-80562142D01*
X189823333Y-80609761D01*
X189918571Y-80657380D01*
X190109047Y-80657380D01*
X190204285Y-80609761D01*
X190251904Y-80562142D01*
X190299523Y-80466904D01*
X190299523Y-80228809D01*
X190251904Y-80133571D01*
X190204285Y-80085952D01*
X190109047Y-80038333D01*
X189918571Y-80038333D01*
X189823333Y-80085952D01*
X189775714Y-80133571D01*
X189728095Y-80228809D01*
X38404761Y-48583333D02*
X38452380Y-48440476D01*
X38452380Y-48202380D01*
X38404761Y-48107142D01*
X38357142Y-48059523D01*
X38261904Y-48011904D01*
X38166666Y-48011904D01*
X38071428Y-48059523D01*
X38023809Y-48107142D01*
X37976190Y-48202380D01*
X37928571Y-48392857D01*
X37880952Y-48488095D01*
X37833333Y-48535714D01*
X37738095Y-48583333D01*
X37642857Y-48583333D01*
X37547619Y-48535714D01*
X37500000Y-48488095D01*
X37452380Y-48392857D01*
X37452380Y-48154761D01*
X37500000Y-48011904D01*
X37452380Y-47678571D02*
X38452380Y-47440476D01*
X37738095Y-47250000D01*
X38452380Y-47059523D01*
X37452380Y-46821428D01*
X38452380Y-45916666D02*
X38452380Y-46488095D01*
X38452380Y-46202380D02*
X37452380Y-46202380D01*
X37595238Y-46297619D01*
X37690476Y-46392857D01*
X37738095Y-46488095D01*
X79286666Y-61149761D02*
X79429523Y-61197380D01*
X79667619Y-61197380D01*
X79762857Y-61149761D01*
X79810476Y-61102142D01*
X79858095Y-61006904D01*
X79858095Y-60911666D01*
X79810476Y-60816428D01*
X79762857Y-60768809D01*
X79667619Y-60721190D01*
X79477142Y-60673571D01*
X79381904Y-60625952D01*
X79334285Y-60578333D01*
X79286666Y-60483095D01*
X79286666Y-60387857D01*
X79334285Y-60292619D01*
X79381904Y-60245000D01*
X79477142Y-60197380D01*
X79715238Y-60197380D01*
X79858095Y-60245000D01*
X80191428Y-60197380D02*
X80429523Y-61197380D01*
X80620000Y-60483095D01*
X80810476Y-61197380D01*
X81048571Y-60197380D01*
X81572380Y-60625952D02*
X81477142Y-60578333D01*
X81429523Y-60530714D01*
X81381904Y-60435476D01*
X81381904Y-60387857D01*
X81429523Y-60292619D01*
X81477142Y-60245000D01*
X81572380Y-60197380D01*
X81762857Y-60197380D01*
X81858095Y-60245000D01*
X81905714Y-60292619D01*
X81953333Y-60387857D01*
X81953333Y-60435476D01*
X81905714Y-60530714D01*
X81858095Y-60578333D01*
X81762857Y-60625952D01*
X81572380Y-60625952D01*
X81477142Y-60673571D01*
X81429523Y-60721190D01*
X81381904Y-60816428D01*
X81381904Y-61006904D01*
X81429523Y-61102142D01*
X81477142Y-61149761D01*
X81572380Y-61197380D01*
X81762857Y-61197380D01*
X81858095Y-61149761D01*
X81905714Y-61102142D01*
X81953333Y-61006904D01*
X81953333Y-60816428D01*
X81905714Y-60721190D01*
X81858095Y-60673571D01*
X81762857Y-60625952D01*
X215160476Y-85039761D02*
X215303333Y-85087380D01*
X215541428Y-85087380D01*
X215636666Y-85039761D01*
X215684285Y-84992142D01*
X215731904Y-84896904D01*
X215731904Y-84801666D01*
X215684285Y-84706428D01*
X215636666Y-84658809D01*
X215541428Y-84611190D01*
X215350952Y-84563571D01*
X215255714Y-84515952D01*
X215208095Y-84468333D01*
X215160476Y-84373095D01*
X215160476Y-84277857D01*
X215208095Y-84182619D01*
X215255714Y-84135000D01*
X215350952Y-84087380D01*
X215589047Y-84087380D01*
X215731904Y-84135000D01*
X216065238Y-84087380D02*
X216303333Y-85087380D01*
X216493809Y-84373095D01*
X216684285Y-85087380D01*
X216922380Y-84087380D01*
X217827142Y-85087380D02*
X217255714Y-85087380D01*
X217541428Y-85087380D02*
X217541428Y-84087380D01*
X217446190Y-84230238D01*
X217350952Y-84325476D01*
X217255714Y-84373095D01*
X218160476Y-84087380D02*
X218827142Y-84087380D01*
X218398571Y-85087380D01*
X78404761Y-48583333D02*
X78452380Y-48440476D01*
X78452380Y-48202380D01*
X78404761Y-48107142D01*
X78357142Y-48059523D01*
X78261904Y-48011904D01*
X78166666Y-48011904D01*
X78071428Y-48059523D01*
X78023809Y-48107142D01*
X77976190Y-48202380D01*
X77928571Y-48392857D01*
X77880952Y-48488095D01*
X77833333Y-48535714D01*
X77738095Y-48583333D01*
X77642857Y-48583333D01*
X77547619Y-48535714D01*
X77500000Y-48488095D01*
X77452380Y-48392857D01*
X77452380Y-48154761D01*
X77500000Y-48011904D01*
X77452380Y-47678571D02*
X78452380Y-47440476D01*
X77738095Y-47250000D01*
X78452380Y-47059523D01*
X77452380Y-46821428D01*
X77452380Y-45964285D02*
X77452380Y-46440476D01*
X77928571Y-46488095D01*
X77880952Y-46440476D01*
X77833333Y-46345238D01*
X77833333Y-46107142D01*
X77880952Y-46011904D01*
X77928571Y-45964285D01*
X78023809Y-45916666D01*
X78261904Y-45916666D01*
X78357142Y-45964285D01*
X78404761Y-46011904D01*
X78452380Y-46107142D01*
X78452380Y-46345238D01*
X78404761Y-46440476D01*
X78357142Y-46488095D01*
X156310476Y-80769761D02*
X156453333Y-80817380D01*
X156691428Y-80817380D01*
X156786666Y-80769761D01*
X156834285Y-80722142D01*
X156881904Y-80626904D01*
X156881904Y-80531666D01*
X156834285Y-80436428D01*
X156786666Y-80388809D01*
X156691428Y-80341190D01*
X156500952Y-80293571D01*
X156405714Y-80245952D01*
X156358095Y-80198333D01*
X156310476Y-80103095D01*
X156310476Y-80007857D01*
X156358095Y-79912619D01*
X156405714Y-79865000D01*
X156500952Y-79817380D01*
X156739047Y-79817380D01*
X156881904Y-79865000D01*
X157215238Y-79817380D02*
X157453333Y-80817380D01*
X157643809Y-80103095D01*
X157834285Y-80817380D01*
X158072380Y-79817380D01*
X158977142Y-80817380D02*
X158405714Y-80817380D01*
X158691428Y-80817380D02*
X158691428Y-79817380D01*
X158596190Y-79960238D01*
X158500952Y-80055476D01*
X158405714Y-80103095D01*
X159881904Y-79817380D02*
X159405714Y-79817380D01*
X159358095Y-80293571D01*
X159405714Y-80245952D01*
X159500952Y-80198333D01*
X159739047Y-80198333D01*
X159834285Y-80245952D01*
X159881904Y-80293571D01*
X159929523Y-80388809D01*
X159929523Y-80626904D01*
X159881904Y-80722142D01*
X159834285Y-80769761D01*
X159739047Y-80817380D01*
X159500952Y-80817380D01*
X159405714Y-80769761D01*
X159358095Y-80722142D01*
X147678571Y-38254761D02*
X147821428Y-38302380D01*
X148059523Y-38302380D01*
X148154761Y-38254761D01*
X148202380Y-38207142D01*
X148250000Y-38111904D01*
X148250000Y-38016666D01*
X148202380Y-37921428D01*
X148154761Y-37873809D01*
X148059523Y-37826190D01*
X147869047Y-37778571D01*
X147773809Y-37730952D01*
X147726190Y-37683333D01*
X147678571Y-37588095D01*
X147678571Y-37492857D01*
X147726190Y-37397619D01*
X147773809Y-37350000D01*
X147869047Y-37302380D01*
X148107142Y-37302380D01*
X148250000Y-37350000D01*
X148583333Y-37302380D02*
X148821428Y-38302380D01*
X149011904Y-37588095D01*
X149202380Y-38302380D01*
X149440476Y-37302380D01*
X149583333Y-38397619D02*
X150345238Y-38397619D01*
X151154761Y-38302380D02*
X150821428Y-37826190D01*
X150583333Y-38302380D02*
X150583333Y-37302380D01*
X150964285Y-37302380D01*
X151059523Y-37350000D01*
X151107142Y-37397619D01*
X151154761Y-37492857D01*
X151154761Y-37635714D01*
X151107142Y-37730952D01*
X151059523Y-37778571D01*
X150964285Y-37826190D01*
X150583333Y-37826190D01*
X151535714Y-38254761D02*
X151678571Y-38302380D01*
X151916666Y-38302380D01*
X152011904Y-38254761D01*
X152059523Y-38207142D01*
X152107142Y-38111904D01*
X152107142Y-38016666D01*
X152059523Y-37921428D01*
X152011904Y-37873809D01*
X151916666Y-37826190D01*
X151726190Y-37778571D01*
X151630952Y-37730952D01*
X151583333Y-37683333D01*
X151535714Y-37588095D01*
X151535714Y-37492857D01*
X151583333Y-37397619D01*
X151630952Y-37350000D01*
X151726190Y-37302380D01*
X151964285Y-37302380D01*
X152107142Y-37350000D01*
X152392857Y-37302380D02*
X152964285Y-37302380D01*
X152678571Y-38302380D02*
X152678571Y-37302380D01*
X153821428Y-38302380D02*
X153250000Y-38302380D01*
X153535714Y-38302380D02*
X153535714Y-37302380D01*
X153440476Y-37445238D01*
X153345238Y-37540476D01*
X153250000Y-37588095D01*
X131490476Y-62099761D02*
X131633333Y-62147380D01*
X131871428Y-62147380D01*
X131966666Y-62099761D01*
X132014285Y-62052142D01*
X132061904Y-61956904D01*
X132061904Y-61861666D01*
X132014285Y-61766428D01*
X131966666Y-61718809D01*
X131871428Y-61671190D01*
X131680952Y-61623571D01*
X131585714Y-61575952D01*
X131538095Y-61528333D01*
X131490476Y-61433095D01*
X131490476Y-61337857D01*
X131538095Y-61242619D01*
X131585714Y-61195000D01*
X131680952Y-61147380D01*
X131919047Y-61147380D01*
X132061904Y-61195000D01*
X132395238Y-61147380D02*
X132633333Y-62147380D01*
X132823809Y-61433095D01*
X133014285Y-62147380D01*
X133252380Y-61147380D01*
X134157142Y-62147380D02*
X133585714Y-62147380D01*
X133871428Y-62147380D02*
X133871428Y-61147380D01*
X133776190Y-61290238D01*
X133680952Y-61385476D01*
X133585714Y-61433095D01*
X134776190Y-61147380D02*
X134871428Y-61147380D01*
X134966666Y-61195000D01*
X135014285Y-61242619D01*
X135061904Y-61337857D01*
X135109523Y-61528333D01*
X135109523Y-61766428D01*
X135061904Y-61956904D01*
X135014285Y-62052142D01*
X134966666Y-62099761D01*
X134871428Y-62147380D01*
X134776190Y-62147380D01*
X134680952Y-62099761D01*
X134633333Y-62052142D01*
X134585714Y-61956904D01*
X134538095Y-61766428D01*
X134538095Y-61528333D01*
X134585714Y-61337857D01*
X134633333Y-61242619D01*
X134680952Y-61195000D01*
X134776190Y-61147380D01*
X186940476Y-51449761D02*
X187083333Y-51497380D01*
X187321428Y-51497380D01*
X187416666Y-51449761D01*
X187464285Y-51402142D01*
X187511904Y-51306904D01*
X187511904Y-51211666D01*
X187464285Y-51116428D01*
X187416666Y-51068809D01*
X187321428Y-51021190D01*
X187130952Y-50973571D01*
X187035714Y-50925952D01*
X186988095Y-50878333D01*
X186940476Y-50783095D01*
X186940476Y-50687857D01*
X186988095Y-50592619D01*
X187035714Y-50545000D01*
X187130952Y-50497380D01*
X187369047Y-50497380D01*
X187511904Y-50545000D01*
X187845238Y-50497380D02*
X188083333Y-51497380D01*
X188273809Y-50783095D01*
X188464285Y-51497380D01*
X188702380Y-50497380D01*
X189607142Y-51497380D02*
X189035714Y-51497380D01*
X189321428Y-51497380D02*
X189321428Y-50497380D01*
X189226190Y-50640238D01*
X189130952Y-50735476D01*
X189035714Y-50783095D01*
X189988095Y-50592619D02*
X190035714Y-50545000D01*
X190130952Y-50497380D01*
X190369047Y-50497380D01*
X190464285Y-50545000D01*
X190511904Y-50592619D01*
X190559523Y-50687857D01*
X190559523Y-50783095D01*
X190511904Y-50925952D01*
X189940476Y-51497380D01*
X190559523Y-51497380D01*
X99610000Y-33030000D02*
X99610000Y-63510000D01*
X99610000Y-33030000D02*
X104690000Y-33030000D01*
X112310000Y-30490000D02*
X112310000Y-33030000D01*
X112310000Y-33030000D02*
X117390000Y-33030000D01*
X117390000Y-63510000D02*
X99610000Y-63510000D01*
X104690000Y-33030000D02*
X104690000Y-30490000D01*
X117390000Y-33030000D02*
X117390000Y-63510000D01*
X104690000Y-30490000D02*
X112310000Y-30490000D01*
D10*
X69000000Y-45000000D02*
X69000000Y-49500000D01*
X75500000Y-49500000D02*
X75500000Y-45000000D01*
X73000000Y-43750000D02*
X71500000Y-43750000D01*
X71500000Y-50750000D02*
X73000000Y-50750000D01*
D13*
X165650000Y-65540000D02*
X166650000Y-65540000D01*
X153650000Y-51540000D02*
X152650000Y-51540000D01*
X152650000Y-52540000D02*
X152650000Y-51540000D01*
X152650000Y-65540000D02*
X152650000Y-64540000D01*
X166650000Y-51540000D02*
X166650000Y-52540000D01*
X166650000Y-64540000D02*
X166650000Y-65540000D01*
X152650000Y-65540000D02*
X153650000Y-65540000D01*
X166650000Y-51540000D02*
X165650000Y-51540000D01*
D10*
X63000000Y-43750000D02*
X61500000Y-43750000D01*
X61500000Y-50750000D02*
X63000000Y-50750000D01*
X65500000Y-49500000D02*
X65500000Y-45000000D01*
X59000000Y-45000000D02*
X59000000Y-49500000D01*
D13*
X112040000Y-141920000D02*
X112040000Y-140920000D01*
X126040000Y-127920000D02*
X125040000Y-127920000D01*
X112040000Y-128920000D02*
X112040000Y-127920000D01*
X112040000Y-141920000D02*
X113040000Y-141920000D01*
X126040000Y-127920000D02*
X126040000Y-128920000D01*
X126040000Y-140920000D02*
X126040000Y-141920000D01*
X113040000Y-127920000D02*
X112040000Y-127920000D01*
X125040000Y-141920000D02*
X126040000Y-141920000D01*
X210860000Y-69940000D02*
X210860000Y-68940000D01*
X224860000Y-68940000D02*
X224860000Y-69940000D01*
X211860000Y-55940000D02*
X210860000Y-55940000D01*
X210860000Y-56940000D02*
X210860000Y-55940000D01*
X224860000Y-55940000D02*
X223860000Y-55940000D01*
X224860000Y-55940000D02*
X224860000Y-56940000D01*
X210860000Y-69940000D02*
X211860000Y-69940000D01*
X223860000Y-69940000D02*
X224860000Y-69940000D01*
X138140000Y-93060000D02*
X138140000Y-94060000D01*
X124140000Y-94060000D02*
X124140000Y-93060000D01*
X124140000Y-107060000D02*
X125140000Y-107060000D01*
X125140000Y-93060000D02*
X124140000Y-93060000D01*
X137140000Y-107060000D02*
X138140000Y-107060000D01*
X138140000Y-93060000D02*
X137140000Y-93060000D01*
X138140000Y-106060000D02*
X138140000Y-107060000D01*
X124140000Y-107060000D02*
X124140000Y-106060000D01*
D10*
X51500000Y-50750000D02*
X53000000Y-50750000D01*
X49000000Y-45000000D02*
X49000000Y-49500000D01*
X53000000Y-43750000D02*
X51500000Y-43750000D01*
X55500000Y-49500000D02*
X55500000Y-45000000D01*
X95500000Y-49500000D02*
X95500000Y-45000000D01*
X89000000Y-45000000D02*
X89000000Y-49500000D01*
X93000000Y-43750000D02*
X91500000Y-43750000D01*
X91500000Y-50750000D02*
X93000000Y-50750000D01*
D13*
X45000000Y-76000000D02*
X45000000Y-75000000D01*
X59000000Y-75000000D02*
X59000000Y-76000000D01*
X45000000Y-76000000D02*
X46000000Y-76000000D01*
X59000000Y-62000000D02*
X58000000Y-62000000D01*
X45000000Y-63000000D02*
X45000000Y-62000000D01*
X58000000Y-76000000D02*
X59000000Y-76000000D01*
X59000000Y-62000000D02*
X59000000Y-63000000D01*
X46000000Y-62000000D02*
X45000000Y-62000000D01*
X100070000Y-75540000D02*
X99070000Y-75540000D01*
X113070000Y-75540000D02*
X113070000Y-76540000D01*
X99070000Y-76540000D02*
X99070000Y-75540000D01*
X99070000Y-89540000D02*
X99070000Y-88540000D01*
X113070000Y-88540000D02*
X113070000Y-89540000D01*
X112070000Y-89540000D02*
X113070000Y-89540000D01*
X113070000Y-75540000D02*
X112070000Y-75540000D01*
X99070000Y-89540000D02*
X100070000Y-89540000D01*
X181490000Y-95460000D02*
X181490000Y-94460000D01*
X195490000Y-94460000D02*
X195490000Y-95460000D01*
X195490000Y-81460000D02*
X194490000Y-81460000D01*
X194490000Y-95460000D02*
X195490000Y-95460000D01*
X182490000Y-81460000D02*
X181490000Y-81460000D01*
X181490000Y-95460000D02*
X182490000Y-95460000D01*
X181490000Y-82460000D02*
X181490000Y-81460000D01*
X195490000Y-81460000D02*
X195490000Y-82460000D01*
D10*
X39000000Y-45000000D02*
X39000000Y-49500000D01*
X43000000Y-43750000D02*
X41500000Y-43750000D01*
X45500000Y-49500000D02*
X45500000Y-45000000D01*
X41500000Y-50750000D02*
X43000000Y-50750000D01*
D13*
X86620000Y-76000000D02*
X87620000Y-76000000D01*
X74620000Y-62000000D02*
X73620000Y-62000000D01*
X87620000Y-62000000D02*
X86620000Y-62000000D01*
X73620000Y-63000000D02*
X73620000Y-62000000D01*
X73620000Y-76000000D02*
X74620000Y-76000000D01*
X87620000Y-62000000D02*
X87620000Y-63000000D01*
X87620000Y-75000000D02*
X87620000Y-76000000D01*
X73620000Y-76000000D02*
X73620000Y-75000000D01*
X209970000Y-99890000D02*
X210970000Y-99890000D01*
X209970000Y-86890000D02*
X209970000Y-85890000D01*
X223970000Y-85890000D02*
X223970000Y-86890000D01*
X222970000Y-99890000D02*
X223970000Y-99890000D01*
X209970000Y-99890000D02*
X209970000Y-98890000D01*
X223970000Y-98890000D02*
X223970000Y-99890000D01*
X210970000Y-85890000D02*
X209970000Y-85890000D01*
X223970000Y-85890000D02*
X222970000Y-85890000D01*
D10*
X79000000Y-45000000D02*
X79000000Y-49500000D01*
X83000000Y-43750000D02*
X81500000Y-43750000D01*
X85500000Y-49500000D02*
X85500000Y-45000000D01*
X81500000Y-50750000D02*
X83000000Y-50750000D01*
D13*
X165120000Y-81620000D02*
X164120000Y-81620000D01*
X152120000Y-81620000D02*
X151120000Y-81620000D01*
X151120000Y-95620000D02*
X152120000Y-95620000D01*
X165120000Y-81620000D02*
X165120000Y-82620000D01*
X164120000Y-95620000D02*
X165120000Y-95620000D01*
X151120000Y-95620000D02*
X151120000Y-94620000D01*
X151120000Y-82620000D02*
X151120000Y-81620000D01*
X165120000Y-94620000D02*
X165120000Y-95620000D01*
D14*
X147050000Y-34750000D02*
X147050000Y-30650000D01*
X147050000Y-30650000D02*
X154450000Y-30650000D01*
X153050000Y-36550000D02*
X148450000Y-36550000D01*
X154450000Y-30650000D02*
X154450000Y-34750000D01*
D13*
X127300000Y-62950000D02*
X126300000Y-62950000D01*
X140300000Y-75950000D02*
X140300000Y-76950000D01*
X126300000Y-76950000D02*
X127300000Y-76950000D01*
X140300000Y-62950000D02*
X140300000Y-63950000D01*
X139300000Y-76950000D02*
X140300000Y-76950000D01*
X126300000Y-76950000D02*
X126300000Y-75950000D01*
X126300000Y-63950000D02*
X126300000Y-62950000D01*
X140300000Y-62950000D02*
X139300000Y-62950000D01*
X181750000Y-66300000D02*
X181750000Y-65300000D01*
X195750000Y-52300000D02*
X195750000Y-53300000D01*
X195750000Y-52300000D02*
X194750000Y-52300000D01*
X195750000Y-65300000D02*
X195750000Y-66300000D01*
X182750000Y-52300000D02*
X181750000Y-52300000D01*
X181750000Y-53300000D02*
X181750000Y-52300000D01*
X194750000Y-66300000D02*
X195750000Y-66300000D01*
X181750000Y-66300000D02*
X182750000Y-66300000D01*
D15*
X116120000Y-34300000D03*
X116120000Y-36840000D03*
X116120000Y-39380000D03*
X116120000Y-41920000D03*
X116120000Y-44460000D03*
X116120000Y-47000000D03*
X116120000Y-49540000D03*
X116120000Y-52080000D03*
X116120000Y-54620000D03*
X116120000Y-57160000D03*
X116120000Y-59700000D03*
X116120000Y-62240000D03*
X100880000Y-62240000D03*
X100880000Y-59700000D03*
X100880000Y-57160000D03*
X100880000Y-54620000D03*
X100880000Y-52080000D03*
X100880000Y-49540000D03*
X100880000Y-47000000D03*
X100880000Y-44460000D03*
X100880000Y-41920000D03*
X100880000Y-39380000D03*
X100880000Y-36840000D03*
D16*
X100880000Y-34300000D03*
%LPC*%
D17*
X135000000Y-37550000D03*
D15*
X116120000Y-34300000D03*
X116120000Y-36840000D03*
X116120000Y-39380000D03*
X116120000Y-41920000D03*
X116120000Y-44460000D03*
X116120000Y-47000000D03*
X116120000Y-49540000D03*
X116120000Y-52080000D03*
X116120000Y-54620000D03*
X116120000Y-57160000D03*
X116120000Y-59700000D03*
X116120000Y-62240000D03*
X100880000Y-62240000D03*
X100880000Y-59700000D03*
X100880000Y-57160000D03*
X100880000Y-54620000D03*
X100880000Y-52080000D03*
X100880000Y-49540000D03*
X100880000Y-47000000D03*
X100880000Y-44460000D03*
X100880000Y-41920000D03*
X100880000Y-39380000D03*
X100880000Y-36840000D03*
D16*
X100880000Y-34300000D03*
D18*
X70000000Y-50500000D03*
X70000000Y-44000000D03*
X74500000Y-50500000D03*
X74500000Y-44000000D03*
D19*
X165150000Y-58540000D03*
D20*
X159650000Y-52590000D03*
X164650000Y-54790000D03*
D21*
X159650000Y-58540000D03*
D19*
X154150000Y-58540000D03*
D22*
X159650000Y-64440000D03*
X154650000Y-62340000D03*
D17*
X232450000Y-37550000D03*
D18*
X60000000Y-50500000D03*
X60000000Y-44000000D03*
X64500000Y-44000000D03*
X64500000Y-50500000D03*
D19*
X113540000Y-134920000D03*
X124540000Y-134920000D03*
D20*
X119040000Y-128970000D03*
D21*
X119040000Y-134920000D03*
D20*
X124040000Y-131170000D03*
D22*
X119040000Y-140820000D03*
X114040000Y-138720000D03*
D20*
X217860000Y-56990000D03*
D19*
X212360000Y-62940000D03*
D20*
X222860000Y-59190000D03*
D19*
X223360000Y-62940000D03*
D21*
X217860000Y-62940000D03*
D22*
X217860000Y-68840000D03*
X212860000Y-66740000D03*
D21*
X131140000Y-100060000D03*
D20*
X136140000Y-96310000D03*
X131140000Y-94110000D03*
D19*
X136640000Y-100060000D03*
X125640000Y-100060000D03*
D22*
X131140000Y-105960000D03*
X126140000Y-103860000D03*
D18*
X50000000Y-50500000D03*
X50000000Y-44000000D03*
X54500000Y-44000000D03*
X54500000Y-50500000D03*
D17*
X110140000Y-103580000D03*
X37550000Y-147450000D03*
D18*
X90000000Y-44000000D03*
X90000000Y-50500000D03*
X94500000Y-44000000D03*
X94500000Y-50500000D03*
D20*
X52000000Y-63050000D03*
D19*
X57500000Y-69000000D03*
D21*
X52000000Y-69000000D03*
D20*
X57000000Y-65250000D03*
D19*
X46500000Y-69000000D03*
D22*
X52000000Y-74900000D03*
X47000000Y-72800000D03*
D21*
X106070000Y-82540000D03*
D20*
X111070000Y-78790000D03*
D19*
X111570000Y-82540000D03*
X100570000Y-82540000D03*
D20*
X106070000Y-76590000D03*
D22*
X106070000Y-88440000D03*
X101070000Y-86340000D03*
D19*
X193990000Y-88460000D03*
X182990000Y-88460000D03*
D20*
X193490000Y-84710000D03*
X188490000Y-82510000D03*
D21*
X188490000Y-88460000D03*
D22*
X188490000Y-94360000D03*
X183490000Y-92260000D03*
D18*
X40000000Y-44000000D03*
X40000000Y-50500000D03*
X44500000Y-50500000D03*
X44500000Y-44000000D03*
D17*
X232450000Y-147450000D03*
D20*
X80620000Y-63050000D03*
D21*
X80620000Y-69000000D03*
D20*
X85620000Y-65250000D03*
D19*
X86120000Y-69000000D03*
X75120000Y-69000000D03*
D22*
X80620000Y-74900000D03*
X75620000Y-72800000D03*
D17*
X37550000Y-37550000D03*
D20*
X221970000Y-89140000D03*
D19*
X211470000Y-92890000D03*
D20*
X216970000Y-86940000D03*
D19*
X222470000Y-92890000D03*
D21*
X216970000Y-92890000D03*
D22*
X216970000Y-98790000D03*
X211970000Y-96690000D03*
D17*
X135000000Y-147450000D03*
D18*
X80000000Y-50500000D03*
X80000000Y-44000000D03*
X84500000Y-50500000D03*
X84500000Y-44000000D03*
D21*
X158120000Y-88620000D03*
D19*
X163620000Y-88620000D03*
D20*
X163120000Y-84870000D03*
D19*
X152620000Y-88620000D03*
D20*
X158120000Y-82670000D03*
D22*
X158120000Y-94520000D03*
X153120000Y-92420000D03*
D23*
X148250000Y-33750000D03*
X153250000Y-33750000D03*
D24*
X147150000Y-36150000D03*
X154350000Y-36150000D03*
D19*
X138800000Y-69950000D03*
X127800000Y-69950000D03*
D21*
X133300000Y-69950000D03*
D20*
X133300000Y-64000000D03*
X138300000Y-66200000D03*
D22*
X133300000Y-75850000D03*
X128300000Y-73750000D03*
D21*
X188750000Y-59300000D03*
D20*
X188750000Y-53350000D03*
X193750000Y-55550000D03*
D19*
X194250000Y-59300000D03*
X183250000Y-59300000D03*
D22*
X188750000Y-65200000D03*
X183750000Y-63100000D03*
M02*
