M48
; DRILL file {KiCad (6.0.6)} date Thu Jul 21 01:25:31 2022
; FORMAT={-:-/ absolute / metric / decimal}
; #@! TF.CreationDate,2022-07-21T01:25:31+09:00
; #@! TF.GenerationSoftware,Kicad,Pcbnew,(6.0.6)
; #@! TF.FileFunction,Plated,1,2,PTH
FMAT,2
METRIC
; #@! TA.AperFunction,Plated,PTH,ViaDrill
T1C0.400
; #@! TA.AperFunction,Plated,PTH,ComponentDrill
T2C0.762
; #@! TA.AperFunction,Plated,PTH,ComponentDrill
T3C1.100
; #@! TA.AperFunction,Plated,PTH,ComponentDrill
T4C1.270
; #@! TA.AperFunction,Plated,PTH,ComponentDrill
T5C1.300
%
G90
G05
T1
X35.0Y-50.0
X35.0Y-60.0
X35.0Y-70.0
X35.0Y-80.0
X35.0Y-90.0
X35.0Y-100.0
X35.0Y-110.0
X35.0Y-120.0
X35.0Y-130.0
X35.0Y-140.0
X40.0Y-55.0
X40.0Y-65.0
X40.0Y-75.0
X40.0Y-85.0
X40.0Y-95.0
X40.0Y-105.0
X40.0Y-115.0
X40.0Y-125.0
X40.0Y-135.0
X45.0Y-40.0
X45.0Y-53.25
X45.0Y-56.25
X45.0Y-90.0
X45.0Y-150.0
X50.0Y-35.0
X50.0Y-85.0
X50.0Y-145.0
X50.5Y-53.25
X55.0Y-40.0
X55.0Y-90.0
X55.0Y-150.0
X58.75Y-79.5
X58.75Y-82.5
X60.0Y-35.0
X60.0Y-85.0
X60.0Y-145.0
X60.25Y-52.75
X60.25Y-56.25
X62.75Y-79.5
X62.75Y-82.5
X64.75Y-77.25
X65.0Y-40.0
X65.0Y-60.25
X65.0Y-90.0
X65.0Y-150.0
X67.5Y-56.25
X68.0Y-60.25
X69.25Y-52.5
X70.0Y-35.0
X70.0Y-85.0
X70.0Y-145.0
X71.5Y-56.5
X75.0Y-40.0
X75.0Y-90.0
X75.0Y-150.0
X78.0Y-52.0
X78.0Y-56.75
X80.0Y-35.0
X80.0Y-85.0
X80.0Y-145.0
X85.0Y-40.0
X85.0Y-90.0
X85.0Y-150.0
X87.25Y-78.75
X87.25Y-81.75
X88.25Y-38.75
X90.0Y-35.0
X90.0Y-85.0
X90.0Y-145.0
X90.25Y-56.75
X91.5Y-40.25
X91.5Y-74.25
X91.75Y-67.5
X92.25Y-78.25
X92.25Y-90.5
X92.75Y-62.25
X94.25Y-31.75
X95.0Y-40.0
X95.0Y-100.0
X95.0Y-110.0
X95.0Y-120.0
X95.0Y-130.0
X95.0Y-140.0
X95.0Y-150.0
X95.25Y-67.5
X95.25Y-78.25
X95.25Y-90.5
X95.5Y-74.25
X96.25Y-35.75
X98.5Y-56.5
X98.75Y-31.25
X98.75Y-35.75
X98.75Y-64.5
X100.0Y-92.25
X100.0Y-105.0
X100.0Y-115.0
X100.0Y-125.0
X100.0Y-135.0
X100.0Y-145.0
X104.25Y-124.75
X104.25Y-144.75
X105.0Y-150.0
X109.5Y-147.75
X110.0Y-145.0
X115.0Y-150.0
X116.5Y-67.0
X116.75Y-74.5
X116.75Y-107.25
X118.25Y-53.0
X118.25Y-58.75
X118.75Y-31.75
X118.75Y-110.25
X120.0Y-35.0
X120.0Y-145.0
X120.5Y-78.25
X120.5Y-107.25
X120.75Y-41.75
X121.0Y-74.5
X121.25Y-67.0
X124.0Y-46.5
X125.0Y-40.0
X125.0Y-110.0
X125.0Y-150.0
X126.75Y-80.25
X130.0Y-35.0
X130.0Y-145.0
X135.0Y-41.75
X135.0Y-46.5
X135.0Y-110.0
X135.0Y-120.0
X135.0Y-130.0
X135.0Y-140.0
X136.0Y-53.5
X137.75Y-59.0
X140.0Y-35.0
X140.0Y-105.0
X140.0Y-115.0
X140.0Y-125.0
X140.0Y-135.0
X140.0Y-145.0
X144.75Y-65.5
X144.75Y-74.75
X145.0Y-40.0
X145.0Y-100.0
X145.0Y-110.0
X145.0Y-120.0
X145.0Y-130.0
X145.0Y-140.0
X145.0Y-150.0
X145.5Y-78.5
X145.75Y-95.5
X147.0Y-41.75
X147.0Y-46.5
X147.25Y-62.5
X147.5Y-67.25
X148.75Y-39.75
X148.75Y-98.5
X150.0Y-105.0
X150.0Y-115.0
X150.0Y-125.0
X150.0Y-135.0
X150.0Y-145.0
X151.25Y-42.0
X151.75Y-98.5
X153.75Y-68.25
X155.0Y-40.0
X155.0Y-110.0
X155.0Y-140.0
X155.0Y-150.0
X160.0Y-35.0
X160.0Y-105.0
X160.0Y-145.0
X163.0Y-42.25
X163.0Y-46.75
X165.0Y-40.0
X165.0Y-100.0
X165.0Y-110.0
X165.0Y-150.0
X167.5Y-42.25
X167.5Y-45.5
X170.0Y-35.0
X170.0Y-105.0
X170.0Y-145.0
X171.25Y-54.75
X171.25Y-65.5
X174.5Y-69.75
X174.75Y-94.25
X175.0Y-40.0
X175.0Y-54.75
X175.0Y-65.5
X175.0Y-100.0
X175.0Y-110.0
X175.0Y-150.0
X178.75Y-69.25
X178.75Y-98.25
X180.0Y-35.0
X180.0Y-105.0
X180.0Y-145.0
X182.25Y-69.25
X182.25Y-98.25
X185.0Y-40.0
X185.0Y-100.0
X185.0Y-110.0
X185.0Y-150.0
X190.0Y-35.0
X190.0Y-105.0
X190.0Y-145.0
X190.25Y-42.25
X190.25Y-45.75
X195.0Y-40.0
X195.0Y-100.0
X195.0Y-110.0
X195.0Y-150.0
X200.0Y-35.0
X200.0Y-105.0
X200.0Y-145.0
X200.25Y-70.75
X200.5Y-55.75
X203.5Y-74.75
X203.5Y-101.25
X204.0Y-55.75
X204.25Y-70.75
X205.0Y-40.0
X205.0Y-110.0
X205.0Y-150.0
X205.75Y-103.25
X206.75Y-73.25
X210.0Y-35.0
X210.0Y-145.0
X210.25Y-103.25
X211.0Y-73.25
X215.0Y-40.0
X215.0Y-110.0
X215.0Y-150.0
X220.0Y-35.0
X220.0Y-105.0
X220.0Y-145.0
X225.0Y-40.0
X225.0Y-110.0
X225.0Y-140.0
X225.0Y-150.0
X230.0Y-45.0
X230.0Y-55.0
X230.0Y-65.0
X230.0Y-75.0
X230.0Y-85.0
X230.0Y-95.0
X230.0Y-105.0
X230.0Y-115.0
X230.0Y-125.0
X230.0Y-135.0
X235.0Y-50.0
X235.0Y-60.0
X235.0Y-70.0
X235.0Y-80.0
X235.0Y-90.0
X235.0Y-100.0
X235.0Y-110.0
X235.0Y-120.0
X235.0Y-130.0
X235.0Y-140.0
T2
X148.25Y-33.75
X153.25Y-33.75
T3
X40.0Y-44.0
X40.0Y-50.5
X44.5Y-44.0
X44.5Y-50.5
X50.0Y-44.0
X50.0Y-50.5
X54.5Y-44.0
X54.5Y-50.5
X60.0Y-44.0
X60.0Y-50.5
X64.5Y-44.0
X64.5Y-50.5
X70.0Y-44.0
X70.0Y-50.5
X74.5Y-44.0
X74.5Y-50.5
X80.0Y-44.0
X80.0Y-50.5
X84.5Y-44.0
X84.5Y-50.5
X90.0Y-44.0
X90.0Y-50.5
X94.5Y-44.0
X94.5Y-50.5
X100.88Y-34.3
X100.88Y-36.84
X100.88Y-39.38
X100.88Y-41.92
X100.88Y-44.46
X100.88Y-47.0
X100.88Y-49.54
X100.88Y-52.08
X100.88Y-54.62
X100.88Y-57.16
X100.88Y-59.7
X100.88Y-62.24
X116.12Y-34.3
X116.12Y-36.84
X116.12Y-39.38
X116.12Y-41.92
X116.12Y-44.46
X116.12Y-47.0
X116.12Y-49.54
X116.12Y-52.08
X116.12Y-54.62
X116.12Y-57.16
X116.12Y-59.7
X116.12Y-62.24
T4
X47.0Y-72.8
X52.0Y-74.9
X75.62Y-72.8
X80.62Y-74.9
X101.07Y-86.34
X106.07Y-88.44
X114.04Y-138.72
X119.04Y-140.82
X126.14Y-103.86
X128.3Y-73.75
X131.14Y-105.96
X133.3Y-75.85
X153.12Y-92.42
X154.65Y-62.34
X158.12Y-94.52
X159.65Y-64.44
X183.49Y-92.26
X183.75Y-63.1
X188.49Y-94.36
X188.75Y-65.2
X211.97Y-96.69
X212.86Y-66.74
X216.97Y-98.79
X217.86Y-68.84
T5
X147.15Y-36.15
X154.35Y-36.15
T0
M30
