M48
; DRILL file {KiCad (6.0.6)} date Thu Jul 21 01:25:31 2022
; FORMAT={-:-/ absolute / metric / decimal}
; #@! TF.CreationDate,2022-07-21T01:25:31+09:00
; #@! TF.GenerationSoftware,Kicad,Pcbnew,(6.0.6)
; #@! TF.FileFunction,NonPlated,1,2,NPTH
FMAT,2
METRIC
; #@! TA.AperFunction,NonPlated,NPTH,ComponentDrill
T1C1.702
; #@! TA.AperFunction,NonPlated,NPTH,ComponentDrill
T2C3.000
; #@! TA.AperFunction,NonPlated,NPTH,ComponentDrill
T3C3.200
; #@! TA.AperFunction,NonPlated,NPTH,ComponentDrill
T4C3.429
%
G90
G05
T1
X46.5Y-69.0
X57.5Y-69.0
X75.12Y-69.0
X86.12Y-69.0
X100.57Y-82.54
X111.57Y-82.54
X113.54Y-134.92
X124.54Y-134.92
X125.64Y-100.06
X127.8Y-69.95
X136.64Y-100.06
X138.8Y-69.95
X152.62Y-88.62
X154.15Y-58.54
X163.62Y-88.62
X165.15Y-58.54
X182.99Y-88.46
X183.25Y-59.3
X193.99Y-88.46
X194.25Y-59.3
X211.47Y-92.89
X212.36Y-62.94
X222.47Y-92.89
X223.36Y-62.94
T2
X52.0Y-63.05
X57.0Y-65.25
X80.62Y-63.05
X85.62Y-65.25
X106.07Y-76.59
X111.07Y-78.79
X119.04Y-128.97
X124.04Y-131.17
X131.14Y-94.11
X133.3Y-64.0
X136.14Y-96.31
X138.3Y-66.2
X158.12Y-82.67
X159.65Y-52.59
X163.12Y-84.87
X164.65Y-54.79
X188.49Y-82.51
X188.75Y-53.35
X193.49Y-84.71
X193.75Y-55.55
X216.97Y-86.94
X217.86Y-56.99
X221.97Y-89.14
X222.86Y-59.19
T3
X37.55Y-37.55
X37.55Y-147.45
X110.14Y-103.58
X135.0Y-37.55
X135.0Y-147.45
X232.45Y-37.55
X232.45Y-147.45
T4
X52.0Y-69.0
X80.62Y-69.0
X106.07Y-82.54
X119.04Y-134.92
X131.14Y-100.06
X133.3Y-69.95
X158.12Y-88.62
X159.65Y-58.54
X188.49Y-88.46
X188.75Y-59.3
X216.97Y-92.89
X217.86Y-62.94
T0
M30
