G04 #@! TF.GenerationSoftware,KiCad,Pcbnew,(6.0.6)*
G04 #@! TF.CreationDate,2022-07-21T01:25:26+09:00*
G04 #@! TF.ProjectId,Flatbox-rev1_1-kicad,466c6174-626f-4782-9d72-6576315f312d,1.1*
G04 #@! TF.SameCoordinates,Original*
G04 #@! TF.FileFunction,Legend,Bot*
G04 #@! TF.FilePolarity,Positive*
%FSLAX46Y46*%
G04 Gerber Fmt 4.6, Leading zero omitted, Abs format (unit mm)*
G04 Created by KiCad (PCBNEW (6.0.6)) date 2022-07-21 01:25:26*
%MOMM*%
%LPD*%
G01*
G04 APERTURE LIST*
%ADD10C,0.150000*%
%ADD11C,3.200000*%
%ADD12C,1.600000*%
%ADD13R,1.600000X1.600000*%
%ADD14C,2.000000*%
%ADD15C,1.701800*%
%ADD16C,3.000000*%
%ADD17C,3.429000*%
%ADD18C,2.032000*%
%ADD19R,2.600000X2.600000*%
%ADD20C,1.524000*%
%ADD21C,1.800000*%
G04 APERTURE END LIST*
D10*
X54619047Y-151452380D02*
X54619047Y-152166666D01*
X54666666Y-152309523D01*
X54761904Y-152404761D01*
X54904761Y-152452380D01*
X55000000Y-152452380D01*
X53666666Y-152452380D02*
X54142857Y-152452380D01*
X54142857Y-151452380D01*
X52761904Y-152357142D02*
X52809523Y-152404761D01*
X52952380Y-152452380D01*
X53047619Y-152452380D01*
X53190476Y-152404761D01*
X53285714Y-152309523D01*
X53333333Y-152214285D01*
X53380952Y-152023809D01*
X53380952Y-151880952D01*
X53333333Y-151690476D01*
X53285714Y-151595238D01*
X53190476Y-151500000D01*
X53047619Y-151452380D01*
X52952380Y-151452380D01*
X52809523Y-151500000D01*
X52761904Y-151547619D01*
X52047619Y-151452380D02*
X52047619Y-152166666D01*
X52095238Y-152309523D01*
X52190476Y-152404761D01*
X52333333Y-152452380D01*
X52428571Y-152452380D01*
X51095238Y-152452380D02*
X51571428Y-152452380D01*
X51571428Y-151452380D01*
X50190476Y-152357142D02*
X50238095Y-152404761D01*
X50380952Y-152452380D01*
X50476190Y-152452380D01*
X50619047Y-152404761D01*
X50714285Y-152309523D01*
X50761904Y-152214285D01*
X50809523Y-152023809D01*
X50809523Y-151880952D01*
X50761904Y-151690476D01*
X50714285Y-151595238D01*
X50619047Y-151500000D01*
X50476190Y-151452380D01*
X50380952Y-151452380D01*
X50238095Y-151500000D01*
X50190476Y-151547619D01*
X49476190Y-151452380D02*
X49476190Y-152166666D01*
X49523809Y-152309523D01*
X49619047Y-152404761D01*
X49761904Y-152452380D01*
X49857142Y-152452380D01*
X48523809Y-152452380D02*
X49000000Y-152452380D01*
X49000000Y-151452380D01*
X47619047Y-152357142D02*
X47666666Y-152404761D01*
X47809523Y-152452380D01*
X47904761Y-152452380D01*
X48047619Y-152404761D01*
X48142857Y-152309523D01*
X48190476Y-152214285D01*
X48238095Y-152023809D01*
X48238095Y-151880952D01*
X48190476Y-151690476D01*
X48142857Y-151595238D01*
X48047619Y-151500000D01*
X47904761Y-151452380D01*
X47809523Y-151452380D01*
X47666666Y-151500000D01*
X47619047Y-151547619D01*
X46904761Y-151452380D02*
X46904761Y-152166666D01*
X46952380Y-152309523D01*
X47047619Y-152404761D01*
X47190476Y-152452380D01*
X47285714Y-152452380D01*
X45952380Y-152452380D02*
X46428571Y-152452380D01*
X46428571Y-151452380D01*
X45047619Y-152357142D02*
X45095238Y-152404761D01*
X45238095Y-152452380D01*
X45333333Y-152452380D01*
X45476190Y-152404761D01*
X45571428Y-152309523D01*
X45619047Y-152214285D01*
X45666666Y-152023809D01*
X45666666Y-151880952D01*
X45619047Y-151690476D01*
X45571428Y-151595238D01*
X45476190Y-151500000D01*
X45333333Y-151452380D01*
X45238095Y-151452380D01*
X45095238Y-151500000D01*
X45047619Y-151547619D01*
X165904523Y-51324761D02*
X165761666Y-51372380D01*
X165523571Y-51372380D01*
X165428333Y-51324761D01*
X165380714Y-51277142D01*
X165333095Y-51181904D01*
X165333095Y-51086666D01*
X165380714Y-50991428D01*
X165428333Y-50943809D01*
X165523571Y-50896190D01*
X165714047Y-50848571D01*
X165809285Y-50800952D01*
X165856904Y-50753333D01*
X165904523Y-50658095D01*
X165904523Y-50562857D01*
X165856904Y-50467619D01*
X165809285Y-50420000D01*
X165714047Y-50372380D01*
X165475952Y-50372380D01*
X165333095Y-50420000D01*
X164999761Y-50372380D02*
X164761666Y-51372380D01*
X164571190Y-50658095D01*
X164380714Y-51372380D01*
X164142619Y-50372380D01*
X163237857Y-51372380D02*
X163809285Y-51372380D01*
X163523571Y-51372380D02*
X163523571Y-50372380D01*
X163618809Y-50515238D01*
X163714047Y-50610476D01*
X163809285Y-50658095D01*
X162285476Y-51372380D02*
X162856904Y-51372380D01*
X162571190Y-51372380D02*
X162571190Y-50372380D01*
X162666428Y-50515238D01*
X162761666Y-50610476D01*
X162856904Y-50658095D01*
X125294523Y-127704761D02*
X125151666Y-127752380D01*
X124913571Y-127752380D01*
X124818333Y-127704761D01*
X124770714Y-127657142D01*
X124723095Y-127561904D01*
X124723095Y-127466666D01*
X124770714Y-127371428D01*
X124818333Y-127323809D01*
X124913571Y-127276190D01*
X125104047Y-127228571D01*
X125199285Y-127180952D01*
X125246904Y-127133333D01*
X125294523Y-127038095D01*
X125294523Y-126942857D01*
X125246904Y-126847619D01*
X125199285Y-126800000D01*
X125104047Y-126752380D01*
X124865952Y-126752380D01*
X124723095Y-126800000D01*
X124389761Y-126752380D02*
X124151666Y-127752380D01*
X123961190Y-127038095D01*
X123770714Y-127752380D01*
X123532619Y-126752380D01*
X122627857Y-127752380D02*
X123199285Y-127752380D01*
X122913571Y-127752380D02*
X122913571Y-126752380D01*
X123008809Y-126895238D01*
X123104047Y-126990476D01*
X123199285Y-127038095D01*
X122056428Y-127180952D02*
X122151666Y-127133333D01*
X122199285Y-127085714D01*
X122246904Y-126990476D01*
X122246904Y-126942857D01*
X122199285Y-126847619D01*
X122151666Y-126800000D01*
X122056428Y-126752380D01*
X121865952Y-126752380D01*
X121770714Y-126800000D01*
X121723095Y-126847619D01*
X121675476Y-126942857D01*
X121675476Y-126990476D01*
X121723095Y-127085714D01*
X121770714Y-127133333D01*
X121865952Y-127180952D01*
X122056428Y-127180952D01*
X122151666Y-127228571D01*
X122199285Y-127276190D01*
X122246904Y-127371428D01*
X122246904Y-127561904D01*
X122199285Y-127657142D01*
X122151666Y-127704761D01*
X122056428Y-127752380D01*
X121865952Y-127752380D01*
X121770714Y-127704761D01*
X121723095Y-127657142D01*
X121675476Y-127561904D01*
X121675476Y-127371428D01*
X121723095Y-127276190D01*
X121770714Y-127228571D01*
X121865952Y-127180952D01*
X224114523Y-55724761D02*
X223971666Y-55772380D01*
X223733571Y-55772380D01*
X223638333Y-55724761D01*
X223590714Y-55677142D01*
X223543095Y-55581904D01*
X223543095Y-55486666D01*
X223590714Y-55391428D01*
X223638333Y-55343809D01*
X223733571Y-55296190D01*
X223924047Y-55248571D01*
X224019285Y-55200952D01*
X224066904Y-55153333D01*
X224114523Y-55058095D01*
X224114523Y-54962857D01*
X224066904Y-54867619D01*
X224019285Y-54820000D01*
X223924047Y-54772380D01*
X223685952Y-54772380D01*
X223543095Y-54820000D01*
X223209761Y-54772380D02*
X222971666Y-55772380D01*
X222781190Y-55058095D01*
X222590714Y-55772380D01*
X222352619Y-54772380D01*
X221447857Y-55772380D02*
X222019285Y-55772380D01*
X221733571Y-55772380D02*
X221733571Y-54772380D01*
X221828809Y-54915238D01*
X221924047Y-55010476D01*
X222019285Y-55058095D01*
X221114523Y-54772380D02*
X220495476Y-54772380D01*
X220828809Y-55153333D01*
X220685952Y-55153333D01*
X220590714Y-55200952D01*
X220543095Y-55248571D01*
X220495476Y-55343809D01*
X220495476Y-55581904D01*
X220543095Y-55677142D01*
X220590714Y-55724761D01*
X220685952Y-55772380D01*
X220971666Y-55772380D01*
X221066904Y-55724761D01*
X221114523Y-55677142D01*
X137394523Y-92844761D02*
X137251666Y-92892380D01*
X137013571Y-92892380D01*
X136918333Y-92844761D01*
X136870714Y-92797142D01*
X136823095Y-92701904D01*
X136823095Y-92606666D01*
X136870714Y-92511428D01*
X136918333Y-92463809D01*
X137013571Y-92416190D01*
X137204047Y-92368571D01*
X137299285Y-92320952D01*
X137346904Y-92273333D01*
X137394523Y-92178095D01*
X137394523Y-92082857D01*
X137346904Y-91987619D01*
X137299285Y-91940000D01*
X137204047Y-91892380D01*
X136965952Y-91892380D01*
X136823095Y-91940000D01*
X136489761Y-91892380D02*
X136251666Y-92892380D01*
X136061190Y-92178095D01*
X135870714Y-92892380D01*
X135632619Y-91892380D01*
X134727857Y-92892380D02*
X135299285Y-92892380D01*
X135013571Y-92892380D02*
X135013571Y-91892380D01*
X135108809Y-92035238D01*
X135204047Y-92130476D01*
X135299285Y-92178095D01*
X133870714Y-92225714D02*
X133870714Y-92892380D01*
X134108809Y-91844761D02*
X134346904Y-92559047D01*
X133727857Y-92559047D01*
X57778333Y-61784761D02*
X57635476Y-61832380D01*
X57397380Y-61832380D01*
X57302142Y-61784761D01*
X57254523Y-61737142D01*
X57206904Y-61641904D01*
X57206904Y-61546666D01*
X57254523Y-61451428D01*
X57302142Y-61403809D01*
X57397380Y-61356190D01*
X57587857Y-61308571D01*
X57683095Y-61260952D01*
X57730714Y-61213333D01*
X57778333Y-61118095D01*
X57778333Y-61022857D01*
X57730714Y-60927619D01*
X57683095Y-60880000D01*
X57587857Y-60832380D01*
X57349761Y-60832380D01*
X57206904Y-60880000D01*
X56873571Y-60832380D02*
X56635476Y-61832380D01*
X56445000Y-61118095D01*
X56254523Y-61832380D01*
X56016428Y-60832380D01*
X55730714Y-60832380D02*
X55064047Y-60832380D01*
X55492619Y-61832380D01*
X111848333Y-75324761D02*
X111705476Y-75372380D01*
X111467380Y-75372380D01*
X111372142Y-75324761D01*
X111324523Y-75277142D01*
X111276904Y-75181904D01*
X111276904Y-75086666D01*
X111324523Y-74991428D01*
X111372142Y-74943809D01*
X111467380Y-74896190D01*
X111657857Y-74848571D01*
X111753095Y-74800952D01*
X111800714Y-74753333D01*
X111848333Y-74658095D01*
X111848333Y-74562857D01*
X111800714Y-74467619D01*
X111753095Y-74420000D01*
X111657857Y-74372380D01*
X111419761Y-74372380D01*
X111276904Y-74420000D01*
X110943571Y-74372380D02*
X110705476Y-75372380D01*
X110515000Y-74658095D01*
X110324523Y-75372380D01*
X110086428Y-74372380D01*
X109657857Y-75372380D02*
X109467380Y-75372380D01*
X109372142Y-75324761D01*
X109324523Y-75277142D01*
X109229285Y-75134285D01*
X109181666Y-74943809D01*
X109181666Y-74562857D01*
X109229285Y-74467619D01*
X109276904Y-74420000D01*
X109372142Y-74372380D01*
X109562619Y-74372380D01*
X109657857Y-74420000D01*
X109705476Y-74467619D01*
X109753095Y-74562857D01*
X109753095Y-74800952D01*
X109705476Y-74896190D01*
X109657857Y-74943809D01*
X109562619Y-74991428D01*
X109372142Y-74991428D01*
X109276904Y-74943809D01*
X109229285Y-74896190D01*
X109181666Y-74800952D01*
X194744523Y-81244761D02*
X194601666Y-81292380D01*
X194363571Y-81292380D01*
X194268333Y-81244761D01*
X194220714Y-81197142D01*
X194173095Y-81101904D01*
X194173095Y-81006666D01*
X194220714Y-80911428D01*
X194268333Y-80863809D01*
X194363571Y-80816190D01*
X194554047Y-80768571D01*
X194649285Y-80720952D01*
X194696904Y-80673333D01*
X194744523Y-80578095D01*
X194744523Y-80482857D01*
X194696904Y-80387619D01*
X194649285Y-80340000D01*
X194554047Y-80292380D01*
X194315952Y-80292380D01*
X194173095Y-80340000D01*
X193839761Y-80292380D02*
X193601666Y-81292380D01*
X193411190Y-80578095D01*
X193220714Y-81292380D01*
X192982619Y-80292380D01*
X192077857Y-81292380D02*
X192649285Y-81292380D01*
X192363571Y-81292380D02*
X192363571Y-80292380D01*
X192458809Y-80435238D01*
X192554047Y-80530476D01*
X192649285Y-80578095D01*
X191220714Y-80292380D02*
X191411190Y-80292380D01*
X191506428Y-80340000D01*
X191554047Y-80387619D01*
X191649285Y-80530476D01*
X191696904Y-80720952D01*
X191696904Y-81101904D01*
X191649285Y-81197142D01*
X191601666Y-81244761D01*
X191506428Y-81292380D01*
X191315952Y-81292380D01*
X191220714Y-81244761D01*
X191173095Y-81197142D01*
X191125476Y-81101904D01*
X191125476Y-80863809D01*
X191173095Y-80768571D01*
X191220714Y-80720952D01*
X191315952Y-80673333D01*
X191506428Y-80673333D01*
X191601666Y-80720952D01*
X191649285Y-80768571D01*
X191696904Y-80863809D01*
X86398333Y-61784761D02*
X86255476Y-61832380D01*
X86017380Y-61832380D01*
X85922142Y-61784761D01*
X85874523Y-61737142D01*
X85826904Y-61641904D01*
X85826904Y-61546666D01*
X85874523Y-61451428D01*
X85922142Y-61403809D01*
X86017380Y-61356190D01*
X86207857Y-61308571D01*
X86303095Y-61260952D01*
X86350714Y-61213333D01*
X86398333Y-61118095D01*
X86398333Y-61022857D01*
X86350714Y-60927619D01*
X86303095Y-60880000D01*
X86207857Y-60832380D01*
X85969761Y-60832380D01*
X85826904Y-60880000D01*
X85493571Y-60832380D02*
X85255476Y-61832380D01*
X85065000Y-61118095D01*
X84874523Y-61832380D01*
X84636428Y-60832380D01*
X84112619Y-61260952D02*
X84207857Y-61213333D01*
X84255476Y-61165714D01*
X84303095Y-61070476D01*
X84303095Y-61022857D01*
X84255476Y-60927619D01*
X84207857Y-60880000D01*
X84112619Y-60832380D01*
X83922142Y-60832380D01*
X83826904Y-60880000D01*
X83779285Y-60927619D01*
X83731666Y-61022857D01*
X83731666Y-61070476D01*
X83779285Y-61165714D01*
X83826904Y-61213333D01*
X83922142Y-61260952D01*
X84112619Y-61260952D01*
X84207857Y-61308571D01*
X84255476Y-61356190D01*
X84303095Y-61451428D01*
X84303095Y-61641904D01*
X84255476Y-61737142D01*
X84207857Y-61784761D01*
X84112619Y-61832380D01*
X83922142Y-61832380D01*
X83826904Y-61784761D01*
X83779285Y-61737142D01*
X83731666Y-61641904D01*
X83731666Y-61451428D01*
X83779285Y-61356190D01*
X83826904Y-61308571D01*
X83922142Y-61260952D01*
X223224523Y-85674761D02*
X223081666Y-85722380D01*
X222843571Y-85722380D01*
X222748333Y-85674761D01*
X222700714Y-85627142D01*
X222653095Y-85531904D01*
X222653095Y-85436666D01*
X222700714Y-85341428D01*
X222748333Y-85293809D01*
X222843571Y-85246190D01*
X223034047Y-85198571D01*
X223129285Y-85150952D01*
X223176904Y-85103333D01*
X223224523Y-85008095D01*
X223224523Y-84912857D01*
X223176904Y-84817619D01*
X223129285Y-84770000D01*
X223034047Y-84722380D01*
X222795952Y-84722380D01*
X222653095Y-84770000D01*
X222319761Y-84722380D02*
X222081666Y-85722380D01*
X221891190Y-85008095D01*
X221700714Y-85722380D01*
X221462619Y-84722380D01*
X220557857Y-85722380D02*
X221129285Y-85722380D01*
X220843571Y-85722380D02*
X220843571Y-84722380D01*
X220938809Y-84865238D01*
X221034047Y-84960476D01*
X221129285Y-85008095D01*
X220224523Y-84722380D02*
X219557857Y-84722380D01*
X219986428Y-85722380D01*
X164374523Y-81404761D02*
X164231666Y-81452380D01*
X163993571Y-81452380D01*
X163898333Y-81404761D01*
X163850714Y-81357142D01*
X163803095Y-81261904D01*
X163803095Y-81166666D01*
X163850714Y-81071428D01*
X163898333Y-81023809D01*
X163993571Y-80976190D01*
X164184047Y-80928571D01*
X164279285Y-80880952D01*
X164326904Y-80833333D01*
X164374523Y-80738095D01*
X164374523Y-80642857D01*
X164326904Y-80547619D01*
X164279285Y-80500000D01*
X164184047Y-80452380D01*
X163945952Y-80452380D01*
X163803095Y-80500000D01*
X163469761Y-80452380D02*
X163231666Y-81452380D01*
X163041190Y-80738095D01*
X162850714Y-81452380D01*
X162612619Y-80452380D01*
X161707857Y-81452380D02*
X162279285Y-81452380D01*
X161993571Y-81452380D02*
X161993571Y-80452380D01*
X162088809Y-80595238D01*
X162184047Y-80690476D01*
X162279285Y-80738095D01*
X160803095Y-80452380D02*
X161279285Y-80452380D01*
X161326904Y-80928571D01*
X161279285Y-80880952D01*
X161184047Y-80833333D01*
X160945952Y-80833333D01*
X160850714Y-80880952D01*
X160803095Y-80928571D01*
X160755476Y-81023809D01*
X160755476Y-81261904D01*
X160803095Y-81357142D01*
X160850714Y-81404761D01*
X160945952Y-81452380D01*
X161184047Y-81452380D01*
X161279285Y-81404761D01*
X161326904Y-81357142D01*
X139554523Y-62734761D02*
X139411666Y-62782380D01*
X139173571Y-62782380D01*
X139078333Y-62734761D01*
X139030714Y-62687142D01*
X138983095Y-62591904D01*
X138983095Y-62496666D01*
X139030714Y-62401428D01*
X139078333Y-62353809D01*
X139173571Y-62306190D01*
X139364047Y-62258571D01*
X139459285Y-62210952D01*
X139506904Y-62163333D01*
X139554523Y-62068095D01*
X139554523Y-61972857D01*
X139506904Y-61877619D01*
X139459285Y-61830000D01*
X139364047Y-61782380D01*
X139125952Y-61782380D01*
X138983095Y-61830000D01*
X138649761Y-61782380D02*
X138411666Y-62782380D01*
X138221190Y-62068095D01*
X138030714Y-62782380D01*
X137792619Y-61782380D01*
X136887857Y-62782380D02*
X137459285Y-62782380D01*
X137173571Y-62782380D02*
X137173571Y-61782380D01*
X137268809Y-61925238D01*
X137364047Y-62020476D01*
X137459285Y-62068095D01*
X136268809Y-61782380D02*
X136173571Y-61782380D01*
X136078333Y-61830000D01*
X136030714Y-61877619D01*
X135983095Y-61972857D01*
X135935476Y-62163333D01*
X135935476Y-62401428D01*
X135983095Y-62591904D01*
X136030714Y-62687142D01*
X136078333Y-62734761D01*
X136173571Y-62782380D01*
X136268809Y-62782380D01*
X136364047Y-62734761D01*
X136411666Y-62687142D01*
X136459285Y-62591904D01*
X136506904Y-62401428D01*
X136506904Y-62163333D01*
X136459285Y-61972857D01*
X136411666Y-61877619D01*
X136364047Y-61830000D01*
X136268809Y-61782380D01*
X195004523Y-52084761D02*
X194861666Y-52132380D01*
X194623571Y-52132380D01*
X194528333Y-52084761D01*
X194480714Y-52037142D01*
X194433095Y-51941904D01*
X194433095Y-51846666D01*
X194480714Y-51751428D01*
X194528333Y-51703809D01*
X194623571Y-51656190D01*
X194814047Y-51608571D01*
X194909285Y-51560952D01*
X194956904Y-51513333D01*
X195004523Y-51418095D01*
X195004523Y-51322857D01*
X194956904Y-51227619D01*
X194909285Y-51180000D01*
X194814047Y-51132380D01*
X194575952Y-51132380D01*
X194433095Y-51180000D01*
X194099761Y-51132380D02*
X193861666Y-52132380D01*
X193671190Y-51418095D01*
X193480714Y-52132380D01*
X193242619Y-51132380D01*
X192337857Y-52132380D02*
X192909285Y-52132380D01*
X192623571Y-52132380D02*
X192623571Y-51132380D01*
X192718809Y-51275238D01*
X192814047Y-51370476D01*
X192909285Y-51418095D01*
X191956904Y-51227619D02*
X191909285Y-51180000D01*
X191814047Y-51132380D01*
X191575952Y-51132380D01*
X191480714Y-51180000D01*
X191433095Y-51227619D01*
X191385476Y-51322857D01*
X191385476Y-51418095D01*
X191433095Y-51560952D01*
X192004523Y-52132380D01*
X191385476Y-52132380D01*
X112310000Y-33030000D02*
X117390000Y-33030000D01*
X112310000Y-30490000D02*
X112310000Y-33030000D01*
X99610000Y-33030000D02*
X104690000Y-33030000D01*
X117390000Y-63510000D02*
X99610000Y-63510000D01*
X104690000Y-33030000D02*
X104690000Y-30490000D01*
X104690000Y-30490000D02*
X112310000Y-30490000D01*
X117390000Y-33030000D02*
X117390000Y-63510000D01*
X99610000Y-63510000D02*
X99610000Y-33030000D01*
X157650000Y-50840000D02*
X158150000Y-50340000D01*
X166650000Y-52340000D02*
X162150000Y-52340000D01*
X166650000Y-52940000D02*
X166650000Y-52340000D01*
X157650000Y-54340000D02*
X158150000Y-54840000D01*
X161150000Y-50340000D02*
X161650000Y-50840000D01*
X162150000Y-57040000D02*
X166650000Y-57040000D01*
X166650000Y-57040000D02*
X166650000Y-56540000D01*
X158150000Y-50340000D02*
X161150000Y-50340000D01*
X161650000Y-51840000D02*
X161650000Y-50840000D01*
X158150000Y-54840000D02*
X160650000Y-54840000D01*
X162150000Y-56340000D02*
X162150000Y-57040000D01*
X161650000Y-51840000D02*
G75*
G03*
X162150000Y-52340000I500000J0D01*
G01*
X162150000Y-56340000D02*
G75*
G03*
X160650000Y-54840000I-1500000J0D01*
G01*
X121040000Y-128220000D02*
X121040000Y-127220000D01*
X117040000Y-130720000D02*
X117540000Y-131220000D01*
X121540000Y-133420000D02*
X126040000Y-133420000D01*
X117040000Y-127220000D02*
X117540000Y-126720000D01*
X126040000Y-128720000D02*
X121540000Y-128720000D01*
X117540000Y-131220000D02*
X120040000Y-131220000D01*
X120540000Y-126720000D02*
X121040000Y-127220000D01*
X126040000Y-133420000D02*
X126040000Y-132920000D01*
X121540000Y-132720000D02*
X121540000Y-133420000D01*
X126040000Y-129320000D02*
X126040000Y-128720000D01*
X117540000Y-126720000D02*
X120540000Y-126720000D01*
X121040000Y-128220000D02*
G75*
G03*
X121540000Y-128720000I500000J0D01*
G01*
X121540000Y-132720000D02*
G75*
G03*
X120040000Y-131220000I-1500000J0D01*
G01*
X220360000Y-61440000D02*
X224860000Y-61440000D01*
X216360000Y-54740000D02*
X219360000Y-54740000D01*
X216360000Y-59240000D02*
X218860000Y-59240000D01*
X215860000Y-55240000D02*
X216360000Y-54740000D01*
X220360000Y-60740000D02*
X220360000Y-61440000D01*
X224860000Y-56740000D02*
X220360000Y-56740000D01*
X219860000Y-56240000D02*
X219860000Y-55240000D01*
X215860000Y-58740000D02*
X216360000Y-59240000D01*
X219360000Y-54740000D02*
X219860000Y-55240000D01*
X224860000Y-57340000D02*
X224860000Y-56740000D01*
X224860000Y-61440000D02*
X224860000Y-60940000D01*
X219860000Y-56240000D02*
G75*
G03*
X220360000Y-56740000I500000J0D01*
G01*
X220360000Y-60740000D02*
G75*
G03*
X218860000Y-59240000I-1500000J0D01*
G01*
X133640000Y-98560000D02*
X138140000Y-98560000D01*
X132640000Y-91860000D02*
X133140000Y-92360000D01*
X133640000Y-97860000D02*
X133640000Y-98560000D01*
X138140000Y-98560000D02*
X138140000Y-98060000D01*
X129640000Y-91860000D02*
X132640000Y-91860000D01*
X129140000Y-95860000D02*
X129640000Y-96360000D01*
X129640000Y-96360000D02*
X132140000Y-96360000D01*
X138140000Y-93860000D02*
X133640000Y-93860000D01*
X129140000Y-92360000D02*
X129640000Y-91860000D01*
X133140000Y-93360000D02*
X133140000Y-92360000D01*
X138140000Y-94460000D02*
X138140000Y-93860000D01*
X133640000Y-97860000D02*
G75*
G03*
X132140000Y-96360000I-1500000J0D01*
G01*
X133140000Y-93360000D02*
G75*
G03*
X133640000Y-93860000I500000J0D01*
G01*
X54500000Y-66800000D02*
X54500000Y-67500000D01*
X59000000Y-67500000D02*
X59000000Y-67000000D01*
X54000000Y-62300000D02*
X54000000Y-61300000D01*
X59000000Y-62800000D02*
X54500000Y-62800000D01*
X50500000Y-65300000D02*
X53000000Y-65300000D01*
X50000000Y-64800000D02*
X50500000Y-65300000D01*
X54500000Y-67500000D02*
X59000000Y-67500000D01*
X59000000Y-63400000D02*
X59000000Y-62800000D01*
X53500000Y-60800000D02*
X54000000Y-61300000D01*
X50500000Y-60800000D02*
X53500000Y-60800000D01*
X50000000Y-61300000D02*
X50500000Y-60800000D01*
X54500000Y-66800000D02*
G75*
G03*
X53000000Y-65300000I-1500000J0D01*
G01*
X54000000Y-62300000D02*
G75*
G03*
X54500000Y-62800000I500000J0D01*
G01*
X104570000Y-78840000D02*
X107070000Y-78840000D01*
X113070000Y-76940000D02*
X113070000Y-76340000D01*
X107570000Y-74340000D02*
X108070000Y-74840000D01*
X104070000Y-78340000D02*
X104570000Y-78840000D01*
X104070000Y-74840000D02*
X104570000Y-74340000D01*
X108070000Y-75840000D02*
X108070000Y-74840000D01*
X108570000Y-80340000D02*
X108570000Y-81040000D01*
X108570000Y-81040000D02*
X113070000Y-81040000D01*
X113070000Y-76340000D02*
X108570000Y-76340000D01*
X113070000Y-81040000D02*
X113070000Y-80540000D01*
X104570000Y-74340000D02*
X107570000Y-74340000D01*
X108070000Y-75840000D02*
G75*
G03*
X108570000Y-76340000I500000J0D01*
G01*
X108570000Y-80340000D02*
G75*
G03*
X107070000Y-78840000I-1500000J0D01*
G01*
X195490000Y-86960000D02*
X195490000Y-86460000D01*
X186990000Y-84760000D02*
X189490000Y-84760000D01*
X186490000Y-84260000D02*
X186990000Y-84760000D01*
X195490000Y-82260000D02*
X190990000Y-82260000D01*
X189990000Y-80260000D02*
X190490000Y-80760000D01*
X186990000Y-80260000D02*
X189990000Y-80260000D01*
X190990000Y-86960000D02*
X195490000Y-86960000D01*
X190990000Y-86260000D02*
X190990000Y-86960000D01*
X186490000Y-80760000D02*
X186990000Y-80260000D01*
X195490000Y-82860000D02*
X195490000Y-82260000D01*
X190490000Y-81760000D02*
X190490000Y-80760000D01*
X190990000Y-86260000D02*
G75*
G03*
X189490000Y-84760000I-1500000J0D01*
G01*
X190490000Y-81760000D02*
G75*
G03*
X190990000Y-82260000I500000J0D01*
G01*
X78620000Y-61300000D02*
X79120000Y-60800000D01*
X87620000Y-67500000D02*
X87620000Y-67000000D01*
X87620000Y-63400000D02*
X87620000Y-62800000D01*
X82620000Y-62300000D02*
X82620000Y-61300000D01*
X83120000Y-66800000D02*
X83120000Y-67500000D01*
X82120000Y-60800000D02*
X82620000Y-61300000D01*
X83120000Y-67500000D02*
X87620000Y-67500000D01*
X87620000Y-62800000D02*
X83120000Y-62800000D01*
X78620000Y-64800000D02*
X79120000Y-65300000D01*
X79120000Y-60800000D02*
X82120000Y-60800000D01*
X79120000Y-65300000D02*
X81620000Y-65300000D01*
X83120000Y-66800000D02*
G75*
G03*
X81620000Y-65300000I-1500000J0D01*
G01*
X82620000Y-62300000D02*
G75*
G03*
X83120000Y-62800000I500000J0D01*
G01*
X223970000Y-87290000D02*
X223970000Y-86690000D01*
X223970000Y-86690000D02*
X219470000Y-86690000D01*
X218470000Y-84690000D02*
X218970000Y-85190000D01*
X215470000Y-84690000D02*
X218470000Y-84690000D01*
X214970000Y-88690000D02*
X215470000Y-89190000D01*
X218970000Y-86190000D02*
X218970000Y-85190000D01*
X214970000Y-85190000D02*
X215470000Y-84690000D01*
X219470000Y-91390000D02*
X223970000Y-91390000D01*
X215470000Y-89190000D02*
X217970000Y-89190000D01*
X219470000Y-90690000D02*
X219470000Y-91390000D01*
X223970000Y-91390000D02*
X223970000Y-90890000D01*
X219470000Y-90690000D02*
G75*
G03*
X217970000Y-89190000I-1500000J0D01*
G01*
X218970000Y-86190000D02*
G75*
G03*
X219470000Y-86690000I500000J0D01*
G01*
X156620000Y-84920000D02*
X159120000Y-84920000D01*
X165120000Y-87120000D02*
X165120000Y-86620000D01*
X165120000Y-82420000D02*
X160620000Y-82420000D01*
X156120000Y-84420000D02*
X156620000Y-84920000D01*
X160620000Y-87120000D02*
X165120000Y-87120000D01*
X160620000Y-86420000D02*
X160620000Y-87120000D01*
X159620000Y-80420000D02*
X160120000Y-80920000D01*
X160120000Y-81920000D02*
X160120000Y-80920000D01*
X165120000Y-83020000D02*
X165120000Y-82420000D01*
X156120000Y-80920000D02*
X156620000Y-80420000D01*
X156620000Y-80420000D02*
X159620000Y-80420000D01*
X160620000Y-86420000D02*
G75*
G03*
X159120000Y-84920000I-1500000J0D01*
G01*
X160120000Y-81920000D02*
G75*
G03*
X160620000Y-82420000I500000J0D01*
G01*
X131300000Y-65750000D02*
X131800000Y-66250000D01*
X134800000Y-61750000D02*
X135300000Y-62250000D01*
X135300000Y-63250000D02*
X135300000Y-62250000D01*
X140300000Y-68450000D02*
X140300000Y-67950000D01*
X140300000Y-64350000D02*
X140300000Y-63750000D01*
X131300000Y-62250000D02*
X131800000Y-61750000D01*
X135800000Y-67750000D02*
X135800000Y-68450000D01*
X131800000Y-61750000D02*
X134800000Y-61750000D01*
X131800000Y-66250000D02*
X134300000Y-66250000D01*
X140300000Y-63750000D02*
X135800000Y-63750000D01*
X135800000Y-68450000D02*
X140300000Y-68450000D01*
X135300000Y-63250000D02*
G75*
G03*
X135800000Y-63750000I500000J0D01*
G01*
X135800000Y-67750000D02*
G75*
G03*
X134300000Y-66250000I-1500000J0D01*
G01*
X186750000Y-55100000D02*
X187250000Y-55600000D01*
X195750000Y-57800000D02*
X195750000Y-57300000D01*
X190750000Y-52600000D02*
X190750000Y-51600000D01*
X191250000Y-57800000D02*
X195750000Y-57800000D01*
X190250000Y-51100000D02*
X190750000Y-51600000D01*
X195750000Y-53100000D02*
X191250000Y-53100000D01*
X195750000Y-53700000D02*
X195750000Y-53100000D01*
X187250000Y-55600000D02*
X189750000Y-55600000D01*
X186750000Y-51600000D02*
X187250000Y-51100000D01*
X187250000Y-51100000D02*
X190250000Y-51100000D01*
X191250000Y-57100000D02*
X191250000Y-57800000D01*
X190750000Y-52600000D02*
G75*
G03*
X191250000Y-53100000I500000J0D01*
G01*
X191250000Y-57100000D02*
G75*
G03*
X189750000Y-55600000I-1500000J0D01*
G01*
%LPC*%
D11*
X135000000Y-37550000D03*
D12*
X116120000Y-34300000D03*
X116120000Y-36840000D03*
X116120000Y-39380000D03*
X116120000Y-41920000D03*
X116120000Y-44460000D03*
X116120000Y-47000000D03*
X116120000Y-49540000D03*
X116120000Y-52080000D03*
X116120000Y-54620000D03*
X116120000Y-57160000D03*
X116120000Y-59700000D03*
X116120000Y-62240000D03*
X100880000Y-62240000D03*
X100880000Y-59700000D03*
X100880000Y-57160000D03*
X100880000Y-54620000D03*
X100880000Y-52080000D03*
X100880000Y-49540000D03*
X100880000Y-47000000D03*
X100880000Y-44460000D03*
X100880000Y-41920000D03*
X100880000Y-39380000D03*
X100880000Y-36840000D03*
D13*
X100880000Y-34300000D03*
D14*
X70000000Y-50500000D03*
X70000000Y-44000000D03*
X74500000Y-50500000D03*
X74500000Y-44000000D03*
D15*
X165150000Y-58540000D03*
D16*
X159650000Y-52590000D03*
X164650000Y-54790000D03*
D17*
X159650000Y-58540000D03*
D15*
X154150000Y-58540000D03*
D18*
X159650000Y-64440000D03*
D19*
X156375000Y-52590000D03*
D18*
X154650000Y-62340000D03*
D19*
X167925000Y-54790000D03*
D11*
X232450000Y-37550000D03*
D14*
X60000000Y-50500000D03*
X60000000Y-44000000D03*
X64500000Y-44000000D03*
X64500000Y-50500000D03*
D15*
X113540000Y-134920000D03*
X124540000Y-134920000D03*
D16*
X119040000Y-128970000D03*
D17*
X119040000Y-134920000D03*
D16*
X124040000Y-131170000D03*
D18*
X119040000Y-140820000D03*
D19*
X115765000Y-128970000D03*
X127315000Y-131170000D03*
D18*
X114040000Y-138720000D03*
D16*
X217860000Y-56990000D03*
D15*
X212360000Y-62940000D03*
D16*
X222860000Y-59190000D03*
D15*
X223360000Y-62940000D03*
D17*
X217860000Y-62940000D03*
D18*
X217860000Y-68840000D03*
D19*
X214585000Y-56990000D03*
X226135000Y-59190000D03*
D18*
X212860000Y-66740000D03*
D17*
X131140000Y-100060000D03*
D16*
X136140000Y-96310000D03*
X131140000Y-94110000D03*
D15*
X136640000Y-100060000D03*
X125640000Y-100060000D03*
D19*
X127865000Y-94110000D03*
D18*
X131140000Y-105960000D03*
D19*
X139415000Y-96310000D03*
D18*
X126140000Y-103860000D03*
D14*
X50000000Y-50500000D03*
X50000000Y-44000000D03*
X54500000Y-44000000D03*
X54500000Y-50500000D03*
D11*
X110140000Y-103580000D03*
X37550000Y-147450000D03*
D14*
X90000000Y-44000000D03*
X90000000Y-50500000D03*
X94500000Y-44000000D03*
X94500000Y-50500000D03*
D16*
X52000000Y-63050000D03*
D15*
X57500000Y-69000000D03*
D17*
X52000000Y-69000000D03*
D16*
X57000000Y-65250000D03*
D15*
X46500000Y-69000000D03*
D19*
X48725000Y-63050000D03*
D18*
X52000000Y-74900000D03*
X47000000Y-72800000D03*
D19*
X60275000Y-65250000D03*
D17*
X106070000Y-82540000D03*
D16*
X111070000Y-78790000D03*
D15*
X111570000Y-82540000D03*
X100570000Y-82540000D03*
D16*
X106070000Y-76590000D03*
D18*
X106070000Y-88440000D03*
D19*
X102795000Y-76590000D03*
X114345000Y-78790000D03*
D18*
X101070000Y-86340000D03*
D15*
X193990000Y-88460000D03*
X182990000Y-88460000D03*
D16*
X193490000Y-84710000D03*
X188490000Y-82510000D03*
D17*
X188490000Y-88460000D03*
D19*
X185215000Y-82510000D03*
D18*
X188490000Y-94360000D03*
X183490000Y-92260000D03*
D19*
X196765000Y-84710000D03*
D14*
X40000000Y-44000000D03*
X40000000Y-50500000D03*
X44500000Y-50500000D03*
X44500000Y-44000000D03*
D11*
X232450000Y-147450000D03*
D16*
X80620000Y-63050000D03*
D17*
X80620000Y-69000000D03*
D16*
X85620000Y-65250000D03*
D15*
X86120000Y-69000000D03*
X75120000Y-69000000D03*
D18*
X80620000Y-74900000D03*
D19*
X77345000Y-63050000D03*
D18*
X75620000Y-72800000D03*
D19*
X88895000Y-65250000D03*
D11*
X37550000Y-37550000D03*
D16*
X221970000Y-89140000D03*
D15*
X211470000Y-92890000D03*
D16*
X216970000Y-86940000D03*
D15*
X222470000Y-92890000D03*
D17*
X216970000Y-92890000D03*
D19*
X213695000Y-86940000D03*
D18*
X216970000Y-98790000D03*
X211970000Y-96690000D03*
D19*
X225245000Y-89140000D03*
D11*
X135000000Y-147450000D03*
D14*
X80000000Y-50500000D03*
X80000000Y-44000000D03*
X84500000Y-50500000D03*
X84500000Y-44000000D03*
D17*
X158120000Y-88620000D03*
D15*
X163620000Y-88620000D03*
D16*
X163120000Y-84870000D03*
D15*
X152620000Y-88620000D03*
D16*
X158120000Y-82670000D03*
D19*
X154845000Y-82670000D03*
D18*
X158120000Y-94520000D03*
X153120000Y-92420000D03*
D19*
X166395000Y-84870000D03*
D20*
X148250000Y-33750000D03*
X153250000Y-33750000D03*
D21*
X147150000Y-36150000D03*
X154350000Y-36150000D03*
D15*
X138800000Y-69950000D03*
X127800000Y-69950000D03*
D17*
X133300000Y-69950000D03*
D16*
X133300000Y-64000000D03*
X138300000Y-66200000D03*
D19*
X130025000Y-64000000D03*
D18*
X133300000Y-75850000D03*
X128300000Y-73750000D03*
D19*
X141575000Y-66200000D03*
D17*
X188750000Y-59300000D03*
D16*
X188750000Y-53350000D03*
X193750000Y-55550000D03*
D15*
X194250000Y-59300000D03*
X183250000Y-59300000D03*
D18*
X188750000Y-65200000D03*
D19*
X185475000Y-53350000D03*
X197025000Y-55550000D03*
D18*
X183750000Y-63100000D03*
M02*
