%FSLAX45Y45*%
G04 Gerber Fmt 4.5, Leading zero omitted, Abs format (unit mm)*
G04 Created by KiCad (PCBNEW (6.0.6)) date 2022-07-21 01:25:32*
%MOMM*%
%LPD*%
G01*
G04 APERTURE LIST*
%TA.AperFunction,Profile*%
%ADD10C,0.200000*%
%TD*%
%ADD11C,0.200000*%
%ADD12C,0.040000*%
%ADD13C,0.076200*%
%ADD14C,0.110000*%
%ADD15C,0.127000*%
%ADD16C,0.130000*%
G04 APERTURE END LIST*
D10*
X11610000Y-3000000D02*
G75*
G03*
X11460000Y-3150000I0J-150000D01*
G01*
X3500000Y-3000000D02*
X10090000Y-3000000D01*
X10240000Y-6268000D02*
G75*
G03*
X10390000Y-6418000I150000J0D01*
G01*
X3000000Y-15000000D02*
G75*
G03*
X3500000Y-15500000I500000J0D01*
G01*
X10240000Y-3150000D02*
X10240000Y-6268000D01*
X24000000Y-3500000D02*
X24000000Y-15000000D01*
X11460000Y-6268000D02*
X11460000Y-3150000D01*
X10390000Y-6418000D02*
X11310000Y-6418000D01*
X10240000Y-3150000D02*
G75*
G03*
X10090000Y-3000000I-150000J0D01*
G01*
X23500000Y-15500000D02*
X3500000Y-15500000D01*
X3000000Y-15000000D02*
X3000000Y-3500000D01*
X24000000Y-3500000D02*
G75*
G03*
X23500000Y-3000000I-500000J0D01*
G01*
X3500000Y-3000000D02*
G75*
G03*
X3000000Y-3500000I0J-500000D01*
G01*
X11310000Y-6418000D02*
G75*
G03*
X11460000Y-6268000I0J150000D01*
G01*
X23500000Y-15500000D02*
G75*
G03*
X24000000Y-15000000I0J500000D01*
G01*
X11610000Y-3000000D02*
X23500000Y-3000000D01*
D11*
D12*
X3480000Y-4980000D02*
X3520000Y-5020000D01*
X3520000Y-4980000D02*
X3480000Y-5020000D01*
X3480000Y-5980000D02*
X3520000Y-6020000D01*
X3520000Y-5980000D02*
X3480000Y-6020000D01*
X3480000Y-6980000D02*
X3520000Y-7020000D01*
X3520000Y-6980000D02*
X3480000Y-7020000D01*
X3480000Y-7980000D02*
X3520000Y-8020000D01*
X3520000Y-7980000D02*
X3480000Y-8020000D01*
X3480000Y-8980000D02*
X3520000Y-9020000D01*
X3520000Y-8980000D02*
X3480000Y-9020000D01*
X3480000Y-9980000D02*
X3520000Y-10020000D01*
X3520000Y-9980000D02*
X3480000Y-10020000D01*
X3480000Y-10980000D02*
X3520000Y-11020000D01*
X3520000Y-10980000D02*
X3480000Y-11020000D01*
X3480000Y-11980000D02*
X3520000Y-12020000D01*
X3520000Y-11980000D02*
X3480000Y-12020000D01*
X3480000Y-12980000D02*
X3520000Y-13020000D01*
X3520000Y-12980000D02*
X3480000Y-13020000D01*
X3480000Y-13980000D02*
X3520000Y-14020000D01*
X3520000Y-13980000D02*
X3480000Y-14020000D01*
X3980000Y-5480000D02*
X4020000Y-5520000D01*
X4020000Y-5480000D02*
X3980000Y-5520000D01*
X3980000Y-6480000D02*
X4020000Y-6520000D01*
X4020000Y-6480000D02*
X3980000Y-6520000D01*
X3980000Y-7480000D02*
X4020000Y-7520000D01*
X4020000Y-7480000D02*
X3980000Y-7520000D01*
X3980000Y-8480000D02*
X4020000Y-8520000D01*
X4020000Y-8480000D02*
X3980000Y-8520000D01*
X3980000Y-9480000D02*
X4020000Y-9520000D01*
X4020000Y-9480000D02*
X3980000Y-9520000D01*
X3980000Y-10480000D02*
X4020000Y-10520000D01*
X4020000Y-10480000D02*
X3980000Y-10520000D01*
X3980000Y-11480000D02*
X4020000Y-11520000D01*
X4020000Y-11480000D02*
X3980000Y-11520000D01*
X3980000Y-12480000D02*
X4020000Y-12520000D01*
X4020000Y-12480000D02*
X3980000Y-12520000D01*
X3980000Y-13480000D02*
X4020000Y-13520000D01*
X4020000Y-13480000D02*
X3980000Y-13520000D01*
X4480000Y-3980000D02*
X4520000Y-4020000D01*
X4520000Y-3980000D02*
X4480000Y-4020000D01*
X4480000Y-5305000D02*
X4520000Y-5345000D01*
X4520000Y-5305000D02*
X4480000Y-5345000D01*
X4480000Y-5605000D02*
X4520000Y-5645000D01*
X4520000Y-5605000D02*
X4480000Y-5645000D01*
X4480000Y-8980000D02*
X4520000Y-9020000D01*
X4520000Y-8980000D02*
X4480000Y-9020000D01*
X4480000Y-14980000D02*
X4520000Y-15020000D01*
X4520000Y-14980000D02*
X4480000Y-15020000D01*
X4980000Y-3480000D02*
X5020000Y-3520000D01*
X5020000Y-3480000D02*
X4980000Y-3520000D01*
X4980000Y-8480000D02*
X5020000Y-8520000D01*
X5020000Y-8480000D02*
X4980000Y-8520000D01*
X4980000Y-14480000D02*
X5020000Y-14520000D01*
X5020000Y-14480000D02*
X4980000Y-14520000D01*
X5030000Y-5305000D02*
X5070000Y-5345000D01*
X5070000Y-5305000D02*
X5030000Y-5345000D01*
X5480000Y-3980000D02*
X5520000Y-4020000D01*
X5520000Y-3980000D02*
X5480000Y-4020000D01*
X5480000Y-8980000D02*
X5520000Y-9020000D01*
X5520000Y-8980000D02*
X5480000Y-9020000D01*
X5480000Y-14980000D02*
X5520000Y-15020000D01*
X5520000Y-14980000D02*
X5480000Y-15020000D01*
X5855000Y-7930000D02*
X5895000Y-7970000D01*
X5895000Y-7930000D02*
X5855000Y-7970000D01*
X5855000Y-8230000D02*
X5895000Y-8270000D01*
X5895000Y-8230000D02*
X5855000Y-8270000D01*
X5980000Y-3480000D02*
X6020000Y-3520000D01*
X6020000Y-3480000D02*
X5980000Y-3520000D01*
X5980000Y-8480000D02*
X6020000Y-8520000D01*
X6020000Y-8480000D02*
X5980000Y-8520000D01*
X5980000Y-14480000D02*
X6020000Y-14520000D01*
X6020000Y-14480000D02*
X5980000Y-14520000D01*
X6005000Y-5255000D02*
X6045000Y-5295000D01*
X6045000Y-5255000D02*
X6005000Y-5295000D01*
X6005000Y-5605000D02*
X6045000Y-5645000D01*
X6045000Y-5605000D02*
X6005000Y-5645000D01*
X6255000Y-7930000D02*
X6295000Y-7970000D01*
X6295000Y-7930000D02*
X6255000Y-7970000D01*
X6255000Y-8230000D02*
X6295000Y-8270000D01*
X6295000Y-8230000D02*
X6255000Y-8270000D01*
X6455000Y-7705000D02*
X6495000Y-7745000D01*
X6495000Y-7705000D02*
X6455000Y-7745000D01*
X6480000Y-3980000D02*
X6520000Y-4020000D01*
X6520000Y-3980000D02*
X6480000Y-4020000D01*
X6480000Y-6005000D02*
X6520000Y-6045000D01*
X6520000Y-6005000D02*
X6480000Y-6045000D01*
X6480000Y-8980000D02*
X6520000Y-9020000D01*
X6520000Y-8980000D02*
X6480000Y-9020000D01*
X6480000Y-14980000D02*
X6520000Y-15020000D01*
X6520000Y-14980000D02*
X6480000Y-15020000D01*
X6730000Y-5605000D02*
X6770000Y-5645000D01*
X6770000Y-5605000D02*
X6730000Y-5645000D01*
X6780000Y-6005000D02*
X6820000Y-6045000D01*
X6820000Y-6005000D02*
X6780000Y-6045000D01*
X6905000Y-5230000D02*
X6945000Y-5270000D01*
X6945000Y-5230000D02*
X6905000Y-5270000D01*
X6980000Y-3480000D02*
X7020000Y-3520000D01*
X7020000Y-3480000D02*
X6980000Y-3520000D01*
X6980000Y-8480000D02*
X7020000Y-8520000D01*
X7020000Y-8480000D02*
X6980000Y-8520000D01*
X6980000Y-14480000D02*
X7020000Y-14520000D01*
X7020000Y-14480000D02*
X6980000Y-14520000D01*
X7130000Y-5630000D02*
X7170000Y-5670000D01*
X7170000Y-5630000D02*
X7130000Y-5670000D01*
X7480000Y-3980000D02*
X7520000Y-4020000D01*
X7520000Y-3980000D02*
X7480000Y-4020000D01*
X7480000Y-8980000D02*
X7520000Y-9020000D01*
X7520000Y-8980000D02*
X7480000Y-9020000D01*
X7480000Y-14980000D02*
X7520000Y-15020000D01*
X7520000Y-14980000D02*
X7480000Y-15020000D01*
X7780000Y-5180000D02*
X7820000Y-5220000D01*
X7820000Y-5180000D02*
X7780000Y-5220000D01*
X7780000Y-5655000D02*
X7820000Y-5695000D01*
X7820000Y-5655000D02*
X7780000Y-5695000D01*
X7980000Y-3480000D02*
X8020000Y-3520000D01*
X8020000Y-3480000D02*
X7980000Y-3520000D01*
X7980000Y-8480000D02*
X8020000Y-8520000D01*
X8020000Y-8480000D02*
X7980000Y-8520000D01*
X7980000Y-14480000D02*
X8020000Y-14520000D01*
X8020000Y-14480000D02*
X7980000Y-14520000D01*
X8480000Y-3980000D02*
X8520000Y-4020000D01*
X8520000Y-3980000D02*
X8480000Y-4020000D01*
X8480000Y-8980000D02*
X8520000Y-9020000D01*
X8520000Y-8980000D02*
X8480000Y-9020000D01*
X8480000Y-14980000D02*
X8520000Y-15020000D01*
X8520000Y-14980000D02*
X8480000Y-15020000D01*
X8705000Y-7855000D02*
X8745000Y-7895000D01*
X8745000Y-7855000D02*
X8705000Y-7895000D01*
X8705000Y-8155000D02*
X8745000Y-8195000D01*
X8745000Y-8155000D02*
X8705000Y-8195000D01*
X8805000Y-3855000D02*
X8845000Y-3895000D01*
X8845000Y-3855000D02*
X8805000Y-3895000D01*
X8980000Y-3480000D02*
X9020000Y-3520000D01*
X9020000Y-3480000D02*
X8980000Y-3520000D01*
X8980000Y-8480000D02*
X9020000Y-8520000D01*
X9020000Y-8480000D02*
X8980000Y-8520000D01*
X8980000Y-14480000D02*
X9020000Y-14520000D01*
X9020000Y-14480000D02*
X8980000Y-14520000D01*
X9005000Y-5655000D02*
X9045000Y-5695000D01*
X9045000Y-5655000D02*
X9005000Y-5695000D01*
X9130000Y-4005000D02*
X9170000Y-4045000D01*
X9170000Y-4005000D02*
X9130000Y-4045000D01*
X9130000Y-7405000D02*
X9170000Y-7445000D01*
X9170000Y-7405000D02*
X9130000Y-7445000D01*
X9155000Y-6730000D02*
X9195000Y-6770000D01*
X9195000Y-6730000D02*
X9155000Y-6770000D01*
X9205000Y-7805000D02*
X9245000Y-7845000D01*
X9245000Y-7805000D02*
X9205000Y-7845000D01*
X9205000Y-9030000D02*
X9245000Y-9070000D01*
X9245000Y-9030000D02*
X9205000Y-9070000D01*
X9255000Y-6205000D02*
X9295000Y-6245000D01*
X9295000Y-6205000D02*
X9255000Y-6245000D01*
X9405000Y-3155000D02*
X9445000Y-3195000D01*
X9445000Y-3155000D02*
X9405000Y-3195000D01*
X9480000Y-3980000D02*
X9520000Y-4020000D01*
X9520000Y-3980000D02*
X9480000Y-4020000D01*
X9480000Y-9980000D02*
X9520000Y-10020000D01*
X9520000Y-9980000D02*
X9480000Y-10020000D01*
X9480000Y-10980000D02*
X9520000Y-11020000D01*
X9520000Y-10980000D02*
X9480000Y-11020000D01*
X9480000Y-11980000D02*
X9520000Y-12020000D01*
X9520000Y-11980000D02*
X9480000Y-12020000D01*
X9480000Y-12980000D02*
X9520000Y-13020000D01*
X9520000Y-12980000D02*
X9480000Y-13020000D01*
X9480000Y-13980000D02*
X9520000Y-14020000D01*
X9520000Y-13980000D02*
X9480000Y-14020000D01*
X9480000Y-14980000D02*
X9520000Y-15020000D01*
X9520000Y-14980000D02*
X9480000Y-15020000D01*
X9505000Y-6730000D02*
X9545000Y-6770000D01*
X9545000Y-6730000D02*
X9505000Y-6770000D01*
X9505000Y-7805000D02*
X9545000Y-7845000D01*
X9545000Y-7805000D02*
X9505000Y-7845000D01*
X9505000Y-9030000D02*
X9545000Y-9070000D01*
X9545000Y-9030000D02*
X9505000Y-9070000D01*
X9530000Y-7405000D02*
X9570000Y-7445000D01*
X9570000Y-7405000D02*
X9530000Y-7445000D01*
X9605000Y-3555000D02*
X9645000Y-3595000D01*
X9645000Y-3555000D02*
X9605000Y-3595000D01*
X9830000Y-5630000D02*
X9870000Y-5670000D01*
X9870000Y-5630000D02*
X9830000Y-5670000D01*
X9855000Y-3105000D02*
X9895000Y-3145000D01*
X9895000Y-3105000D02*
X9855000Y-3145000D01*
X9855000Y-3555000D02*
X9895000Y-3595000D01*
X9895000Y-3555000D02*
X9855000Y-3595000D01*
X9855000Y-6430000D02*
X9895000Y-6470000D01*
X9895000Y-6430000D02*
X9855000Y-6470000D01*
X9980000Y-9205000D02*
X10020000Y-9245000D01*
X10020000Y-9205000D02*
X9980000Y-9245000D01*
X9980000Y-10480000D02*
X10020000Y-10520000D01*
X10020000Y-10480000D02*
X9980000Y-10520000D01*
X9980000Y-11480000D02*
X10020000Y-11520000D01*
X10020000Y-11480000D02*
X9980000Y-11520000D01*
X9980000Y-12480000D02*
X10020000Y-12520000D01*
X10020000Y-12480000D02*
X9980000Y-12520000D01*
X9980000Y-13480000D02*
X10020000Y-13520000D01*
X10020000Y-13480000D02*
X9980000Y-13520000D01*
X9980000Y-14480000D02*
X10020000Y-14520000D01*
X10020000Y-14480000D02*
X9980000Y-14520000D01*
X10405000Y-12455000D02*
X10445000Y-12495000D01*
X10445000Y-12455000D02*
X10405000Y-12495000D01*
X10405000Y-14455000D02*
X10445000Y-14495000D01*
X10445000Y-14455000D02*
X10405000Y-14495000D01*
X10480000Y-14980000D02*
X10520000Y-15020000D01*
X10520000Y-14980000D02*
X10480000Y-15020000D01*
X10930000Y-14755000D02*
X10970000Y-14795000D01*
X10970000Y-14755000D02*
X10930000Y-14795000D01*
X10980000Y-14480000D02*
X11020000Y-14520000D01*
X11020000Y-14480000D02*
X10980000Y-14520000D01*
X11480000Y-14980000D02*
X11520000Y-15020000D01*
X11520000Y-14980000D02*
X11480000Y-15020000D01*
X11630000Y-6680000D02*
X11670000Y-6720000D01*
X11670000Y-6680000D02*
X11630000Y-6720000D01*
X11655000Y-7430000D02*
X11695000Y-7470000D01*
X11695000Y-7430000D02*
X11655000Y-7470000D01*
X11655000Y-10705000D02*
X11695000Y-10745000D01*
X11695000Y-10705000D02*
X11655000Y-10745000D01*
X11805000Y-5280000D02*
X11845000Y-5320000D01*
X11845000Y-5280000D02*
X11805000Y-5320000D01*
X11805000Y-5855000D02*
X11845000Y-5895000D01*
X11845000Y-5855000D02*
X11805000Y-5895000D01*
X11855000Y-3155000D02*
X11895000Y-3195000D01*
X11895000Y-3155000D02*
X11855000Y-3195000D01*
X11855000Y-11005000D02*
X11895000Y-11045000D01*
X11895000Y-11005000D02*
X11855000Y-11045000D01*
X11980000Y-3480000D02*
X12020000Y-3520000D01*
X12020000Y-3480000D02*
X11980000Y-3520000D01*
X11980000Y-14480000D02*
X12020000Y-14520000D01*
X12020000Y-14480000D02*
X11980000Y-14520000D01*
X12030000Y-7805000D02*
X12070000Y-7845000D01*
X12070000Y-7805000D02*
X12030000Y-7845000D01*
X12030000Y-10705000D02*
X12070000Y-10745000D01*
X12070000Y-10705000D02*
X12030000Y-10745000D01*
X12055000Y-4155000D02*
X12095000Y-4195000D01*
X12095000Y-4155000D02*
X12055000Y-4195000D01*
X12080000Y-7430000D02*
X12120000Y-7470000D01*
X12120000Y-7430000D02*
X12080000Y-7470000D01*
X12105000Y-6680000D02*
X12145000Y-6720000D01*
X12145000Y-6680000D02*
X12105000Y-6720000D01*
X12380000Y-4630000D02*
X12420000Y-4670000D01*
X12420000Y-4630000D02*
X12380000Y-4670000D01*
X12480000Y-3980000D02*
X12520000Y-4020000D01*
X12520000Y-3980000D02*
X12480000Y-4020000D01*
X12480000Y-10980000D02*
X12520000Y-11020000D01*
X12520000Y-10980000D02*
X12480000Y-11020000D01*
X12480000Y-14980000D02*
X12520000Y-15020000D01*
X12520000Y-14980000D02*
X12480000Y-15020000D01*
X12655000Y-8005000D02*
X12695000Y-8045000D01*
X12695000Y-8005000D02*
X12655000Y-8045000D01*
X12980000Y-3480000D02*
X13020000Y-3520000D01*
X13020000Y-3480000D02*
X12980000Y-3520000D01*
X12980000Y-14480000D02*
X13020000Y-14520000D01*
X13020000Y-14480000D02*
X12980000Y-14520000D01*
X13480000Y-4155000D02*
X13520000Y-4195000D01*
X13520000Y-4155000D02*
X13480000Y-4195000D01*
X13480000Y-4630000D02*
X13520000Y-4670000D01*
X13520000Y-4630000D02*
X13480000Y-4670000D01*
X13480000Y-10980000D02*
X13520000Y-11020000D01*
X13520000Y-10980000D02*
X13480000Y-11020000D01*
X13480000Y-11980000D02*
X13520000Y-12020000D01*
X13520000Y-11980000D02*
X13480000Y-12020000D01*
X13480000Y-12980000D02*
X13520000Y-13020000D01*
X13520000Y-12980000D02*
X13480000Y-13020000D01*
X13480000Y-13980000D02*
X13520000Y-14020000D01*
X13520000Y-13980000D02*
X13480000Y-14020000D01*
X13580000Y-5330000D02*
X13620000Y-5370000D01*
X13620000Y-5330000D02*
X13580000Y-5370000D01*
X13755000Y-5880000D02*
X13795000Y-5920000D01*
X13795000Y-5880000D02*
X13755000Y-5920000D01*
X13980000Y-3480000D02*
X14020000Y-3520000D01*
X14020000Y-3480000D02*
X13980000Y-3520000D01*
X13980000Y-10480000D02*
X14020000Y-10520000D01*
X14020000Y-10480000D02*
X13980000Y-10520000D01*
X13980000Y-11480000D02*
X14020000Y-11520000D01*
X14020000Y-11480000D02*
X13980000Y-11520000D01*
X13980000Y-12480000D02*
X14020000Y-12520000D01*
X14020000Y-12480000D02*
X13980000Y-12520000D01*
X13980000Y-13480000D02*
X14020000Y-13520000D01*
X14020000Y-13480000D02*
X13980000Y-13520000D01*
X13980000Y-14480000D02*
X14020000Y-14520000D01*
X14020000Y-14480000D02*
X13980000Y-14520000D01*
X14455000Y-6530000D02*
X14495000Y-6570000D01*
X14495000Y-6530000D02*
X14455000Y-6570000D01*
X14455000Y-7455000D02*
X14495000Y-7495000D01*
X14495000Y-7455000D02*
X14455000Y-7495000D01*
X14480000Y-3980000D02*
X14520000Y-4020000D01*
X14520000Y-3980000D02*
X14480000Y-4020000D01*
X14480000Y-9980000D02*
X14520000Y-10020000D01*
X14520000Y-9980000D02*
X14480000Y-10020000D01*
X14480000Y-10980000D02*
X14520000Y-11020000D01*
X14520000Y-10980000D02*
X14480000Y-11020000D01*
X14480000Y-11980000D02*
X14520000Y-12020000D01*
X14520000Y-11980000D02*
X14480000Y-12020000D01*
X14480000Y-12980000D02*
X14520000Y-13020000D01*
X14520000Y-12980000D02*
X14480000Y-13020000D01*
X14480000Y-13980000D02*
X14520000Y-14020000D01*
X14520000Y-13980000D02*
X14480000Y-14020000D01*
X14480000Y-14980000D02*
X14520000Y-15020000D01*
X14520000Y-14980000D02*
X14480000Y-15020000D01*
X14530000Y-7830000D02*
X14570000Y-7870000D01*
X14570000Y-7830000D02*
X14530000Y-7870000D01*
X14555000Y-9530000D02*
X14595000Y-9570000D01*
X14595000Y-9530000D02*
X14555000Y-9570000D01*
X14680000Y-4155000D02*
X14720000Y-4195000D01*
X14720000Y-4155000D02*
X14680000Y-4195000D01*
X14680000Y-4630000D02*
X14720000Y-4670000D01*
X14720000Y-4630000D02*
X14680000Y-4670000D01*
X14705000Y-6230000D02*
X14745000Y-6270000D01*
X14745000Y-6230000D02*
X14705000Y-6270000D01*
X14730000Y-6705000D02*
X14770000Y-6745000D01*
X14770000Y-6705000D02*
X14730000Y-6745000D01*
X14855000Y-3955000D02*
X14895000Y-3995000D01*
X14895000Y-3955000D02*
X14855000Y-3995000D01*
X14855000Y-9830000D02*
X14895000Y-9870000D01*
X14895000Y-9830000D02*
X14855000Y-9870000D01*
X14980000Y-10480000D02*
X15020000Y-10520000D01*
X15020000Y-10480000D02*
X14980000Y-10520000D01*
X14980000Y-11480000D02*
X15020000Y-11520000D01*
X15020000Y-11480000D02*
X14980000Y-11520000D01*
X14980000Y-12480000D02*
X15020000Y-12520000D01*
X15020000Y-12480000D02*
X14980000Y-12520000D01*
X14980000Y-13480000D02*
X15020000Y-13520000D01*
X15020000Y-13480000D02*
X14980000Y-13520000D01*
X14980000Y-14480000D02*
X15020000Y-14520000D01*
X15020000Y-14480000D02*
X14980000Y-14520000D01*
X15105000Y-4180000D02*
X15145000Y-4220000D01*
X15145000Y-4180000D02*
X15105000Y-4220000D01*
X15155000Y-9830000D02*
X15195000Y-9870000D01*
X15195000Y-9830000D02*
X15155000Y-9870000D01*
X15355000Y-6805000D02*
X15395000Y-6845000D01*
X15395000Y-6805000D02*
X15355000Y-6845000D01*
X15480000Y-3980000D02*
X15520000Y-4020000D01*
X15520000Y-3980000D02*
X15480000Y-4020000D01*
X15480000Y-10980000D02*
X15520000Y-11020000D01*
X15520000Y-10980000D02*
X15480000Y-11020000D01*
X15480000Y-13980000D02*
X15520000Y-14020000D01*
X15520000Y-13980000D02*
X15480000Y-14020000D01*
X15480000Y-14980000D02*
X15520000Y-15020000D01*
X15520000Y-14980000D02*
X15480000Y-15020000D01*
X15980000Y-3480000D02*
X16020000Y-3520000D01*
X16020000Y-3480000D02*
X15980000Y-3520000D01*
X15980000Y-10480000D02*
X16020000Y-10520000D01*
X16020000Y-10480000D02*
X15980000Y-10520000D01*
X15980000Y-14480000D02*
X16020000Y-14520000D01*
X16020000Y-14480000D02*
X15980000Y-14520000D01*
X16280000Y-4205000D02*
X16320000Y-4245000D01*
X16320000Y-4205000D02*
X16280000Y-4245000D01*
X16280000Y-4655000D02*
X16320000Y-4695000D01*
X16320000Y-4655000D02*
X16280000Y-4695000D01*
X16480000Y-3980000D02*
X16520000Y-4020000D01*
X16520000Y-3980000D02*
X16480000Y-4020000D01*
X16480000Y-9980000D02*
X16520000Y-10020000D01*
X16520000Y-9980000D02*
X16480000Y-10020000D01*
X16480000Y-10980000D02*
X16520000Y-11020000D01*
X16520000Y-10980000D02*
X16480000Y-11020000D01*
X16480000Y-14980000D02*
X16520000Y-15020000D01*
X16520000Y-14980000D02*
X16480000Y-15020000D01*
X16730000Y-4205000D02*
X16770000Y-4245000D01*
X16770000Y-4205000D02*
X16730000Y-4245000D01*
X16730000Y-4530000D02*
X16770000Y-4570000D01*
X16770000Y-4530000D02*
X16730000Y-4570000D01*
X16980000Y-3480000D02*
X17020000Y-3520000D01*
X17020000Y-3480000D02*
X16980000Y-3520000D01*
X16980000Y-10480000D02*
X17020000Y-10520000D01*
X17020000Y-10480000D02*
X16980000Y-10520000D01*
X16980000Y-14480000D02*
X17020000Y-14520000D01*
X17020000Y-14480000D02*
X16980000Y-14520000D01*
X17105000Y-5455000D02*
X17145000Y-5495000D01*
X17145000Y-5455000D02*
X17105000Y-5495000D01*
X17105000Y-6530000D02*
X17145000Y-6570000D01*
X17145000Y-6530000D02*
X17105000Y-6570000D01*
X17430000Y-6955000D02*
X17470000Y-6995000D01*
X17470000Y-6955000D02*
X17430000Y-6995000D01*
X17455000Y-9405000D02*
X17495000Y-9445000D01*
X17495000Y-9405000D02*
X17455000Y-9445000D01*
X17480000Y-3980000D02*
X17520000Y-4020000D01*
X17520000Y-3980000D02*
X17480000Y-4020000D01*
X17480000Y-5455000D02*
X17520000Y-5495000D01*
X17520000Y-5455000D02*
X17480000Y-5495000D01*
X17480000Y-6530000D02*
X17520000Y-6570000D01*
X17520000Y-6530000D02*
X17480000Y-6570000D01*
X17480000Y-9980000D02*
X17520000Y-10020000D01*
X17520000Y-9980000D02*
X17480000Y-10020000D01*
X17480000Y-10980000D02*
X17520000Y-11020000D01*
X17520000Y-10980000D02*
X17480000Y-11020000D01*
X17480000Y-14980000D02*
X17520000Y-15020000D01*
X17520000Y-14980000D02*
X17480000Y-15020000D01*
X17855000Y-6905000D02*
X17895000Y-6945000D01*
X17895000Y-6905000D02*
X17855000Y-6945000D01*
X17855000Y-9805000D02*
X17895000Y-9845000D01*
X17895000Y-9805000D02*
X17855000Y-9845000D01*
X17980000Y-3480000D02*
X18020000Y-3520000D01*
X18020000Y-3480000D02*
X17980000Y-3520000D01*
X17980000Y-10480000D02*
X18020000Y-10520000D01*
X18020000Y-10480000D02*
X17980000Y-10520000D01*
X17980000Y-14480000D02*
X18020000Y-14520000D01*
X18020000Y-14480000D02*
X17980000Y-14520000D01*
X18205000Y-6905000D02*
X18245000Y-6945000D01*
X18245000Y-6905000D02*
X18205000Y-6945000D01*
X18205000Y-9805000D02*
X18245000Y-9845000D01*
X18245000Y-9805000D02*
X18205000Y-9845000D01*
X18480000Y-3980000D02*
X18520000Y-4020000D01*
X18520000Y-3980000D02*
X18480000Y-4020000D01*
X18480000Y-9980000D02*
X18520000Y-10020000D01*
X18520000Y-9980000D02*
X18480000Y-10020000D01*
X18480000Y-10980000D02*
X18520000Y-11020000D01*
X18520000Y-10980000D02*
X18480000Y-11020000D01*
X18480000Y-14980000D02*
X18520000Y-15020000D01*
X18520000Y-14980000D02*
X18480000Y-15020000D01*
X18980000Y-3480000D02*
X19020000Y-3520000D01*
X19020000Y-3480000D02*
X18980000Y-3520000D01*
X18980000Y-10480000D02*
X19020000Y-10520000D01*
X19020000Y-10480000D02*
X18980000Y-10520000D01*
X18980000Y-14480000D02*
X19020000Y-14520000D01*
X19020000Y-14480000D02*
X18980000Y-14520000D01*
X19005000Y-4205000D02*
X19045000Y-4245000D01*
X19045000Y-4205000D02*
X19005000Y-4245000D01*
X19005000Y-4555000D02*
X19045000Y-4595000D01*
X19045000Y-4555000D02*
X19005000Y-4595000D01*
X19480000Y-3980000D02*
X19520000Y-4020000D01*
X19520000Y-3980000D02*
X19480000Y-4020000D01*
X19480000Y-9980000D02*
X19520000Y-10020000D01*
X19520000Y-9980000D02*
X19480000Y-10020000D01*
X19480000Y-10980000D02*
X19520000Y-11020000D01*
X19520000Y-10980000D02*
X19480000Y-11020000D01*
X19480000Y-14980000D02*
X19520000Y-15020000D01*
X19520000Y-14980000D02*
X19480000Y-15020000D01*
X19980000Y-3480000D02*
X20020000Y-3520000D01*
X20020000Y-3480000D02*
X19980000Y-3520000D01*
X19980000Y-10480000D02*
X20020000Y-10520000D01*
X20020000Y-10480000D02*
X19980000Y-10520000D01*
X19980000Y-14480000D02*
X20020000Y-14520000D01*
X20020000Y-14480000D02*
X19980000Y-14520000D01*
X20005000Y-7055000D02*
X20045000Y-7095000D01*
X20045000Y-7055000D02*
X20005000Y-7095000D01*
X20030000Y-5555000D02*
X20070000Y-5595000D01*
X20070000Y-5555000D02*
X20030000Y-5595000D01*
X20330000Y-7455000D02*
X20370000Y-7495000D01*
X20370000Y-7455000D02*
X20330000Y-7495000D01*
X20330000Y-10105000D02*
X20370000Y-10145000D01*
X20370000Y-10105000D02*
X20330000Y-10145000D01*
X20380000Y-5555000D02*
X20420000Y-5595000D01*
X20420000Y-5555000D02*
X20380000Y-5595000D01*
X20405000Y-7055000D02*
X20445000Y-7095000D01*
X20445000Y-7055000D02*
X20405000Y-7095000D01*
X20480000Y-3980000D02*
X20520000Y-4020000D01*
X20520000Y-3980000D02*
X20480000Y-4020000D01*
X20480000Y-10980000D02*
X20520000Y-11020000D01*
X20520000Y-10980000D02*
X20480000Y-11020000D01*
X20480000Y-14980000D02*
X20520000Y-15020000D01*
X20520000Y-14980000D02*
X20480000Y-15020000D01*
X20555000Y-10305000D02*
X20595000Y-10345000D01*
X20595000Y-10305000D02*
X20555000Y-10345000D01*
X20655000Y-7305000D02*
X20695000Y-7345000D01*
X20695000Y-7305000D02*
X20655000Y-7345000D01*
X20980000Y-3480000D02*
X21020000Y-3520000D01*
X21020000Y-3480000D02*
X20980000Y-3520000D01*
X20980000Y-14480000D02*
X21020000Y-14520000D01*
X21020000Y-14480000D02*
X20980000Y-14520000D01*
X21005000Y-10305000D02*
X21045000Y-10345000D01*
X21045000Y-10305000D02*
X21005000Y-10345000D01*
X21080000Y-7305000D02*
X21120000Y-7345000D01*
X21120000Y-7305000D02*
X21080000Y-7345000D01*
X21480000Y-3980000D02*
X21520000Y-4020000D01*
X21520000Y-3980000D02*
X21480000Y-4020000D01*
X21480000Y-10980000D02*
X21520000Y-11020000D01*
X21520000Y-10980000D02*
X21480000Y-11020000D01*
X21480000Y-14980000D02*
X21520000Y-15020000D01*
X21520000Y-14980000D02*
X21480000Y-15020000D01*
X21980000Y-3480000D02*
X22020000Y-3520000D01*
X22020000Y-3480000D02*
X21980000Y-3520000D01*
X21980000Y-10480000D02*
X22020000Y-10520000D01*
X22020000Y-10480000D02*
X21980000Y-10520000D01*
X21980000Y-14480000D02*
X22020000Y-14520000D01*
X22020000Y-14480000D02*
X21980000Y-14520000D01*
X22480000Y-3980000D02*
X22520000Y-4020000D01*
X22520000Y-3980000D02*
X22480000Y-4020000D01*
X22480000Y-10980000D02*
X22520000Y-11020000D01*
X22520000Y-10980000D02*
X22480000Y-11020000D01*
X22480000Y-13980000D02*
X22520000Y-14020000D01*
X22520000Y-13980000D02*
X22480000Y-14020000D01*
X22480000Y-14980000D02*
X22520000Y-15020000D01*
X22520000Y-14980000D02*
X22480000Y-15020000D01*
X22980000Y-4480000D02*
X23020000Y-4520000D01*
X23020000Y-4480000D02*
X22980000Y-4520000D01*
X22980000Y-5480000D02*
X23020000Y-5520000D01*
X23020000Y-5480000D02*
X22980000Y-5520000D01*
X22980000Y-6480000D02*
X23020000Y-6520000D01*
X23020000Y-6480000D02*
X22980000Y-6520000D01*
X22980000Y-7480000D02*
X23020000Y-7520000D01*
X23020000Y-7480000D02*
X22980000Y-7520000D01*
X22980000Y-8480000D02*
X23020000Y-8520000D01*
X23020000Y-8480000D02*
X22980000Y-8520000D01*
X22980000Y-9480000D02*
X23020000Y-9520000D01*
X23020000Y-9480000D02*
X22980000Y-9520000D01*
X22980000Y-10480000D02*
X23020000Y-10520000D01*
X23020000Y-10480000D02*
X22980000Y-10520000D01*
X22980000Y-11480000D02*
X23020000Y-11520000D01*
X23020000Y-11480000D02*
X22980000Y-11520000D01*
X22980000Y-12480000D02*
X23020000Y-12520000D01*
X23020000Y-12480000D02*
X22980000Y-12520000D01*
X22980000Y-13480000D02*
X23020000Y-13520000D01*
X23020000Y-13480000D02*
X22980000Y-13520000D01*
X23480000Y-4980000D02*
X23520000Y-5020000D01*
X23520000Y-4980000D02*
X23480000Y-5020000D01*
X23480000Y-5980000D02*
X23520000Y-6020000D01*
X23520000Y-5980000D02*
X23480000Y-6020000D01*
X23480000Y-6980000D02*
X23520000Y-7020000D01*
X23520000Y-6980000D02*
X23480000Y-7020000D01*
X23480000Y-7980000D02*
X23520000Y-8020000D01*
X23520000Y-7980000D02*
X23480000Y-8020000D01*
X23480000Y-8980000D02*
X23520000Y-9020000D01*
X23520000Y-8980000D02*
X23480000Y-9020000D01*
X23480000Y-9980000D02*
X23520000Y-10020000D01*
X23520000Y-9980000D02*
X23480000Y-10020000D01*
X23480000Y-10980000D02*
X23520000Y-11020000D01*
X23520000Y-10980000D02*
X23480000Y-11020000D01*
X23480000Y-11980000D02*
X23520000Y-12020000D01*
X23520000Y-11980000D02*
X23480000Y-12020000D01*
X23480000Y-12980000D02*
X23520000Y-13020000D01*
X23520000Y-12980000D02*
X23480000Y-13020000D01*
X23480000Y-13980000D02*
X23520000Y-14020000D01*
X23520000Y-13980000D02*
X23480000Y-14020000D01*
D13*
X14863100Y-3375000D02*
G75*
G03*
X14863100Y-3375000I-38100J0D01*
G01*
X15363100Y-3375000D02*
G75*
G03*
X15363100Y-3375000I-38100J0D01*
G01*
D14*
X4000000Y-4345000D02*
X4000000Y-4455000D01*
X3945000Y-4400000D02*
X4055000Y-4400000D01*
X4000000Y-4995000D02*
X4000000Y-5105000D01*
X3945000Y-5050000D02*
X4055000Y-5050000D01*
X4450000Y-4345000D02*
X4450000Y-4455000D01*
X4395000Y-4400000D02*
X4505000Y-4400000D01*
X4450000Y-4995000D02*
X4450000Y-5105000D01*
X4395000Y-5050000D02*
X4505000Y-5050000D01*
X5000000Y-4345000D02*
X5000000Y-4455000D01*
X4945000Y-4400000D02*
X5055000Y-4400000D01*
X5000000Y-4995000D02*
X5000000Y-5105000D01*
X4945000Y-5050000D02*
X5055000Y-5050000D01*
X5450000Y-4345000D02*
X5450000Y-4455000D01*
X5395000Y-4400000D02*
X5505000Y-4400000D01*
X5450000Y-4995000D02*
X5450000Y-5105000D01*
X5395000Y-5050000D02*
X5505000Y-5050000D01*
X6000000Y-4345000D02*
X6000000Y-4455000D01*
X5945000Y-4400000D02*
X6055000Y-4400000D01*
X6000000Y-4995000D02*
X6000000Y-5105000D01*
X5945000Y-5050000D02*
X6055000Y-5050000D01*
X6450000Y-4345000D02*
X6450000Y-4455000D01*
X6395000Y-4400000D02*
X6505000Y-4400000D01*
X6450000Y-4995000D02*
X6450000Y-5105000D01*
X6395000Y-5050000D02*
X6505000Y-5050000D01*
X7000000Y-4345000D02*
X7000000Y-4455000D01*
X6945000Y-4400000D02*
X7055000Y-4400000D01*
X7000000Y-4995000D02*
X7000000Y-5105000D01*
X6945000Y-5050000D02*
X7055000Y-5050000D01*
X7450000Y-4345000D02*
X7450000Y-4455000D01*
X7395000Y-4400000D02*
X7505000Y-4400000D01*
X7450000Y-4995000D02*
X7450000Y-5105000D01*
X7395000Y-5050000D02*
X7505000Y-5050000D01*
X8000000Y-4345000D02*
X8000000Y-4455000D01*
X7945000Y-4400000D02*
X8055000Y-4400000D01*
X8000000Y-4995000D02*
X8000000Y-5105000D01*
X7945000Y-5050000D02*
X8055000Y-5050000D01*
X8450000Y-4345000D02*
X8450000Y-4455000D01*
X8395000Y-4400000D02*
X8505000Y-4400000D01*
X8450000Y-4995000D02*
X8450000Y-5105000D01*
X8395000Y-5050000D02*
X8505000Y-5050000D01*
X9000000Y-4345000D02*
X9000000Y-4455000D01*
X8945000Y-4400000D02*
X9055000Y-4400000D01*
X9000000Y-4995000D02*
X9000000Y-5105000D01*
X8945000Y-5050000D02*
X9055000Y-5050000D01*
X9450000Y-4345000D02*
X9450000Y-4455000D01*
X9395000Y-4400000D02*
X9505000Y-4400000D01*
X9450000Y-4995000D02*
X9450000Y-5105000D01*
X9395000Y-5050000D02*
X9505000Y-5050000D01*
X10088000Y-3375000D02*
X10088000Y-3485000D01*
X10033000Y-3430000D02*
X10143000Y-3430000D01*
X10088000Y-3629000D02*
X10088000Y-3739000D01*
X10033000Y-3684000D02*
X10143000Y-3684000D01*
X10088000Y-3883000D02*
X10088000Y-3993000D01*
X10033000Y-3938000D02*
X10143000Y-3938000D01*
X10088000Y-4137000D02*
X10088000Y-4247000D01*
X10033000Y-4192000D02*
X10143000Y-4192000D01*
X10088000Y-4391000D02*
X10088000Y-4501000D01*
X10033000Y-4446000D02*
X10143000Y-4446000D01*
X10088000Y-4645000D02*
X10088000Y-4755000D01*
X10033000Y-4700000D02*
X10143000Y-4700000D01*
X10088000Y-4899000D02*
X10088000Y-5009000D01*
X10033000Y-4954000D02*
X10143000Y-4954000D01*
X10088000Y-5153000D02*
X10088000Y-5263000D01*
X10033000Y-5208000D02*
X10143000Y-5208000D01*
X10088000Y-5407000D02*
X10088000Y-5517000D01*
X10033000Y-5462000D02*
X10143000Y-5462000D01*
X10088000Y-5661000D02*
X10088000Y-5771000D01*
X10033000Y-5716000D02*
X10143000Y-5716000D01*
X10088000Y-5915000D02*
X10088000Y-6025000D01*
X10033000Y-5970000D02*
X10143000Y-5970000D01*
X10088000Y-6169000D02*
X10088000Y-6279000D01*
X10033000Y-6224000D02*
X10143000Y-6224000D01*
X11612000Y-3375000D02*
X11612000Y-3485000D01*
X11557000Y-3430000D02*
X11667000Y-3430000D01*
X11612000Y-3629000D02*
X11612000Y-3739000D01*
X11557000Y-3684000D02*
X11667000Y-3684000D01*
X11612000Y-3883000D02*
X11612000Y-3993000D01*
X11557000Y-3938000D02*
X11667000Y-3938000D01*
X11612000Y-4137000D02*
X11612000Y-4247000D01*
X11557000Y-4192000D02*
X11667000Y-4192000D01*
X11612000Y-4391000D02*
X11612000Y-4501000D01*
X11557000Y-4446000D02*
X11667000Y-4446000D01*
X11612000Y-4645000D02*
X11612000Y-4755000D01*
X11557000Y-4700000D02*
X11667000Y-4700000D01*
X11612000Y-4899000D02*
X11612000Y-5009000D01*
X11557000Y-4954000D02*
X11667000Y-4954000D01*
X11612000Y-5153000D02*
X11612000Y-5263000D01*
X11557000Y-5208000D02*
X11667000Y-5208000D01*
X11612000Y-5407000D02*
X11612000Y-5517000D01*
X11557000Y-5462000D02*
X11667000Y-5462000D01*
X11612000Y-5661000D02*
X11612000Y-5771000D01*
X11557000Y-5716000D02*
X11667000Y-5716000D01*
X11612000Y-5915000D02*
X11612000Y-6025000D01*
X11557000Y-5970000D02*
X11667000Y-5970000D01*
X11612000Y-6169000D02*
X11612000Y-6279000D01*
X11557000Y-6224000D02*
X11667000Y-6224000D01*
D15*
X4744902Y-7324902D02*
X4744902Y-7235098D01*
X4655098Y-7235098D01*
X4655098Y-7324902D01*
X4744902Y-7324902D01*
X5244902Y-7534902D02*
X5244902Y-7445098D01*
X5155098Y-7445098D01*
X5155098Y-7534902D01*
X5244902Y-7534902D01*
X7606902Y-7324902D02*
X7606902Y-7235098D01*
X7517098Y-7235098D01*
X7517098Y-7324902D01*
X7606902Y-7324902D01*
X8106902Y-7534902D02*
X8106902Y-7445098D01*
X8017098Y-7445098D01*
X8017098Y-7534902D01*
X8106902Y-7534902D01*
X10151902Y-8678902D02*
X10151902Y-8589098D01*
X10062098Y-8589098D01*
X10062098Y-8678902D01*
X10151902Y-8678902D01*
X10651902Y-8888902D02*
X10651902Y-8799098D01*
X10562098Y-8799098D01*
X10562098Y-8888902D01*
X10651902Y-8888902D01*
X11448902Y-13916902D02*
X11448902Y-13827098D01*
X11359098Y-13827098D01*
X11359098Y-13916902D01*
X11448902Y-13916902D01*
X11948902Y-14126902D02*
X11948902Y-14037098D01*
X11859098Y-14037098D01*
X11859098Y-14126902D01*
X11948902Y-14126902D01*
X12658902Y-10430902D02*
X12658902Y-10341098D01*
X12569098Y-10341098D01*
X12569098Y-10430902D01*
X12658902Y-10430902D01*
X12874902Y-7419902D02*
X12874902Y-7330098D01*
X12785098Y-7330098D01*
X12785098Y-7419902D01*
X12874902Y-7419902D01*
X13158902Y-10640902D02*
X13158902Y-10551098D01*
X13069098Y-10551098D01*
X13069098Y-10640902D01*
X13158902Y-10640902D01*
X13374902Y-7629902D02*
X13374902Y-7540098D01*
X13285098Y-7540098D01*
X13285098Y-7629902D01*
X13374902Y-7629902D01*
X15356902Y-9286902D02*
X15356902Y-9197098D01*
X15267098Y-9197098D01*
X15267098Y-9286902D01*
X15356902Y-9286902D01*
X15509902Y-6278902D02*
X15509902Y-6189098D01*
X15420098Y-6189098D01*
X15420098Y-6278902D01*
X15509902Y-6278902D01*
X15856902Y-9496902D02*
X15856902Y-9407098D01*
X15767098Y-9407098D01*
X15767098Y-9496902D01*
X15856902Y-9496902D01*
X16009902Y-6488902D02*
X16009902Y-6399098D01*
X15920098Y-6399098D01*
X15920098Y-6488902D01*
X16009902Y-6488902D01*
X18393902Y-9270902D02*
X18393902Y-9181098D01*
X18304098Y-9181098D01*
X18304098Y-9270902D01*
X18393902Y-9270902D01*
X18419902Y-6354902D02*
X18419902Y-6265098D01*
X18330098Y-6265098D01*
X18330098Y-6354902D01*
X18419902Y-6354902D01*
X18893902Y-9480902D02*
X18893902Y-9391098D01*
X18804098Y-9391098D01*
X18804098Y-9480902D01*
X18893902Y-9480902D01*
X18919902Y-6564902D02*
X18919902Y-6475098D01*
X18830098Y-6475098D01*
X18830098Y-6564902D01*
X18919902Y-6564902D01*
X21241902Y-9713902D02*
X21241902Y-9624098D01*
X21152098Y-9624098D01*
X21152098Y-9713902D01*
X21241902Y-9713902D01*
X21330902Y-6718902D02*
X21330902Y-6629098D01*
X21241098Y-6629098D01*
X21241098Y-6718902D01*
X21330902Y-6718902D01*
X21741902Y-9923902D02*
X21741902Y-9834098D01*
X21652098Y-9834098D01*
X21652098Y-9923902D01*
X21741902Y-9923902D01*
X21830902Y-6928902D02*
X21830902Y-6839098D01*
X21741098Y-6839098D01*
X21741098Y-6928902D01*
X21830902Y-6928902D01*
D16*
X14715000Y-3680000D02*
X14780000Y-3615000D01*
X14715000Y-3550000D01*
X14650000Y-3615000D01*
X14715000Y-3680000D01*
X15435000Y-3680000D02*
X15500000Y-3615000D01*
X15435000Y-3550000D01*
X15370000Y-3615000D01*
X15435000Y-3680000D01*
D11*
X3247619Y-15820476D02*
X3247619Y-15620476D01*
X3295238Y-15620476D01*
X3323809Y-15630000D01*
X3342857Y-15649048D01*
X3352381Y-15668095D01*
X3361905Y-15706190D01*
X3361905Y-15734762D01*
X3352381Y-15772857D01*
X3342857Y-15791905D01*
X3323809Y-15810952D01*
X3295238Y-15820476D01*
X3247619Y-15820476D01*
X3447619Y-15820476D02*
X3447619Y-15687143D01*
X3447619Y-15725238D02*
X3457143Y-15706190D01*
X3466667Y-15696667D01*
X3485714Y-15687143D01*
X3504762Y-15687143D01*
X3571428Y-15820476D02*
X3571428Y-15687143D01*
X3571428Y-15620476D02*
X3561905Y-15630000D01*
X3571428Y-15639524D01*
X3580952Y-15630000D01*
X3571428Y-15620476D01*
X3571428Y-15639524D01*
X3695238Y-15820476D02*
X3676190Y-15810952D01*
X3666667Y-15791905D01*
X3666667Y-15620476D01*
X3800000Y-15820476D02*
X3780952Y-15810952D01*
X3771428Y-15791905D01*
X3771428Y-15620476D01*
X4028571Y-15820476D02*
X4028571Y-15620476D01*
X4095238Y-15763333D01*
X4161905Y-15620476D01*
X4161905Y-15820476D01*
X4342857Y-15820476D02*
X4342857Y-15715714D01*
X4333333Y-15696667D01*
X4314286Y-15687143D01*
X4276190Y-15687143D01*
X4257143Y-15696667D01*
X4342857Y-15810952D02*
X4323810Y-15820476D01*
X4276190Y-15820476D01*
X4257143Y-15810952D01*
X4247619Y-15791905D01*
X4247619Y-15772857D01*
X4257143Y-15753809D01*
X4276190Y-15744286D01*
X4323810Y-15744286D01*
X4342857Y-15734762D01*
X4438095Y-15687143D02*
X4438095Y-15887143D01*
X4438095Y-15696667D02*
X4457143Y-15687143D01*
X4495238Y-15687143D01*
X4514286Y-15696667D01*
X4523810Y-15706190D01*
X4533333Y-15725238D01*
X4533333Y-15782381D01*
X4523810Y-15801428D01*
X4514286Y-15810952D01*
X4495238Y-15820476D01*
X4457143Y-15820476D01*
X4438095Y-15810952D01*
X4619048Y-15801428D02*
X4628571Y-15810952D01*
X4619048Y-15820476D01*
X4609524Y-15810952D01*
X4619048Y-15801428D01*
X4619048Y-15820476D01*
X4619048Y-15696667D02*
X4628571Y-15706190D01*
X4619048Y-15715714D01*
X4609524Y-15706190D01*
X4619048Y-15696667D01*
X4619048Y-15715714D01*
D12*
X2950000Y-16130000D02*
X2990000Y-16170000D01*
X2990000Y-16130000D02*
X2950000Y-16170000D01*
D11*
X3285714Y-16040476D02*
X3304762Y-16040476D01*
X3323809Y-16050000D01*
X3333333Y-16059524D01*
X3342857Y-16078571D01*
X3352381Y-16116667D01*
X3352381Y-16164286D01*
X3342857Y-16202381D01*
X3333333Y-16221428D01*
X3323809Y-16230952D01*
X3304762Y-16240476D01*
X3285714Y-16240476D01*
X3266667Y-16230952D01*
X3257143Y-16221428D01*
X3247619Y-16202381D01*
X3238095Y-16164286D01*
X3238095Y-16116667D01*
X3247619Y-16078571D01*
X3257143Y-16059524D01*
X3266667Y-16050000D01*
X3285714Y-16040476D01*
X3438095Y-16221428D02*
X3447619Y-16230952D01*
X3438095Y-16240476D01*
X3428571Y-16230952D01*
X3438095Y-16221428D01*
X3438095Y-16240476D01*
X3619048Y-16107143D02*
X3619048Y-16240476D01*
X3571428Y-16030952D02*
X3523809Y-16173809D01*
X3647619Y-16173809D01*
X3761905Y-16040476D02*
X3780952Y-16040476D01*
X3800000Y-16050000D01*
X3809524Y-16059524D01*
X3819048Y-16078571D01*
X3828571Y-16116667D01*
X3828571Y-16164286D01*
X3819048Y-16202381D01*
X3809524Y-16221428D01*
X3800000Y-16230952D01*
X3780952Y-16240476D01*
X3761905Y-16240476D01*
X3742857Y-16230952D01*
X3733333Y-16221428D01*
X3723809Y-16202381D01*
X3714286Y-16164286D01*
X3714286Y-16116667D01*
X3723809Y-16078571D01*
X3733333Y-16059524D01*
X3742857Y-16050000D01*
X3761905Y-16040476D01*
X3952381Y-16040476D02*
X3971428Y-16040476D01*
X3990476Y-16050000D01*
X4000000Y-16059524D01*
X4009524Y-16078571D01*
X4019048Y-16116667D01*
X4019048Y-16164286D01*
X4009524Y-16202381D01*
X4000000Y-16221428D01*
X3990476Y-16230952D01*
X3971428Y-16240476D01*
X3952381Y-16240476D01*
X3933333Y-16230952D01*
X3923809Y-16221428D01*
X3914286Y-16202381D01*
X3904762Y-16164286D01*
X3904762Y-16116667D01*
X3914286Y-16078571D01*
X3923809Y-16059524D01*
X3933333Y-16050000D01*
X3952381Y-16040476D01*
X4104762Y-16240476D02*
X4104762Y-16107143D01*
X4104762Y-16126190D02*
X4114286Y-16116667D01*
X4133333Y-16107143D01*
X4161905Y-16107143D01*
X4180952Y-16116667D01*
X4190476Y-16135714D01*
X4190476Y-16240476D01*
X4190476Y-16135714D02*
X4200000Y-16116667D01*
X4219048Y-16107143D01*
X4247619Y-16107143D01*
X4266667Y-16116667D01*
X4276190Y-16135714D01*
X4276190Y-16240476D01*
X4371429Y-16240476D02*
X4371429Y-16107143D01*
X4371429Y-16126190D02*
X4380952Y-16116667D01*
X4400000Y-16107143D01*
X4428571Y-16107143D01*
X4447619Y-16116667D01*
X4457143Y-16135714D01*
X4457143Y-16240476D01*
X4457143Y-16135714D02*
X4466667Y-16116667D01*
X4485714Y-16107143D01*
X4514286Y-16107143D01*
X4533333Y-16116667D01*
X4542857Y-16135714D01*
X4542857Y-16240476D01*
X4933333Y-16030952D02*
X4761905Y-16288095D01*
X5190476Y-16040476D02*
X5209524Y-16040476D01*
X5228571Y-16050000D01*
X5238095Y-16059524D01*
X5247619Y-16078571D01*
X5257143Y-16116667D01*
X5257143Y-16164286D01*
X5247619Y-16202381D01*
X5238095Y-16221428D01*
X5228571Y-16230952D01*
X5209524Y-16240476D01*
X5190476Y-16240476D01*
X5171429Y-16230952D01*
X5161905Y-16221428D01*
X5152381Y-16202381D01*
X5142857Y-16164286D01*
X5142857Y-16116667D01*
X5152381Y-16078571D01*
X5161905Y-16059524D01*
X5171429Y-16050000D01*
X5190476Y-16040476D01*
X5342857Y-16221428D02*
X5352381Y-16230952D01*
X5342857Y-16240476D01*
X5333333Y-16230952D01*
X5342857Y-16221428D01*
X5342857Y-16240476D01*
X5476190Y-16040476D02*
X5495238Y-16040476D01*
X5514286Y-16050000D01*
X5523810Y-16059524D01*
X5533333Y-16078571D01*
X5542857Y-16116667D01*
X5542857Y-16164286D01*
X5533333Y-16202381D01*
X5523810Y-16221428D01*
X5514286Y-16230952D01*
X5495238Y-16240476D01*
X5476190Y-16240476D01*
X5457143Y-16230952D01*
X5447619Y-16221428D01*
X5438095Y-16202381D01*
X5428571Y-16164286D01*
X5428571Y-16116667D01*
X5438095Y-16078571D01*
X5447619Y-16059524D01*
X5457143Y-16050000D01*
X5476190Y-16040476D01*
X5733333Y-16240476D02*
X5619048Y-16240476D01*
X5676190Y-16240476D02*
X5676190Y-16040476D01*
X5657143Y-16069048D01*
X5638095Y-16088095D01*
X5619048Y-16097619D01*
X5914286Y-16040476D02*
X5819048Y-16040476D01*
X5809524Y-16135714D01*
X5819048Y-16126190D01*
X5838095Y-16116667D01*
X5885714Y-16116667D01*
X5904762Y-16126190D01*
X5914286Y-16135714D01*
X5923809Y-16154762D01*
X5923809Y-16202381D01*
X5914286Y-16221428D01*
X5904762Y-16230952D01*
X5885714Y-16240476D01*
X5838095Y-16240476D01*
X5819048Y-16230952D01*
X5809524Y-16221428D01*
X5990476Y-16040476D02*
X6123809Y-16040476D01*
X6038095Y-16240476D01*
X6190476Y-16040476D02*
X6190476Y-16078571D01*
X6266667Y-16040476D02*
X6266667Y-16078571D01*
X6561905Y-16316667D02*
X6552381Y-16307143D01*
X6533333Y-16278571D01*
X6523809Y-16259524D01*
X6514286Y-16230952D01*
X6504762Y-16183333D01*
X6504762Y-16145238D01*
X6514286Y-16097619D01*
X6523809Y-16069048D01*
X6533333Y-16050000D01*
X6552381Y-16021428D01*
X6561905Y-16011905D01*
X6628571Y-16059524D02*
X6638095Y-16050000D01*
X6657143Y-16040476D01*
X6704762Y-16040476D01*
X6723809Y-16050000D01*
X6733333Y-16059524D01*
X6742857Y-16078571D01*
X6742857Y-16097619D01*
X6733333Y-16126190D01*
X6619048Y-16240476D01*
X6742857Y-16240476D01*
X6914286Y-16040476D02*
X6876190Y-16040476D01*
X6857143Y-16050000D01*
X6847619Y-16059524D01*
X6828571Y-16088095D01*
X6819048Y-16126190D01*
X6819048Y-16202381D01*
X6828571Y-16221428D01*
X6838095Y-16230952D01*
X6857143Y-16240476D01*
X6895238Y-16240476D01*
X6914286Y-16230952D01*
X6923809Y-16221428D01*
X6933333Y-16202381D01*
X6933333Y-16154762D01*
X6923809Y-16135714D01*
X6914286Y-16126190D01*
X6895238Y-16116667D01*
X6857143Y-16116667D01*
X6838095Y-16126190D01*
X6828571Y-16135714D01*
X6819048Y-16154762D01*
X7123809Y-16240476D02*
X7009524Y-16240476D01*
X7066667Y-16240476D02*
X7066667Y-16040476D01*
X7047619Y-16069048D01*
X7028571Y-16088095D01*
X7009524Y-16097619D01*
X7361905Y-16240476D02*
X7361905Y-16040476D01*
X7447619Y-16240476D02*
X7447619Y-16135714D01*
X7438095Y-16116667D01*
X7419048Y-16107143D01*
X7390476Y-16107143D01*
X7371428Y-16116667D01*
X7361905Y-16126190D01*
X7571428Y-16240476D02*
X7552381Y-16230952D01*
X7542857Y-16221428D01*
X7533333Y-16202381D01*
X7533333Y-16145238D01*
X7542857Y-16126190D01*
X7552381Y-16116667D01*
X7571428Y-16107143D01*
X7600000Y-16107143D01*
X7619048Y-16116667D01*
X7628571Y-16126190D01*
X7638095Y-16145238D01*
X7638095Y-16202381D01*
X7628571Y-16221428D01*
X7619048Y-16230952D01*
X7600000Y-16240476D01*
X7571428Y-16240476D01*
X7752381Y-16240476D02*
X7733333Y-16230952D01*
X7723809Y-16211905D01*
X7723809Y-16040476D01*
X7904762Y-16230952D02*
X7885714Y-16240476D01*
X7847619Y-16240476D01*
X7828571Y-16230952D01*
X7819048Y-16211905D01*
X7819048Y-16135714D01*
X7828571Y-16116667D01*
X7847619Y-16107143D01*
X7885714Y-16107143D01*
X7904762Y-16116667D01*
X7914286Y-16135714D01*
X7914286Y-16154762D01*
X7819048Y-16173809D01*
X7990476Y-16230952D02*
X8009524Y-16240476D01*
X8047619Y-16240476D01*
X8066667Y-16230952D01*
X8076190Y-16211905D01*
X8076190Y-16202381D01*
X8066667Y-16183333D01*
X8047619Y-16173809D01*
X8019048Y-16173809D01*
X8000000Y-16164286D01*
X7990476Y-16145238D01*
X7990476Y-16135714D01*
X8000000Y-16116667D01*
X8019048Y-16107143D01*
X8047619Y-16107143D01*
X8066667Y-16116667D01*
X8142857Y-16316667D02*
X8152381Y-16307143D01*
X8171428Y-16278571D01*
X8180952Y-16259524D01*
X8190476Y-16230952D01*
X8200000Y-16183333D01*
X8200000Y-16145238D01*
X8190476Y-16097619D01*
X8180952Y-16069048D01*
X8171428Y-16050000D01*
X8152381Y-16021428D01*
X8142857Y-16011905D01*
D13*
X2990000Y-16414000D02*
G75*
G03*
X2990000Y-16414000I-38100J0D01*
G01*
D11*
X3285714Y-16304476D02*
X3304762Y-16304476D01*
X3323809Y-16314000D01*
X3333333Y-16323524D01*
X3342857Y-16342571D01*
X3352381Y-16380667D01*
X3352381Y-16428286D01*
X3342857Y-16466381D01*
X3333333Y-16485428D01*
X3323809Y-16494952D01*
X3304762Y-16504476D01*
X3285714Y-16504476D01*
X3266667Y-16494952D01*
X3257143Y-16485428D01*
X3247619Y-16466381D01*
X3238095Y-16428286D01*
X3238095Y-16380667D01*
X3247619Y-16342571D01*
X3257143Y-16323524D01*
X3266667Y-16314000D01*
X3285714Y-16304476D01*
X3438095Y-16485428D02*
X3447619Y-16494952D01*
X3438095Y-16504476D01*
X3428571Y-16494952D01*
X3438095Y-16485428D01*
X3438095Y-16504476D01*
X3514286Y-16304476D02*
X3647619Y-16304476D01*
X3561905Y-16504476D01*
X3809524Y-16304476D02*
X3771428Y-16304476D01*
X3752381Y-16314000D01*
X3742857Y-16323524D01*
X3723809Y-16352095D01*
X3714286Y-16390190D01*
X3714286Y-16466381D01*
X3723809Y-16485428D01*
X3733333Y-16494952D01*
X3752381Y-16504476D01*
X3790476Y-16504476D01*
X3809524Y-16494952D01*
X3819048Y-16485428D01*
X3828571Y-16466381D01*
X3828571Y-16418762D01*
X3819048Y-16399714D01*
X3809524Y-16390190D01*
X3790476Y-16380667D01*
X3752381Y-16380667D01*
X3733333Y-16390190D01*
X3723809Y-16399714D01*
X3714286Y-16418762D01*
X3904762Y-16323524D02*
X3914286Y-16314000D01*
X3933333Y-16304476D01*
X3980952Y-16304476D01*
X4000000Y-16314000D01*
X4009524Y-16323524D01*
X4019048Y-16342571D01*
X4019048Y-16361619D01*
X4009524Y-16390190D01*
X3895238Y-16504476D01*
X4019048Y-16504476D01*
X4104762Y-16504476D02*
X4104762Y-16371143D01*
X4104762Y-16390190D02*
X4114286Y-16380667D01*
X4133333Y-16371143D01*
X4161905Y-16371143D01*
X4180952Y-16380667D01*
X4190476Y-16399714D01*
X4190476Y-16504476D01*
X4190476Y-16399714D02*
X4200000Y-16380667D01*
X4219048Y-16371143D01*
X4247619Y-16371143D01*
X4266667Y-16380667D01*
X4276190Y-16399714D01*
X4276190Y-16504476D01*
X4371429Y-16504476D02*
X4371429Y-16371143D01*
X4371429Y-16390190D02*
X4380952Y-16380667D01*
X4400000Y-16371143D01*
X4428571Y-16371143D01*
X4447619Y-16380667D01*
X4457143Y-16399714D01*
X4457143Y-16504476D01*
X4457143Y-16399714D02*
X4466667Y-16380667D01*
X4485714Y-16371143D01*
X4514286Y-16371143D01*
X4533333Y-16380667D01*
X4542857Y-16399714D01*
X4542857Y-16504476D01*
X4933333Y-16294952D02*
X4761905Y-16552095D01*
X5190476Y-16304476D02*
X5209524Y-16304476D01*
X5228571Y-16314000D01*
X5238095Y-16323524D01*
X5247619Y-16342571D01*
X5257143Y-16380667D01*
X5257143Y-16428286D01*
X5247619Y-16466381D01*
X5238095Y-16485428D01*
X5228571Y-16494952D01*
X5209524Y-16504476D01*
X5190476Y-16504476D01*
X5171429Y-16494952D01*
X5161905Y-16485428D01*
X5152381Y-16466381D01*
X5142857Y-16428286D01*
X5142857Y-16380667D01*
X5152381Y-16342571D01*
X5161905Y-16323524D01*
X5171429Y-16314000D01*
X5190476Y-16304476D01*
X5342857Y-16485428D02*
X5352381Y-16494952D01*
X5342857Y-16504476D01*
X5333333Y-16494952D01*
X5342857Y-16485428D01*
X5342857Y-16504476D01*
X5476190Y-16304476D02*
X5495238Y-16304476D01*
X5514286Y-16314000D01*
X5523810Y-16323524D01*
X5533333Y-16342571D01*
X5542857Y-16380667D01*
X5542857Y-16428286D01*
X5533333Y-16466381D01*
X5523810Y-16485428D01*
X5514286Y-16494952D01*
X5495238Y-16504476D01*
X5476190Y-16504476D01*
X5457143Y-16494952D01*
X5447619Y-16485428D01*
X5438095Y-16466381D01*
X5428571Y-16428286D01*
X5428571Y-16380667D01*
X5438095Y-16342571D01*
X5447619Y-16323524D01*
X5457143Y-16314000D01*
X5476190Y-16304476D01*
X5609524Y-16304476D02*
X5733333Y-16304476D01*
X5666667Y-16380667D01*
X5695238Y-16380667D01*
X5714286Y-16390190D01*
X5723809Y-16399714D01*
X5733333Y-16418762D01*
X5733333Y-16466381D01*
X5723809Y-16485428D01*
X5714286Y-16494952D01*
X5695238Y-16504476D01*
X5638095Y-16504476D01*
X5619048Y-16494952D01*
X5609524Y-16485428D01*
X5857143Y-16304476D02*
X5876190Y-16304476D01*
X5895238Y-16314000D01*
X5904762Y-16323524D01*
X5914286Y-16342571D01*
X5923809Y-16380667D01*
X5923809Y-16428286D01*
X5914286Y-16466381D01*
X5904762Y-16485428D01*
X5895238Y-16494952D01*
X5876190Y-16504476D01*
X5857143Y-16504476D01*
X5838095Y-16494952D01*
X5828571Y-16485428D01*
X5819048Y-16466381D01*
X5809524Y-16428286D01*
X5809524Y-16380667D01*
X5819048Y-16342571D01*
X5828571Y-16323524D01*
X5838095Y-16314000D01*
X5857143Y-16304476D01*
X6047619Y-16304476D02*
X6066667Y-16304476D01*
X6085714Y-16314000D01*
X6095238Y-16323524D01*
X6104762Y-16342571D01*
X6114286Y-16380667D01*
X6114286Y-16428286D01*
X6104762Y-16466381D01*
X6095238Y-16485428D01*
X6085714Y-16494952D01*
X6066667Y-16504476D01*
X6047619Y-16504476D01*
X6028571Y-16494952D01*
X6019048Y-16485428D01*
X6009524Y-16466381D01*
X6000000Y-16428286D01*
X6000000Y-16380667D01*
X6009524Y-16342571D01*
X6019048Y-16323524D01*
X6028571Y-16314000D01*
X6047619Y-16304476D01*
X6190476Y-16304476D02*
X6190476Y-16342571D01*
X6266667Y-16304476D02*
X6266667Y-16342571D01*
X6561905Y-16580667D02*
X6552381Y-16571143D01*
X6533333Y-16542571D01*
X6523809Y-16523524D01*
X6514286Y-16494952D01*
X6504762Y-16447333D01*
X6504762Y-16409238D01*
X6514286Y-16361619D01*
X6523809Y-16333048D01*
X6533333Y-16314000D01*
X6552381Y-16285428D01*
X6561905Y-16275905D01*
X6628571Y-16323524D02*
X6638095Y-16314000D01*
X6657143Y-16304476D01*
X6704762Y-16304476D01*
X6723809Y-16314000D01*
X6733333Y-16323524D01*
X6742857Y-16342571D01*
X6742857Y-16361619D01*
X6733333Y-16390190D01*
X6619048Y-16504476D01*
X6742857Y-16504476D01*
X6980952Y-16504476D02*
X6980952Y-16304476D01*
X7066667Y-16504476D02*
X7066667Y-16399714D01*
X7057143Y-16380667D01*
X7038095Y-16371143D01*
X7009524Y-16371143D01*
X6990476Y-16380667D01*
X6980952Y-16390190D01*
X7190476Y-16504476D02*
X7171428Y-16494952D01*
X7161905Y-16485428D01*
X7152381Y-16466381D01*
X7152381Y-16409238D01*
X7161905Y-16390190D01*
X7171428Y-16380667D01*
X7190476Y-16371143D01*
X7219048Y-16371143D01*
X7238095Y-16380667D01*
X7247619Y-16390190D01*
X7257143Y-16409238D01*
X7257143Y-16466381D01*
X7247619Y-16485428D01*
X7238095Y-16494952D01*
X7219048Y-16504476D01*
X7190476Y-16504476D01*
X7371428Y-16504476D02*
X7352381Y-16494952D01*
X7342857Y-16475905D01*
X7342857Y-16304476D01*
X7523809Y-16494952D02*
X7504762Y-16504476D01*
X7466667Y-16504476D01*
X7447619Y-16494952D01*
X7438095Y-16475905D01*
X7438095Y-16399714D01*
X7447619Y-16380667D01*
X7466667Y-16371143D01*
X7504762Y-16371143D01*
X7523809Y-16380667D01*
X7533333Y-16399714D01*
X7533333Y-16418762D01*
X7438095Y-16437809D01*
X7609524Y-16494952D02*
X7628571Y-16504476D01*
X7666667Y-16504476D01*
X7685714Y-16494952D01*
X7695238Y-16475905D01*
X7695238Y-16466381D01*
X7685714Y-16447333D01*
X7666667Y-16437809D01*
X7638095Y-16437809D01*
X7619048Y-16428286D01*
X7609524Y-16409238D01*
X7609524Y-16399714D01*
X7619048Y-16380667D01*
X7638095Y-16371143D01*
X7666667Y-16371143D01*
X7685714Y-16380667D01*
X7761905Y-16580667D02*
X7771428Y-16571143D01*
X7790476Y-16542571D01*
X7800000Y-16523524D01*
X7809524Y-16494952D01*
X7819048Y-16447333D01*
X7819048Y-16409238D01*
X7809524Y-16361619D01*
X7800000Y-16333048D01*
X7790476Y-16314000D01*
X7771428Y-16285428D01*
X7761905Y-16275905D01*
D14*
X2935000Y-16623000D02*
X2935000Y-16733000D01*
X2880000Y-16678000D02*
X2990000Y-16678000D01*
D11*
X3352381Y-16768476D02*
X3238095Y-16768476D01*
X3295238Y-16768476D02*
X3295238Y-16568476D01*
X3276190Y-16597048D01*
X3257143Y-16616095D01*
X3238095Y-16625619D01*
X3438095Y-16749428D02*
X3447619Y-16758952D01*
X3438095Y-16768476D01*
X3428571Y-16758952D01*
X3438095Y-16749428D01*
X3438095Y-16768476D01*
X3638095Y-16768476D02*
X3523809Y-16768476D01*
X3580952Y-16768476D02*
X3580952Y-16568476D01*
X3561905Y-16597048D01*
X3542857Y-16616095D01*
X3523809Y-16625619D01*
X3761905Y-16568476D02*
X3780952Y-16568476D01*
X3800000Y-16578000D01*
X3809524Y-16587524D01*
X3819048Y-16606571D01*
X3828571Y-16644667D01*
X3828571Y-16692286D01*
X3819048Y-16730381D01*
X3809524Y-16749428D01*
X3800000Y-16758952D01*
X3780952Y-16768476D01*
X3761905Y-16768476D01*
X3742857Y-16758952D01*
X3733333Y-16749428D01*
X3723809Y-16730381D01*
X3714286Y-16692286D01*
X3714286Y-16644667D01*
X3723809Y-16606571D01*
X3733333Y-16587524D01*
X3742857Y-16578000D01*
X3761905Y-16568476D01*
X3952381Y-16568476D02*
X3971428Y-16568476D01*
X3990476Y-16578000D01*
X4000000Y-16587524D01*
X4009524Y-16606571D01*
X4019048Y-16644667D01*
X4019048Y-16692286D01*
X4009524Y-16730381D01*
X4000000Y-16749428D01*
X3990476Y-16758952D01*
X3971428Y-16768476D01*
X3952381Y-16768476D01*
X3933333Y-16758952D01*
X3923809Y-16749428D01*
X3914286Y-16730381D01*
X3904762Y-16692286D01*
X3904762Y-16644667D01*
X3914286Y-16606571D01*
X3923809Y-16587524D01*
X3933333Y-16578000D01*
X3952381Y-16568476D01*
X4104762Y-16768476D02*
X4104762Y-16635143D01*
X4104762Y-16654190D02*
X4114286Y-16644667D01*
X4133333Y-16635143D01*
X4161905Y-16635143D01*
X4180952Y-16644667D01*
X4190476Y-16663714D01*
X4190476Y-16768476D01*
X4190476Y-16663714D02*
X4200000Y-16644667D01*
X4219048Y-16635143D01*
X4247619Y-16635143D01*
X4266667Y-16644667D01*
X4276190Y-16663714D01*
X4276190Y-16768476D01*
X4371429Y-16768476D02*
X4371429Y-16635143D01*
X4371429Y-16654190D02*
X4380952Y-16644667D01*
X4400000Y-16635143D01*
X4428571Y-16635143D01*
X4447619Y-16644667D01*
X4457143Y-16663714D01*
X4457143Y-16768476D01*
X4457143Y-16663714D02*
X4466667Y-16644667D01*
X4485714Y-16635143D01*
X4514286Y-16635143D01*
X4533333Y-16644667D01*
X4542857Y-16663714D01*
X4542857Y-16768476D01*
X4933333Y-16558952D02*
X4761905Y-16816095D01*
X5190476Y-16568476D02*
X5209524Y-16568476D01*
X5228571Y-16578000D01*
X5238095Y-16587524D01*
X5247619Y-16606571D01*
X5257143Y-16644667D01*
X5257143Y-16692286D01*
X5247619Y-16730381D01*
X5238095Y-16749428D01*
X5228571Y-16758952D01*
X5209524Y-16768476D01*
X5190476Y-16768476D01*
X5171429Y-16758952D01*
X5161905Y-16749428D01*
X5152381Y-16730381D01*
X5142857Y-16692286D01*
X5142857Y-16644667D01*
X5152381Y-16606571D01*
X5161905Y-16587524D01*
X5171429Y-16578000D01*
X5190476Y-16568476D01*
X5342857Y-16749428D02*
X5352381Y-16758952D01*
X5342857Y-16768476D01*
X5333333Y-16758952D01*
X5342857Y-16749428D01*
X5342857Y-16768476D01*
X5476190Y-16568476D02*
X5495238Y-16568476D01*
X5514286Y-16578000D01*
X5523810Y-16587524D01*
X5533333Y-16606571D01*
X5542857Y-16644667D01*
X5542857Y-16692286D01*
X5533333Y-16730381D01*
X5523810Y-16749428D01*
X5514286Y-16758952D01*
X5495238Y-16768476D01*
X5476190Y-16768476D01*
X5457143Y-16758952D01*
X5447619Y-16749428D01*
X5438095Y-16730381D01*
X5428571Y-16692286D01*
X5428571Y-16644667D01*
X5438095Y-16606571D01*
X5447619Y-16587524D01*
X5457143Y-16578000D01*
X5476190Y-16568476D01*
X5714286Y-16635143D02*
X5714286Y-16768476D01*
X5666667Y-16558952D02*
X5619048Y-16701809D01*
X5742857Y-16701809D01*
X5800000Y-16568476D02*
X5923809Y-16568476D01*
X5857143Y-16644667D01*
X5885714Y-16644667D01*
X5904762Y-16654190D01*
X5914286Y-16663714D01*
X5923809Y-16682762D01*
X5923809Y-16730381D01*
X5914286Y-16749428D01*
X5904762Y-16758952D01*
X5885714Y-16768476D01*
X5828571Y-16768476D01*
X5809524Y-16758952D01*
X5800000Y-16749428D01*
X5990476Y-16568476D02*
X6114286Y-16568476D01*
X6047619Y-16644667D01*
X6076190Y-16644667D01*
X6095238Y-16654190D01*
X6104762Y-16663714D01*
X6114286Y-16682762D01*
X6114286Y-16730381D01*
X6104762Y-16749428D01*
X6095238Y-16758952D01*
X6076190Y-16768476D01*
X6019048Y-16768476D01*
X6000000Y-16758952D01*
X5990476Y-16749428D01*
X6190476Y-16568476D02*
X6190476Y-16606571D01*
X6266667Y-16568476D02*
X6266667Y-16606571D01*
X6561905Y-16844667D02*
X6552381Y-16835143D01*
X6533333Y-16806571D01*
X6523809Y-16787524D01*
X6514286Y-16758952D01*
X6504762Y-16711333D01*
X6504762Y-16673238D01*
X6514286Y-16625619D01*
X6523809Y-16597048D01*
X6533333Y-16578000D01*
X6552381Y-16549428D01*
X6561905Y-16539905D01*
X6723809Y-16635143D02*
X6723809Y-16768476D01*
X6676190Y-16558952D02*
X6628571Y-16701809D01*
X6752381Y-16701809D01*
X6857143Y-16654190D02*
X6838095Y-16644667D01*
X6828571Y-16635143D01*
X6819048Y-16616095D01*
X6819048Y-16606571D01*
X6828571Y-16587524D01*
X6838095Y-16578000D01*
X6857143Y-16568476D01*
X6895238Y-16568476D01*
X6914286Y-16578000D01*
X6923809Y-16587524D01*
X6933333Y-16606571D01*
X6933333Y-16616095D01*
X6923809Y-16635143D01*
X6914286Y-16644667D01*
X6895238Y-16654190D01*
X6857143Y-16654190D01*
X6838095Y-16663714D01*
X6828571Y-16673238D01*
X6819048Y-16692286D01*
X6819048Y-16730381D01*
X6828571Y-16749428D01*
X6838095Y-16758952D01*
X6857143Y-16768476D01*
X6895238Y-16768476D01*
X6914286Y-16758952D01*
X6923809Y-16749428D01*
X6933333Y-16730381D01*
X6933333Y-16692286D01*
X6923809Y-16673238D01*
X6914286Y-16663714D01*
X6895238Y-16654190D01*
X7171428Y-16768476D02*
X7171428Y-16568476D01*
X7257143Y-16768476D02*
X7257143Y-16663714D01*
X7247619Y-16644667D01*
X7228571Y-16635143D01*
X7200000Y-16635143D01*
X7180952Y-16644667D01*
X7171428Y-16654190D01*
X7380952Y-16768476D02*
X7361905Y-16758952D01*
X7352381Y-16749428D01*
X7342857Y-16730381D01*
X7342857Y-16673238D01*
X7352381Y-16654190D01*
X7361905Y-16644667D01*
X7380952Y-16635143D01*
X7409524Y-16635143D01*
X7428571Y-16644667D01*
X7438095Y-16654190D01*
X7447619Y-16673238D01*
X7447619Y-16730381D01*
X7438095Y-16749428D01*
X7428571Y-16758952D01*
X7409524Y-16768476D01*
X7380952Y-16768476D01*
X7561905Y-16768476D02*
X7542857Y-16758952D01*
X7533333Y-16739905D01*
X7533333Y-16568476D01*
X7714286Y-16758952D02*
X7695238Y-16768476D01*
X7657143Y-16768476D01*
X7638095Y-16758952D01*
X7628571Y-16739905D01*
X7628571Y-16663714D01*
X7638095Y-16644667D01*
X7657143Y-16635143D01*
X7695238Y-16635143D01*
X7714286Y-16644667D01*
X7723809Y-16663714D01*
X7723809Y-16682762D01*
X7628571Y-16701809D01*
X7800000Y-16758952D02*
X7819048Y-16768476D01*
X7857143Y-16768476D01*
X7876190Y-16758952D01*
X7885714Y-16739905D01*
X7885714Y-16730381D01*
X7876190Y-16711333D01*
X7857143Y-16701809D01*
X7828571Y-16701809D01*
X7809524Y-16692286D01*
X7800000Y-16673238D01*
X7800000Y-16663714D01*
X7809524Y-16644667D01*
X7828571Y-16635143D01*
X7857143Y-16635143D01*
X7876190Y-16644667D01*
X7952381Y-16844667D02*
X7961905Y-16835143D01*
X7980952Y-16806571D01*
X7990476Y-16787524D01*
X8000000Y-16758952D01*
X8009524Y-16711333D01*
X8009524Y-16673238D01*
X8000000Y-16625619D01*
X7990476Y-16597048D01*
X7980952Y-16578000D01*
X7961905Y-16549428D01*
X7952381Y-16539905D01*
D15*
X2971402Y-16986902D02*
X2971402Y-16897098D01*
X2881598Y-16897098D01*
X2881598Y-16986902D01*
X2971402Y-16986902D01*
D11*
X3352381Y-17032476D02*
X3238095Y-17032476D01*
X3295238Y-17032476D02*
X3295238Y-16832476D01*
X3276190Y-16861048D01*
X3257143Y-16880095D01*
X3238095Y-16889619D01*
X3438095Y-17013429D02*
X3447619Y-17022952D01*
X3438095Y-17032476D01*
X3428571Y-17022952D01*
X3438095Y-17013429D01*
X3438095Y-17032476D01*
X3523809Y-16851524D02*
X3533333Y-16842000D01*
X3552381Y-16832476D01*
X3600000Y-16832476D01*
X3619048Y-16842000D01*
X3628571Y-16851524D01*
X3638095Y-16870571D01*
X3638095Y-16889619D01*
X3628571Y-16918190D01*
X3514286Y-17032476D01*
X3638095Y-17032476D01*
X3704762Y-16832476D02*
X3838095Y-16832476D01*
X3752381Y-17032476D01*
X3952381Y-16832476D02*
X3971428Y-16832476D01*
X3990476Y-16842000D01*
X4000000Y-16851524D01*
X4009524Y-16870571D01*
X4019048Y-16908667D01*
X4019048Y-16956286D01*
X4009524Y-16994381D01*
X4000000Y-17013429D01*
X3990476Y-17022952D01*
X3971428Y-17032476D01*
X3952381Y-17032476D01*
X3933333Y-17022952D01*
X3923809Y-17013429D01*
X3914286Y-16994381D01*
X3904762Y-16956286D01*
X3904762Y-16908667D01*
X3914286Y-16870571D01*
X3923809Y-16851524D01*
X3933333Y-16842000D01*
X3952381Y-16832476D01*
X4104762Y-17032476D02*
X4104762Y-16899143D01*
X4104762Y-16918190D02*
X4114286Y-16908667D01*
X4133333Y-16899143D01*
X4161905Y-16899143D01*
X4180952Y-16908667D01*
X4190476Y-16927714D01*
X4190476Y-17032476D01*
X4190476Y-16927714D02*
X4200000Y-16908667D01*
X4219048Y-16899143D01*
X4247619Y-16899143D01*
X4266667Y-16908667D01*
X4276190Y-16927714D01*
X4276190Y-17032476D01*
X4371429Y-17032476D02*
X4371429Y-16899143D01*
X4371429Y-16918190D02*
X4380952Y-16908667D01*
X4400000Y-16899143D01*
X4428571Y-16899143D01*
X4447619Y-16908667D01*
X4457143Y-16927714D01*
X4457143Y-17032476D01*
X4457143Y-16927714D02*
X4466667Y-16908667D01*
X4485714Y-16899143D01*
X4514286Y-16899143D01*
X4533333Y-16908667D01*
X4542857Y-16927714D01*
X4542857Y-17032476D01*
X4933333Y-16822952D02*
X4761905Y-17080095D01*
X5190476Y-16832476D02*
X5209524Y-16832476D01*
X5228571Y-16842000D01*
X5238095Y-16851524D01*
X5247619Y-16870571D01*
X5257143Y-16908667D01*
X5257143Y-16956286D01*
X5247619Y-16994381D01*
X5238095Y-17013429D01*
X5228571Y-17022952D01*
X5209524Y-17032476D01*
X5190476Y-17032476D01*
X5171429Y-17022952D01*
X5161905Y-17013429D01*
X5152381Y-16994381D01*
X5142857Y-16956286D01*
X5142857Y-16908667D01*
X5152381Y-16870571D01*
X5161905Y-16851524D01*
X5171429Y-16842000D01*
X5190476Y-16832476D01*
X5342857Y-17013429D02*
X5352381Y-17022952D01*
X5342857Y-17032476D01*
X5333333Y-17022952D01*
X5342857Y-17013429D01*
X5342857Y-17032476D01*
X5476190Y-16832476D02*
X5495238Y-16832476D01*
X5514286Y-16842000D01*
X5523810Y-16851524D01*
X5533333Y-16870571D01*
X5542857Y-16908667D01*
X5542857Y-16956286D01*
X5533333Y-16994381D01*
X5523810Y-17013429D01*
X5514286Y-17022952D01*
X5495238Y-17032476D01*
X5476190Y-17032476D01*
X5457143Y-17022952D01*
X5447619Y-17013429D01*
X5438095Y-16994381D01*
X5428571Y-16956286D01*
X5428571Y-16908667D01*
X5438095Y-16870571D01*
X5447619Y-16851524D01*
X5457143Y-16842000D01*
X5476190Y-16832476D01*
X5723809Y-16832476D02*
X5628571Y-16832476D01*
X5619048Y-16927714D01*
X5628571Y-16918190D01*
X5647619Y-16908667D01*
X5695238Y-16908667D01*
X5714286Y-16918190D01*
X5723809Y-16927714D01*
X5733333Y-16946762D01*
X5733333Y-16994381D01*
X5723809Y-17013429D01*
X5714286Y-17022952D01*
X5695238Y-17032476D01*
X5647619Y-17032476D01*
X5628571Y-17022952D01*
X5619048Y-17013429D01*
X5857143Y-16832476D02*
X5876190Y-16832476D01*
X5895238Y-16842000D01*
X5904762Y-16851524D01*
X5914286Y-16870571D01*
X5923809Y-16908667D01*
X5923809Y-16956286D01*
X5914286Y-16994381D01*
X5904762Y-17013429D01*
X5895238Y-17022952D01*
X5876190Y-17032476D01*
X5857143Y-17032476D01*
X5838095Y-17022952D01*
X5828571Y-17013429D01*
X5819048Y-16994381D01*
X5809524Y-16956286D01*
X5809524Y-16908667D01*
X5819048Y-16870571D01*
X5828571Y-16851524D01*
X5838095Y-16842000D01*
X5857143Y-16832476D01*
X6047619Y-16832476D02*
X6066667Y-16832476D01*
X6085714Y-16842000D01*
X6095238Y-16851524D01*
X6104762Y-16870571D01*
X6114286Y-16908667D01*
X6114286Y-16956286D01*
X6104762Y-16994381D01*
X6095238Y-17013429D01*
X6085714Y-17022952D01*
X6066667Y-17032476D01*
X6047619Y-17032476D01*
X6028571Y-17022952D01*
X6019048Y-17013429D01*
X6009524Y-16994381D01*
X6000000Y-16956286D01*
X6000000Y-16908667D01*
X6009524Y-16870571D01*
X6019048Y-16851524D01*
X6028571Y-16842000D01*
X6047619Y-16832476D01*
X6190476Y-16832476D02*
X6190476Y-16870571D01*
X6266667Y-16832476D02*
X6266667Y-16870571D01*
X6561905Y-17108667D02*
X6552381Y-17099143D01*
X6533333Y-17070571D01*
X6523809Y-17051524D01*
X6514286Y-17022952D01*
X6504762Y-16975333D01*
X6504762Y-16937238D01*
X6514286Y-16889619D01*
X6523809Y-16861048D01*
X6533333Y-16842000D01*
X6552381Y-16813429D01*
X6561905Y-16803905D01*
X6628571Y-16851524D02*
X6638095Y-16842000D01*
X6657143Y-16832476D01*
X6704762Y-16832476D01*
X6723809Y-16842000D01*
X6733333Y-16851524D01*
X6742857Y-16870571D01*
X6742857Y-16889619D01*
X6733333Y-16918190D01*
X6619048Y-17032476D01*
X6742857Y-17032476D01*
X6914286Y-16899143D02*
X6914286Y-17032476D01*
X6866667Y-16822952D02*
X6819048Y-16965810D01*
X6942857Y-16965810D01*
X7171428Y-17032476D02*
X7171428Y-16832476D01*
X7257143Y-17032476D02*
X7257143Y-16927714D01*
X7247619Y-16908667D01*
X7228571Y-16899143D01*
X7200000Y-16899143D01*
X7180952Y-16908667D01*
X7171428Y-16918190D01*
X7380952Y-17032476D02*
X7361905Y-17022952D01*
X7352381Y-17013429D01*
X7342857Y-16994381D01*
X7342857Y-16937238D01*
X7352381Y-16918190D01*
X7361905Y-16908667D01*
X7380952Y-16899143D01*
X7409524Y-16899143D01*
X7428571Y-16908667D01*
X7438095Y-16918190D01*
X7447619Y-16937238D01*
X7447619Y-16994381D01*
X7438095Y-17013429D01*
X7428571Y-17022952D01*
X7409524Y-17032476D01*
X7380952Y-17032476D01*
X7561905Y-17032476D02*
X7542857Y-17022952D01*
X7533333Y-17003905D01*
X7533333Y-16832476D01*
X7714286Y-17022952D02*
X7695238Y-17032476D01*
X7657143Y-17032476D01*
X7638095Y-17022952D01*
X7628571Y-17003905D01*
X7628571Y-16927714D01*
X7638095Y-16908667D01*
X7657143Y-16899143D01*
X7695238Y-16899143D01*
X7714286Y-16908667D01*
X7723809Y-16927714D01*
X7723809Y-16946762D01*
X7628571Y-16965810D01*
X7800000Y-17022952D02*
X7819048Y-17032476D01*
X7857143Y-17032476D01*
X7876190Y-17022952D01*
X7885714Y-17003905D01*
X7885714Y-16994381D01*
X7876190Y-16975333D01*
X7857143Y-16965810D01*
X7828571Y-16965810D01*
X7809524Y-16956286D01*
X7800000Y-16937238D01*
X7800000Y-16927714D01*
X7809524Y-16908667D01*
X7828571Y-16899143D01*
X7857143Y-16899143D01*
X7876190Y-16908667D01*
X7952381Y-17108667D02*
X7961905Y-17099143D01*
X7980952Y-17070571D01*
X7990476Y-17051524D01*
X8000000Y-17022952D01*
X8009524Y-16975333D01*
X8009524Y-16937238D01*
X8000000Y-16889619D01*
X7990476Y-16861048D01*
X7980952Y-16842000D01*
X7961905Y-16813429D01*
X7952381Y-16803905D01*
D16*
X2925000Y-17271000D02*
X2990000Y-17206000D01*
X2925000Y-17141000D01*
X2860000Y-17206000D01*
X2925000Y-17271000D01*
D11*
X3352381Y-17296476D02*
X3238095Y-17296476D01*
X3295238Y-17296476D02*
X3295238Y-17096476D01*
X3276190Y-17125048D01*
X3257143Y-17144095D01*
X3238095Y-17153619D01*
X3438095Y-17277429D02*
X3447619Y-17286952D01*
X3438095Y-17296476D01*
X3428571Y-17286952D01*
X3438095Y-17277429D01*
X3438095Y-17296476D01*
X3514286Y-17096476D02*
X3638095Y-17096476D01*
X3571428Y-17172667D01*
X3600000Y-17172667D01*
X3619048Y-17182190D01*
X3628571Y-17191714D01*
X3638095Y-17210762D01*
X3638095Y-17258381D01*
X3628571Y-17277429D01*
X3619048Y-17286952D01*
X3600000Y-17296476D01*
X3542857Y-17296476D01*
X3523809Y-17286952D01*
X3514286Y-17277429D01*
X3761905Y-17096476D02*
X3780952Y-17096476D01*
X3800000Y-17106000D01*
X3809524Y-17115524D01*
X3819048Y-17134571D01*
X3828571Y-17172667D01*
X3828571Y-17220286D01*
X3819048Y-17258381D01*
X3809524Y-17277429D01*
X3800000Y-17286952D01*
X3780952Y-17296476D01*
X3761905Y-17296476D01*
X3742857Y-17286952D01*
X3733333Y-17277429D01*
X3723809Y-17258381D01*
X3714286Y-17220286D01*
X3714286Y-17172667D01*
X3723809Y-17134571D01*
X3733333Y-17115524D01*
X3742857Y-17106000D01*
X3761905Y-17096476D01*
X3952381Y-17096476D02*
X3971428Y-17096476D01*
X3990476Y-17106000D01*
X4000000Y-17115524D01*
X4009524Y-17134571D01*
X4019048Y-17172667D01*
X4019048Y-17220286D01*
X4009524Y-17258381D01*
X4000000Y-17277429D01*
X3990476Y-17286952D01*
X3971428Y-17296476D01*
X3952381Y-17296476D01*
X3933333Y-17286952D01*
X3923809Y-17277429D01*
X3914286Y-17258381D01*
X3904762Y-17220286D01*
X3904762Y-17172667D01*
X3914286Y-17134571D01*
X3923809Y-17115524D01*
X3933333Y-17106000D01*
X3952381Y-17096476D01*
X4104762Y-17296476D02*
X4104762Y-17163143D01*
X4104762Y-17182190D02*
X4114286Y-17172667D01*
X4133333Y-17163143D01*
X4161905Y-17163143D01*
X4180952Y-17172667D01*
X4190476Y-17191714D01*
X4190476Y-17296476D01*
X4190476Y-17191714D02*
X4200000Y-17172667D01*
X4219048Y-17163143D01*
X4247619Y-17163143D01*
X4266667Y-17172667D01*
X4276190Y-17191714D01*
X4276190Y-17296476D01*
X4371429Y-17296476D02*
X4371429Y-17163143D01*
X4371429Y-17182190D02*
X4380952Y-17172667D01*
X4400000Y-17163143D01*
X4428571Y-17163143D01*
X4447619Y-17172667D01*
X4457143Y-17191714D01*
X4457143Y-17296476D01*
X4457143Y-17191714D02*
X4466667Y-17172667D01*
X4485714Y-17163143D01*
X4514286Y-17163143D01*
X4533333Y-17172667D01*
X4542857Y-17191714D01*
X4542857Y-17296476D01*
X4933333Y-17086952D02*
X4761905Y-17344095D01*
X5190476Y-17096476D02*
X5209524Y-17096476D01*
X5228571Y-17106000D01*
X5238095Y-17115524D01*
X5247619Y-17134571D01*
X5257143Y-17172667D01*
X5257143Y-17220286D01*
X5247619Y-17258381D01*
X5238095Y-17277429D01*
X5228571Y-17286952D01*
X5209524Y-17296476D01*
X5190476Y-17296476D01*
X5171429Y-17286952D01*
X5161905Y-17277429D01*
X5152381Y-17258381D01*
X5142857Y-17220286D01*
X5142857Y-17172667D01*
X5152381Y-17134571D01*
X5161905Y-17115524D01*
X5171429Y-17106000D01*
X5190476Y-17096476D01*
X5342857Y-17277429D02*
X5352381Y-17286952D01*
X5342857Y-17296476D01*
X5333333Y-17286952D01*
X5342857Y-17277429D01*
X5342857Y-17296476D01*
X5476190Y-17096476D02*
X5495238Y-17096476D01*
X5514286Y-17106000D01*
X5523810Y-17115524D01*
X5533333Y-17134571D01*
X5542857Y-17172667D01*
X5542857Y-17220286D01*
X5533333Y-17258381D01*
X5523810Y-17277429D01*
X5514286Y-17286952D01*
X5495238Y-17296476D01*
X5476190Y-17296476D01*
X5457143Y-17286952D01*
X5447619Y-17277429D01*
X5438095Y-17258381D01*
X5428571Y-17220286D01*
X5428571Y-17172667D01*
X5438095Y-17134571D01*
X5447619Y-17115524D01*
X5457143Y-17106000D01*
X5476190Y-17096476D01*
X5723809Y-17096476D02*
X5628571Y-17096476D01*
X5619048Y-17191714D01*
X5628571Y-17182190D01*
X5647619Y-17172667D01*
X5695238Y-17172667D01*
X5714286Y-17182190D01*
X5723809Y-17191714D01*
X5733333Y-17210762D01*
X5733333Y-17258381D01*
X5723809Y-17277429D01*
X5714286Y-17286952D01*
X5695238Y-17296476D01*
X5647619Y-17296476D01*
X5628571Y-17286952D01*
X5619048Y-17277429D01*
X5923809Y-17296476D02*
X5809524Y-17296476D01*
X5866667Y-17296476D02*
X5866667Y-17096476D01*
X5847619Y-17125048D01*
X5828571Y-17144095D01*
X5809524Y-17153619D01*
X6000000Y-17115524D02*
X6009524Y-17106000D01*
X6028571Y-17096476D01*
X6076190Y-17096476D01*
X6095238Y-17106000D01*
X6104762Y-17115524D01*
X6114286Y-17134571D01*
X6114286Y-17153619D01*
X6104762Y-17182190D01*
X5990476Y-17296476D01*
X6114286Y-17296476D01*
X6190476Y-17096476D02*
X6190476Y-17134571D01*
X6266667Y-17096476D02*
X6266667Y-17134571D01*
X6561905Y-17372667D02*
X6552381Y-17363143D01*
X6533333Y-17334571D01*
X6523809Y-17315524D01*
X6514286Y-17286952D01*
X6504762Y-17239333D01*
X6504762Y-17201238D01*
X6514286Y-17153619D01*
X6523809Y-17125048D01*
X6533333Y-17106000D01*
X6552381Y-17077429D01*
X6561905Y-17067905D01*
X6628571Y-17115524D02*
X6638095Y-17106000D01*
X6657143Y-17096476D01*
X6704762Y-17096476D01*
X6723809Y-17106000D01*
X6733333Y-17115524D01*
X6742857Y-17134571D01*
X6742857Y-17153619D01*
X6733333Y-17182190D01*
X6619048Y-17296476D01*
X6742857Y-17296476D01*
X6980952Y-17296476D02*
X6980952Y-17096476D01*
X7066667Y-17296476D02*
X7066667Y-17191714D01*
X7057143Y-17172667D01*
X7038095Y-17163143D01*
X7009524Y-17163143D01*
X6990476Y-17172667D01*
X6980952Y-17182190D01*
X7190476Y-17296476D02*
X7171428Y-17286952D01*
X7161905Y-17277429D01*
X7152381Y-17258381D01*
X7152381Y-17201238D01*
X7161905Y-17182190D01*
X7171428Y-17172667D01*
X7190476Y-17163143D01*
X7219048Y-17163143D01*
X7238095Y-17172667D01*
X7247619Y-17182190D01*
X7257143Y-17201238D01*
X7257143Y-17258381D01*
X7247619Y-17277429D01*
X7238095Y-17286952D01*
X7219048Y-17296476D01*
X7190476Y-17296476D01*
X7371428Y-17296476D02*
X7352381Y-17286952D01*
X7342857Y-17267905D01*
X7342857Y-17096476D01*
X7523809Y-17286952D02*
X7504762Y-17296476D01*
X7466667Y-17296476D01*
X7447619Y-17286952D01*
X7438095Y-17267905D01*
X7438095Y-17191714D01*
X7447619Y-17172667D01*
X7466667Y-17163143D01*
X7504762Y-17163143D01*
X7523809Y-17172667D01*
X7533333Y-17191714D01*
X7533333Y-17210762D01*
X7438095Y-17229810D01*
X7609524Y-17286952D02*
X7628571Y-17296476D01*
X7666667Y-17296476D01*
X7685714Y-17286952D01*
X7695238Y-17267905D01*
X7695238Y-17258381D01*
X7685714Y-17239333D01*
X7666667Y-17229810D01*
X7638095Y-17229810D01*
X7619048Y-17220286D01*
X7609524Y-17201238D01*
X7609524Y-17191714D01*
X7619048Y-17172667D01*
X7638095Y-17163143D01*
X7666667Y-17163143D01*
X7685714Y-17172667D01*
X7761905Y-17372667D02*
X7771428Y-17363143D01*
X7790476Y-17334571D01*
X7800000Y-17315524D01*
X7809524Y-17286952D01*
X7819048Y-17239333D01*
X7819048Y-17201238D01*
X7809524Y-17153619D01*
X7800000Y-17125048D01*
X7790476Y-17106000D01*
X7771428Y-17077429D01*
X7761905Y-17067905D01*
M02*
